<?xml version="1.0" encoding="UTF-8" standalone="no"?>
<!DOCTYPE svg PUBLIC "-//W3C//DTD SVG 1.1//EN" "http://www.w3.org/Graphics/SVG/1.1/DTD/svg11.dtd">
<svg width="100%" height="100%" viewBox="0 0 507 420" version="1.1" xmlns="http://www.w3.org/2000/svg" xmlns:xlink="http://www.w3.org/1999/xlink" xml:space="preserve" xmlns:serif="http://www.serif.com/" style="fill-rule:evenodd;clip-rule:evenodd;stroke-linejoin:round;stroke-miterlimit:2;">
    <g transform="matrix(2.56178,0,0,2.56178,-0.00425688,0)">
        <g id="layer1">
            <g id="_905802416">
                <g>
                    <path d="M95.329,162.863C73.585,166.967 43.489,158.255 21.818,129.383C2.09,103.103 0.002,65.016 0.002,36.072C28.513,41.04 65.737,49.608 88.201,73.44C92.377,77.831 95.833,82.295 98.785,86.831C101.737,82.295 105.193,77.831 109.297,73.44C131.833,49.608 169.057,41.04 197.568,36.072C197.496,65.016 195.408,103.103 175.752,129.383C154.081,158.255 123.985,166.967 102.241,162.863C100.873,162.647 99.793,162.359 98.785,161.999C97.777,162.359 96.697,162.647 95.329,162.863Z" style="fill:rgb(110,89,0);"/>
                    <path d="M98.785,161.999C121.033,152.855 144.505,126.863 142.201,85.463C140.329,52.704 117.433,22.176 98.785,0C80.137,22.176 57.169,52.704 55.369,85.463C53.065,126.863 76.537,152.855 98.785,161.999Z" style="fill:rgb(188,153,0);"/>
                    <path d="M27.217,41.76C39.241,44.856 51.553,49.032 62.785,54.864C58.753,64.656 55.945,74.952 55.369,85.463C53.065,126.863 76.537,152.855 98.785,161.999C47.233,158.615 20.81,95.183 27.217,41.76ZM170.353,41.76C158.329,44.856 146.017,49.032 134.785,54.864C138.817,64.656 141.625,74.952 142.201,85.463C144.505,126.863 121.033,152.855 98.785,161.999C150.337,158.615 176.76,95.183 170.353,41.76Z" style="fill:rgb(188,153,0);"/>
                    <path d="M134.785,54.792C125.281,59.688 116.569,65.808 109.297,73.44C105.193,77.831 101.737,82.295 98.785,86.831C95.833,82.295 92.377,77.831 88.201,73.44C81.001,65.808 72.289,59.688 62.785,54.792C58.753,64.656 55.945,74.952 55.369,85.463C53.065,126.791 76.465,152.783 98.641,161.927L98.713,161.927L98.785,161.999L98.857,161.927L98.929,161.927C121.105,152.783 144.505,126.791 142.201,85.463C141.625,74.952 138.817,64.656 134.785,54.792Z" style="fill:rgb(238,205,59);"/>
                    <path d="M98.785,86.831C84.961,108.575 77.977,140.255 98.785,161.999C119.593,140.255 112.609,108.575 98.785,86.831Z" style="fill:rgb(246,224,126);"/>
                </g>
            </g>
        </g>
    </g>
</svg>
