<?xml version="1.0" encoding="UTF-8" standalone="no"?>
<svg
   id="Capa_2"
   data-name="Capa 2"
   viewBox="0 0 14914.24 9894.2715"
   version="1.1"
   xml:space="preserve"
   width="14914.239"
   height="9894.2715"
   xmlns="http://www.w3.org/2000/svg"
   xmlns:svg="http://www.w3.org/2000/svg"><defs
     id="defs1"><style
       id="style1">
      .cls-1 {
        fill: #90908f;
      }

      .cls-1, .cls-2, .cls-3, .cls-4, .cls-5 {
        fill-rule: evenodd;
        stroke-width: 0px;
      }

      .cls-2 {
        fill: #dc0626;
      }

      .cls-3 {
        fill: #ffdf00;
      }

      .cls-4 {
        fill: #fff;
      }

      .cls-5 {
        fill: #009843;
      }
    </style></defs><g
     id="Capa_1-2"
     data-name="Capa 1"
     transform="translate(-2986.8607)"><g
       id="g14"><g
         id="g160"><path
           id="path162"
           class="cls-3"
           d="M 88.27,0 87.64,1.14 87,2.2 86.34,3.18 85.69,4.09 85.04,4.9 84.38,5.65 83.71,6.32 83.05,6.9 82.4,7.43 81.74,7.87 81.08,8.25 80.45,8.55 79.79,8.78 79.17,8.95 78.56,9.06 77.93,9.11 H 77.32 C 77.32,9.11 76.71,9 76.71,9 L 76.12,8.86 75.56,8.67 74.98,8.4 74.43,8.07 73.9,7.7 73.39,7.28 72.88,6.82 72.42,6.29 71.95,5.7 71.5,5.07 71.08,4.42 70.69,3.69 70.33,2.94 69.97,2.13 l -0.26,0.86 -0.28,0.83 -0.32,0.8 -0.33,0.79 -0.35,0.74 -0.38,0.71 -0.39,0.67 -0.41,0.64 -0.45,0.59 -0.45,0.55 -0.48,0.51 -0.5,0.46 -0.51,0.41 -0.55,0.37 -0.54,0.3 -0.57,0.27 -0.59,0.2 -0.6,0.14 -0.63,0.09 -0.64,0.03 -0.66,-0.05 -0.65,-0.09 -0.69,-0.17 -0.71,-0.25 -0.73,-0.3 -0.72,-0.38 -0.75,-0.46 -0.76,-0.53 -0.76,-0.61 -0.79,-0.7 -0.81,-0.77 -0.8,-0.86 0.25,1.33 0.17,1.28 0.11,1.22 0.08,1.16 v 1.08 c 0,0 -0.05,1.02 -0.05,1.02 l -0.1,0.98 -0.15,0.9 -0.2,0.85 -0.23,0.81 -0.29,0.73 -0.31,0.69 -0.37,0.61 -0.38,0.57 -0.45,0.52 -0.46,0.46 -0.51,0.41 -0.52,0.35 -0.54,0.31 -0.58,0.27 -0.61,0.18 -0.62,0.15 -0.65,0.11 -0.63,0.06 H 44.2 c 0,0 -0.69,-0.04 -0.69,-0.04 l -0.69,-0.1 -0.69,-0.11 -0.71,-0.19 -0.72,-0.22 -0.71,-0.27 -0.71,-0.32 0.39,0.84 0.37,0.81 0.31,0.79 0.29,0.77 0.23,0.72 0.21,0.73 0.16,0.69 0.13,0.64 0.09,0.64 0.04,0.61 0.02,0.58 -0.03,0.55 -0.07,0.54 -0.11,0.49 -0.16,0.49 -0.18,0.45 -0.22,0.41 -0.27,0.39 -0.3,0.36 -0.35,0.32 -0.37,0.32 -0.43,0.25 -0.46,0.26 -0.49,0.21 -0.55,0.18 -0.56,0.17 -0.63,0.1 -0.65,0.09 -0.71,0.05 -0.74,0.04 -0.79,-0.02 -0.81,-0.03 0.49,0.47 0.44,0.49 0.4,0.51 0.36,0.52 0.31,0.51 0.26,0.55 0.22,0.54 0.2,0.56 0.12,0.55 0.1,0.55 0.05,0.56 0.02,0.54 -0.05,0.54 -0.07,0.55 -0.1,0.53 -0.18,0.51 -0.2,0.51 -0.24,0.48 -0.26,0.49 -0.33,0.45 -0.36,0.44 -0.4,0.41 -0.44,0.4 -0.46,0.34 -0.53,0.33 -0.56,0.3 -0.59,0.27 -0.63,0.23 -0.66,0.2 -0.7,0.16 -0.74,0.11 -0.77,0.08 0.86,0.58 0.84,0.57 0.77,0.61 0.71,0.59 0.69,0.6 0.61,0.61 0.55,0.61 0.51,0.6 0.44,0.63 0.38,0.63 0.3,0.61 0.26,0.65 0.18,0.63 0.09,0.64 0.03,0.64 -0.03,0.66 -0.12,0.67 -0.18,0.66 -0.29,0.67 -0.36,0.68 -0.44,0.68 -0.51,0.68 -0.62,0.68 -0.68,0.7 -0.79,0.69 -0.87,0.71 -0.98,0.7 -1.08,0.72 -1.17,0.72 -1.25,0.72 -1.39,0.73 -1.47,0.74 1.53,-0.05 1.46,-0.04 1.41,-0.02 1.36,-0.02 h 1.29 c 0,0 1.24,0.03 1.24,0.03 l 1.18,0.05 1.13,0.07 1.05,0.08 1.02,0.12 0.95,0.15 0.88,0.18 0.84,0.21 0.79,0.24 0.72,0.29 0.66,0.33 0.62,0.38 0.55,0.4 0.5,0.48 0.45,0.51 0.39,0.56 0.33,0.63 0.27,0.68 0.23,0.75 0.17,0.8 0.09,0.86 0.06,0.93 v 1.01 c 0,0 -0.07,1.06 -0.07,1.06 l -0.1,1.16 -0.17,1.22 -0.21,1.3 0.82,-0.36 0.76,-0.32 0.73,-0.28 0.68,-0.25 0.63,-0.19 0.6,-0.16 0.55,-0.12 0.49,-0.07 0.48,-0.05 h 0.43 c 0,0 0.4,0.06 0.4,0.06 l 0.35,0.07 0.33,0.14 0.27,0.17 0.26,0.21 0.21,0.25 0.19,0.29 0.16,0.32 0.12,0.38 0.11,0.42 0.09,0.46 0.05,0.5 0.03,0.54 v 1.24 c 0,0 -0.05,0.66 -0.05,0.66 l -0.05,0.72 -0.08,0.77 -0.09,0.81 -0.12,0.84 -0.1,0.89 -0.14,0.93 0.87,-0.65 0.83,-0.6 0.8,-0.56 0.8,-0.49 0.75,-0.43 0.74,-0.39 0.71,-0.34 0.67,-0.27 0.66,-0.22 0.63,-0.17 0.61,-0.12 0.59,-0.06 h 0.56 l 0.54,0.04 0.52,0.1 0.49,0.17 0.47,0.2 0.45,0.27 0.43,0.3 0.4,0.38 0.39,0.43 0.35,0.48 0.33,0.53 0.3,0.59 0.29,0.64 0.27,0.69 0.25,0.74 0.23,0.8 0.2,0.85 0.18,0.92 0.17,0.96 0.14,1.03 0.5,-0.73 0.55,-0.69 0.57,-0.64 0.62,-0.6 0.66,-0.6 0.71,-0.53 0.73,-0.5 0.77,-0.44 0.78,-0.41 0.82,-0.36 0.84,-0.32 0.86,-0.26 0.88,-0.22 0.89,-0.18 0.92,-0.12 0.9,-0.05 0.9,-0.03 0.94,0.05 0.9,0.1 0.92,0.16 0.92,0.22 0.9,0.27 0.9,0.35 0.87,0.39 0.86,0.46 0.86,0.54 0.81,0.6 0.79,0.66 0.77,0.73 0.72,0.8 0.72,0.87 0.68,0.96 0.19,-0.73 0.24,-0.7 0.25,-0.67 0.28,-0.65 0.31,-0.6 0.33,-0.57 0.34,-0.54 0.37,-0.5 0.39,-0.45 0.4,-0.43 0.43,-0.4 0.44,-0.34 0.47,-0.31 0.47,-0.27 0.5,-0.22 0.5,-0.19 0.53,-0.13 0.52,-0.1 0.55,-0.05 h 0.55 c 0,0 0.56,0.05 0.56,0.05 l 0.57,0.08 0.57,0.13 0.59,0.2 0.59,0.23 0.6,0.28 0.59,0.35 0.6,0.39 0.61,0.45 0.59,0.5 0.61,0.56 0.61,0.61 v -0.81 c 0,0 0.03,-0.8 0.03,-0.8 l 0.03,-0.74 0.06,-0.75 0.09,-0.69 0.07,-0.69 0.12,-0.66 0.13,-0.61 0.14,-0.6 0.18,-0.55 0.18,-0.54 0.2,-0.5 0.23,-0.48 0.26,-0.43 0.29,-0.38 0.31,-0.36 0.33,-0.34 0.35,-0.28 0.39,-0.26 0.42,-0.22 0.44,-0.18 0.47,-0.13 0.51,-0.1 0.53,-0.04 0.58,-0.02 0.59,0.02 0.63,0.08 0.67,0.11 0.71,0.14 0.74,0.22 0.79,0.26 0.81,0.31 -0.3,-0.78 -0.27,-0.76 -0.22,-0.74 -0.17,-0.72 -0.12,-0.69 -0.07,-0.69 -0.04,-0.63 0.02,-0.63 0.05,-0.59 0.09,-0.59 0.13,-0.54 0.17,-0.54 0.21,-0.49 0.25,-0.46 0.29,-0.45 0.33,-0.42 0.34,-0.38 0.4,-0.35 0.43,-0.34 0.46,-0.29 0.49,-0.27 0.51,-0.22 0.55,-0.2 0.56,-0.17 0.63,-0.11 0.63,-0.11 0.65,-0.07 0.68,-0.02 h 0.72 c 0,0 0.75,0.05 0.75,0.05 l 0.75,0.08 0.79,0.13 -0.53,-0.52 -0.45,-0.54 -0.44,-0.55 -0.39,-0.55 -0.34,-0.55 -0.33,-0.55 -0.26,-0.55 -0.23,-0.56 -0.19,-0.55 -0.16,-0.54 -0.11,-0.56 -0.07,-0.54 -0.02,-0.53 0.02,-0.55 0.06,-0.52 0.1,-0.52 0.15,-0.52 0.2,-0.5 0.23,-0.49 0.28,-0.48 0.31,-0.48 0.36,-0.46 0.41,-0.45 0.46,-0.42 0.51,-0.42 0.56,-0.39 0.59,-0.38 0.64,-0.37 0.71,-0.34 0.73,-0.32 0.8,-0.3 0.86,-0.28 -0.5,-0.42 -0.46,-0.46 -0.47,-0.44 -0.43,-0.45 -0.43,-0.46 -0.39,-0.45 -0.38,-0.48 -0.37,-0.46 -0.31,-0.47 -0.31,-0.47 -0.27,-0.48 -0.22,-0.49 -0.2,-0.5 -0.18,-0.49 -0.11,-0.51 -0.07,-0.52 -0.04,-0.51 v -0.53 c 0,0 0.06,-0.53 0.06,-0.53 l 0.13,-0.56 0.15,-0.53 0.21,-0.57 0.28,-0.58 0.33,-0.57 0.4,-0.59 0.46,-0.61 0.52,-0.61 0.61,-0.61 0.66,-0.65 0.74,-0.64 0.82,-0.67 0.88,-0.68 -0.79,0.1 -0.74,0.05 h -0.71 c 0,0 -0.67,-0.03 -0.67,-0.03 l -0.61,-0.07 -0.57,-0.1 -0.53,-0.14 -0.49,-0.17 -0.44,-0.2 -0.42,-0.24 -0.35,-0.27 -0.33,-0.29 -0.29,-0.34 -0.23,-0.36 -0.21,-0.4 -0.16,-0.43 -0.11,-0.47 -0.08,-0.47 -0.04,-0.51 V 36.2 l 0.04,-0.56 0.07,-0.6 0.11,-0.61 0.15,-0.64 0.2,-0.66 0.21,-0.68 0.27,-0.72 0.3,-0.72 0.34,-0.75 0.37,-0.77 0.42,-0.79 0.44,-0.81 -1.02,0.32 -0.95,0.23 -0.9,0.17 -0.86,0.1 -0.8,0.04 -0.76,-0.03 -0.71,-0.09 -0.67,-0.15 -0.63,-0.2 -0.57,-0.26 -0.53,-0.3 -0.48,-0.34 -0.44,-0.39 -0.41,-0.44 -0.37,-0.48 -0.3,-0.49 -0.28,-0.54 -0.23,-0.56 -0.2,-0.6 -0.16,-0.62 -0.14,-0.64 -0.1,-0.65 -0.07,-0.68 -0.02,-0.69 v -0.68 l 0.03,-0.7 0.08,-0.73 0.11,-0.7 0.12,-0.71 0.15,-0.7 0.17,-0.7 0.19,-0.7 -0.78,0.41 -0.77,0.36 -0.76,0.3 -0.72,0.24 -0.71,0.19 -0.7,0.14 -0.67,0.09 -0.66,0.02 h -0.63 c 0,0 -0.61,-0.06 -0.61,-0.06 l -0.57,-0.11 -0.56,-0.16 -0.54,-0.19 -0.49,-0.27 -0.48,-0.29 -0.45,-0.34 -0.42,-0.37 -0.38,-0.44 -0.36,-0.48 -0.33,-0.48 -0.29,-0.56 -0.26,-0.59 -0.23,-0.62 -0.18,-0.68 -0.16,-0.7 -0.12,-0.75 -0.08,-0.76 -0.04,-0.82 V 7.23 c 0,0 0.04,-0.88 0.04,-0.88 l 0.07,-0.91 0.13,-0.94 -0.75,0.85 -0.73,0.8 -0.71,0.7 -0.71,0.65 -0.72,0.55 -0.68,0.5 -0.68,0.43 -0.67,0.38 -0.66,0.29 -0.65,0.24 -0.65,0.15 -0.61,0.09 -0.61,0.05 -0.6,-0.03 L 95.52,10.06 94.94,9.91 94.39,9.7 93.86,9.43 93.35,9.1 92.84,8.71 92.37,8.28 91.92,7.78 91.46,7.25 91.03,6.64 90.65,6 90.26,5.29 89.89,4.54 89.54,3.74 89.23,2.9 88.92,2 88.64,1.06 88.4,0.07 Z"
           style="fill:#f6e07e;fill-opacity:1" /></g><g
         id="g164"><path
           id="path166"
           class="cls-4"
           d="m 106.22,38.54 0.34,0.42 0.32,0.38 0.31,0.33 0.32,0.29 0.3,0.25 0.31,0.21 0.29,0.16 0.28,0.13 0.28,0.1 0.24,0.06 0.27,0.02 h 0.24 c 0,0 0.21,-0.04 0.21,-0.04 l 0.22,-0.07 0.18,-0.08 0.19,-0.14 0.15,-0.13 0.13,-0.16 0.13,-0.19 0.1,-0.2 0.07,-0.23 0.06,-0.25 0.04,-0.24 V 38.9 c 0,0 0,-0.28 0,-0.28 l -0.04,-0.29 -0.06,-0.3 -0.09,-0.3 -0.13,-0.3 -0.16,-0.32 -0.18,-0.31 -0.21,-0.3 -0.52,-0.68 -0.57,-0.61 -0.59,-0.56 -0.65,-0.54 -0.67,-0.47 -0.71,-0.43 -0.73,-0.38 -0.78,-0.34 -0.79,-0.29 -0.8,-0.25 -0.83,-0.18 -0.83,-0.15 -0.84,-0.08 -0.87,-0.03 h -0.88 c 0,0 -0.88,0.08 -0.88,0.08 l -0.87,0.12 -0.87,0.19 -0.86,0.23 -0.87,0.29 -0.86,0.34 -0.84,0.39 -0.83,0.47 -0.82,0.52 -0.78,0.58 -0.76,0.63 -0.74,0.7 -0.71,0.75 -0.69,0.82 -0.64,0.86 -0.6,0.95 -0.57,1 -0.03,0.09 -0.02,0.11 v 0.09 c 0,0 0,0.09 0,0.09 v 0.09 c 0,0 0.03,0.06 0.03,0.06 l 0.02,0.07 0.04,0.08 0.05,0.06 0.07,0.05 0.05,0.05 0.07,0.04 0.07,0.04 0.09,0.03 0.09,0.02 0.09,0.03 h 0.1 c 0,0 0.09,0 0.09,0 h 0.29 c 0,0 0.1,-0.04 0.1,-0.04 l 0.09,-0.02 0.1,-0.04 0.1,-0.04 0.08,-0.05 0.09,-0.07 0.08,-0.06 0.08,-0.07 0.08,-0.09 0.06,-0.07 0.06,-0.09 0.46,-0.65 0.47,-0.61 0.5,-0.59 0.5,-0.55 0.53,-0.54 0.54,-0.49 0.55,-0.45 0.58,-0.42 0.57,-0.4 0.59,-0.35 0.59,-0.33 0.6,-0.29 0.61,-0.25 0.61,-0.21 0.63,-0.17 0.62,-0.13 0.63,-0.1 0.6,-0.04 h 0.63 c 0,0 0.62,0.04 0.62,0.04 l 0.62,0.09 0.59,0.12 0.61,0.19 0.58,0.22 0.59,0.27 0.59,0.34 0.56,0.37 0.55,0.42 0.53,0.48 0.53,0.54 0.51,0.56 0.48,0.64 z M 80.32,38.14 80.29,37.95 80.25,37.78 80.21,37.64 80.17,37.51 80.09,37.39 80.03,37.28 79.97,37.2 79.9,37.11 79.82,37.04 79.73,37 79.64,36.95 79.56,36.92 79.47,36.88 h -0.09 c 0,0 -0.11,0 -0.11,0 h -0.09 l -0.1,0.04 h -0.09 c 0,0 -0.09,0.05 -0.09,0.05 l -0.1,0.04 -0.07,0.05 -0.09,0.07 -0.08,0.07 -0.07,0.07 -0.07,0.08 -0.07,0.09 -0.05,0.1 -0.06,0.09 -0.05,0.12 -0.03,0.11 -0.03,0.13 -0.02,0.12 v 0.66 c 0,0 0.02,0.66 0.02,0.66 l 0.02,0.65 0.05,0.66 0.06,0.66 0.08,0.63 0.09,0.63 0.11,0.63 0.11,0.62 0.13,0.62 0.16,0.61 0.15,0.61 0.18,0.59 0.19,0.6 0.2,0.56 0.22,0.58 0.24,0.58 0.25,0.56 0.25,0.54 0.27,0.55 0.29,0.54 0.3,0.53 0.3,0.52 0.32,0.52 0.35,0.49 0.34,0.51 0.36,0.47 0.37,0.48 0.37,0.46 0.41,0.46 0.41,0.43 0.42,0.45 0.22,0.17 0.17,0.17 0.19,0.13 0.19,0.1 0.18,0.08 0.17,0.05 0.18,0.04 h 0.34 l 0.14,-0.02 0.15,-0.05 0.14,-0.04 0.14,-0.08 0.13,-0.09 0.11,-0.09 0.11,-0.12 0.1,-0.11 0.09,-0.15 0.08,-0.12 0.06,-0.14 0.05,-0.17 0.03,-0.14 0.02,-0.16 0.03,-0.17 -0.02,-0.17 -0.02,-0.15 -0.03,-0.17 -0.05,-0.15 -0.07,-0.14 -0.1,-0.17 -0.09,-0.14 -0.15,-0.14 -0.38,-0.48 -0.39,-0.47 -0.38,-0.47 -0.37,-0.45 -0.33,-0.46 -0.34,-0.46 -0.32,-0.45 -0.33,-0.45 -0.28,-0.45 -0.29,-0.45 -0.29,-0.45 -0.26,-0.46 -0.25,-0.45 -0.25,-0.46 -0.24,-0.46 -0.22,-0.47 -0.22,-0.47 -0.2,-0.48 -0.2,-0.48 -0.19,-0.48 -0.18,-0.51 -0.17,-0.49 -0.15,-0.52 -0.15,-0.52 -0.14,-0.53 -0.14,-0.55 -0.13,-0.55 -0.11,-0.58 -0.1,-0.57 -0.1,-0.61 -0.09,-0.61 -0.08,-0.62 z M 44.26,45 l 0.77,-1.19 0.77,-1.11 0.77,-1.02 0.8,-0.94 0.82,-0.86 0.81,-0.79 0.83,-0.73 0.84,-0.65 0.86,-0.56 0.84,-0.52 0.82,-0.43 0.85,-0.37 0.85,-0.32 0.84,-0.23 0.82,-0.19 0.81,-0.15 0.79,-0.07 0.8,-0.03 0.79,0.03 0.74,0.06 0.73,0.15 0.7,0.16 0.7,0.22 0.66,0.25 0.64,0.31 0.6,0.33 0.57,0.38 0.55,0.41 0.5,0.44 0.47,0.46 0.43,0.52 0.39,0.53 0.16,0.25 0.13,0.25 0.11,0.24 0.08,0.21 0.05,0.23 0.02,0.21 v 0.2 c 0,0 -0.01,0.2 -0.01,0.2 l -0.02,0.17 -0.05,0.17 -0.07,0.17 -0.09,0.14 -0.11,0.13 -0.1,0.12 -0.12,0.12 -0.14,0.1 -0.14,0.1 -0.15,0.08 -0.15,0.05 -0.17,0.06 -0.16,0.03 -0.17,0.03 -0.16,0.02 h -0.19 c 0,0 -0.16,-0.02 -0.16,-0.02 L 65.66,42.32 65.51,42.29 65.34,42.22 65.19,42.14 65.04,42.07 64.93,41.97 64.82,41.85 64.26,41.1 63.71,40.43 63.12,39.83 62.53,39.33 61.92,38.89 61.3,38.52 60.66,38.22 60,38 59.34,37.84 58.67,37.71 58,37.68 h -0.67 c 0,0 -0.67,0.07 -0.67,0.07 l -0.68,0.12 -0.65,0.16 -0.68,0.22 -0.66,0.25 -0.64,0.29 -0.65,0.33 -0.62,0.35 -0.62,0.41 -0.58,0.41 -0.59,0.46 -0.56,0.47 -0.52,0.5 -0.52,0.51 -0.49,0.53 -0.45,0.54 -0.42,0.55 -0.41,0.56 -0.37,0.58 -0.33,0.55 -0.09,0.21 -0.11,0.17 -0.11,0.16 -0.11,0.14 -0.11,0.12 -0.09,0.12 -0.11,0.09 -0.1,0.08 -0.11,0.07 -0.1,0.03 -0.09,0.03 -0.12,0.03 h -0.1 c 0,0 -0.08,0 -0.08,0 L 44.69,46.76 44.62,46.72 44.54,46.69 44.45,46.63 44.38,46.56 44.33,46.49 44.29,46.4 44.23,46.31 44.2,46.2 44.16,46.09 44.13,45.97 v -0.13 c 0,0 0,-0.11 0,-0.11 v -0.15 c 0,0 0.04,-0.16 0.04,-0.16 l 0.04,-0.15 0.04,-0.15 0.05,-0.17 z m 11.71,20.85 0.81,-0.32 0.59,-0.23 0.13,-0.04 0.11,-0.05 h 0.12 c 0,0 0.08,-0.03 0.08,-0.03 h 0.1 c 0,0 0.1,0 0.1,0 h 0.16 c 0,0 0.08,0.04 0.08,0.04 l 0.09,0.05 0.09,0.03 0.09,0.03 0.2,0.13 0.24,0.15 0.59,0.44 0.82,0.58 0.66,0.42 0.66,0.42 0.69,0.43 0.67,0.42 0.7,0.42 0.71,0.42 0.71,0.43 0.72,0.4 0.75,0.4 0.74,0.4 0.74,0.39 0.77,0.37 0.76,0.37 0.79,0.36 0.78,0.34 0.8,0.33 0.8,0.31 0.82,0.3 0.79,0.29 0.83,0.26 0.83,0.25 0.84,0.21 0.84,0.2 0.85,0.17 0.86,0.17 0.85,0.13 0.87,0.11 0.87,0.07 0.89,0.05 0.89,0.03 h 0.88 l 0.9,-0.04 0.92,-0.07 0.95,-0.12 0.97,-0.18 1.01,-0.21 1.01,-0.27 1.03,-0.3 1.03,-0.34 1.04,-0.38 1.04,-0.42 1.04,-0.45 1.04,-0.5 1.02,-0.52 1.01,-0.55 0.98,-0.58 0.96,-0.61 0.95,-0.65 0.91,-0.66 0.87,-0.69 0.84,-0.71 0.78,-0.72 0.75,-0.75 0.68,-0.76 0.63,-0.79 0.58,-0.81 0.51,-0.81 0.42,-0.82 0.37,-0.84 0.29,-0.84 0.21,-0.85 0.12,-0.86 0.04,-0.86 -0.07,-0.86 -0.31,0.6 -0.35,0.6 -0.4,0.62 -0.43,0.61 -0.46,0.63 -0.5,0.61 -0.52,0.61 -0.55,0.62 -0.58,0.6 -0.6,0.59 -0.64,0.6 -0.63,0.58 -0.68,0.56 -0.69,0.55 -0.71,0.53 -0.73,0.51 -0.75,0.52 -0.76,0.49 -0.75,0.46 -0.79,0.44 -0.79,0.41 -0.79,0.38 -0.81,0.36 -0.81,0.33 -0.82,0.3 -0.82,0.27 -0.81,0.22 -0.81,0.19 -0.81,0.15 -0.81,0.12 -0.81,0.07 -0.8,0.02 h -0.79 c 0,0 -0.8,0 -0.8,0 h -0.8 c 0,0 -0.8,-0.02 -0.8,-0.02 h -0.81 c 0,0 -0.81,-0.05 -0.81,-0.05 L 82.42,70.74 81.61,70.68 80.79,70.63 79.97,70.56 79.15,70.48 78.33,70.41 77.49,70.31 76.67,70.21 75.83,70.08 75,69.96 74.17,69.81 73.34,69.66 72.5,69.48 71.67,69.3 70.82,69.11 69.98,68.89 69.12,68.67 68.29,68.43 67.45,68.18 66.6,67.9 65.75,67.61 64.91,67.31 64.05,66.97 63.2,66.62 62.37,66.25 61.52,65.87 61.19,65.72 60.71,65.51 60.44,65.37 60.16,65.23 59.86,65.04 59.56,64.87 59.42,64.78 59.29,64.68 59.14,64.55 59.03,64.44 58.9,64.33 58.77,64.21 58.67,64.08 58.56,63.95 58.48,63.82 58.4,63.68 58.32,63.54 58.29,63.39 58.24,63.25 58.21,63.1 58.18,62.93 58.2,62.78 58.14,62.74 h -0.19 c 0,0 -0.08,0.04 -0.08,0.04 l -0.08,0.03 -0.1,0.05 -0.09,0.06 -0.1,0.06 -0.11,0.08 -0.09,0.08 -0.11,0.09 -0.09,0.1 -0.11,0.11 -0.11,0.11 -0.1,0.12 -0.1,0.13 -0.09,0.13 -0.09,0.13 -0.09,0.14 -0.07,0.13 -0.09,0.14 -0.05,0.15 -0.07,0.15 -0.05,0.14 -0.05,0.13 -0.03,0.15 -0.02,0.14 -0.03,0.15 v 0.26 l 0.03,0.13 z" /></g></g></g></svg>
