<?xml version="1.0" encoding="UTF-8" standalone="no"?>
<!DOCTYPE svg PUBLIC "-//W3C//DTD SVG 1.1//EN" "http://www.w3.org/Graphics/SVG/1.1/DTD/svg11.dtd">
<svg width="100%" height="100%" viewBox="0 0 2305 1337" version="1.1" xmlns="http://www.w3.org/2000/svg" xmlns:xlink="http://www.w3.org/1999/xlink" xml:space="preserve" xmlns:serif="http://www.serif.com/" style="fill-rule:evenodd;clip-rule:evenodd;stroke-linejoin:round;stroke-miterlimit:2;">
    <rect x="0" y="0" width="2305" height="1337" style="fill:rgb(207,234,253);"/>
    <g transform="matrix(9.22292,0,0,9.22292,-7569.12,-4608.19)">
        <g id="provs">
            <g id="provincesBody">
                <path id="province2" d="M657,175L655,174L654,175L654,176L653,177L653,178L652,179L651,181L650,180L646,182L645,184L644,184L644,183L642,182L641,182L640,181L637,180L637,183L636,185L637,187L639,187L639,189L638,191L637,192L635,193L635,194L633,194L633,196L632,196L632,198L631,198L629,197L629,196L627,196L627,195L625,194L624,194L624,196L625,198L626,198L627,199L627,203L630,203L630,202L632,202L633,205L634,205L634,206L636,206L637,207L638,207L640,209L641,211L643,209L642,208L643,206L644,206L645,207L647,208L647,207L651,207L653,206L655,208L655,209L656,211L658,210L659,209L659,208L660,208L660,206L661,205L662,205L663,207L665,206L666,207L669,207L670,209L669,210L666,210L666,215L667,215L667,218L666,218L666,219L667,220L669,220L670,221L671,221L673,222L672,224L670,224L670,226L669,227L669,228L666,231L665,231L664,232L663,232L662,231L661,233L661,235L660,236L659,235L656,235L655,233L655,230L653,230L653,231L648,231L644,233L644,237L645,237L645,239L646,240L646,241L647,242L648,244L647,246L645,245L644,247L645,247L645,248L646,249L645,250L646,251L646,255L648,256L649,257L649,259L647,260L648,260L646,264L644,265L644,267L643,268L642,270L641,270L640,271L638,272L638,273L636,273L636,274L634,275L634,274L632,276L630,276L629,274L625,274L624,272L624,271L623,270L621,269L620,270L620,273L619,274L618,273L616,274L616,276L615,277L617,278L616,280L617,281L616,283L616,285L615,286L616,288L617,288L618,289L619,289L622,292L622,294L619,294L618,296L618,297L616,297L616,295L614,295L613,296L612,296L611,298L610,297L608,298L606,298L605,299L605,300L606,301L606,304L603,305L601,305L598,303L598,301L596,299L596,298L593,298L592,299L593,301L592,302L592,303L594,304L596,306L595,307L593,307L592,308L591,310L592,312L591,314L589,314L588,315L587,315L585,316L585,317L586,318L587,317L588,318L590,318L591,320L593,321L594,321L595,322L596,322L597,324L601,324L602,323L606,321L608,321L608,322L613,322L613,319L614,319L614,317L616,315L617,315L619,316L620,317L626,317L627,319L627,321L628,322L629,322L630,323L630,326L632,327L632,328L634,329L635,330L637,328L639,328L638,330L639,331L639,332L640,333L639,334L641,335L641,334L643,335L644,335L645,337L646,338L648,337L648,339L649,339L650,340L650,341L651,342L651,343L653,345L654,344L655,345L656,345L657,346L657,347L659,348L662,348L663,349L662,352L660,350L660,351L659,352L660,353L663,353L665,355L666,357L666,358L668,358L670,357L672,355L674,355L675,354L676,354L677,353L679,353L681,355L681,356L683,355L684,354L686,354L687,353L688,353L689,352L691,351L692,352L692,353L691,354L691,355L690,356L690,361L693,361L694,360L696,360L698,361L700,363L700,365L703,365L703,366L705,366L707,367L707,368L709,369L710,371L711,371L711,369L712,369L712,367L715,367L716,366L717,366L718,364L719,364L719,365L721,364L723,365L722,367L723,369L725,367L726,368L727,367L729,367L729,366L733,362L734,362L732,361L733,359L735,358L735,359L737,361L737,365L740,364L740,362L741,362L741,361L742,361L743,360L743,359L744,358L745,358L747,360L749,360L751,359L750,356L749,356L749,355L746,355L746,352L748,352L750,353L753,353L755,354L756,354L757,355L759,354L758,352L761,349L764,349L764,348L766,349L768,353L770,354L770,356L771,357L772,357L773,359L774,358L775,359L776,358L777,358L778,357L780,358L779,360L779,361L778,363L778,365L777,367L777,369L776,370L776,371L775,372L774,372L773,373L770,373L769,371L770,370L769,368L770,367L767,364L768,363L767,362L765,362L763,364L763,365L762,366L763,368L762,369L760,368L760,366L758,367L758,369L759,369L759,371L760,371L760,373L759,374L758,374L757,375L755,375L752,377L752,379L750,379L749,378L745,380L745,378L746,377L746,376L745,375L744,375L742,374L741,374L739,375L740,377L739,379L739,380L740,380L739,382L739,383L740,384L739,385L740,387L742,387L743,386L743,385L744,384L746,384L746,385L748,384L750,385L747,388L746,387L745,387L744,389L744,391L743,392L744,394L745,395L746,395L748,396L749,395L750,396L750,399L751,400L751,404L752,405L753,407L752,407L752,410L753,412L753,413L757,413L758,414L759,416L758,417L757,419L758,420L758,421L760,420L761,419L762,419L763,421L765,421L765,422L769,422L771,424L771,425L770,426L770,430L769,430L769,432L768,432L768,434L770,436L768,438L767,438L766,439L767,440L769,441L774,441L774,446L775,446L775,447L776,449L777,448L779,448L781,446L781,445L780,445L781,444L779,442L780,441L782,442L782,443L783,444L783,445L786,445L786,443L787,442L788,442L789,441L791,441L797,447L797,451L795,452L794,454L794,455L795,456L797,455L798,456L799,454L800,454L800,457L798,458L796,458L794,461L795,461L795,462L796,462L797,464L798,465L799,465L800,463L800,460L801,459L802,459L804,458L804,457L805,456L806,457L808,457L809,459L810,459L811,460L812,460L814,461L815,461L816,462L817,461L819,462L819,461L820,460L818,458L818,456L820,456L820,450L821,449L823,450L823,451L825,452L826,450L825,449L825,448L821,444L820,442L821,442L820,440L821,439L825,439L826,440L828,441L829,441L831,439L831,438L832,438L832,435L831,435L830,434L828,434L828,431L832,431L834,433L834,436L835,436L835,438L836,439L838,438L841,441L843,442L843,444L844,445L844,450L843,451L844,452L843,453L843,454L841,455L841,457L840,458L840,461L839,463L838,463L836,465L836,467L837,467L837,471L838,472L839,474L840,474L840,476L842,478L844,476L846,475L847,475L848,474L850,474L850,473L852,472L856,472L858,471L859,471L861,472L861,473L860,474L858,474L856,475L852,475L852,476L851,477L850,477L849,479L848,479L846,481L845,481L843,483L843,484L842,484L842,486L841,486L840,487L841,488L840,489L840,490L838,492L837,491L835,490L833,492L833,496L832,496L829,499L828,499L827,500L826,500L825,501L824,501L822,502L821,502L820,503L816,503L816,505L817,506L817,508L814,508L814,507L810,507L810,509L812,509L814,510L814,511L816,511L816,510L819,510L820,509L820,508L822,505L825,505L826,504L829,505L832,505L835,506L836,505L836,506L837,508L836,508L836,510L838,511L839,512L840,512L842,513L843,513L844,511L846,511L848,512L848,511L850,512L852,511L853,512L852,514L853,514L853,516L854,517L855,516L857,518L857,522L856,522L855,523L854,523L852,521L852,520L850,519L849,522L849,523L850,524L850,526L851,528L851,529L849,529L848,528L846,527L845,526L843,526L843,527L841,529L840,529L840,530L838,531L837,530L838,528L838,527L836,526L835,526L834,528L832,529L831,529L830,527L830,526L832,526L832,524L833,523L833,522L834,521L833,520L833,517L832,517L831,515L829,516L827,515L826,516L825,515L825,513L826,512L826,511L827,510L827,508L824,508L824,510L822,512L822,511L821,512L819,512L818,513L817,515L817,516L816,516L815,518L815,519L812,519L811,516L809,515L807,516L807,517L806,518L807,520L807,523L806,523L804,522L804,521L803,519L801,519L801,522L803,523L801,525L801,528L800,528L798,529L796,529L796,528L794,528L793,526L792,526L791,528L791,529L790,530L789,530L788,529L786,529L783,528L783,526L781,527L780,529L781,530L782,530L782,533L779,533L778,532L774,532L773,530L772,530L772,528L768,528L768,529L766,529L766,527L765,525L764,525L763,526L762,525L759,525L759,523L758,522L756,522L756,521L755,521L754,519L752,518L751,518L750,519L750,520L751,522L752,523L752,525L749,525L748,524L747,524L746,526L745,526L744,527L743,527L742,528L740,529L739,528L737,528L736,527L736,524L734,524L733,523L731,523L730,525L730,531L728,532L727,532L726,533L726,535L724,535L724,536L722,537L721,536L720,536L719,535L717,535L716,536L713,535L713,534L712,533L712,531L711,529L710,528L709,530L709,532L710,534L709,534L708,535L703,535L702,536L701,535L699,536L698,535L697,535L696,534L694,533L694,535L692,536L691,538L690,538L690,539L689,540L687,539L687,538L685,538L684,539L683,538L682,539L681,538L678,538L678,540L677,540L677,542L678,543L678,545L677,545L677,547L675,548L674,547L672,546L670,546L669,547L667,547L667,546L665,546L665,545L661,545L661,546L658,546L657,545L656,545L656,544L653,544L654,546L655,547L657,548L657,549L661,549L662,548L666,548L667,549L668,549L668,551L669,551L669,559L667,558L666,560L666,561L667,562L669,562L670,564L672,565L673,566L677,566L680,567L680,568L681,568L682,570L683,571L684,570L685,568L686,568L685,567L686,566L685,564L686,564L686,563L688,561L689,561L690,560L694,560L696,559L696,557L693,554L693,549L692,548L689,548L689,549L687,548L685,546L685,545L684,544L686,542L687,543L689,542L689,543L691,542L694,545L696,546L697,546L699,545L699,544L698,543L697,543L696,541L696,540L699,539L708,539L712,543L712,544L711,544L711,545L710,546L711,548L709,549L709,551L710,551L710,553L713,553L715,551L716,551L718,552L719,552L719,556L718,557L719,559L726,559L728,558L729,559L731,559L731,558L732,557L732,556L734,554L735,554L735,553L738,553L739,551L741,551L741,549L742,548L744,548L744,549L746,549L747,547L747,546L743,544L742,544L742,543L740,541L740,535L734,535L734,532L743,532L744,531L744,530L745,529L748,529L748,528L751,528L753,529L754,529L754,528L755,527L757,526L758,526L758,527L761,528L762,530L763,530L763,531L765,532L768,532L770,533L770,535L769,536L772,538L773,538L774,536L777,536L779,538L782,535L783,535L784,536L786,536L786,535L788,535L788,533L790,533L790,535L794,535L795,534L797,534L798,533L799,533L801,535L800,535L800,537L798,539L797,541L797,543L798,543L800,542L800,541L801,540L802,538L803,538L805,536L808,535L810,535L811,536L811,535L813,535L814,533L815,532L815,531L817,530L817,529L820,529L821,531L819,533L821,534L823,533L822,531L823,530L826,530L826,529L827,529L829,530L830,530L831,532L832,532L833,533L836,533L837,535L837,537L839,538L841,538L841,539L844,539L844,537L843,536L842,536L842,533L843,531L845,529L847,530L848,530L849,532L851,530L853,532L853,531L856,531L856,528L855,528L855,526L857,525L858,524L860,523L861,521L862,521L864,523L870,526L872,525L873,525L875,528L874,529L874,531L875,531L876,533L877,532L878,532L879,531L879,530L880,530L881,528L885,528L885,530L883,531L883,532L881,534L881,537L882,537L884,539L884,537L885,537L885,536L884,534L886,533L886,534L887,534L889,536L888,537L888,538L887,539L887,546L888,546L889,544L891,542L892,543L895,544L895,543L896,542L897,540L898,539L900,538L900,536L903,536L903,538L902,539L901,542L903,541L906,543L907,544L908,542L910,541L911,542L914,541L915,542L916,542L918,538L920,539L922,538L923,538L924,536L928,537L928,536L934,536L935,534L938,534L939,535L941,535L942,533L943,532L946,534L947,533L950,532L951,533L950,535L951,536L955,536L954,539L954,541L957,540L959,540L959,541L961,542L961,543L960,545L961,547L962,548L961,549L962,552L965,553L967,556L966,557L967,559L968,559L969,558L971,559L971,557L970,556L970,555L969,554L970,553L972,552L974,553L973,555L974,556L974,557L975,558L977,557L977,554L976,553L977,552L979,551L983,551L984,552L985,552L986,553L987,553L991,555L991,556L993,555L996,552L997,553L999,552L998,550L999,549L999,548L997,544L997,542L998,540L998,536L1000,536L1000,533L999,533L997,532L996,533L992,533L991,531L989,533L988,532L986,533L984,533L983,531L984,530L983,529L979,529L978,528L977,528L977,525L978,524L977,523L978,522L977,521L974,520L974,521L973,522L971,521L971,520L972,518L973,518L974,517L972,514L970,515L969,514L968,515L966,515L965,516L961,514L962,512L962,511L964,512L965,509L960,509L958,507L958,506L961,503L962,500L960,499L959,499L957,498L958,497L957,496L958,495L957,494L958,493L957,491L958,491L958,490L961,489L961,488L960,486L959,486L959,485L958,484L960,482L959,480L960,479L960,478L961,477L960,475L958,473L958,472L960,471L960,470L961,469L962,469L962,468L965,468L963,466L961,465L962,463L961,461L960,461L959,459L957,459L955,458L954,459L953,459L952,460L951,460L949,462L947,462L946,461L945,459L943,457L943,456L942,455L940,455L939,454L938,454L937,452L935,451L934,450L934,448L933,448L933,447L934,446L934,441L935,440L935,436L933,434L933,433L932,432L932,431L931,429L931,428L928,425L928,424L929,423L929,421L932,418L933,419L935,418L935,417L936,415L937,415L938,413L940,410L942,408L943,408L944,406L942,404L937,404L937,402L935,403L934,401L933,401L931,399L931,396L928,393L928,391L925,388L924,388L922,387L921,387L919,386L918,385L916,384L915,384L914,383L914,382L912,380L911,380L908,383L908,385L907,386L907,387L905,388L904,388L904,385L903,384L901,383L901,382L899,381L899,379L901,380L901,382L903,382L902,380L903,379L903,375L901,373L899,374L898,375L895,375L894,373L894,369L893,368L890,368L890,365L889,365L887,361L885,361L882,359L881,359L881,356L879,353L881,352L883,350L882,348L881,347L881,343L883,341L884,341L884,339L882,339L881,336L881,335L882,334L884,333L884,331L882,331L882,330L880,329L880,330L878,329L875,327L873,327L871,328L871,329L869,330L868,331L867,331L866,332L865,332L863,330L863,328L865,328L867,327L869,325L871,325L871,324L873,323L875,323L875,322L872,320L872,319L873,319L873,318L874,317L874,316L872,314L870,314L867,313L867,312L865,312L865,309L867,309L867,307L866,306L865,306L864,307L863,307L862,306L860,307L857,306L857,305L854,304L853,303L853,301L850,302L850,307L849,308L848,308L847,310L846,310L845,311L843,311L841,313L840,313L840,315L839,315L838,317L837,317L837,321L839,322L840,320L840,318L841,317L843,318L845,317L848,317L849,320L848,321L848,325L849,325L850,327L850,331L852,331L853,330L854,330L855,329L857,328L857,326L859,326L860,329L858,330L858,331L857,331L857,333L859,334L859,336L860,337L861,337L862,338L863,338L865,339L865,337L867,337L868,338L869,338L871,340L871,341L872,342L875,341L875,346L873,347L873,349L874,350L874,351L876,352L878,354L877,354L876,355L876,356L875,357L873,357L872,359L871,359L869,360L866,360L864,358L864,357L862,357L861,358L855,358L855,360L852,360L850,359L849,358L849,357L847,357L847,355L843,355L843,356L842,356L841,358L839,357L839,356L837,356L836,355L835,353L833,352L829,352L827,350L828,348L826,347L827,345L826,344L824,345L824,343L825,341L826,341L827,340L825,338L823,340L822,340L821,341L817,341L817,339L813,337L812,338L811,336L809,336L809,335L806,334L806,333L804,332L803,330L803,326L804,324L804,323L803,321L804,320L803,319L805,315L806,314L811,314L811,311L810,310L811,309L810,308L810,303L809,302L807,301L807,302L806,303L804,303L803,300L804,299L805,297L807,298L808,297L809,297L810,296L811,296L813,295L813,294L814,294L816,293L817,294L818,294L819,295L825,295L826,294L827,294L828,293L828,290L827,290L827,289L826,289L825,287L824,287L823,285L821,285L821,282L822,281L824,282L827,285L828,285L828,287L830,288L832,288L833,287L834,288L835,287L836,287L838,285L839,286L840,284L841,284L841,282L843,281L843,280L841,279L841,278L840,278L839,277L836,277L836,278L834,278L834,283L833,283L829,281L827,281L827,279L825,277L823,278L823,277L824,275L823,274L821,275L820,274L818,273L818,272L816,272L815,271L814,271L813,270L813,268L814,268L815,266L816,266L817,265L819,265L820,266L821,268L827,268L827,265L830,265L830,263L828,262L826,262L826,261L825,261L824,260L824,258L826,257L828,255L827,254L828,253L827,252L828,251L836,251L836,250L839,250L840,247L840,246L839,245L839,244L838,243L837,241L838,241L836,239L834,240L833,241L832,241L831,240L825,240L823,241L823,240L824,238L819,238L818,237L816,236L816,235L815,233L814,232L813,232L812,231L804,231L803,230L802,230L801,229L800,229L799,228L800,227L799,226L800,224L799,223L798,225L796,223L794,224L793,224L793,226L794,227L794,231L793,231L792,232L791,232L789,234L788,234L784,238L782,239L779,240L776,240L775,241L774,240L774,239L771,238L770,237L770,235L771,234L773,234L775,233L775,234L776,234L777,236L777,237L781,237L782,235L782,234L783,233L783,231L785,230L785,231L787,231L788,229L788,227L789,226L789,224L790,223L789,221L787,221L787,222L785,220L781,224L781,225L780,225L778,226L777,225L774,223L773,223L773,225L772,227L771,227L771,226L769,227L765,227L764,228L762,228L760,226L760,224L758,224L756,223L752,223L751,222L749,222L749,221L747,221L746,223L746,229L745,231L742,231L742,230L740,228L736,228L736,227L729,227L727,226L727,225L729,224L729,223L730,223L731,221L732,220L734,221L735,221L736,220L736,218L735,217L735,216L734,215L736,214L737,214L740,213L740,214L742,214L744,215L745,214L746,215L747,217L748,217L750,216L750,214L748,213L747,211L748,211L747,209L747,208L748,207L749,207L750,206L750,205L751,203L754,203L754,202L756,203L757,202L757,200L754,200L752,199L751,198L750,198L749,196L749,194L748,193L749,191L749,188L750,187L749,185L746,186L745,187L743,187L742,188L741,187L739,188L738,187L738,186L737,185L737,183L736,183L736,179L737,179L736,176L734,176L733,178L733,180L732,181L732,183L729,184L730,185L730,188L729,189L729,191L728,191L727,193L726,193L724,195L722,195L722,196L719,197L716,197L716,196L715,195L714,195L712,196L712,198L709,198L708,197L705,197L704,195L702,196L700,196L699,195L695,193L693,193L692,192L691,189L691,186L690,184L688,184L687,186L686,187L684,187L684,185L683,184L682,184L682,182L681,181L679,181L679,180L676,180L676,183L678,183L680,185L679,186L678,188L676,187L675,188L675,187L674,186L673,186L672,184L670,186L667,187L667,186L665,184L662,184L655,177L657,175ZM801,214L801,213L802,212L803,212L804,214L804,215L803,216L803,217L806,217L807,219L807,221L806,221L806,223L803,222L802,220L800,221L798,221L798,220L799,218L800,218L800,216L801,214ZM846,235L845,234L845,232L847,233L847,235L846,235ZM854,233L854,231L855,230L858,230L860,231L859,233L860,234L860,235L862,237L862,239L858,239L858,238L857,237L856,237L854,238L852,236L852,235L853,234L853,233L854,233ZM841,240L841,239L843,237L843,236L845,236L846,239L847,239L847,244L845,243L844,244L842,242L840,243L840,241L841,240ZM853,253L854,250L856,250L857,252L857,254L858,255L858,257L857,258L855,259L855,261L854,263L855,263L854,265L854,267L849,267L849,268L847,268L845,267L844,265L845,263L846,262L847,262L847,260L848,259L848,258L850,257L851,256L852,256L853,255L853,253ZM833,259L832,260L830,259L829,257L831,256L831,255L833,255L834,256L833,259ZM812,305L813,303L813,302L815,301L816,301L816,305L812,305ZM821,304L823,305L824,303L823,302L822,302L821,304ZM823,311L821,309L821,308L823,307L824,309L824,310L823,311ZM807,324L806,322L807,321L808,321L809,323L810,323L810,324L811,325L811,327L812,328L814,328L815,329L815,330L816,331L816,334L812,334L811,332L809,332L808,331L807,329L806,329L807,327L807,326L808,325L807,324ZM823,334L824,336L826,335L826,333L824,333L823,334ZM808,466L807,467L807,469L806,470L808,473L810,472L810,467L808,466ZM698,549L699,551L698,552L697,552L696,551L697,549L698,549ZM674,570L675,570L675,573L673,572L673,571L674,570Z" style="fill:rgb(224,224,224);stroke:rgb(151,151,147);stroke-width:0.5px;"/>
                <path id="province4" d="M994,62L996,60L997,60L997,62L995,63L994,63L994,62ZM995,73L994,71L995,70L997,70L998,71L998,72L996,73L995,73ZM993,82L999,79L1003,81L1003,80L1005,81L1006,80L1007,81L1008,83L1007,84L1008,85L1007,87L1006,87L1005,89L1004,89L1003,91L1002,91L1001,92L999,93L998,93L997,94L997,95L998,96L1000,97L1001,98L1001,103L1000,104L998,104L997,102L998,101L997,99L998,99L997,97L996,98L995,97L993,98L991,98L991,101L992,102L993,104L994,104L994,107L995,108L995,110L999,110L999,111L1001,111L1002,112L1004,112L1005,110L1006,111L1008,109L1008,107L1010,106L1010,104L1013,104L1016,107L1016,108L1017,110L1017,114L1018,115L1017,116L1017,117L1019,118L1019,119L1020,121L1021,122L1021,128L1022,129L1026,129L1027,130L1028,130L1030,131L1031,130L1031,127L1027,127L1025,125L1026,123L1030,123L1031,122L1031,121L1032,121L1032,120L1034,120L1035,121L1036,121L1037,119L1037,118L1038,117L1039,117L1041,118L1041,119L1043,120L1042,122L1040,122L1041,124L1041,126L1042,126L1041,127L1042,129L1043,129L1044,131L1046,132L1046,133L1048,133L1048,130L1050,130L1052,129L1052,127L1053,127L1054,126L1056,125L1056,124L1058,123L1058,121L1056,120L1055,118L1055,115L1057,114L1058,112L1059,112L1059,110L1061,108L1061,107L1062,107L1061,106L1062,105L1063,103L1064,104L1067,104L1073,110L1070,110L1070,112L1069,113L1069,115L1068,117L1070,118L1068,119L1068,120L1067,121L1067,123L1069,127L1069,132L1070,132L1072,131L1072,127L1071,126L1071,124L1073,124L1074,125L1074,126L1075,127L1074,129L1075,130L1077,129L1078,128L1078,127L1079,127L1079,126L1080,125L1083,125L1083,127L1081,128L1081,129L1083,130L1083,131L1085,132L1084,134L1082,135L1083,137L1081,139L1082,140L1083,140L1084,139L1084,138L1086,137L1088,138L1088,135L1090,136L1089,138L1091,139L1092,140L1095,141L1095,144L1096,146L1096,147L1098,146L1099,145L1098,144L1099,143L1099,142L1100,141L1101,141L1102,142L1102,145L1104,147L1106,146L1107,148L1108,147L1109,149L1110,149L1111,148L1111,147L1109,146L1107,144L1106,144L1105,141L1104,140L1102,139L1101,138L1102,137L1107,137L1108,138L1108,140L1109,140L1109,142L1110,143L1112,142L1111,140L1111,136L1112,135L1112,133L1114,133L1114,130L1113,128L1112,128L1112,126L1114,122L1115,122L1115,121L1117,120L1118,120L1119,121L1120,121L1121,120L1123,120L1125,118L1125,117L1126,117L1126,115L1127,115L1129,113L1129,111L1132,111L1132,112L1131,114L1129,116L1129,119L1127,121L1126,121L1125,122L1124,122L1123,123L1122,123L1121,124L1120,124L1120,126L1119,126L1118,127L1119,129L1121,128L1121,129L1123,130L1125,128L1124,127L1125,126L1124,126L1126,125L1126,123L1128,123L1128,122L1130,121L1130,120L1132,120L1136,118L1136,112L1135,112L1135,105L1136,105L1137,104L1137,103L1138,102L1139,102L1139,100L1141,100L1141,98L1143,97L1145,98L1146,97L1147,99L1146,101L1145,102L1145,103L1144,104L1144,106L1142,106L1142,104L1141,103L1139,105L1140,106L1140,107L1143,110L1146,110L1147,109L1150,109L1150,108L1152,108L1153,110L1152,111L1152,112L1151,112L1151,111L1148,112L1146,113L1146,118L1144,120L1139,120L1138,121L1138,122L1139,123L1139,124L1140,125L1140,126L1138,127L1139,130L1138,131L1135,131L1135,132L1134,134L1132,133L1130,135L1130,137L1129,137L1129,140L1128,142L1129,142L1128,144L1129,145L1129,146L1128,148L1128,151L1127,151L1126,152L1125,152L1124,153L1124,154L1125,156L1125,158L1123,158L1122,159L1122,166L1123,166L1123,167L1126,167L1127,168L1130,168L1132,169L1132,170L1131,171L1130,171L1129,172L1127,172L1127,173L1126,174L1123,174L1123,173L1121,174L1119,174L1118,175L1116,175L1114,177L1114,178L1116,180L1116,185L1117,185L1117,187L1121,187L1121,188L1122,188L1123,189L1124,191L1126,190L1125,188L1125,187L1123,185L1123,184L1121,183L1120,184L1119,184L1118,183L1119,181L1118,180L1118,179L1120,177L1121,178L1121,179L1122,179L1123,180L1123,181L1125,180L1126,180L1126,178L1127,177L1128,177L1129,178L1133,180L1133,181L1134,182L1136,180L1136,179L1138,178L1138,177L1140,177L1141,176L1142,176L1144,175L1145,174L1146,172L1146,171L1145,169L1146,169L1145,166L1147,166L1148,165L1149,165L1151,163L1155,163L1157,161L1157,160L1160,157L1160,156L1161,154L1163,153L1166,154L1167,154L1167,156L1165,158L1165,159L1164,160L1163,160L1161,161L1160,161L1158,162L1158,164L1160,164L1162,166L1163,166L1165,164L1167,164L1168,165L1167,167L1165,168L1165,169L1163,170L1159,170L1158,172L1157,173L1157,174L1156,175L1156,178L1155,179L1155,180L1157,180L1157,181L1158,183L1160,184L1162,186L1162,192L1161,192L1160,194L1157,194L1155,192L1155,191L1154,190L1153,190L1153,194L1151,195L1149,195L1147,194L1147,195L1146,194L1144,195L1144,197L1145,198L1146,198L1146,199L1148,199L1149,201L1150,201L1151,200L1153,200L1154,199L1156,198L1166,198L1167,197L1168,195L1166,194L1166,192L1167,191L1170,191L1172,192L1172,194L1175,194L1176,193L1176,192L1178,190L1180,191L1180,190L1181,191L1182,190L1185,191L1185,190L1189,192L1186,195L1184,196L1183,197L1183,199L1184,199L1186,198L1188,198L1189,197L1191,196L1193,194L1195,193L1196,193L1198,194L1204,194L1205,193L1206,193L1207,192L1208,190L1208,189L1209,187L1210,187L1210,186L1214,186L1215,187L1215,188L1214,189L1213,189L1212,190L1211,190L1210,191L1210,193L1211,193L1213,194L1214,194L1215,195L1215,196L1218,196L1219,194L1219,193L1220,193L1221,191L1223,192L1224,190L1225,190L1226,189L1227,189L1229,191L1230,193L1232,194L1232,196L1229,196L1229,195L1227,194L1225,196L1227,198L1226,198L1227,199L1226,201L1224,201L1224,202L1223,202L1221,203L1220,203L1219,204L1219,205L1220,206L1220,208L1221,208L1221,209L1223,213L1222,214L1220,214L1219,213L1219,211L1217,211L1217,209L1216,209L1214,208L1213,208L1211,207L1209,209L1207,210L1207,211L1205,211L1205,214L1207,216L1208,216L1209,215L1209,213L1211,212L1211,211L1213,210L1214,212L1215,212L1216,213L1216,219L1222,222L1222,224L1224,225L1227,225L1228,224L1234,224L1235,225L1235,227L1233,228L1233,227L1231,228L1228,228L1227,227L1226,228L1224,227L1223,228L1224,230L1226,232L1225,234L1226,234L1226,235L1224,236L1221,238L1222,239L1221,240L1222,241L1221,242L1223,246L1221,247L1221,250L1223,250L1223,248L1224,247L1225,247L1225,244L1227,243L1229,244L1229,246L1228,248L1229,249L1229,250L1232,253L1230,255L1229,255L1228,254L1227,254L1224,251L1222,253L1221,253L1219,252L1219,251L1216,250L1215,250L1214,249L1214,247L1215,247L1215,245L1216,245L1216,243L1215,241L1211,245L1207,245L1206,243L1206,242L1204,241L1202,242L1201,242L1200,240L1202,239L1202,238L1201,237L1199,237L1198,238L1197,238L1197,240L1198,241L1198,243L1192,243L1191,242L1190,242L1189,241L1189,240L1186,240L1184,239L1184,238L1183,237L1181,236L1178,235L1178,233L1177,232L1177,231L1174,231L1172,230L1172,229L1170,228L1169,228L1167,227L1166,227L1166,228L1164,228L1163,229L1162,229L1161,227L1160,226L1158,226L1157,225L1156,225L1154,226L1154,227L1153,228L1150,225L1149,226L1149,228L1147,230L1145,229L1144,229L1143,228L1142,228L1141,230L1142,231L1144,231L1144,233L1145,234L1145,235L1142,238L1140,238L1137,235L1136,235L1136,234L1135,234L1134,235L1132,235L1132,237L1130,236L1129,237L1128,236L1126,236L1124,237L1123,236L1121,237L1120,237L1120,238L1119,239L1119,241L1118,242L1118,243L1117,243L1116,244L1115,244L1114,246L1108,249L1107,250L1105,251L1104,252L1105,253L1104,254L1105,254L1105,261L1104,262L1104,263L1103,264L1103,266L1104,266L1104,267L1106,269L1105,270L1105,273L1106,275L1106,278L1104,279L1105,280L1104,282L1104,284L1105,284L1105,286L1106,287L1108,288L1110,288L1112,292L1111,294L1112,296L1112,299L1113,301L1114,301L1115,302L1116,302L1118,304L1118,305L1119,306L1119,307L1121,307L1123,306L1123,305L1125,303L1125,304L1127,303L1127,304L1130,304L1130,303L1134,305L1135,304L1137,305L1138,306L1138,307L1137,308L1136,310L1139,311L1142,311L1142,306L1143,305L1145,304L1145,301L1147,302L1148,301L1149,301L1150,300L1152,301L1151,303L1152,303L1152,305L1153,305L1153,306L1152,308L1152,309L1151,309L1150,311L1149,312L1149,313L1146,314L1143,314L1141,316L1142,317L1142,321L1141,321L1143,323L1142,324L1142,327L1139,328L1139,330L1138,332L1137,333L1136,333L1135,334L1134,334L1133,335L1131,335L1131,343L1129,345L1127,344L1126,345L1122,345L1122,347L1123,348L1123,350L1122,351L1123,352L1122,353L1122,354L1121,356L1122,357L1124,358L1128,358L1129,357L1129,355L1131,354L1131,350L1132,349L1132,346L1134,344L1136,344L1136,346L1135,347L1135,350L1136,350L1140,348L1139,347L1141,346L1141,345L1142,345L1142,342L1144,341L1145,342L1148,342L1149,341L1153,341L1153,342L1155,343L1156,344L1158,345L1160,344L1163,344L1164,345L1166,344L1167,344L1169,343L1169,341L1168,340L1167,340L1166,341L1164,341L1163,340L1165,339L1165,338L1166,337L1167,338L1168,338L1169,337L1170,337L1170,338L1172,337L1173,339L1175,339L1175,338L1177,337L1180,337L1181,338L1182,338L1183,339L1184,338L1184,337L1186,335L1187,335L1188,336L1190,337L1191,338L1196,338L1195,340L1194,340L1192,342L1192,343L1195,343L1196,342L1198,343L1198,346L1200,347L1202,346L1202,345L1204,344L1206,345L1205,347L1203,347L1203,349L1202,349L1201,351L1200,351L1199,350L1198,350L1197,349L1194,347L1194,348L1195,350L1196,353L1195,356L1195,358L1194,360L1194,362L1193,362L1193,365L1190,365L1190,364L1189,364L1187,366L1189,367L1188,369L1189,370L1189,371L1188,373L1188,375L1189,377L1188,377L1187,378L1186,378L1185,379L1185,381L1184,381L1183,382L1182,382L1182,384L1184,385L1184,386L1185,387L1184,388L1178,388L1177,389L1176,389L1175,390L1174,390L1173,391L1171,391L1170,393L1171,394L1172,396L1172,397L1174,398L1174,399L1176,400L1176,401L1178,402L1180,402L1181,401L1183,402L1183,409L1181,411L1179,411L1178,413L1178,414L1179,415L1179,418L1180,418L1180,419L1181,421L1181,422L1185,424L1186,427L1187,428L1191,428L1191,431L1189,432L1188,434L1189,435L1189,436L1190,437L1190,439L1183,439L1180,438L1178,439L1176,439L1176,440L1177,442L1179,442L1179,441L1182,441L1182,442L1183,442L1183,443L1185,444L1185,445L1186,446L1188,446L1190,444L1192,445L1192,447L1193,448L1192,449L1193,450L1195,451L1196,452L1197,454L1198,455L1203,455L1205,453L1205,451L1206,451L1208,454L1209,455L1211,456L1212,457L1211,459L1209,460L1209,462L1206,462L1204,463L1204,464L1201,464L1199,462L1196,462L1195,463L1195,464L1193,466L1193,467L1191,468L1190,469L1188,469L1187,467L1185,466L1184,465L1183,465L1182,466L1181,465L1179,466L1179,467L1177,467L1177,468L1176,469L1170,469L1169,470L1168,470L1168,471L1165,471L1163,470L1162,470L1161,469L1161,468L1159,467L1159,466L1158,465L1158,464L1157,464L1157,462L1150,462L1149,464L1149,467L1151,468L1151,470L1150,471L1148,472L1147,471L1145,472L1142,472L1142,470L1145,467L1145,466L1144,465L1142,466L1141,467L1140,467L1139,468L1138,468L1137,469L1136,469L1135,470L1133,468L1132,466L1130,466L1129,465L1127,464L1127,463L1121,463L1120,462L1119,462L1118,463L1120,465L1119,467L1118,468L1117,468L1116,467L1116,465L1115,464L1115,462L1113,460L1112,461L1110,461L1107,458L1101,458L1100,455L1098,455L1097,454L1091,454L1091,452L1094,452L1093,450L1092,450L1092,448L1091,446L1090,446L1089,445L1087,446L1087,445L1084,446L1084,447L1083,449L1079,449L1079,450L1078,451L1077,451L1076,452L1075,452L1074,454L1073,454L1072,456L1072,460L1071,460L1070,462L1068,462L1068,466L1065,466L1064,468L1063,468L1062,470L1061,470L1059,471L1058,470L1056,472L1055,475L1050,475L1047,478L1047,479L1046,481L1044,482L1044,484L1045,484L1044,485L1044,486L1042,485L1041,484L1042,484L1042,482L1040,481L1039,481L1037,482L1036,481L1034,481L1034,482L1033,484L1032,484L1032,485L1031,487L1033,488L1034,490L1035,490L1035,496L1037,500L1038,501L1038,506L1036,504L1035,505L1033,503L1032,504L1031,503L1029,503L1028,504L1028,507L1025,508L1023,509L1021,511L1020,510L1018,512L1014,512L1012,514L1012,515L1011,516L1012,517L1012,519L1010,520L1009,520L1008,521L1007,521L1006,522L1003,522L1002,520L1001,519L999,519L998,518L998,517L996,517L996,519L993,519L992,520L991,520L989,521L988,519L985,519L985,520L983,522L983,524L984,524L983,526L981,526L980,524L980,520L981,519L981,516L979,514L975,512L974,511L973,509L973,507L972,505L972,503L971,502L970,502L968,500L969,498L970,498L970,495L974,495L975,494L975,492L973,492L972,490L971,489L972,486L972,485L971,485L970,483L968,483L967,485L966,485L965,484L965,483L963,481L963,480L965,476L964,475L963,475L962,473L965,470L966,468L967,468L968,466L966,465L966,464L965,464L963,463L964,461L964,459L963,457L962,457L960,456L959,455L958,456L956,455L953,455L953,456L952,457L950,458L948,457L948,456L946,455L944,453L944,452L942,450L940,449L941,447L941,445L943,445L944,444L946,443L947,443L948,442L948,441L947,440L948,438L947,437L947,433L945,432L943,430L944,428L942,427L940,427L940,428L938,429L937,427L937,426L940,425L940,424L941,422L941,421L947,421L948,420L947,419L948,419L948,417L949,415L951,415L952,414L955,414L955,407L956,407L957,405L959,403L959,402L957,400L956,401L955,400L953,400L952,399L949,399L949,397L950,396L952,397L953,395L952,393L953,392L953,391L954,390L953,388L951,388L951,387L952,386L952,385L953,384L953,383L954,382L953,381L954,380L953,379L954,378L953,377L951,377L949,378L947,374L944,375L944,376L943,376L943,378L941,378L940,377L937,377L937,372L938,370L938,367L936,367L934,366L933,366L931,367L932,369L934,368L935,370L934,370L935,372L934,373L932,374L931,373L929,372L929,373L928,375L928,376L929,376L931,377L931,378L933,378L934,379L935,379L936,381L939,381L941,383L941,384L939,385L940,386L939,387L939,388L937,389L936,389L934,391L936,392L937,392L938,393L940,394L941,394L943,393L945,395L943,397L943,399L940,399L939,398L938,398L935,395L931,393L931,392L930,391L931,389L928,388L928,387L927,385L926,385L924,384L923,385L921,384L921,383L919,382L918,381L915,381L915,379L916,378L916,376L915,375L913,377L914,379L912,378L912,377L910,377L909,375L904,370L904,368L906,368L906,366L907,366L907,364L908,362L908,361L906,361L905,362L902,362L902,360L900,358L899,359L898,359L897,358L896,359L894,359L893,360L892,359L892,354L890,353L890,352L889,351L888,351L886,350L886,349L887,347L889,345L891,344L891,340L892,338L891,337L892,335L894,335L894,333L895,333L895,329L894,327L893,327L892,325L891,325L887,323L886,323L885,322L886,320L886,318L883,318L884,315L883,315L885,311L885,308L884,306L885,304L886,304L886,302L884,300L886,296L885,295L883,295L882,297L880,296L881,295L880,293L882,292L883,291L883,290L884,290L885,288L885,287L887,286L889,284L891,283L892,283L893,282L894,280L895,280L899,276L899,275L901,274L901,273L900,273L900,269L901,267L901,265L902,264L903,264L903,263L904,261L905,260L907,259L909,257L909,256L911,254L912,254L913,255L913,257L915,258L917,260L915,260L914,262L915,264L918,264L919,265L921,265L921,264L922,264L923,265L923,268L921,268L920,269L921,270L921,272L922,273L922,274L932,274L934,276L935,276L937,277L938,278L940,279L940,280L942,284L948,284L949,283L950,283L950,282L952,282L954,280L956,279L957,279L959,275L959,274L961,272L961,271L964,271L965,270L965,267L967,267L968,268L969,267L971,268L972,267L974,268L976,268L977,269L977,271L983,274L985,272L987,271L989,271L991,270L992,269L992,268L993,267L991,265L992,264L994,264L995,263L995,259L996,258L997,256L997,255L995,254L995,253L997,251L998,251L998,249L997,249L996,248L993,248L992,250L991,250L990,252L988,252L987,251L986,251L985,249L985,248L987,247L987,245L991,245L992,244L994,244L995,243L995,240L994,238L993,238L992,240L990,241L989,242L987,242L987,234L988,233L988,232L989,231L991,231L991,229L992,229L993,228L994,229L995,229L996,230L997,230L997,229L999,227L1000,227L1000,223L1001,222L1002,222L1004,220L1004,219L1006,219L1007,218L1006,217L1004,217L1004,216L1003,216L1003,214L1002,213L1002,212L1003,211L1003,210L1004,210L1004,207L1002,206L1001,207L1000,206L997,206L996,204L997,203L996,202L996,200L999,197L996,194L996,193L995,191L993,190L993,191L991,190L990,190L988,191L986,191L985,189L986,188L987,186L987,182L986,181L984,177L984,174L987,174L988,176L989,176L990,178L989,179L990,181L992,183L994,182L994,177L996,176L998,177L998,181L1000,182L1000,183L998,183L998,185L999,187L1002,187L1004,186L1004,185L1006,183L1007,183L1009,184L1008,186L1005,189L1005,191L1007,191L1007,192L1009,192L1009,193L1010,194L1010,195L1011,197L1014,197L1014,198L1015,199L1016,199L1018,201L1018,202L1017,203L1016,203L1014,205L1014,207L1016,208L1017,206L1018,206L1019,205L1021,204L1022,205L1024,203L1024,201L1025,201L1025,195L1024,194L1022,193L1021,192L1021,188L1022,187L1021,186L1021,184L1015,181L1011,181L1011,177L1010,177L1008,178L1008,177L1005,177L1005,174L1004,174L1003,173L1002,173L1002,170L1000,171L996,167L995,167L994,165L993,164L992,164L990,165L988,164L987,164L985,166L984,166L983,168L981,169L981,171L982,173L982,174L980,178L981,181L980,181L981,183L981,184L982,185L983,185L984,186L982,188L982,187L980,188L979,188L976,185L975,185L973,186L971,188L969,187L969,188L967,187L966,187L964,188L964,189L963,189L963,190L962,191L962,193L963,193L965,192L966,192L967,191L969,190L970,190L971,191L970,193L969,193L968,194L966,194L965,196L964,196L963,197L960,197L958,198L957,197L956,197L955,198L954,198L953,200L952,200L950,198L950,197L949,197L950,195L950,194L951,193L951,192L949,192L947,190L946,191L944,190L944,188L943,186L942,185L941,183L942,181L942,176L943,176L943,173L941,174L940,175L938,174L938,173L939,171L939,170L938,169L939,168L939,167L941,165L945,165L945,162L944,162L944,159L943,159L944,156L945,156L946,158L950,154L954,154L955,155L956,154L958,156L957,156L955,157L955,160L954,161L954,162L953,163L951,167L950,167L951,169L951,170L953,169L954,168L954,167L955,167L956,169L955,170L955,173L956,173L955,175L954,175L954,178L952,180L953,180L954,181L956,180L956,178L957,178L958,176L959,175L959,174L960,173L960,172L961,172L963,173L965,175L964,176L964,177L962,177L962,179L964,180L965,178L967,178L967,177L969,175L970,173L971,172L973,171L974,171L974,168L975,167L975,165L974,165L975,164L977,164L978,163L978,162L977,162L977,157L978,155L978,153L974,151L974,150L972,150L969,147L969,146L965,142L964,142L961,139L961,136L960,136L958,137L949,137L949,136L948,136L946,134L944,133L945,131L944,131L944,130L940,128L939,130L937,132L937,135L938,136L938,137L936,138L935,136L934,137L932,137L931,135L930,134L924,134L923,133L923,132L924,130L925,127L926,125L927,125L928,123L931,124L931,125L933,127L935,127L936,126L936,125L937,124L939,124L940,123L940,122L942,121L943,122L943,123L942,124L943,127L944,127L945,128L946,128L950,126L950,125L949,124L948,122L948,121L947,120L947,119L946,117L945,117L944,116L944,115L946,114L948,114L948,110L949,109L949,108L950,107L950,105L951,105L951,104L954,104L955,105L954,106L952,106L952,109L954,110L954,111L955,112L961,112L962,113L963,113L964,112L964,111L966,111L968,110L968,109L967,108L968,106L968,105L969,105L971,104L972,104L972,103L973,102L972,101L974,100L974,95L976,95L977,94L980,93L982,92L982,91L984,90L985,88L986,88L986,86L990,82L993,82ZM972,94L973,92L973,91L969,92L968,93L968,94L967,95L967,96L969,98L970,98L971,97L971,96L972,95L972,94ZM943,97L942,98L944,99L943,100L944,101L943,103L942,103L941,105L941,111L944,111L945,109L944,108L944,105L946,103L947,103L948,102L948,101L950,100L950,99L948,97L944,95L942,95L941,96L943,97ZM1041,97L1041,95L1042,94L1043,94L1044,95L1044,97L1041,97ZM1050,110L1051,110L1052,109L1050,107L1046,109L1046,110L1045,110L1044,111L1045,114L1046,114L1047,113L1047,112L1049,111L1050,110ZM1121,110L1122,108L1123,108L1124,109L1124,111L1123,111L1122,112L1123,114L1123,115L1122,117L1121,117L1120,116L1117,116L1116,115L1117,113L1118,113L1118,112L1120,112L1120,111L1121,110ZM929,120L927,118L928,117L929,117L930,118L929,120ZM1136,147L1136,149L1138,149L1138,146L1136,147ZM1219,189L1219,184L1221,184L1222,185L1221,186L1222,187L1222,189L1219,189ZM1226,184L1227,183L1229,185L1229,187L1228,187L1226,186L1226,184ZM1018,195L1018,197L1019,198L1021,198L1022,196L1021,196L1019,195L1018,195ZM1272,199L1274,197L1279,197L1280,198L1278,200L1275,200L1275,201L1272,200L1272,199ZM941,209L943,211L943,212L945,211L945,206L944,204L943,204L941,205L941,209ZM948,206L948,207L951,207L949,204L948,206ZM1245,207L1245,204L1247,204L1248,205L1248,206L1247,208L1246,208L1245,207ZM1266,205L1267,207L1268,208L1269,208L1270,209L1272,209L1273,207L1274,207L1275,206L1276,206L1277,208L1278,209L1280,208L1281,207L1282,205L1280,204L1279,204L1277,203L1274,203L1272,204L1270,204L1268,203L1267,203L1266,205ZM1228,207L1228,208L1230,210L1233,210L1235,212L1235,213L1237,214L1238,213L1239,211L1239,209L1237,207L1235,207L1234,206L1232,206L1231,207L1230,206L1228,207ZM1251,209L1251,207L1254,207L1254,208L1256,210L1258,209L1259,211L1259,212L1257,213L1256,214L1251,214L1250,213L1248,214L1247,212L1247,211L1250,211L1251,209ZM914,217L915,215L917,215L917,217L916,218L914,217ZM1225,218L1226,216L1228,216L1229,217L1229,219L1227,220L1226,220L1225,219L1225,218ZM912,227L909,224L909,221L910,221L912,222L914,224L915,224L915,226L913,228L912,228L912,227ZM1147,239L1147,237L1149,237L1149,238L1147,239ZM1155,242L1156,244L1158,244L1158,243L1156,241L1156,242L1155,242ZM1163,242L1165,240L1167,242L1165,244L1164,244L1163,243L1163,242ZM1165,248L1164,251L1167,250L1168,249L1167,248L1165,248ZM1108,274L1108,273L1110,273L1112,275L1111,276L1111,281L1112,281L1115,284L1116,286L1115,286L1113,287L1111,285L1110,285L1110,284L1109,284L1108,282L1108,276L1109,276L1108,274ZM1115,294L1115,291L1118,291L1118,292L1117,294L1115,294ZM880,303L881,304L883,303L882,302L880,302L880,303ZM1199,320L1200,319L1203,320L1200,321L1199,321L1199,320ZM1179,327L1181,325L1182,325L1183,326L1183,327L1185,328L1185,330L1184,331L1184,332L1183,333L1181,334L1177,334L1176,332L1176,331L1178,327L1179,327ZM887,331L887,329L889,327L890,328L889,331L887,331ZM1195,330L1197,331L1198,331L1199,329L1198,328L1195,329L1195,330ZM886,339L884,338L884,336L887,336L887,337L886,339ZM942,385L942,386L943,387L944,387L945,386L944,384L942,385ZM940,434L941,435L940,436L940,439L942,438L942,437L943,435L942,433L940,434ZM1289,433L1289,432L1291,432L1291,431L1292,431L1294,432L1294,433L1292,434L1292,435L1290,437L1289,436L1288,436L1288,435L1289,433ZM1282,441L1284,440L1286,438L1286,439L1287,438L1289,439L1289,440L1288,442L1287,442L1285,443L1285,442L1283,443L1282,443L1282,441ZM1198,449L1199,448L1201,450L1201,451L1200,452L1199,452L1198,451L1198,449ZM1259,449L1261,447L1262,448L1263,450L1261,451L1260,450L1259,450L1259,449ZM1243,459L1242,460L1240,461L1239,462L1237,462L1237,463L1234,465L1233,466L1231,466L1229,467L1229,468L1226,469L1224,465L1223,466L1222,465L1220,466L1217,466L1216,465L1211,465L1209,469L1209,473L1210,475L1211,475L1211,476L1212,477L1212,478L1216,480L1216,481L1214,482L1214,484L1215,486L1215,488L1216,489L1217,491L1219,491L1219,489L1220,488L1219,487L1221,485L1222,486L1222,487L1223,488L1223,493L1225,491L1229,491L1230,492L1233,492L1234,491L1236,493L1237,495L1239,494L1240,493L1241,493L1242,494L1244,495L1245,494L1246,495L1247,494L1249,495L1251,495L1253,493L1252,492L1253,490L1252,490L1252,488L1249,488L1249,487L1248,487L1246,486L1246,485L1245,484L1244,484L1242,483L1243,482L1245,482L1247,481L1247,479L1246,478L1245,478L1245,477L1243,477L1243,475L1242,474L1242,472L1243,471L1244,471L1246,472L1246,471L1250,473L1251,471L1252,471L1254,469L1254,470L1256,469L1255,466L1254,466L1254,464L1252,464L1250,463L1248,463L1248,465L1250,465L1251,468L1250,469L1248,469L1246,468L1246,467L1247,465L1246,463L1247,461L1245,459L1243,459ZM1073,466L1075,465L1076,467L1076,468L1078,469L1079,469L1081,471L1082,473L1081,474L1081,477L1082,479L1081,480L1082,481L1081,482L1082,483L1081,484L1082,485L1081,486L1081,489L1082,490L1082,491L1081,492L1081,495L1084,495L1086,496L1086,495L1088,496L1090,496L1089,494L1090,492L1091,493L1092,495L1096,495L1096,496L1098,496L1098,495L1100,494L1102,495L1104,495L1105,496L1106,496L1107,494L1107,493L1109,491L1110,489L1111,489L1113,490L1113,491L1112,493L1112,494L1114,496L1115,496L1115,497L1116,497L1117,499L1118,499L1119,501L1118,502L1118,503L1119,504L1119,505L1121,504L1121,503L1123,502L1126,502L1126,503L1128,503L1129,505L1130,505L1131,506L1132,506L1133,507L1134,509L1135,509L1137,508L1138,508L1139,509L1141,510L1142,511L1144,511L1145,510L1145,508L1143,508L1143,505L1150,505L1152,506L1155,506L1156,508L1155,509L1155,512L1157,514L1157,515L1159,517L1161,517L1163,516L1164,517L1164,518L1165,519L1169,519L1172,520L1172,521L1174,521L1176,523L1175,524L1177,525L1178,527L1179,528L1179,529L1181,531L1181,532L1182,534L1188,537L1189,537L1191,538L1192,539L1193,538L1195,540L1195,541L1194,542L1193,544L1192,545L1192,547L1195,547L1195,545L1196,542L1198,544L1199,544L1200,546L1203,546L1203,545L1205,546L1205,548L1206,549L1209,549L1209,550L1210,551L1210,552L1212,553L1213,555L1214,555L1215,556L1215,558L1220,563L1221,563L1221,565L1220,566L1221,568L1222,568L1225,571L1227,571L1228,573L1228,574L1227,575L1225,574L1223,574L1223,573L1221,572L1220,572L1219,571L1219,570L1217,569L1216,567L1215,567L1213,565L1211,566L1208,568L1208,569L1205,570L1205,571L1204,572L1203,572L1202,573L1201,573L1199,571L1200,570L1199,569L1195,569L1194,568L1195,567L1194,566L1192,567L1191,566L1191,564L1189,564L1189,563L1187,562L1187,561L1185,560L1186,559L1184,557L1184,556L1183,555L1183,553L1180,553L1179,552L1180,550L1179,549L1178,549L1176,550L1176,552L1177,553L1176,554L1177,556L1178,556L1178,558L1176,559L1170,559L1168,561L1166,562L1165,564L1163,563L1161,563L1162,561L1161,559L1159,559L1158,558L1159,557L1158,556L1156,555L1155,556L1153,555L1149,555L1148,556L1150,558L1152,559L1155,559L1156,561L1156,564L1155,565L1154,565L1153,563L1151,563L1149,564L1149,568L1146,568L1146,567L1143,564L1144,563L1146,562L1145,560L1143,560L1141,561L1140,561L1140,560L1138,560L1136,558L1135,561L1135,566L1136,566L1135,568L1134,569L1132,569L1130,568L1128,569L1127,569L1126,568L1126,566L1124,565L1126,563L1124,562L1124,561L1123,560L1122,558L1120,559L1118,559L1117,560L1116,558L1116,557L1115,556L1115,553L1114,552L1115,550L1113,548L1112,548L1112,546L1110,546L1109,544L1108,543L1106,542L1105,543L1104,543L1102,541L1104,539L1104,538L1105,537L1105,535L1107,534L1106,533L1104,535L1103,537L1102,537L1101,539L1100,539L1098,537L1098,532L1099,532L1098,530L1099,529L1101,528L1101,527L1102,526L1102,524L1100,520L1099,519L1096,519L1095,520L1095,523L1097,523L1098,525L1097,526L1095,526L1094,527L1094,532L1090,532L1090,535L1091,536L1091,537L1092,537L1092,539L1093,539L1093,541L1091,540L1090,540L1089,539L1087,535L1086,534L1086,532L1085,531L1082,531L1079,528L1075,526L1074,526L1072,527L1070,529L1069,529L1068,528L1068,527L1067,527L1067,526L1066,525L1063,525L1062,526L1058,526L1057,528L1055,528L1055,529L1054,530L1054,535L1052,536L1051,535L1050,533L1049,533L1048,534L1048,537L1046,539L1043,539L1043,540L1041,540L1040,542L1039,541L1039,539L1037,537L1034,536L1033,538L1032,538L1032,540L1033,542L1033,543L1032,544L1030,544L1029,543L1029,542L1028,539L1026,539L1025,538L1024,539L1022,538L1021,538L1021,540L1017,540L1017,538L1014,538L1014,535L1015,534L1016,535L1018,534L1018,532L1020,531L1020,530L1022,530L1022,528L1018,526L1015,523L1017,521L1018,521L1019,522L1021,523L1023,522L1023,520L1021,518L1022,515L1023,515L1024,514L1024,513L1025,512L1026,512L1027,513L1027,514L1029,515L1031,514L1032,514L1033,512L1036,513L1036,511L1034,509L1036,507L1039,507L1041,509L1042,509L1043,508L1044,506L1042,505L1041,504L1041,492L1043,491L1043,490L1045,490L1045,489L1047,489L1047,488L1049,488L1049,487L1050,486L1050,484L1052,483L1052,482L1054,481L1056,479L1058,478L1058,477L1059,477L1061,476L1061,475L1063,473L1065,472L1066,472L1066,471L1067,471L1067,469L1069,468L1070,469L1072,468L1073,466ZM1152,474L1154,473L1155,473L1155,476L1152,476L1152,474ZM1048,549L1050,549L1050,551L1049,552L1048,551L1048,549ZM1054,553L1056,551L1058,552L1057,554L1054,554L1054,553ZM1064,555L1067,555L1068,557L1068,558L1069,559L1069,561L1068,562L1066,562L1065,561L1065,558L1064,557L1064,555ZM1055,560L1058,560L1058,562L1060,563L1062,563L1064,564L1065,564L1066,566L1067,566L1068,567L1068,569L1066,569L1066,571L1064,572L1064,574L1063,576L1060,577L1058,577L1057,578L1058,579L1057,581L1058,581L1058,587L1057,589L1053,589L1052,590L1052,592L1050,594L1049,594L1048,596L1045,596L1043,594L1043,593L1041,592L1042,590L1043,590L1044,589L1045,589L1046,587L1049,584L1049,583L1050,582L1053,582L1054,581L1054,579L1055,578L1055,577L1057,575L1056,574L1055,572L1056,572L1057,569L1058,569L1059,568L1058,566L1058,565L1057,564L1057,563L1055,561L1055,560ZM1083,563L1082,565L1082,568L1084,570L1086,571L1086,572L1085,573L1084,573L1083,571L1081,571L1081,570L1079,570L1079,569L1078,568L1079,567L1078,567L1076,566L1075,566L1075,568L1074,568L1074,569L1073,570L1071,568L1070,568L1069,570L1069,571L1068,571L1068,575L1070,577L1071,577L1071,579L1072,580L1071,582L1070,582L1070,583L1068,585L1069,586L1068,587L1069,588L1068,589L1069,591L1072,591L1074,589L1074,587L1075,586L1075,585L1078,585L1078,582L1077,581L1077,580L1076,579L1077,578L1076,577L1077,575L1078,575L1078,577L1079,578L1080,580L1081,581L1080,582L1081,583L1080,584L1080,586L1078,586L1078,587L1080,587L1081,588L1082,588L1082,590L1081,591L1081,594L1082,595L1082,596L1086,596L1087,594L1087,593L1088,592L1090,592L1091,590L1089,589L1089,588L1090,586L1091,586L1092,587L1093,586L1095,586L1097,585L1097,584L1098,583L1099,581L1097,579L1095,579L1095,583L1094,584L1093,583L1092,581L1092,577L1093,576L1092,575L1091,575L1089,573L1090,572L1089,571L1091,569L1092,567L1091,565L1090,565L1089,564L1087,563L1083,563ZM1138,570L1140,568L1142,569L1142,570L1140,572L1139,572L1138,570ZM1041,599L1043,599L1044,600L1044,601L1043,601L1041,600L1041,599Z" style="fill:rgb(224,224,224);stroke:rgb(151,151,147);stroke-width:0.5px;"/>
                <path id="province1" d="M943,532L942,533L941,535L939,535L938,534L935,534L934,536L928,536L928,537L924,536L923,538L922,538L920,539L918,538L916,542L915,542L914,541L911,542L910,541L908,542L907,544L906,543L903,541L901,542L901,543L900,544L898,544L897,546L897,545L895,546L894,547L894,548L896,548L896,550L897,551L897,552L898,552L898,553L897,555L898,556L895,559L893,560L892,559L888,559L887,560L886,560L886,558L885,558L885,556L883,555L882,556L881,558L879,559L877,561L876,563L874,562L874,561L873,560L873,559L871,558L870,559L869,558L867,560L865,561L864,562L864,561L862,562L862,563L863,565L866,565L867,566L865,568L864,570L864,572L868,574L869,575L870,575L871,574L872,574L872,572L874,572L874,575L873,575L873,577L876,577L878,575L878,571L879,569L881,569L881,571L879,572L881,573L883,572L884,573L884,576L883,578L882,578L882,580L883,581L885,582L886,582L887,584L888,585L889,585L893,581L895,581L896,580L898,579L898,577L899,576L900,574L901,574L902,573L904,572L905,573L903,575L902,577L901,578L901,579L903,580L904,579L906,579L907,578L908,579L907,581L908,582L910,582L912,583L911,585L910,585L910,588L908,590L907,592L907,593L908,595L908,596L906,597L905,597L903,601L902,600L899,600L898,602L899,603L900,603L901,602L903,603L903,604L904,606L910,606L910,608L913,608L913,607L912,606L912,604L914,604L914,605L915,605L917,603L918,603L919,602L922,602L922,601L923,600L923,599L924,598L928,596L929,595L930,593L928,592L929,590L931,591L932,592L933,592L933,595L934,595L934,596L936,598L937,598L938,599L939,599L941,600L942,600L943,601L944,601L945,603L945,604L943,604L943,605L940,608L939,608L938,606L940,604L939,602L937,602L937,603L936,605L934,605L934,608L935,608L938,611L938,612L936,613L936,614L937,615L938,615L939,616L937,618L937,619L942,619L943,618L944,618L946,616L948,615L951,615L951,618L949,618L949,619L946,619L946,621L944,623L944,628L946,629L949,632L950,632L952,631L952,628L953,625L954,625L955,623L957,622L961,622L963,621L964,620L964,617L968,613L970,613L971,612L970,610L968,610L967,609L965,610L964,609L965,607L966,607L967,606L969,606L971,604L971,603L976,603L977,602L977,600L976,599L976,598L977,597L979,597L979,596L981,596L983,595L984,596L987,596L988,595L988,592L987,591L987,590L988,589L988,587L989,587L988,585L986,585L985,584L984,584L982,583L981,585L981,586L982,587L984,587L984,589L985,592L984,593L979,593L978,591L978,590L976,589L973,592L972,592L972,588L973,587L975,587L977,585L977,584L978,582L978,580L977,579L977,577L975,575L975,573L974,572L974,571L973,570L971,569L967,569L965,570L963,570L961,569L961,568L963,566L963,564L964,564L964,562L967,559L966,557L967,556L965,553L962,552L961,549L962,548L961,547L960,545L961,543L961,542L959,541L959,540L957,540L954,541L954,539L955,536L951,536L950,535L951,533L950,532L947,533L946,534L943,532ZM1008,537L1011,534L1012,535L1013,534L1014,535L1014,538L1017,538L1017,540L1021,540L1020,542L1019,543L1019,545L1020,545L1022,543L1023,543L1023,544L1022,546L1022,547L1021,548L1021,550L1018,550L1018,552L1020,554L1022,555L1022,557L1021,558L1023,562L1023,563L1024,564L1025,566L1024,568L1024,569L1025,570L1026,570L1027,571L1027,572L1026,573L1025,575L1025,576L1026,578L1027,579L1027,581L1028,583L1028,584L1029,584L1031,586L1032,588L1031,589L1032,591L1031,591L1031,593L1032,594L1032,595L1033,595L1034,597L1033,598L1032,598L1032,599L1031,599L1029,598L1029,597L1028,597L1027,596L1025,596L1025,597L1024,597L1025,598L1024,600L1025,600L1024,602L1022,602L1022,603L1020,603L1020,602L1019,602L1017,601L1017,597L1016,596L1015,596L1014,597L1012,596L1010,596L1009,598L1007,598L1005,599L1004,599L1003,600L1001,601L1000,601L999,602L998,602L996,600L996,599L994,595L994,594L993,593L993,592L994,591L992,587L992,586L991,586L991,583L992,583L994,584L994,585L997,585L998,584L999,582L998,580L999,578L1000,578L1000,579L1003,579L1005,575L1007,574L1007,573L1006,572L1006,571L1004,569L1004,567L1005,566L1004,564L1004,561L1003,560L1005,558L1006,559L1008,558L1008,556L1007,554L1007,553L1008,552L1009,550L1009,549L1011,548L1011,547L1009,547L1009,545L1008,545L1007,543L1008,542L1008,539L1009,538L1008,537ZM874,549L876,548L877,548L878,550L877,551L877,553L878,554L877,556L875,555L875,553L874,553L874,549ZM890,549L888,550L889,553L890,553L892,552L892,550L890,549ZM980,599L983,599L984,600L984,601L983,602L981,602L980,601L980,599ZM1011,600L1009,604L1008,604L1008,605L1004,607L1004,611L1003,612L1003,613L1001,614L1001,615L999,615L999,616L998,616L998,618L997,620L995,618L995,615L993,614L992,615L992,617L991,618L991,621L993,622L993,621L996,622L996,623L997,624L999,624L999,623L1000,622L1001,622L1002,621L1004,621L1004,622L1005,624L1008,624L1008,622L1007,620L1006,619L1007,617L1007,616L1009,617L1011,616L1011,614L1012,614L1012,612L1014,610L1013,609L1012,607L1014,606L1015,605L1015,602L1014,600L1011,600ZM889,603L887,604L885,606L885,607L883,608L883,610L885,611L887,610L887,609L888,608L888,607L890,606L890,604L889,603ZM990,602L986,604L985,605L985,604L983,605L982,605L980,606L979,607L978,607L978,610L980,610L982,611L983,612L983,613L984,613L986,611L986,610L987,608L989,606L990,606L991,604L991,603L990,602ZM995,605L996,605L997,604L995,602L994,604L995,605ZM1028,603L1026,603L1025,605L1025,606L1026,607L1028,606L1028,603ZM909,612L907,613L907,614L908,616L909,616L911,615L911,613L909,612ZM938,622L939,621L941,622L941,624L938,624L938,622ZM960,625L961,626L962,628L962,631L963,632L963,633L962,633L960,634L958,632L958,629L959,628L959,627L960,625ZM939,630L941,630L942,631L941,633L940,633L938,632L939,630ZM940,637L942,636L944,637L944,639L942,640L940,638L940,637Z" style="fill:rgb(253,252,236);stroke:rgb(157,157,157);stroke-width:0.5px;"/>
            </g>
        </g>
    </g>
    <g transform="matrix(9.22292,0,0,9.22292,-7569.12,-4608.19)">
        <path d="M972,592L972,588L973,587L975,587L977,585L977,584L975,583L969,583L965,581L964,580L964,581L961,579L960,582L958,582L957,583L956,583L955,586L953,586L953,589L952,591L950,588L949,589L947,588L946,586L945,586L944,587L943,589L942,589L940,590L942,592L940,594L940,595L938,595L935,597L936,598L937,598L938,599L939,599L941,600L942,600L943,601L944,601L945,603L945,604L947,606L948,605L948,604L949,603L951,605L951,606L954,607L954,608L955,610L958,609L957,613L961,613L962,614L963,614L965,616L968,613L970,613L971,612L970,610L968,610L967,609L965,610L964,609L965,607L966,607L967,606L969,606L971,604L971,603L976,603L977,602L977,600L976,599L976,598L977,597L979,597L979,596L981,596L983,595L984,596L987,596L988,595L988,592L987,591L987,590L988,589L988,587L989,587L988,585L986,585L985,584L984,584L982,583L981,585L981,586L982,587L984,587L984,589L985,592L984,593L979,593L978,591L978,590L976,589L973,592L972,592ZM980,599L983,599L984,600L984,601L983,602L981,602L980,601L980,599ZM980,606L979,607L978,607L978,610L980,610L982,611L983,612L983,613L984,613L986,611L986,610L987,608L989,606L990,606L991,604L991,603L990,602L986,604L985,605L985,604L983,605L982,605L980,606Z" style="fill:rgb(177,55,61);fill-rule:nonzero;stroke:rgb(142,22,22);stroke-width:0.97px;stroke-linejoin:miter;stroke-miterlimit:4;"/>
    </g>
</svg>
