<?xml version="1.0" encoding="UTF-8" standalone="no"?>
<!DOCTYPE svg PUBLIC "-//W3C//DTD SVG 1.1//EN" "http://www.w3.org/Graphics/SVG/1.1/DTD/svg11.dtd">
<svg width="100%" height="100%" viewBox="0 0 446 130" version="1.1" xmlns="http://www.w3.org/2000/svg" xmlns:xlink="http://www.w3.org/1999/xlink" xml:space="preserve" xmlns:serif="http://www.serif.com/" style="fill-rule:evenodd;clip-rule:evenodd;stroke-linejoin:round;stroke-miterlimit:2;">
    <path id="path3188" d="M51.725,16.173L51.725,1.307C49.19,1.823 46.708,2.49 44.29,3.297L51.725,16.173Z" style="fill:rgb(63,0,145);fill-rule:nonzero;"/>
    <path id="path3190" d="M77.75,128.165C80.283,127.648 82.766,126.981 85.186,126.175L77.75,113.298L77.75,128.165Z" style="fill:rgb(63,0,145);fill-rule:nonzero;"/>
    <path id="path3192" d="M93.725,122.63C96.029,121.478 98.244,120.194 100.38,118.782L89.879,108.282L93.725,122.63Z" style="fill:rgb(63,0,145);fill-rule:nonzero;"/>
    <path id="path3194" d="M35.751,6.838C33.447,7.994 31.227,9.281 29.095,10.69L39.6,21.193L35.751,6.838Z" style="fill:rgb(63,0,145);fill-rule:nonzero;"/>
    <path id="path3196" d="M107.713,113.146C109.631,111.439 111.449,109.628 113.151,107.708L100.29,100.28L107.713,113.146Z" style="fill:rgb(63,0,145);fill-rule:nonzero;"/>
    <path id="path3198" d="M21.761,16.325C19.847,18.028 18.032,19.843 16.327,21.759L29.184,29.187L21.761,16.325Z" style="fill:rgb(63,0,145);fill-rule:nonzero;"/>
    <path id="path3200" d="M118.785,100.378C120.194,98.245 121.484,96.022 122.637,93.722L108.28,89.87L118.785,100.378Z" style="fill:rgb(63,0,145);fill-rule:nonzero;"/>
    <path id="path3202" d="M10.693,29.089C9.283,31.226 7.991,33.448 6.839,35.753L21.202,39.601L10.693,29.089Z" style="fill:rgb(63,0,145);fill-rule:nonzero;"/>
    <path id="path3204" d="M126.179,85.182C126.986,82.762 127.653,80.284 128.168,77.747L113.302,77.747L126.179,85.182Z" style="fill:rgb(63,0,145);fill-rule:nonzero;"/>
    <path id="path3206" d="M3.299,44.29C2.492,46.707 1.825,49.185 1.309,51.726L16.17,51.726L3.299,44.29Z" style="fill:rgb(63,0,145);fill-rule:nonzero;"/>
    <path id="path3208" d="M1.309,77.747C1.825,80.28 2.496,82.762 3.299,85.182L16.18,77.747L1.309,77.747Z" style="fill:rgb(63,0,145);fill-rule:nonzero;"/>
    <path id="path3210" d="M128.168,51.721C127.648,49.184 126.981,46.706 126.179,44.285L113.304,51.721L128.168,51.721Z" style="fill:rgb(63,0,145);fill-rule:nonzero;"/>
    <path id="path3212" d="M6.84,93.723C7.996,96.019 9.282,98.245 10.692,100.379L21.197,89.872L6.84,93.723Z" style="fill:rgb(63,0,145);fill-rule:nonzero;"/>
    <path id="path3214" d="M122.636,35.749C121.484,33.449 120.192,31.223 118.782,29.093L108.276,39.596L122.636,35.749Z" style="fill:rgb(63,0,145);fill-rule:nonzero;"/>
    <path id="path3216" d="M16.327,107.709C18.03,109.629 19.845,111.444 21.763,113.147L29.191,100.282L16.327,107.709Z" style="fill:rgb(63,0,145);fill-rule:nonzero;"/>
    <path id="path3218" d="M113.151,21.759C111.446,19.843 109.631,18.028 107.713,16.325L100.287,29.187L113.151,21.759Z" style="fill:rgb(63,0,145);fill-rule:nonzero;"/>
    <path id="path3220" d="M35.753,122.63L39.597,108.275L29.092,118.778C31.229,120.19 33.449,121.474 35.753,122.63" style="fill:rgb(63,0,145);fill-rule:nonzero;"/>
    <path id="path3222" d="M93.725,6.838L89.879,21.192L100.384,10.689C98.248,9.281 96.029,7.994 93.725,6.838" style="fill:rgb(63,0,145);fill-rule:nonzero;"/>
    <path id="path3224" d="M51.725,128.165L51.725,113.298L44.294,126.175C46.708,126.981 49.19,127.648 51.725,128.165" style="fill:rgb(63,0,145);fill-rule:nonzero;"/>
    <path id="path3226" d="M77.75,1.307L77.75,16.17L85.186,3.296C82.766,2.494 80.284,1.823 77.75,1.307" style="fill:rgb(63,0,145);fill-rule:nonzero;"/>
    <path id="path3228" d="M77.75,96.15L89.879,108.278L85.44,91.709L77.751,87.276L77.751,96.15L77.75,96.15Z" style="fill:rgb(30,160,255);fill-rule:nonzero;"/>
    <path id="path3230" d="M44.036,37.758L51.725,42.199L51.725,33.321L39.599,21.192L44.036,37.758Z" style="fill:rgb(30,160,255);fill-rule:nonzero;"/>
    <path id="path3232" d="M85.438,91.713L100.29,100.281L91.714,85.438L83.143,83.138L85.438,91.713Z" style="fill:rgb(30,160,255);fill-rule:nonzero;"/>
    <path id="path3234" d="M37.762,44.038L21.2,39.601L33.321,51.722L42.199,51.722L37.762,44.038Z" style="fill:rgb(30,160,255);fill-rule:nonzero;"/>
    <path id="path3236" d="M44.036,37.758L29.185,29.183L37.761,44.038L46.337,46.338L44.036,37.758Z" style="fill:rgb(30,160,255);fill-rule:nonzero;"/>
    <path id="path3238" d="M96.155,77.747L87.279,77.747L91.714,85.438L108.279,89.871L96.155,77.747Z" style="fill:rgb(30,160,255);fill-rule:nonzero;"/>
    <path id="path3240" d="M96.155,51.721L108.279,39.596L91.717,44.033L87.279,51.721L96.155,51.721Z" style="fill:rgb(30,160,255);fill-rule:nonzero;"/>
    <path id="path3242" d="M37.762,85.434L29.186,100.285L44.037,91.709L46.333,83.133L37.762,85.434Z" style="fill:rgb(30,160,255);fill-rule:nonzero;"/>
    <path id="path3244" d="M33.325,77.747L21.199,89.871L37.761,85.438L42.202,77.747L33.325,77.747Z" style="fill:rgb(30,160,255);fill-rule:nonzero;"/>
    <path id="path3246" d="M85.438,37.758L83.142,46.33L91.717,44.034L100.289,29.183L85.438,37.758Z" style="fill:rgb(30,160,255);fill-rule:nonzero;"/>
    <path id="path3248" d="M77.75,33.321L77.75,42.196L85.439,37.762L89.878,21.193L77.75,33.321Z" style="fill:rgb(30,160,255);fill-rule:nonzero;"/>
    <path id="path3250" d="M39.601,108.275L51.725,96.15L51.725,87.272L44.036,91.713L39.601,108.275Z" style="fill:rgb(30,160,255);fill-rule:nonzero;"/>
    <path id="path3252" d="M77.75,87.276L85.439,91.709L83.143,83.137L77.749,81.694L77.749,87.276L77.75,87.276Z" style="fill:rgb(30,221,255);fill-rule:nonzero;"/>
    <path id="path3254" d="M46.334,46.333L51.727,47.78L51.727,42.195L44.034,37.754L46.334,46.333Z" style="fill:rgb(30,221,255);fill-rule:nonzero;"/>
    <path id="path3256" d="M87.277,77.747L81.699,77.747L83.142,83.138L91.715,85.438L87.277,77.747Z" style="fill:rgb(30,221,255);fill-rule:nonzero;"/>
    <path id="path3258" d="M42.199,51.721L47.779,51.721L46.334,46.333L37.762,44.037L42.199,51.721Z" style="fill:rgb(30,221,255);fill-rule:nonzero;"/>
    <path id="path3260" d="M42.201,77.747L37.76,85.438L46.332,83.138L47.781,77.747L42.201,77.747Z" style="fill:rgb(30,221,255);fill-rule:nonzero;"/>
    <path id="path3262" d="M87.277,51.721L91.715,44.033L83.142,46.329L81.699,51.721L87.277,51.721Z" style="fill:rgb(30,221,255);fill-rule:nonzero;"/>
    <path id="path3264" d="M44.036,91.713L51.725,87.272L51.725,81.694L46.336,83.137L44.036,91.713Z" style="fill:rgb(30,221,255);fill-rule:nonzero;"/>
    <path id="path3266" d="M85.438,37.758L77.749,42.199L77.749,47.776L83.143,46.329L85.438,37.758Z" style="fill:rgb(30,221,255);fill-rule:nonzero;"/>
    <path id="path3268" d="M77.75,77.747L77.75,81.695L83.144,83.138L81.699,77.747L77.75,77.747Z" style="fill:rgb(154,255,251);fill-rule:nonzero;"/>
    <path id="path3270" d="M47.779,51.721L51.727,51.721L51.727,47.776L46.334,46.333L47.779,51.721Z" style="fill:rgb(154,255,251);fill-rule:nonzero;"/>
    <path id="path3272" d="M46.334,83.138L51.727,81.695L51.727,77.747L47.779,77.747L46.334,83.138Z" style="fill:rgb(154,255,251);fill-rule:nonzero;"/>
    <path id="path3274" d="M83.142,46.33L77.748,47.777L77.748,51.726L81.7,51.726L83.142,46.33Z" style="fill:rgb(154,255,251);fill-rule:nonzero;"/>
    <path id="path3276" d="M60.894,129.355C62.168,129.432 63.449,129.475 64.74,129.475C66.03,129.475 67.309,129.432 68.58,129.355L64.74,115.015L60.894,129.355Z" style="fill:rgb(215,119,168);fill-rule:nonzero;"/>
    <path id="path3278" d="M129.362,60.89L115.014,64.738L129.362,68.578C129.431,67.306 129.476,66.022 129.476,64.738C129.476,63.446 129.431,62.162 129.362,60.89" style="fill:rgb(215,119,168);fill-rule:nonzero;"/>
    <path id="path3280" d="M0,64.734C0,66.026 0.044,67.305 0.116,68.578L14.461,64.734L0.116,60.89C0.044,62.166 0,63.442 0,64.734" style="fill:rgb(215,119,168);fill-rule:nonzero;"/>
    <path id="path3282" d="M60.894,0.112L64.74,14.455L68.584,0.112C67.309,0.039 66.03,0 64.74,0C63.449,0 62.168,0.039 60.894,0.112" style="fill:rgb(215,119,168);fill-rule:nonzero;"/>
    <path id="path3284" d="M64.738,115.016L68.582,129.356C71.7,129.177 74.767,128.774 77.749,128.162L77.749,113.303L69.18,98.452L64.738,115.016Z" style="fill:rgb(236,184,164);fill-rule:nonzero;"/>
    <path id="path3286" d="M98.453,69.171L113.303,77.747L128.169,77.747C128.776,74.76 129.178,71.7 129.36,68.578L115.014,64.734L98.453,69.171Z" style="fill:rgb(236,184,164);fill-rule:nonzero;"/>
    <path id="path3288" d="M128.168,51.721L113.304,51.721L98.452,60.297L115.014,64.734L129.362,60.894C129.177,57.771 128.776,54.708 128.168,51.721" style="fill:rgb(236,184,164);fill-rule:nonzero;"/>
    <path id="path3290" d="M16.172,51.721L1.309,51.721C0.702,54.707 0.301,57.771 0.118,60.894L14.459,64.734L31.021,60.297L16.172,51.721Z" style="fill:rgb(236,184,164);fill-rule:nonzero;"/>
    <path id="path3292" d="M0.116,68.578C0.299,71.7 0.696,74.76 1.307,77.747L16.178,77.747L31.029,69.175L14.458,64.734L0.116,68.578Z" style="fill:rgb(236,184,164);fill-rule:nonzero;"/>
    <path id="path3294" d="M51.725,113.298L51.725,128.165C54.712,128.773 57.774,129.173 60.896,129.355L64.736,115.015L60.301,98.45L51.725,113.298Z" style="fill:rgb(236,184,164);fill-rule:nonzero;"/>
    <path id="path3296" d="M51.725,1.307L51.725,16.17L60.301,31.021L64.736,14.455L60.896,0.112C57.774,0.298 54.712,0.694 51.725,1.307" style="fill:rgb(236,184,164);fill-rule:nonzero;"/>
    <path id="path3298" d="M64.738,14.455L69.179,31.021L77.748,16.173L77.748,1.307C74.766,0.694 71.703,0.295 68.581,0.117L64.738,14.455Z" style="fill:rgb(236,184,164);fill-rule:nonzero;"/>
    <path id="path3300" d="M69.177,98.451L77.752,113.298L77.752,96.15L71.477,89.875L69.177,98.451Z" style="fill:rgb(243,208,144);fill-rule:nonzero;"/>
    <path id="path3302" d="M89.877,71.471L96.152,77.747L113.301,77.747L98.451,69.171L89.877,71.471Z" style="fill:rgb(243,208,144);fill-rule:nonzero;"/>
    <path id="path3304" d="M98.451,60.297L90.765,64.738L98.451,69.175L115.016,64.734L98.451,60.297Z" style="fill:rgb(243,208,144);fill-rule:nonzero;"/>
    <path id="path3306" d="M96.155,51.721L89.876,57.996L98.451,60.296L113.305,51.72L96.155,51.72L96.155,51.721Z" style="fill:rgb(243,208,144);fill-rule:nonzero;"/>
    <path id="path3308" d="M33.323,51.721L16.17,51.721L31.019,60.297L39.599,57.997L33.323,51.721Z" style="fill:rgb(243,208,144);fill-rule:nonzero;"/>
    <path id="path3310" d="M31.021,60.297L14.459,64.734L31.024,69.175L38.713,64.738L31.021,60.297Z" style="fill:rgb(243,208,144);fill-rule:nonzero;"/>
    <path id="path3312" d="M16.178,77.747L33.324,77.747L39.599,71.471L31.029,69.171L16.178,77.747Z" style="fill:rgb(243,208,144);fill-rule:nonzero;"/>
    <path id="path3314" d="M60.299,98.451L64.739,115.016L69.175,98.451L64.739,90.76L60.299,98.451Z" style="fill:rgb(243,208,144);fill-rule:nonzero;"/>
    <path id="path3316" d="M51.725,96.15L51.725,113.297L60.301,98.45L58,89.875L51.725,96.15Z" style="fill:rgb(243,208,144);fill-rule:nonzero;"/>
    <path id="path3318" d="M51.725,33.321L58.004,39.597L60.301,31.025L51.725,16.173L51.725,33.321Z" style="fill:rgb(243,208,144);fill-rule:nonzero;"/>
    <path id="path3320" d="M60.299,31.025L64.739,38.712L69.175,31.025L64.74,14.459L60.299,31.025Z" style="fill:rgb(243,208,144);fill-rule:nonzero;"/>
    <path id="path3322" d="M71.477,39.597L77.752,33.321L77.752,16.173L69.177,31.021L71.477,39.597Z" style="fill:rgb(243,208,144);fill-rule:nonzero;"/>
    <path id="path3324" d="M71.477,89.875L77.752,96.15L77.752,87.276L72.917,84.483L71.477,89.875Z" style="fill:rgb(249,221,131);fill-rule:nonzero;"/>
    <path id="path3326" d="M87.277,77.747L96.153,77.747L89.878,71.471L84.484,72.918L87.277,77.747Z" style="fill:rgb(249,221,131);fill-rule:nonzero;"/>
    <path id="path3328" d="M85.898,61.93L90.763,64.738L98.452,60.297L89.879,57.997" style="fill:rgb(249,221,131);fill-rule:nonzero;"/>
    <path id="path3330" d="M90.765,64.738L85.93,67.527L89.879,71.467L98.452,69.171L90.765,64.738Z" style="fill:rgb(249,221,131);fill-rule:nonzero;"/>
    <path id="path3332" d="M39.599,57.997L31.023,60.297L38.712,64.738L43.578,61.93" style="fill:rgb(249,221,131);fill-rule:nonzero;"/>
    <path id="path3334" d="M38.712,64.738L31.026,69.171L39.598,71.467L43.547,67.527L38.712,64.738Z" style="fill:rgb(249,221,131);fill-rule:nonzero;"/>
    <path id="path3336" d="M33.325,77.747L42.201,77.747L44.99,72.918L39.601,71.471L33.325,77.747Z" style="fill:rgb(249,221,131);fill-rule:nonzero;"/>
    <path id="path3338" d="M64.738,90.763L69.179,98.451L71.477,89.875L67.531,85.926L64.738,90.763Z" style="fill:rgb(249,221,131);fill-rule:nonzero;"/>
    <path id="path3340" d="M58.002,89.871L60.299,98.451L64.737,90.763L61.945,85.93L58.002,89.871Z" style="fill:rgb(249,221,131);fill-rule:nonzero;"/>
    <path id="path3342" d="M51.725,87.272L51.725,96.15L58,89.875L56.56,84.48L51.725,87.272Z" style="fill:rgb(249,221,131);fill-rule:nonzero;"/>
    <path id="path3344" d="M51.725,42.195L56.56,44.984L58.004,39.601L51.725,33.321L51.725,42.195Z" style="fill:rgb(249,221,131);fill-rule:nonzero;"/>
    <path id="path3346" d="M58.004,39.597L61.946,43.545L64.735,38.712L60.298,31.021L58.004,39.597Z" style="fill:rgb(249,221,131);fill-rule:nonzero;"/>
    <path id="path3348" d="M64.738,38.712L67.531,43.545L71.477,39.597L69.179,31.021L64.738,38.712Z" style="fill:rgb(249,221,131);fill-rule:nonzero;"/>
    <path id="path3350" d="M72.919,44.988L77.75,42.199L77.75,33.317L71.479,39.597L72.919,44.988Z" style="fill:rgb(249,221,131);fill-rule:nonzero;"/>
    <path id="path3352" d="M72.919,84.483L77.75,87.276L77.75,81.694L73.941,80.674L72.919,84.483Z" style="fill:rgb(247,227,122);fill-rule:nonzero;"/>
    <path id="path3354" d="M81.699,77.747L87.275,77.747L84.486,72.918L80.677,73.934L81.699,77.747Z" style="fill:rgb(247,227,122);fill-rule:nonzero;"/>
    <path id="path3356" d="M85.93,67.522L82.515,69.496L84.486,72.917L89.88,71.47L85.93,67.522Z" style="fill:rgb(247,227,122);fill-rule:nonzero;"/>
    <path id="path3358" d="M85.93,61.945L83.138,64.738L85.93,67.523L90.763,64.738L85.93,61.945Z" style="fill:rgb(247,227,122);fill-rule:nonzero;"/>
    <path id="path3360" d="M43.547,61.945L38.712,64.738L43.547,67.527L46.334,64.738L43.547,61.945Z" style="fill:rgb(247,227,122);fill-rule:nonzero;"/>
    <path id="path3362" d="M43.547,67.526L39.598,71.47L44.987,72.913L46.962,69.5L43.547,67.526Z" style="fill:rgb(247,227,122);fill-rule:nonzero;"/>
    <path id="path3364" d="M42.201,77.747L47.781,77.747L48.803,73.934L44.99,72.918L42.201,77.747Z" style="fill:rgb(247,227,122);fill-rule:nonzero;"/>
    <path id="path3366" d="M67.529,85.93L71.477,89.879L72.921,84.483L69.502,82.509L67.529,85.93Z" style="fill:rgb(247,227,122);fill-rule:nonzero;"/>
    <path id="path3368" d="M61.947,85.926L64.74,90.763L67.527,85.926L64.74,83.134L61.947,85.926Z" style="fill:rgb(247,227,122);fill-rule:nonzero;"/>
    <path id="path3370" d="M56.556,84.483L58.002,89.871L61.946,85.926L59.972,82.513L56.556,84.483Z" style="fill:rgb(247,227,122);fill-rule:nonzero;"/>
    <path id="path3372" d="M51.725,81.695L51.725,87.273L56.56,84.481L55.534,80.672L51.725,81.695Z" style="fill:rgb(247,227,122);fill-rule:nonzero;"/>
    <path id="path3374" d="M51.725,47.78L55.534,48.8L56.56,44.984L51.725,42.195L51.725,47.78Z" style="fill:rgb(247,227,122);fill-rule:nonzero;"/>
    <path id="path3376" d="M56.56,44.984L59.975,46.958L61.949,43.545L58.005,39.597L56.56,44.984Z" style="fill:rgb(247,227,122);fill-rule:nonzero;"/>
    <path id="path3378" d="M61.949,43.545L64.738,46.334L67.529,43.545L64.738,38.709L61.949,43.545Z" style="fill:rgb(247,227,122);fill-rule:nonzero;"/>
    <path id="path3380" d="M67.529,43.545L69.503,46.958L72.922,44.984L71.478,39.597L67.529,43.545Z" style="fill:rgb(247,227,122);fill-rule:nonzero;"/>
    <path id="path3382" d="M73.94,48.796L77.749,47.776L77.749,42.199L72.92,44.988L73.94,48.796Z" style="fill:rgb(247,227,122);fill-rule:nonzero;"/>
    <path id="path3384" d="M77.75,77.747L81.698,77.747L80.677,73.934L77.75,74.722L77.75,77.747Z" style="fill:rgb(247,230,118);fill-rule:nonzero;"/>
    <path id="path3386" d="M73.94,80.675L77.749,81.695L77.749,77.747L74.728,77.747L73.94,80.675Z" style="fill:rgb(247,230,118);fill-rule:nonzero;"/>
    <path id="path3388" d="M51.725,77.747L51.725,81.695L55.534,80.675L54.752,77.747L51.725,77.747Z" style="fill:rgb(247,230,118);fill-rule:nonzero;"/>
    <path id="path3390" d="M48.799,73.938L47.779,77.751L51.727,77.751L51.727,74.722L48.799,73.938Z" style="fill:rgb(247,230,118);fill-rule:nonzero;"/>
    <path id="path3392" d="M80.677,73.938L84.486,72.914L82.515,69.5L79.894,71.013L80.677,73.938Z" style="fill:rgb(247,230,118);fill-rule:nonzero;"/>
    <path id="path3394" d="M83.14,64.734L80.998,66.875L82.513,69.497L85.932,67.523L83.14,64.734Z" style="fill:rgb(247,230,118);fill-rule:nonzero;"/>
    <path id="path3396" d="M85.902,61.926C84.926,62.814 83.892,63.644 82.812,64.405L83.142,64.735L85.93,61.946L85.902,61.926Z" style="fill:rgb(247,230,118);fill-rule:nonzero;"/>
    <path id="path3398" d="M46.666,64.408C45.586,63.644 44.552,62.818 43.581,61.929L43.548,61.944L46.337,64.737L46.666,64.408Z" style="fill:rgb(247,230,118);fill-rule:nonzero;"/>
    <path id="path3400" d="M46.336,64.738L43.547,67.527L46.962,69.497L48.475,66.879L46.336,64.738Z" style="fill:rgb(247,230,118);fill-rule:nonzero;"/>
    <path id="path3402" d="M48.801,73.938L49.584,71.014L46.962,69.5L44.987,72.913L48.801,73.938Z" style="fill:rgb(247,230,118);fill-rule:nonzero;"/>
    <path id="path3404" d="M69.5,82.509L72.921,84.48L73.942,80.671L71.015,79.892L69.5,82.509Z" style="fill:rgb(247,230,118);fill-rule:nonzero;"/>
    <path id="path3406" d="M64.738,83.138L67.531,85.93L69.499,82.509L66.88,80.996L64.738,83.138Z" style="fill:rgb(247,230,118);fill-rule:nonzero;"/>
    <path id="path3408" d="M59.973,82.509L61.947,85.926L64.736,83.137L62.595,80.996L59.973,82.509Z" style="fill:rgb(247,230,118);fill-rule:nonzero;"/>
    <path id="path3410" d="M55.534,80.675L56.556,84.484L59.975,82.514L58.462,79.892L55.534,80.675Z" style="fill:rgb(247,230,118);fill-rule:nonzero;"/>
    <path id="path3412" d="M55.534,48.796L51.725,47.776L51.725,51.721L54.752,51.721L55.534,48.796Z" style="fill:rgb(247,230,118);fill-rule:nonzero;"/>
    <path id="path3414" d="M59.973,46.958L56.558,44.984L55.534,48.797L58.46,49.585L59.973,46.958Z" style="fill:rgb(247,230,118);fill-rule:nonzero;"/>
    <path id="path3416" d="M64.738,46.333L61.949,43.541L59.975,46.958L62.597,48.475L64.738,46.333Z" style="fill:rgb(247,230,118);fill-rule:nonzero;"/>
    <path id="path3418" d="M69.5,46.958L67.526,43.545L64.739,46.334L66.88,48.475L69.5,46.958Z" style="fill:rgb(247,230,118);fill-rule:nonzero;"/>
    <path id="path3420" d="M73.94,48.796L72.919,44.987L69.5,46.962L71.013,49.584L73.94,48.796Z" style="fill:rgb(247,230,118);fill-rule:nonzero;"/>
    <path id="path3422" d="M77.75,51.721L77.75,47.772L73.941,48.796L74.722,51.721L77.75,51.721Z" style="fill:rgb(247,230,118);fill-rule:nonzero;"/>
    <path id="path3424" d="M69.736,69.729L77.751,77.746L77.751,74.721L80.678,73.937L79.896,71.013L82.512,69.5L80.999,66.875L83.141,64.734L82.811,64.408L82.811,64.4" style="fill:rgb(247,234,119);fill-rule:nonzero;"/>
    <path id="path3426" d="M74.723,51.721L73.942,48.796L71.013,49.58L69.5,46.962L66.879,48.475L64.739,46.334L62.598,48.475L59.972,46.962L58.46,49.58L55.532,48.8L54.754,51.721L51.723,51.721C56.616,51.721 60.874,54.424 63.099,58.411C63.622,58.275 64.171,58.198 64.74,58.198C65.303,58.198 65.855,58.276 66.379,58.411C68.604,54.424 72.862,51.721 77.751,51.721L74.723,51.721Z" style="fill:rgb(247,234,119);fill-rule:nonzero;"/>
    <path id="path3428" d="M46.667,64.4L46.667,64.404L46.334,64.734L48.475,66.879L46.964,69.497L49.582,71.01L48.801,73.938L51.727,74.718L51.727,77.747L59.743,69.73" style="fill:rgb(247,234,119);fill-rule:nonzero;"/>
    <path id="path3430" d="M77.75,113.298L85.186,126.175C88.131,125.194 90.985,124.007 93.725,122.634L89.879,108.279L77.75,96.15L77.75,113.298Z" style="fill:rgb(0,101,189);fill-rule:nonzero;"/>
    <path id="path3432" d="M35.751,6.838L39.601,21.192L51.726,33.32L51.726,16.173L44.29,3.296C41.344,4.278 38.491,5.465 35.751,6.838" style="fill:rgb(0,101,189);fill-rule:nonzero;"/>
    <path id="path3434" d="M21.761,16.325L29.185,29.187L44.034,37.758L39.599,21.189L29.093,10.689C26.514,12.392 24.065,14.281 21.761,16.325" style="fill:rgb(0,101,189);fill-rule:nonzero;"/>
    <path id="path3436" d="M89.879,108.279L100.38,118.782C102.961,117.079 105.412,115.19 107.713,113.146L100.289,100.285L85.437,91.709L89.879,108.279Z" style="fill:rgb(0,101,189);fill-rule:nonzero;"/>
    <path id="path3438" d="M21.201,39.601L6.84,35.753C5.465,38.491 4.278,41.346 3.297,44.29L16.172,51.722L33.323,51.722L21.201,39.601Z" style="fill:rgb(0,101,189);fill-rule:nonzero;"/>
    <path id="path3440" d="M29.185,29.183L16.33,21.763C14.284,24.063 12.397,26.511 10.694,29.094L21.203,39.601L37.761,44.034L29.185,29.183Z" style="fill:rgb(0,101,189);fill-rule:nonzero;"/>
    <path id="path3442" d="M113.304,77.747L96.155,77.747L108.281,89.872L122.635,93.724C124.014,90.982 125.2,88.131 126.182,85.183L113.304,77.747Z" style="fill:rgb(0,101,189);fill-rule:nonzero;"/>
    <path id="path3444" d="M108.279,89.875L91.714,85.434L100.29,100.285L113.149,107.713C115.195,105.409 117.082,102.958 118.785,100.379L108.279,89.875Z" style="fill:rgb(0,101,189);fill-rule:nonzero;"/>
    <path id="path3446" d="M16.178,77.747L3.299,85.182C4.278,88.13 5.467,90.981 6.84,93.723L21.199,89.871L33.324,77.746L16.178,77.746L16.178,77.747Z" style="fill:rgb(0,101,189);fill-rule:nonzero;"/>
    <path id="path3448" d="M21.197,89.875L10.692,100.378C12.397,102.957 14.284,105.408 16.328,107.712L29.189,100.284L37.765,85.433L21.197,89.875Z" style="fill:rgb(0,101,189);fill-rule:nonzero;"/>
    <path id="path3450" d="M122.636,35.749L108.277,39.597L96.153,51.721L113.306,51.721L126.179,44.285C125.198,41.342 124.009,38.487 122.636,35.749" style="fill:rgb(0,101,189);fill-rule:nonzero;"/>
    <path id="path3452" d="M113.151,21.759L100.288,29.187L91.716,44.034L108.281,39.597L118.783,29.094C117.078,26.514 115.197,24.063 113.151,21.759" style="fill:rgb(0,101,189);fill-rule:nonzero;"/>
    <path id="path3454" d="M39.599,108.275L35.753,122.634C38.493,124.007 41.346,125.194 44.292,126.175L51.723,113.298L51.723,96.15L39.599,108.275Z" style="fill:rgb(0,101,189);fill-rule:nonzero;"/>
    <path id="path3456" d="M29.188,100.285L21.76,113.146C24.064,115.19 26.515,117.075 29.093,118.778L39.598,108.275L44.039,91.71L29.188,100.285Z" style="fill:rgb(0,101,189);fill-rule:nonzero;"/>
    <path id="path3458" d="M89.879,21.192L93.723,6.838C90.983,5.465 88.131,4.278 85.184,3.296L77.748,16.173L77.748,33.317L89.879,21.192Z" style="fill:rgb(0,101,189);fill-rule:nonzero;"/>
    <path id="path3460" d="M89.879,21.192L85.438,37.757L100.29,29.186L107.714,16.328C105.413,14.276 102.962,12.395 100.385,10.689L89.879,21.192Z" style="fill:rgb(0,101,189);fill-rule:nonzero;"/>
    <path id="path3462" d="M96.155,51.721L77.749,51.721C72.86,51.721 68.603,54.424 66.379,58.411C65.856,58.275 65.307,58.198 64.738,58.198C64.169,58.198 63.623,58.276 63.097,58.411C60.876,54.424 56.616,51.721 51.727,51.721L33.321,51.721L42.654,61.053C47.214,65.556 53.129,68.675 59.742,69.73L51.726,77.751L54.751,77.751L55.534,80.671L58.457,79.892L59.972,82.51L62.596,80.997L64.737,83.138L66.879,80.997L69.5,82.51L71.013,79.892L73.94,80.671L74.727,77.751L77.748,77.751L69.735,69.73C76.345,68.675 82.26,65.557 86.824,61.053L96.155,51.721Z" style="fill:white;fill-rule:nonzero;"/>
    <g transform="matrix(1.08578,0,0,1.08578,-7.94806,61.2363)">
        <text x="147.574px" y="-8.132px" style="font-family:'LucidaGrande-Bold', 'Lucida Grande', sans-serif;font-weight:600;font-size:44.532px;fill:rgb(0,101,189);">Hverlandip</text>
    </g>
    <g transform="matrix(1.08578,0,0,1.08578,-7.94806,110.847)">
        <text x="147.574px" y="-8.132px" style="font-family:'LucidaGrande-Bold', 'Lucida Grande', sans-serif;font-weight:600;font-size:44.532px;">ilagiissia</text>
    </g>
</svg>
