<?xml version="1.0" encoding="UTF-8" standalone="no"?>
<svg
   width="256"
   height="256"
   version="1.1"
   viewBox="0 0 67.7333 67.7333"
   id="svg6"
   xmlns="http://www.w3.org/2000/svg"
   xmlns:svg="http://www.w3.org/2000/svg">
  <defs
     id="defs6" />
  <g
     transform="translate(-1.54771,-1.56222)"
     fill="#d72d34"
     id="g6">
    <path
       d="m 19.0523,27.771 a 17.3293,17.333 0 0 0 -7.55513,1.54907 17.3293,17.333 0 0 0 -9.94949,13.1503 h 4.98783 a 12.4554,12.4581 0 0 1 6.97842,-8.71228 12.4554,12.4581 0 0 1 5.275,-1.11585 12.4554,12.4581 0 0 1 11.2177,7.30286 l 3.48643,7.67313 a 12.4554,12.4581 0 0 1 3.23206,-4.66915 l -2.28145,-5.02091 a 17.3293,17.333 0 0 0 -15.3913,-10.1571 z"
       id="path1"
       style="fill:#830000;fill-opacity:1" />
    <path
       d="m 18.8598,36.4354 a 8.66465,8.66652 0 0 0 -3.77756,0.774402 8.66465,8.66652 0 0 0 -4.62478,5.26053 h 5.51721 a 3.79078,3.7916 0 0 1 1.12433,-0.822537 3.79078,3.7916 0 0 1 1.65265,-0.3388 3.79078,3.7916 0 0 1 3.36691,2.22191 l 3.22333,7.09392 3.96504,8.7263 0.0093,-0.004 a 17.3293,17.333 0 0 0 13.1382,9.94846 v -4.95743 a 12.4554,12.4581 0 0 1 -8.6684,-6.99815 l -0.04205,-0.0058 -4.97805,-10.9559 -2.21032,-4.86434 a 8.66465,8.66652 0 0 0 -7.6958,-5.07854 z"
       id="path2"
       style="fill:#830000;fill-opacity:1" />
    <path
       d="m 34.4163,18.8706 a 8.66465,8.66652 0 0 0 -0.774234,-3.77838 8.66465,8.66652 0 0 0 -5.2594,-4.62578 v 5.5184 a 3.79078,3.7916 0 0 1 0.82236,1.12457 3.79078,3.7916 0 0 1 0.338727,1.65301 3.79078,3.7916 0 0 1 -2.22143,3.36764 l -7.09239,3.22403 -8.72441,3.9659 0.0043,0.0093 a 17.3293,17.333 0 0 0 -9.94637,13.141 h 4.95637 a 12.4554,12.4581 0 0 1 6.9964,-8.67022 l 0.0058,-0.04207 10.9535,-4.97913 4.86329,-2.2108 a 8.66465,8.66652 0 0 0 5.07747,-7.69746 z"
       id="path3"
       style="fill:#830000;fill-opacity:1" />
    <path
       d="m 51.7764,43.0866 a 17.3293,17.333 0 0 0 7.55513,-1.54907 17.3293,17.333 0 0 0 9.94949,-13.1503 h -4.98784 a 12.4554,12.4581 0 0 1 -6.97842,8.71228 12.4554,12.4581 0 0 1 -5.275,1.11585 12.4554,12.4581 0 0 1 -11.2177,-7.30285 l -3.48643,-7.67313 a 12.4554,12.4581 0 0 1 -3.23206,4.66915 l 2.28145,5.02091 a 17.3293,17.333 0 0 0 15.3913,10.1571 z"
       id="path4"
       style="fill:#830000;fill-opacity:1" />
    <path
       d="m 51.9689,34.4222 a 8.66465,8.66652 0 0 0 3.77756,-0.774404 8.66465,8.66652 0 0 0 4.62478,-5.26053 h -5.51722 a 3.79078,3.7916 0 0 1 -1.12434,0.822538 3.79078,3.7916 0 0 1 -1.65265,0.338798 3.79078,3.7916 0 0 1 -3.36691,-2.2219 l -3.22333,-7.09392 -3.96504,-8.7263 -0.0093,0.0041 a 17.3293,17.333 0 0 0 -13.1381,-9.94833 v 4.95744 a 12.4554,12.4581 0 0 1 8.66835,6.99791 l 0.04205,0.0058 4.97805,10.9559 2.21032,4.86434 a 8.66465,8.66652 0 0 0 7.6958,5.07857 z"
       id="path5"
       style="fill:#830000;fill-opacity:1" />
    <path
       d="m 36.4123,51.9869 a 8.66465,8.66652 0 0 0 0.774234,3.77838 8.66465,8.66652 0 0 0 5.2594,4.62577 v -5.5184 a 3.79078,3.7916 0 0 1 -0.82236,-1.12458 3.79078,3.7916 0 0 1 -0.338727,-1.653 3.79078,3.7916 0 0 1 2.22143,-3.36764 l 7.09238,-3.22403 8.72442,-3.9659 -0.004,-0.0093 a 17.3293,17.333 0 0 0 9.94633,-13.141 h -4.95636 a 12.4554,12.4581 0 0 1 -6.9964,8.67022 l -0.0058,0.04205 -10.9535,4.97912 -4.86329,2.2108 a 8.66465,8.66652 0 0 0 -5.0776,7.69746 z"
       id="path6"
       style="fill:#830000;fill-opacity:1;stroke:none;stroke-opacity:1" />
  </g>
</svg>
