<?xml version="1.0" encoding="UTF-8" standalone="no"?>
<!DOCTYPE svg PUBLIC "-//W3C//DTD SVG 1.1//EN" "http://www.w3.org/Graphics/SVG/1.1/DTD/svg11.dtd">
<svg width="100%" height="100%" viewBox="0 0 748 748" version="1.1" xmlns="http://www.w3.org/2000/svg" xmlns:xlink="http://www.w3.org/1999/xlink" xml:space="preserve" xmlns:serif="http://www.serif.com/" style="fill-rule:evenodd;clip-rule:evenodd;stroke-linejoin:round;stroke-miterlimit:2;">
    <rect x="0" y="0" width="748" height="748" style="fill:rgb(131,0,0);"/>
    <g transform="matrix(1.13819,1.13819,-0.605146,0.605146,312.421,18.4807)">
        <rect x="159.362" y="374" width="47.426" height="261.801" style="fill:white;"/>
    </g>
    <g transform="matrix(1.13819,1.13819,-1.01139,1.01139,783.683,-239.963)">
        <rect x="159.362" y="374" width="47.426" height="261.801" style="fill:white;"/>
    </g>
    <g transform="matrix(1.13819,-1.13819,1.11664,1.11664,-304.536,110.023)">
        <rect x="159.362" y="374" width="47.426" height="261.801" style="fill:white;"/>
    </g>
    <g transform="matrix(1.13819,-1.13819,1.11664,1.11664,-517.095,110.023)">
        <rect x="159.362" y="374" width="47.426" height="261.801" style="fill:white;"/>
    </g>
    <g transform="matrix(1.13819,-1.13819,1.11664,1.11664,-304.536,-102.536)">
        <rect x="159.362" y="374" width="47.426" height="261.801" style="fill:white;"/>
    </g>
    <g transform="matrix(1.42091,0,0,1.42091,-502.564,50.1353)">
        <path d="M616.905,149.926L688.082,221.104L616.905,292.281L545.727,221.104L616.905,149.926Z" style="fill:white;"/>
    </g>
</svg>
