<?xml version="1.0" encoding="UTF-8" standalone="no"?>
<!DOCTYPE svg PUBLIC "-//W3C//DTD SVG 1.1//EN" "http://www.w3.org/Graphics/SVG/1.1/DTD/svg11.dtd">
<svg width="100%" height="100%" viewBox="0 0 317 338" version="1.1" xmlns="http://www.w3.org/2000/svg" xmlns:xlink="http://www.w3.org/1999/xlink" xml:space="preserve" xmlns:serif="http://www.serif.com/" style="fill-rule:evenodd;clip-rule:evenodd;stroke-linejoin:round;stroke-miterlimit:2;">
    <g id="Image" transform="matrix(1,0,0,1,-349.066,-25.164)">
        <path id="path869-4-8" d="M372.775,292.706C367.901,285.267 366.974,266.912 371.255,262.63C378.775,255.111 389.165,267.686 389.165,284.307C389.165,299.631 380.292,304.178 372.775,292.706Z" style="fill:rgb(24,61,101);fill-rule:nonzero;"/>
        <path id="path915" d="M541.255,94.967C533.32,90.065 525.612,76.732 525.612,67.908C525.612,44.948 553.188,50.378 563.16,75.301C570.671,94.074 558.092,105.367 541.255,94.967L541.255,94.967Z" style="fill:rgb(24,61,101);fill-rule:nonzero;"/>
        <path id="path897" d="M484.734,145.607C465.953,136.131 456.16,110.477 467.135,99.502C481.763,84.874 514.194,103.074 517.507,127.771C520.023,146.53 503.927,155.29 484.734,145.607Z" style="fill:rgb(24,61,101);fill-rule:nonzero;"/>
        <path id="path869-4" d="M642.653,95.524C647.526,102.963 648.454,121.318 644.172,125.599C636.652,133.119 626.262,120.544 626.262,103.923C626.262,88.599 635.136,84.052 642.653,95.524Z" style="fill:rgb(24,61,101);fill-rule:nonzero;"/>
        <path id="path897-5" d="M530.224,243.062C549.006,252.538 558.799,278.193 547.824,289.167C533.196,303.796 500.765,285.595 497.452,260.899C494.936,242.139 511.032,233.379 530.224,243.062Z" style="fill:rgb(24,61,101);fill-rule:nonzero;"/>
        <path id="path897-5-8" d="M476.447,238.002C477.631,259.005 460.31,280.313 445.318,276.296C425.336,270.942 424.883,233.756 444.614,218.539C459.602,206.98 475.236,216.539 476.447,238.002Z" style="fill:rgb(24,61,101);fill-rule:nonzero;"/>
        <path id="path897-5-2" d="M537.804,150.289C536.62,129.287 553.941,107.978 568.932,111.995C588.915,117.35 589.368,154.536 569.637,169.753C554.649,181.312 539.014,171.752 537.804,150.289Z" style="fill:rgb(24,61,101);fill-rule:nonzero;"/>
        <path id="path897-5-5" d="M560.563,199.036C578.16,187.509 605.274,191.855 609.291,206.847C614.645,226.829 582.667,245.815 559.623,236.336C542.119,229.135 542.581,210.816 560.563,199.036Z" style="fill:rgb(24,61,101);fill-rule:nonzero;"/>
        <path id="path897-5-4" d="M418.334,156.334C435.931,144.807 463.045,149.153 467.062,164.145C472.416,184.127 440.438,203.113 417.394,193.634C399.89,186.433 400.352,168.114 418.334,156.334Z" style="fill:rgb(24,61,101);fill-rule:nonzero;"/>
        <path id="path869-4-4" d="M660.498,260.847C656.493,268.787 641.061,278.768 635.212,277.201C624.94,274.449 630.636,259.163 645.03,250.852C658.3,243.19 666.675,248.602 660.498,260.847Z" style="fill:rgb(24,61,101);fill-rule:nonzero;"/>
        <path id="path869-4-9" d="M508.644,336.106C517.523,335.604 533.883,343.979 535.45,349.827C536.837,355.003 533.441,358.259 527.888,359.153C522.421,360.033 514.864,358.623 507.722,354.5C494.452,346.838 494.951,336.879 508.644,336.106Z" style="fill:rgb(24,61,101);fill-rule:nonzero;"/>
        <path id="path869-4-89" d="M487.582,28.186C496.461,27.684 512.821,36.058 514.388,41.907C517.14,52.179 501.054,54.89 486.66,46.579C473.389,38.918 473.888,28.959 487.582,28.186Z" style="fill:rgb(24,61,101);fill-rule:nonzero;"/>
        <path id="path869-4-3" d="M354.137,126.946C358.141,119.006 373.574,109.025 379.422,110.592C389.695,113.344 383.999,128.631 369.605,136.941C356.334,144.603 347.96,139.192 354.137,126.946Z" style="fill:rgb(24,61,101);fill-rule:nonzero;"/>
        <path id="path915-8" d="M610.251,174.034C610.528,164.712 618.221,151.37 625.863,146.958C645.747,135.478 654.833,162.074 638.235,183.172C625.733,199.063 609.662,193.816 610.251,174.034L610.251,174.034Z" style="fill:rgb(24,61,101);fill-rule:nonzero;"/>
        <path id="path915-4" d="M575.807,273.492C584.019,269.071 599.42,269.062 607.062,273.474C626.946,284.954 608.456,306.12 581.885,302.295C561.872,299.414 558.382,282.873 575.807,273.492L575.807,273.492Z" style="fill:rgb(24,61,101);fill-rule:nonzero;"/>
        <path id="path915-1" d="M473.217,292.462C481.151,297.363 488.859,310.696 488.859,319.521C488.859,342.481 461.284,337.051 451.311,312.127C443.8,293.355 456.38,282.061 473.217,292.462L473.217,292.462Z" style="fill:rgb(24,61,101);fill-rule:nonzero;"/>
        <path id="path915-85" d="M404.411,213.96C404.133,223.283 396.44,236.625 388.798,241.037C368.914,252.517 359.829,225.921 376.427,204.823C388.929,188.931 404.999,194.179 404.411,213.96L404.411,213.96Z" style="fill:rgb(24,61,101);fill-rule:nonzero;"/>
        <path id="path915-9" d="M438.54,115.333C430.328,119.754 414.927,119.763 407.285,115.351C387.401,103.871 405.891,82.705 432.462,86.53C452.475,89.411 455.965,105.952 438.54,115.334L438.54,115.333Z" style="fill:rgb(24,61,101);fill-rule:nonzero;"/>
    </g>
    <g id="Layer1">
    </g>
</svg>
