<?xml version="1.0" encoding="UTF-8" standalone="no"?>
<svg
   viewBox="0 0 91 60"
   version="1.1"
   id="svg2"
   sodipodi:docname="Water_Natuurlijk_logo.svg"
   inkscape:version="1.4 (e7c3feb1, 2024-10-09)"
   xmlns:inkscape="http://www.inkscape.org/namespaces/inkscape"
   xmlns:sodipodi="http://sodipodi.sourceforge.net/DTD/sodipodi-0.dtd"
   xmlns="http://www.w3.org/2000/svg"
   xmlns:svg="http://www.w3.org/2000/svg">
  <defs
     id="defs2" />
  <sodipodi:namedview
     id="namedview2"
     pagecolor="#ffffff"
     bordercolor="#000000"
     borderopacity="0.25"
     inkscape:showpageshadow="2"
     inkscape:pageopacity="0.0"
     inkscape:pagecheckerboard="0"
     inkscape:deskcolor="#d1d1d1"
     inkscape:zoom="3.4776232"
     inkscape:cx="12.077214"
     inkscape:cy="24.441981"
     inkscape:window-width="1392"
     inkscape:window-height="707"
     inkscape:window-x="0"
     inkscape:window-y="37"
     inkscape:window-maximized="0"
     inkscape:current-layer="svg2" />
  <path
     fill="#00aa11"
     d="M 91,59.686 H 40.579 c 2.44,-2.005 1.962,-4.642 2.065,-7.101 0.138,-3.342 0.223,-6.674 0.254,-9.995 0,-0.776 0.268,-1.143 0.946,-1.494 6.399335,-3.299401 12.848069,-6.502098 19.344,-9.607 1.644,-0.786 3.281,-1.584 4.709,-2.74 0.374,-0.305 0.912,-0.629 0.738,-1.2 -0.154,-0.491 -0.715,-0.558 -1.176,-0.608 -0.769,-0.077 -1.544,-0.147 -2.316,-0.154 -3.102,-0.027 -6.203,-0.027 -9.304,-0.04 -1.090817,0.01651 -2.168906,-0.235929 -3.139,-0.735 -2.005,-1.06 -2.5,-3.008 -1.226,-4.886 1.003,-1.5 2.44,-2.586 3.9,-3.619 0.759,-0.535 1.55,-1.026 2.3,-1.577 0.287,-0.21 0.768,-0.435 0.574,-0.882 -0.16,-0.375 -0.618,-0.197 -0.949,-0.174 -1.504,0.097 -3.008,0.287 -4.522,0.09 -2.714,-0.334 -3.846,-1.55 -2.41,-4.755 C 51.036,8.702 52.393,7.683 53.596,6.586 54.799,5.49 56.173,4.581 57.192,3.295 57.911,2.383 57.797,2.115 56.667,1.831 55.961277,1.6093614 55.216789,1.538831 54.482,1.624 53.529,1.798 53.426,1.203 53.359,0.584 53.262,-0.267 53.98,0.067 54.335,0.05 c 1.898902,-0.13716792 3.806817,0.07708268 5.628,0.632 2.596,0.872 3.007,2.626 1.022,4.49 -1.697,1.588 -3.555,3.008 -5.045,4.807 -0.378,0.458 -1.093,0.953 -0.829,1.534 0.264,0.582 1.056,0.194 1.608,0.194 1.396,0 2.79,-0.087 4.174,0.174 0.77,0.112 1.505,0.394 2.152,0.825 1.21,0.886 1.39,1.892 0.495,3.085 -1.267,1.69 -2.941,2.967 -4.522,4.344 -0.96,0.828 -2.005,1.574 -2.83,2.636 0.644,0.395 1.272,0.247 1.867,0.258 3.446,0.043 6.905,-0.228 10.317,0.488 1.808,0.377 3.506,1.002 4.843,2.339 1.09,1.096 1.18,2.028 0.31,3.318 -0.8577,1.20663 -1.968585,2.211374 -3.255,2.944 -5.718,3.495 -11.617,6.663 -17.572,9.738 -2.52,1.3 -2.513,1.286 -2.286,4.097 0.227,2.81 0.401,5.564 0.628,8.354 0.14,1.704 0.238,1.778 1.912,2.005 7.884,1.026 15.804,1.62 23.728,2.142 4.601,0.3 9.203,0.607 13.806,0.919 0.184,0 0.398,-0.03 0.512,0.334"
     id="path1"
     sodipodi:nodetypes="cccccccccccccccccccccccccccccsccccccccccccccccc"
     style="fill:#00821a;fill-opacity:1" />
  <path
     fill="#0083F1"
     d="M41.802 9.273c.521.401 1.176.314 1.754.478a7.24 7.24 0 0 1 2.778 1.394c1.3 1.089 1.377 2.406.18 3.595-1.196 1.19-2.674 2.112-4.13 2.988-2.163 1.286-4.472 2.339-6.44 3.926-.318.258-.612.548-1.07.963 1.952-.214 3.676-.398 5.387-.599a8.727 8.727 0 0 1 2.888.168c1.604.357 1.878 1.256.775 2.452A12.01 12.01 0 0 1 41.25 26.7c-3.395 2.089-7.001 3.823-10.246 6.169-1.728 1.25-3.493 2.443-5.04 3.926a9.413 9.413 0 0 0-1.838 2.38c-.481.915-.29 1.25.725 1.106 1.53-.214 3.055-.505 4.572-.816 3.302-.668 6.497-1.77 9.735-2.693.358-.104.699-.358 1.297-.104-.832.863-1.444 1.858-2.426 2.443-4.114 2.443-8.355 4.595-13.241 5.013-1.08.093-2.163.187-3.232-.1-2.263-.605-3.463-2.744-2.7-4.946a10.586 10.586 0 0 1 3.649-5.126c2.88-2.18 6.096-3.833 9.144-5.748.414-.26.912-.415 1.31-1.076-1.305.36-2.662.485-4.01.37-1.087-.076-2.093-.313-2.584-1.443-.491-1.13-.09-2.122.612-3.007.748-.96 1.747-1.638 2.727-2.34 2.88-2.038 5.912-3.842 8.88-5.74.668-.435 1.336-.9 2.118-1.428-.785-.43-1.48-.16-2.128-.257-.649-.097-1.4-.1-2.07-.27-1.002-.258-1.533-1.163-1.393-2.246a4.37 4.37 0 0 1 2.152-3.165c4.345-2.767 8.783-5.396 13.743-6.96.434-.137 1.093-.689 1.337-.134a1.49 1.49 0 0 1-.632 1.921c-3.128 1.728-5.825 4.097-8.893 5.919-.388.227-.852.404-1.033.922m-7.723 50.7c-2.266-.06-4.238-1.026-6.06-2.32-.637-.454-.982-.387-1.543.118-3.175 2.87-5.889 2.924-9.197.173-.582-.48-.876-.437-1.414.04-3.008 2.674-5.959 2.7-8.917.05-.688-.614-1.002-.48-1.557.074a5.682 5.682 0 0 1-3.603 1.698C.83 59.88.101 59.539.017 58.55c-.067-.902.531-1.41 1.437-1.487 1.51-.127 2.406-1.143 3.228-2.243 1.003-1.336 1.648-1.36 2.747-.127.335.375.669.746 1.05 1.087 2.199 2.031 4.124 1.914 6.079-.358 1.808-2.105 1.808-2.105 3.84-.127 2.62 2.553 4.345 2.51 6.864-.167.184-.2.355-.411.538-.612.803-.882 1.367-.955 2.29-.203a15.969 15.969 0 0 0 3.713 2.362c2.249.97 4.311.668 6.106-1.036.668-.642 1.373-.769 2.045-.117.672.652.498 1.414-.107 2.055-1.557 1.651-3.543 2.286-5.785 2.393Z"
     id="path2"
     style="fill:#377db4;fill-opacity:1" />
</svg>
