<?xml version="1.0" encoding="UTF-8" standalone="no"?>
<!DOCTYPE svg PUBLIC "-//W3C//DTD SVG 1.1//EN" "http://www.w3.org/Graphics/SVG/1.1/DTD/svg11.dtd">
<svg width="100%" height="100%" viewBox="0 0 161 220" version="1.1" xmlns="http://www.w3.org/2000/svg" xmlns:xlink="http://www.w3.org/1999/xlink" xml:space="preserve" xmlns:serif="http://www.serif.com/" style="fill-rule:evenodd;clip-rule:evenodd;stroke-linejoin:round;stroke-miterlimit:2;">
    <g id="_-1a171bff" serif:id="#1a171bff">
        <path d="M56.07,0L58,0C61.82,4.1 65.1,8.7 67.95,13.53C66.59,14.68 65.24,15.83 63.89,16.99C56.7,14.77 53.41,7.58 49.33,1.92C51.57,1.25 53.81,0.57 56.07,0Z" style="fill:rgb(26,23,27);fill-rule:nonzero;"/>
        <path d="M123.26,12.5C125.89,11.5 129.41,11.04 131.5,13.36C133.09,16.29 130.07,18.47 128.27,20.3C124.97,23.31 122.52,27.19 118.96,29.91C116.08,30.57 110.07,28.23 112.38,24.47C115.94,20.44 119.28,16.1 123.26,12.5Z" style="fill:rgb(26,23,27);fill-rule:nonzero;"/>
        <path d="M84.03,37.04C88.85,35.7 94.51,35.14 98.8,38.24C102.29,40.56 102.86,45.15 102.94,49.01C102.93,56.67 100.68,64.08 99.47,71.6C102.7,71.41 105.98,71.68 108.78,73.45C112.15,72.84 115.55,72.13 118.99,72.29C123.48,72.51 127.44,76.34 127.74,80.84C128.69,90.78 126.61,101.05 121.72,109.78C119.75,112.83 120.05,116.6 119.61,120.06C119.35,124.53 117.84,129.12 119.45,133.51C123.89,148.4 127.17,163.62 129.39,179C130.79,190.41 137.47,200.79 136.67,212.53C125.93,211.87 115.14,214.05 105.02,217.53C94.36,218.3 83.71,219.45 73.03,220L70.34,220C68.38,219.09 66.49,218.03 64.59,216.99C63.82,211.11 62.88,205.21 63.54,199.27C62.92,191.51 63.92,183.62 62.19,175.95C60.89,170.04 61.12,163.96 61.53,157.96C61.4,151.45 61.31,144.9 60.44,138.44C59.81,132.82 55.19,129.03 52.84,124.16C49.84,117.55 44.53,112.46 40.66,106.4C36.97,101.49 35.11,95.57 33.58,89.7C36.46,84.88 41.14,81.71 46.2,79.52C43.96,71.03 40.85,62.71 39.81,53.96C39.47,50.7 39.68,46.64 42.71,44.65C47.38,41.82 53.43,39.6 58.67,42.28C66.77,45.37 67.57,55.11 71.25,61.83C72.51,55.49 73.56,49.04 76.03,43.03C77.25,39.64 80.83,38.02 84.03,37.04M85.5,45.46C82.14,50.92 81.31,57.38 80.26,63.57C79.39,67.63 78.78,71.74 78.2,75.84C81.56,76.41 84.88,77.2 88.08,78.36C90.43,66.8 95.33,55.13 93.1,43.17C90.52,43.51 87.38,43.34 85.5,45.46M49.93,49C46.92,51 47.85,54.98 48.51,57.94C50.3,64.53 51.95,71.16 53.96,77.7C58.21,77.49 62.43,76.94 66.59,76.04C64.11,67.36 60.75,58.99 57.27,50.68C56.08,47.97 52.09,46.64 49.93,49M97.34,79.09C95.53,85.28 96.06,91.83 94.81,98.12C94.65,100.52 93.95,104.66 97.06,105.31C100.88,102.88 101.31,98 102.12,93.96C102.62,90.3 103.76,86.72 103.92,83.01C104.02,80.25 102.05,78.13 100.39,76.18C99.38,77.15 98.08,77.87 97.34,79.09M112.95,79.74C113.52,86.6 111.44,93.25 110.26,99.93C109.89,102.94 108.38,105.58 106.91,108.16C108.77,108.35 110.66,108.83 112.52,108.46C117.04,101.58 118.64,93.15 118.74,85.02C118.68,83.03 119.11,80.83 118,79.04C116.28,78.85 114.61,79.42 112.95,79.74M53.88,86.28C50.99,85.7 48.13,86.23 45.67,87.86C44.3,89.51 42.15,91.3 43.28,93.72C45.99,101.85 52.27,108.04 57.03,114.99C59.96,118.61 61.57,123.06 64.35,126.77C65.85,129.03 68.79,128.78 71.14,129.25C76.48,129.52 81.74,128.36 87.05,127.99C94.73,127.52 102.24,125.62 109.65,123.61C110.14,120.75 110.59,117.89 110.97,115.02C105.34,113.67 99.83,111.87 94.02,111.4C88.41,110.72 84.84,105.49 85.06,100.05C78.38,101.41 71.65,102.6 64.9,103.48C60.88,104.12 56.97,102.5 53.81,100.14C58.73,96.42 65.12,97.14 70.89,96.4C74.61,95.88 78.4,95.77 82.1,95.1C85.05,92.6 84.88,87.44 82.41,84.63C77.27,82.35 71.46,83.72 66.05,83.92C61.98,84.5 57.48,83.91 53.88,86.28M72.28,137.2C74.58,143.46 80.63,146.72 86.07,149.85C90.64,152.26 96.69,152.36 100.71,148.79C105.84,145.41 106.31,138.67 106.41,133.11C95.24,135.95 83.69,136.05 72.28,137.2Z" style="fill:rgb(26,23,27);fill-rule:nonzero;"/>
        <path d="M0,49.19C5.72,46.06 12.12,48.59 18.01,49.76C20.02,49.95 21.13,51.67 22.27,53.1C21.4,54.52 20.55,55.96 19.71,57.4C12.93,56.79 6.04,55.66 0,52.35L0,49.19Z" style="fill:rgb(26,23,27);fill-rule:nonzero;"/>
        <path d="M139.75,87.1C140.67,84.23 144.1,83.33 146.78,83.6C151.59,84.26 156.53,84.81 161,86.84L161,90.19C159.77,91.05 158.69,92.56 157.06,92.53C152.71,92.47 148.38,91.69 144.17,90.61C142.37,90.04 140,89.32 139.75,87.1Z" style="fill:rgb(26,23,27);fill-rule:nonzero;"/>
        <path d="M5.35,108.31C9.87,106.13 14.09,103.19 18.98,101.92C20.81,101.29 22.58,102.32 24.27,102.86C23.67,105.08 23.83,108.18 21.29,109.21C16.89,111.59 12.29,113.58 7.9,115.98C5.81,115.13 2.69,115.28 1.62,112.99C0.6,110.4 3.65,109.39 5.35,108.31Z" style="fill:rgb(26,23,27);fill-rule:nonzero;"/>
    </g>
    <g id="_-fdcf67ff" serif:id="#fdcf67ff">
        <path d="M85.5,45.46C87.38,43.34 90.52,43.51 93.1,43.17C95.33,55.13 90.43,66.8 88.08,78.36C84.88,77.2 81.56,76.41 78.2,75.84C78.78,71.74 79.39,67.63 80.26,63.57C81.31,57.38 82.14,50.92 85.5,45.46Z" style="fill:rgb(82,181,125);fill-rule:nonzero;"/>
        <path d="M49.93,49C52.09,46.64 56.08,47.97 57.27,50.68C60.75,58.99 64.11,67.36 66.59,76.04C62.43,76.94 58.21,77.49 53.96,77.7C51.95,71.16 50.3,64.53 48.51,57.94C47.85,54.98 46.92,51 49.93,49Z" style="fill:rgb(82,181,125);fill-rule:nonzero;"/>
        <path d="M97.34,79.09C98.08,77.87 99.38,77.15 100.39,76.18C102.05,78.13 104.02,80.25 103.92,83.01C103.76,86.72 102.62,90.3 102.12,93.96C101.31,98 100.88,102.88 97.06,105.31C93.95,104.66 94.65,100.52 94.81,98.12C96.06,91.83 95.53,85.28 97.34,79.09Z" style="fill:rgb(82,181,125);fill-rule:nonzero;"/>
        <path d="M112.95,79.74C114.61,79.42 116.28,78.85 118,79.04C119.11,80.83 118.68,83.03 118.74,85.02C118.64,93.15 117.04,101.58 112.52,108.46C110.66,108.83 108.77,108.35 106.91,108.16C108.38,105.58 109.89,102.94 110.26,99.93C111.44,93.25 113.52,86.6 112.95,79.74Z" style="fill:rgb(82,181,125);fill-rule:nonzero;"/>
        <path d="M53.88,86.28C57.48,83.91 61.98,84.5 66.05,83.92C71.46,83.72 77.27,82.35 82.41,84.63C84.88,87.44 85.05,92.6 82.1,95.1C78.4,95.77 74.61,95.88 70.89,96.4C65.12,97.14 58.73,96.42 53.81,100.14C56.97,102.5 60.88,104.12 64.9,103.48C71.65,102.6 78.38,101.41 85.06,100.05C84.84,105.49 88.41,110.72 94.02,111.4C99.83,111.87 105.34,113.67 110.97,115.02C110.59,117.89 110.14,120.75 109.65,123.61C102.24,125.62 94.73,127.52 87.05,127.99C81.74,128.36 76.48,129.52 71.14,129.25C63.1,115.18 50.63,103.6 45.67,87.86C48.13,86.23 50.99,85.7 53.88,86.28Z" style="fill:rgb(82,181,125);fill-rule:nonzero;"/>
    </g>
    <g id="_-2aab8cff" serif:id="#2aab8cff">
        <path d="M72.28,137.2C83.69,136.05 95.24,135.95 106.41,133.11C106.31,138.67 105.84,145.41 100.71,148.79C96.69,152.36 90.64,152.26 86.07,149.85C80.63,146.72 74.58,143.46 72.28,137.2Z" style="fill:rgb(82,181,125);fill-rule:nonzero;"/>
    </g>
</svg>
