<?xml version="1.0" encoding="UTF-8" standalone="no"?>
<!DOCTYPE svg PUBLIC "-//W3C//DTD SVG 1.1//EN" "http://www.w3.org/Graphics/SVG/1.1/DTD/svg11.dtd">
<svg width="100%" height="100%" viewBox="0 0 48 45" version="1.1" xmlns="http://www.w3.org/2000/svg" xmlns:xlink="http://www.w3.org/1999/xlink" xml:space="preserve" xmlns:serif="http://www.serif.com/" style="fill-rule:evenodd;clip-rule:evenodd;stroke-linejoin:round;stroke-miterlimit:2;">
    <g>
        <path d="M0.223,43.56C0.223,42.683 14.256,35.392 15.944,35.392C16.566,35.392 18.861,33.778 21.044,31.806C24.118,29.029 25.013,27.496 25.013,25.013C25.013,21.072 20.884,15.191 15.242,11.097C12.987,9.461 11.251,7.453 11.384,6.635C11.867,3.669 19.959,0.683 27.454,0.707C34.323,0.728 41.715,2.984 43.294,5.54C43.667,6.142 44.837,6.635 45.896,6.635C49.555,6.635 47.796,8.61 41.327,11.764C32.833,15.905 27.988,21.178 27.988,26.281C27.988,31.411 29.481,33.095 36.959,36.4C43.111,39.119 45.976,41.534 44.638,42.872C44.289,43.22 41.138,41.903 37.636,39.945C33.303,37.521 30.008,36.383 27.323,36.383C23.309,36.383 12.061,39.784 6.412,42.705C3.104,44.416 0.223,44.814 0.223,43.56ZM41.242,8.833C42.78,6.345 37.599,3.742 29.627,2.998C17.33,1.849 13.349,6.323 18.626,9.983C23.902,13.643 30.895,17.718 41.242,8.833Z" style="fill:rgb(216,65,147);fill-rule:nonzero;"/>
        <path d="M26.24,9.066C28.22,4.369 32.204,7.311 30.415,11.51C28.627,15.708 24.259,13.762 26.24,9.066Z" style="fill:rgb(216,65,147);fill-rule:nonzero;"/>
    </g>
</svg>
