<?xml version="1.0" encoding="UTF-8" standalone="no"?>
<!-- Created with Inkscape (http://www.inkscape.org/) -->

<svg
   xmlns:dc="http://purl.org/dc/elements/1.1/"
   xmlns:cc="http://creativecommons.org/ns#"
   xmlns:rdf="http://www.w3.org/1999/02/22-rdf-syntax-ns#"
   xmlns:svg="http://www.w3.org/2000/svg"
   xmlns="http://www.w3.org/2000/svg"
   xmlns:sodipodi="http://sodipodi.sourceforge.net/DTD/sodipodi-0.dtd"
   xmlns:inkscape="http://www.inkscape.org/namespaces/inkscape"
   width="107.07617"
   height="75.256439"
   id="svg3866"
   version="1.1"
   inkscape:version="0.48.4 r9939"
   sodipodi:docname="Hengelo (GLD) vlag 1962.svg">
  <defs
     id="defs3868" />
  <sodipodi:namedview
     id="base"
     pagecolor="#ffffff"
     bordercolor="#666666"
     borderopacity="1.0"
     inkscape:pageopacity="0.0"
     inkscape:pageshadow="2"
     inkscape:zoom="1.979899"
     inkscape:cx="179.38619"
     inkscape:cy="68.328947"
     inkscape:document-units="px"
     inkscape:current-layer="layer1"
     showgrid="false"
     fit-margin-top="0"
     fit-margin-left="0"
     fit-margin-right="0"
     fit-margin-bottom="0"
     inkscape:window-width="1600"
     inkscape:window-height="837"
     inkscape:window-x="-8"
     inkscape:window-y="-8"
     inkscape:window-maximized="1" />
  <metadata
     id="metadata3871">
    <rdf:RDF>
      <cc:Work
         rdf:about="">
        <dc:format>image/svg+xml</dc:format>
        <dc:type
           rdf:resource="http://purl.org/dc/dcmitype/StillImage" />
        <dc:title></dc:title>
      </cc:Work>
    </rdf:RDF>
  </metadata>
  <g
     inkscape:label="Laag 1"
     inkscape:groupmode="layer"
     id="layer1"
     transform="translate(-209.31906,-246.16254)">
    <rect
       style="fill:#0f47af;fill-opacity:1;fill-rule:evenodd;stroke:none"
       id="rect3807"
       width="107.07617"
       height="75.256401"
       x="209.31906"
       y="-321.41898"
       transform="scale(1,-1)" />
    <rect
       style="fill:#ffffff;fill-opacity:1;fill-rule:evenodd;stroke:none"
       id="rect3811"
       width="107.07617"
       height="37.628201"
       x="209.31906"
       y="-283.79074"
       transform="scale(1,-1)" />
    <path
       style="fill:#0f47af;fill-opacity:1"
       d="m 264.22458,283.30385 c -0.19496,-7.21647 -3.91858,-13.82829 -9.98698,-17.73335 -4.94506,-3.18218 -11.01735,-4.17632 -16.78185,-2.74747 -3.75504,0.93077 -7.13903,2.83896 -9.91392,5.59035 -2.19159,2.17305 -3.82179,4.64062 -4.94568,7.48613 -0.92591,2.34423 -1.38033,4.55757 -1.50552,7.33285 l -0.0259,0.57489 3.19411,-0.001 3.19412,-10e-4 0.0271,-0.53454 c 0.0723,-1.42844 0.28847,-2.6731 0.68476,-3.94376 1.46879,-4.70943 5.10212,-8.4005 9.78984,-9.94541 1.55151,-0.51131 2.92837,-0.72701 4.66068,-0.73012 1.13674,-0.003 1.63276,0.0363 2.61026,0.20164 5.75985,0.97432 10.50492,5.28281 12.07232,10.9616 0.26021,0.94277 0.46012,2.14353 0.50349,3.02439 0.0125,0.24659 0.0318,0.56181 0.0438,0.70048 l 0.0217,0.25212 3.19235,-10e-4 c 2.53166,-0.001 3.19061,-0.0117 3.18402,-0.0518 -0.004,-0.0277 -0.0125,-0.22289 -0.0186,-0.43366 z"
       id="path3832"
       inkscape:connector-curvature="0" />
    <path
       style="fill:#ffffff;fill-opacity:1"
       d="m 264.21955,284.26535 c -0.18863,7.21664 -3.90644,13.83179 -9.97142,17.74227 -4.94227,3.18661 -11.0137,4.18617 -16.77943,2.76247 -3.75587,-0.9274 -7.14153,-2.83256 -9.91882,-5.58148 -2.1935,-2.17108 -3.82585,-4.6372 -4.95224,-7.48169 -0.92797,-2.3434 -1.38433,-4.55633 -1.51195,-7.33151 l -0.0264,-0.57487 3.19411,-0.001 3.19411,-10e-4 0.0275,0.53452 c 0.0735,1.42837 0.2908,2.67284 0.68821,3.94315 1.47291,4.70811 5.10947,8.39593 9.79855,9.93665 1.55196,0.50994 2.92899,0.72439 4.66132,0.72594 1.13674,8.9e-4 1.63273,-0.0377 2.61008,-0.20396 5.759,-0.97948 10.50029,-5.29221 12.0627,-10.97239 0.25939,-0.94301 0.45825,-2.14395 0.50085,-3.02483 0.0125,-0.24661 0.0314,-0.56184 0.0432,-0.70052 l 0.0215,-0.25216 3.19235,-0.001 c 2.53165,-10e-4 3.19062,0.009 3.18406,0.049 -0.004,0.0277 -0.0125,0.22289 -0.0182,0.43368 z"
       id="path3832-1"
       inkscape:connector-curvature="0" />
  </g>
</svg>
