<?xml version="1.0" encoding="UTF-8" standalone="no"?><!DOCTYPE svg PUBLIC "-//W3C//DTD SVG 1.1//EN" "http://www.w3.org/Graphics/SVG/1.1/DTD/svg11.dtd"><svg width="100%" height="100%" viewBox="0 0 794 904" version="1.1" xmlns="http://www.w3.org/2000/svg" xmlns:xlink="http://www.w3.org/1999/xlink" xml:space="preserve" xmlns:serif="http://www.serif.com/" style="fill-rule:evenodd;clip-rule:evenodd;stroke-linecap:round;stroke-linejoin:round;stroke-miterlimit:1.5;"><rect x="0.375" y="0" width="793.442" height="903.143" style="fill:#cdebfd;"/><path d="M438.458,357.973l14.603,4.868l-4.867,-14.603l-0,-14.603l9.735,-14.603l-0,-14.602l9.735,-0l14.603,14.602l4.867,0l-14.603,-29.205l0,-9.735l14.603,-4.868l-4.867,-4.868l-0,-19.47l4.867,-9.735l9.735,-9.735l-4.867,-14.603l-19.471,-9.735l-4.867,-4.868l-0,-14.603l-9.735,0l-0,4.868l4.867,4.868l-4.867,4.867l-29.206,0l0,-4.867l-4.867,-4.868l-4.868,-0l-4.868,-4.868l-9.735,0l-9.735,-9.735l0,-9.735l-4.868,-0l-4.867,-4.868l-0,-9.735l-14.603,-14.603l-4.868,0l-4.867,-4.867l-0,4.867l-4.868,0l0,9.736l4.868,-0l-0,9.735l-4.868,-0l0,9.735l4.868,4.868l-0,4.867l-9.735,0l-0,-4.867l-4.868,-4.868l0,-9.735l-4.868,-0l0,-4.868l-9.735,-9.735l-9.735,0l-9.735,9.735l-4.868,0l-9.735,-4.867l-4.867,-0l-0,-4.868l-9.736,-4.868l-9.735,0l-9.735,9.736l-4.868,-0l0,9.735l4.868,-0l9.735,4.867l9.735,0l0,4.868l-4.867,4.868l-0,4.867l9.735,4.868l-0,4.867l-4.868,4.868l0,4.868l-4.867,-0l-0,4.867l-9.735,0l-0,-9.735l-4.868,-0l-4.868,-4.868l-4.867,-9.735l-4.868,-4.867l-9.735,-4.868l0,-4.868l-4.868,0l0,4.868l-4.867,4.868l-0,9.735l4.73,4.73l5.005,0.137l0,9.736l4.868,-0l-0,4.867l-9.736,0l0,-4.867l-4.867,-4.868l-4.868,-0l-4.867,-4.868l-4.868,0l-14.603,14.603l-19.47,0l-0,4.868l-4.868,4.867l-4.867,0l-0,4.868l-34.073,4.868l-9.736,-0l0,4.867l-4.867,4.868l-0,4.867l-14.603,0l-4.868,-4.867l-4.867,-0l-4.868,-4.868l-9.735,-4.867l-4.868,-0l-4.867,9.735l-0,4.867l-4.868,0l-4.867,4.868l-4.868,-0l-9.735,-9.735l-4.868,-0l0,4.867l-4.867,4.868l-0,9.735l-4.868,0l-19.47,9.735l-9.735,0l-4.868,4.868l0,4.867l4.868,4.868l-0,4.868l4.867,4.867l0,4.868l4.868,9.735l-0,14.603l4.867,-0l4.868,4.867l-0,-9.735l4.868,0l-0,-4.867l-4.868,-4.868l-0,-4.868l14.603,4.868l-0,9.735l4.867,4.868l0,4.867l4.868,0l4.868,-4.867l9.735,-0l4.867,-4.868l0,-4.867l9.735,-9.736l9.736,-14.602l-0,-4.868l4.867,0l4.868,-4.868l-0,-4.867l9.735,-9.735l-4.868,-4.868l-4.867,0l-0,4.868l-4.868,-0l-9.735,-4.868l0,-9.735l34.073,-0l0,4.867l4.868,0l9.735,9.736l24.338,-0l-0,-4.868l-9.735,0l4.867,-4.868l0,-4.867l19.471,-0l-0,-4.868l9.735,0l-4.868,4.868l0,4.867l-4.867,0l-0,9.736l-4.868,4.867l-9.735,0l-0,9.735l4.868,4.868l9.735,0l-0,4.868l9.735,-0l4.868,-4.868l19.47,0l-4.868,9.735l-9.735,4.868l0,9.735l24.338,-0l0,-4.868l4.868,0l9.735,-9.735l9.735,0l0,19.471l4.868,-0l4.867,9.735l19.471,-0l4.867,4.867l0,4.868l-4.867,-0l-0,4.868l9.735,-0l4.867,4.867l0,14.603l9.736,4.868l4.867,9.735l19.471,9.735l9.735,-0l-4.868,4.867l-9.735,-4.867l-14.603,-0l-4.867,4.867l-4.868,0l-0,4.868l-4.868,0l-9.735,4.868l-9.735,-4.868l-4.868,-4.868l-4.867,0l-4.868,-4.867l-9.735,-14.603l-4.868,0l-9.735,-4.867l-4.867,4.867l-9.736,-4.867l-4.867,-4.868l-4.868,-0l-4.867,4.868l-9.735,-14.603l-4.868,-4.868l-4.868,0l-4.867,4.868l-4.868,-4.868l-14.603,0l0,-14.603l-4.867,-4.867l-4.868,4.867l-9.735,0l-9.735,4.868l-0,4.868l-4.868,-0l0,14.602l5.025,5.025l4.71,0l0,4.711l4.868,9.735l0,14.602l-9.735,0l-4.868,4.868l0,9.735l-4.867,0l-0,4.868l-9.736,-9.735l-4.867,4.867l-0,4.868l9.735,9.735l9.735,0l9.735,9.735l0,14.603l-4.867,4.868l-0,4.867l4.867,9.735l4.868,4.868l0,4.868l14.603,-0l9.735,-9.736l14.603,0l-0,4.868l9.735,-4.868l4.868,0l4.867,-4.867l4.868,-9.735l4.867,-0l0,19.47l14.603,-0l0,-4.868l4.868,0l4.867,4.868l9.735,-0l4.868,-4.868l0,-19.47l4.868,4.868l9.735,-0l-0,14.602l-4.868,0l0,14.603l4.868,0l-0,14.603l-4.868,-0l0,9.735l9.735,4.868l4.868,4.867l4.868,0l9.735,9.735l-19.471,0l-9.735,-4.867l-14.603,-0l-4.867,9.735l-0,9.735l19.47,0l4.868,9.735l-0,9.736l9.735,9.735l0,9.735l-9.735,-0l4.867,4.868l0,4.867l4.868,0l0,-4.867l4.868,-4.868l-0,-19.47l19.47,-0l-0,4.867l19.47,9.735l0,-4.867l4.868,-0l-0,9.735l-4.868,4.868l-4.867,-0l-0,4.867l9.735,4.868l4.868,-4.868l-0,-4.867l9.735,-0l-0,-4.868l14.602,-4.868l0,-4.867l-4.867,-0l-0,-4.868l-19.47,-9.735l-0,-4.868l-14.603,-14.602l14.603,-0l4.867,4.867l4.868,0l-0,-9.735l-4.868,0l-24.338,-24.338l0,-19.47l19.471,-0l-0,24.338l4.867,4.867l4.868,9.735l14.602,0l4.868,-4.867l24.338,-0l4.868,-9.735l4.867,-4.868l0,-4.867l-4.867,-0l-9.736,-9.736l4.868,0l0,-4.867l9.735,-0l9.735,4.867l29.206,0l-0,-29.205l-4.868,-9.735l-19.47,-0l0,-4.868l4.868,-0l-0,-4.868l9.735,0l4.867,4.868l4.868,-0l4.868,-4.868l-0,-4.867l4.867,-4.868l14.603,0l4.868,-4.867l-0,-4.868l-9.736,-9.735l-9.735,-0l-9.735,-4.868l-9.735,0l-4.868,-4.867l0,-4.868l29.206,0l-0,-19.47l4.867,-0l0,-4.868Z" style="fill:#fefeeb;stroke:#29acff;stroke-width:0.75px;"/><path d="M375.18,70.785l-0,24.338l4.867,9.735l4.868,0l4.867,-4.867l4.868,4.867l9.735,0l0,-4.867l9.735,-0l0,4.867l4.868,4.868l-0,14.603l9.735,-0l0,-4.868l9.735,0l4.868,4.868l-0,9.735l4.868,4.867l4.867,0l0,4.868l9.735,4.868l0,4.867l4.868,4.868l4.867,-0l4.868,4.867l0,-4.867l4.868,-4.868l-4.868,-4.867l0,-9.736l-9.735,0l-4.868,-9.735l0,-14.603l4.868,0l-0,-4.867l4.867,-9.735l-9.735,-19.471l-4.867,0l-0,-34.073l-4.868,-9.735l0,-4.868l-4.867,-4.867l-0,-4.868l-4.868,0l-0,4.868l-9.735,-0l-4.868,4.867l9.735,4.868l0,4.868l4.868,-0l-0,4.867l-4.868,0l-4.867,4.868l-0,9.735l-9.735,-0l-0,-4.868l-4.868,-9.735l-4.868,0l0,4.868l-4.867,4.867l-14.603,0l0,14.603l-9.735,0l-0,-4.867l-9.735,4.867Z" style="fill:#fefeeb;stroke:#29acff;stroke-width:0.75px;"/><path d="M516.34,143.799l4.867,4.868l0,4.867l4.868,0l0,4.868l-9.735,9.735l9.735,-0l4.868,-4.868l-0,4.868l4.867,-0l4.868,9.735l9.735,0l-0,-4.867l-9.735,-9.736l-4.868,0l4.868,-4.867l-4.868,-4.868l0,-4.867l-4.867,-4.868l-4.868,0l0,-4.868l-4.868,0l-4.867,4.868Z" style="fill:#fefeeb;stroke:#29acff;stroke-width:0.75px;"/><path d="M234.019,323.9l0,4.868l9.736,-0l4.867,4.867l0,-4.867l4.868,-4.868l-4.868,-4.868l-4.867,4.868l-9.736,-0Z" style="fill:#fefeeb;stroke:#29acff;stroke-width:0.75px;"/><path d="M131.8,465.06l4.868,9.735l9.735,4.868l-0,9.735l4.867,0l0,4.868l4.868,9.735l-0,9.735l-4.868,9.735l4.868,4.868l-0,4.867l4.868,-4.867l9.735,-0l-0,-4.868l-4.868,-4.867l0,-4.868l-4.867,0l-0,-4.868l4.867,0l4.868,-4.867l-0,-9.735l14.603,-0l4.867,9.735l0,4.867l19.47,0l-4.867,-4.867l-0,-4.868l-4.868,0l-4.867,-4.867l-4.868,-0l0,-4.868l-9.735,0l-9.735,-9.735l-14.603,-0l-0,-4.868l-9.735,-4.867l-4.868,-0l0,-4.868l-9.735,0Z" style="fill:#fefeeb;stroke:#29acff;stroke-width:0.75px;"/><path d="M185.344,465.06l-0,4.868l4.867,4.867l9.735,4.868l9.735,-0l0,-4.868l-9.735,-9.735l-4.867,0l-0,4.868l-9.735,-4.868Z" style="fill:#fefeeb;stroke:#29acff;stroke-width:0.75px;"/><path d="M574.751,323.9l-0,9.735l4.868,0l4.867,4.868l0,4.867l4.868,0l-0,-14.602l-4.868,-0l4.868,-4.868l-4.868,-0l0,-4.868l-4.867,4.868l-4.868,-0" style="fill:#fefeeb;stroke:#29acff;stroke-width:0.75px;"/><path d="M414.12,499.133l19.471,0l4.867,4.868l4.868,9.735l-9.735,-4.868l-14.603,4.868l-0,4.868l4.868,4.867l4.867,0l4.868,4.868l9.735,4.867l4.868,0l-0,4.868l9.735,0l9.735,-4.868l4.867,-4.867l-4.867,-4.868l-0,-4.867l-4.868,-0l0,-4.868l-4.867,0l-9.735,-9.735l-0,-4.868l-4.868,-4.867l-19.47,-0l-4.868,-4.868l-4.868,9.735Z" style="fill:#fefeeb;stroke:#29acff;stroke-width:0.75px;"/><path d="M389.782,533.206l0,4.868l9.736,9.735l-0,9.735l4.867,0l4.868,4.868l4.867,-4.868l14.603,4.868l9.735,-0l0,4.868l9.736,-4.868l4.867,4.868l0,-4.868l4.868,-0l-0,4.868l4.867,-4.868l9.735,9.735l4.868,-4.867l0,-14.603l-4.868,-0l-4.867,4.867l-0,-4.867l-4.868,-4.868l-9.735,-4.867l-19.47,-0l-0,-4.868l-4.868,0l-9.735,-4.868l-19.47,0l-4.868,-4.867l-4.868,4.867Z" style="fill:#fefeeb;stroke:#29acff;stroke-width:0.75px;"/><path d="M355.709,562.412l-4.867,9.735l4.867,4.868l0,4.867l-4.867,0l-4.868,4.868l0,4.868l4.868,-0l4.867,4.867l4.868,-4.867l24.338,-0l-0,4.867l4.867,-4.867l4.868,-0l-4.868,-4.868l-4.867,-9.735l-4.868,-0l-14.603,-14.603l0,-4.868l-4.867,4.868l-4.868,-0Z" style="fill:#fefeeb;stroke:#29acff;stroke-width:0.75px;"/><path d="M214.549,538.074l0,4.868l4.868,4.867l-0,4.868l4.867,-0l4.868,4.867l-0,-4.867l4.867,-0l0,-2.434l4.868,-2.434l0,-4.867l-14.603,-0l0,-4.868l-4.867,0l-0,-4.868l-4.868,4.868Z" style="fill:#fefeeb;stroke:#29acff;stroke-width:0.75px;"/><path d="M180.476,528.339l-0,9.735l4.868,4.868l-0,2.433l-4.868,2.434l4.868,0l4.867,-2.434l0,-2.433l4.868,-0l-0,-9.736l-4.868,-4.867l0,-4.868l-4.867,0l-4.868,4.868Z" style="fill:#fefeeb;stroke:#29acff;stroke-width:0.75px;"/><path d="M214.549,581.882l-4.868,4.868l-4.867,-0l4.867,4.868l0,19.47l4.868,-0l9.735,4.868l2.434,-4.868l0,-4.868l7.301,0l0,-9.735l-7.301,-4.867l0,-4.868l2.434,-0l-0,-9.735l-4.868,-0l0,4.867l-9.735,0Z" style="fill:#fefeeb;stroke:#29acff;stroke-width:0.75px;"/><path d="M272.96,630.558l4.868,9.735l-4.868,4.868l0,9.735l4.868,-4.867l-0,-4.868l4.867,0l0,-14.603l-9.735,0Z" style="fill:#fefeeb;stroke:#29acff;stroke-width:0.75px;"/><path d="M311.901,620.823l-4.868,4.868l0,4.867l4.868,0l-0,9.735l-4.868,4.868l0,4.868l-4.867,4.867l-0,9.735l-9.735,0l-0,4.868l-9.736,9.735l0,4.868l4.868,4.867l-0,4.868l4.868,4.868l4.867,-0l4.868,-4.868l4.867,-0l0,-9.735l14.603,-0l0,4.867l4.868,0l-0,9.736l-4.868,4.867l0,9.735l4.868,4.868l4.867,-4.868l4.868,0l-0,-4.867l4.867,-4.868l0,-9.735l9.736,-0l4.867,-4.868l4.868,4.868l4.867,-0l4.868,4.868l0,14.602l-4.868,9.736l-4.867,4.867l-0,9.735l-4.868,4.868l0,4.868l-4.867,9.735l-0,4.867l-9.736,9.735l0,4.868l4.868,4.868l4.868,-0l-0,-4.868l4.867,-4.868l4.868,-9.735l4.867,0l0,-4.867l4.868,-0l4.868,9.735l4.867,4.867l-14.603,0l0,9.736l-4.867,9.735l4.867,-0l4.868,-4.868l4.868,0l4.867,-4.867l4.868,-0l4.867,4.867l0,4.868l9.736,4.867l4.867,4.868l9.735,0l9.736,-4.868l-0,-9.735l-4.868,-4.867l-0,-4.868l-4.868,-9.735l0,-9.735l4.868,-0l4.868,-9.735l-0,-9.736l4.867,-4.867l4.868,-9.735l4.867,-0l0,-4.868l4.868,-9.735l-0,-9.735l-4.868,-4.868l4.868,-4.868l-4.868,-9.735l0,-9.735l-4.867,-4.868l-0,-24.338l4.867,-4.867l0,-14.603l-9.735,-4.867l-14.603,-9.736l9.736,14.603l-9.736,-4.867l-4.867,-4.868l-9.735,-0l-0,4.868l-19.471,-9.736l-9.735,4.868l0,9.735l4.868,9.735l14.602,9.735l9.736,0l-0,-4.867l9.735,-0l-0,4.867l-4.868,2.434l0,7.302l4.868,4.867l-0,9.735l-29.206,-14.602l-14.603,-0l-4.867,9.735l14.603,14.603l-0,4.867l-14.603,0l-4.868,4.868l-9.735,-0l-4.868,-9.735l-14.602,-14.603l-0,-9.735l9.735,-9.736l-9.735,-4.867l-0,-4.868l-9.735,0l-4.868,-9.735Z" style="fill:#fefeeb;stroke:#29acff;stroke-width:0.75px;"/><path d="M87.992,766.851l-4.868,-0l0,-4.868l9.735,-4.867l14.603,-0l0,14.602l4.868,4.868l4.867,9.735l0,14.603l4.868,4.868l4.867,-0l4.868,-4.868l0,-9.735l4.868,-0l4.867,-14.603l4.868,0l-0,19.47l-4.868,4.868l0,9.735l-4.867,0l-4.868,9.735l-4.868,4.868l0,4.868l4.868,-0l0,4.867l14.603,0l4.867,9.735l4.868,0l4.868,4.868l4.867,-4.868l4.868,0l-0,-14.602l4.867,-4.868l0,-4.868l9.736,4.868l-0,9.735l2.433,4.868l7.302,-4.868l-0,-4.867l31.639,-0l2.434,-4.868l-9.735,-19.47l-0,-14.603l4.867,-4.868l4.868,4.868l-0,4.867l9.735,0l4.868,-4.867l-0,-4.868l4.867,-4.867l0,4.867l14.603,14.603l0,4.868l-4.868,-0l0,9.735l-4.867,4.867l-0,9.736l-9.735,9.735l-4.868,-0l-4.868,4.867l-24.338,0l0,4.868l-4.867,4.868l-7.301,4.867l-17.037,9.735l-4.868,4.868l0,4.868l-9.735,9.735l0,4.867l-9.735,9.735l-4.868,0l-9.735,-4.867l9.735,-9.735l0,-4.868l4.868,0l-4.868,-4.867l-4.867,-9.736l-4.868,-4.867l-4.867,-0l-0,-4.868l-4.868,-9.735l-4.868,-4.868l-4.867,-9.735l-4.868,-4.867l-14.603,-0l0,4.867l-9.735,9.735l-4.867,-4.867l-0,-4.868l-4.868,-4.867l4.868,-9.736l9.735,0l4.867,4.868l0,-14.603l-4.867,-4.867l-4.868,-9.736l4.868,-9.735l-0,-14.603l-4.868,-4.867l0,4.867l-4.867,-4.867Z" style="fill:#fefeeb;stroke:#29acff;stroke-width:0.75px;"/><path d="M195.079,771.718l-4.868,9.736l4.868,-0l-0,4.867l4.867,-9.735l4.868,0l-4.868,-4.868l-4.867,0Z" style="fill:#fefeeb;stroke:#29acff;stroke-width:0.75px;"/><path d="M29.581,805.792l-9.736,9.735l0,4.867l-4.867,4.868l4.867,9.735l4.868,-4.867l-0,-4.868l9.735,-0l4.868,-9.735l-4.868,-4.868l-4.867,0l4.867,-4.867l-4.867,-0Z" style="fill:#fefeeb;stroke:#29acff;stroke-width:0.75px;"/><path d="M238.887,411l61.863,0l8.834,-8.834l60.728,-0l0,67.762" style="fill:none;stroke:#000;stroke-opacity:0.57;stroke-width:0.75px;stroke-linecap:butt;"/><path d="M238.887,450.457l-4.868,4.868l-9.735,-0l-4.867,-4.868l-0,-5.354l9.248,0l5.354,-4.868l4.868,0l0,10.222Z" style="fill:#9b1e14;"/><path d="M241.05,461.243l209.577,224.485l0,-328.563l-209.577,80.828l-0,23.25Z" style="fill:#2c2c2c;fill-opacity:0.67;"/><rect x="450.627" y="355.665" width="328.563" height="328.563" style="fill:#cdebfd;"/><path d="M779.19,355.665l-328.563,0l0,328.563l328.563,-0l-0,-328.563Zm-6.5,6.5l-0,315.563c-41.914,-0 -273.649,-0 -315.563,-0c0,-41.914 0,-273.649 0,-315.563l315.563,0Z"/><path d="M468.715,491.991l-2.461,-3.588l-3.204,-4.331l2.704,-6.958l-2.704,-12.26l3.291,-11.111l-6.775,-3.75l-2.516,0l-0,-87.75l315.75,-0.75l-0,234.992l-15.681,1.293l0.579,-1.384l0.381,-2.838l0.48,-1.164l-0.479,-3.169l-0.077,-1.665l-0.953,-2.185l0.329,-1.075l-1.473,-1.123l0.122,-2.675l-0.818,-2.764l-0.007,-1.912l0.211,-1.006l0.279,-0.683l1.487,-2.675l1.395,-1.046l2.738,-4.316l-17.881,0.569l5.973,-9.123l-15.215,-0.057l0.114,-5.494l0,-7.108l0.052,-6.256l-0.052,-5.423l-0.229,-3.481l0.229,-9.778l-1.977,-6.827l-0,-6.877l-4.504,-7.443l-0.023,-5.674l0.363,-14.603l-0.363,-8.669l-0,-21.75l-0.75,-8.733l5.277,-8.241l-73.384,7.356l1.226,-33.493l-41.828,-15.548l-8.638,65.88l-106.477,-12.834l-1.176,0.85l-8.396,-1.726l-15.393,4.733l-9.546,45.643Z" style="fill:#f5f5f5;"/><path d="M241.888,435.368l-25.472,-0l-0,25.472l25.472,0l0,-25.472Zm-2,2l0,21.472c0,0 -21.472,0 -21.472,0c-0,0 -0,-21.472 -0,-21.472l21.472,-0Z"/><path id="path1396" d="M540.874,491.163l-0.313,1.915l1.969,0.548l1.84,0.478l0.976,0.277l-0.325,2.002l-0.172,1.394l-0.174,0.982l-0.236,1.18l-0.318,1.541l-0.22,1.294l-0.248,1.267l-0.147,0.862l-0.145,0.651l-2.449,-0.392l-1.659,-0.291l-2.046,-0.345l-0.927,-0.149l-1.768,-0.313l-0.851,-0.142l-0.244,0.01l-0.022,-0.01l-0.606,-0.125l-0.42,-0.068l-3.483,-0.629l-4.857,-0.846l-5.314,-0.89l-5.396,-0.915l-1.134,-0.189l-2.013,-0.329l-1.217,-0.213l-0.521,1.967l-0.752,3.017l-0.855,3.395l-0.349,1.434l-0.197,0.707l-0.423,1.746l-0.517,2.048l-1.011,4.041l-0.116,0.465l-0.532,2.2l-0.023,0.11l-0.759,2.973l-0.447,1.802l-0.499,1.976l-0.005,0.012l-0.42,1.68l-0.349,1.315l-0.399,1.545l-0.032,0.278l-0.574,2.619l-0.345,1.661l-0.3,1.443l-3.126,-0.655l-2.244,-0.407l-0.42,-0.068l-0.347,1.607l-2.025,-0.361l-1.339,-0.267l0.504,-2.996l0.451,-2.462l-2.212,-0.418l-2.076,-0.425l0.433,-2.51l0.347,-2.111l-2.099,-0.434l0.732,-4.246l0.492,-2.88l0.47,-2.534l-1.726,-0.32l0.338,-1.824l0.291,-1.54l-0.432,-0.1l-0.164,-0.02l0.436,-2.31l0.208,-1.087l-0.306,-0.057l0.326,-1.975l0.257,-1.435l-1.726,-0.348l0.536,-3.007l0.677,0.144l0.39,-2.265l0.216,-1.136l0.682,0.133l0.305,-1.838l0.268,-1.577l-0.485,-0.071l-5.913,-1.092l-4.559,-0.832l-3.291,-0.583l-2.533,-0.469l-1.304,-0.225l-1.058,-0.155l0.211,-1.005l0.437,-2.045l0.522,-2.444l0.415,-2.054l0.471,-2.387l0.466,-2.23l0.071,-0.366l0.277,-1.361l0.416,-1.881l0.19,-0.869l-0.025,0.055l0.059,-0.279l1.641,-7.853l3.841,-18.229l0.329,-1.655l0.078,-0.323l0.358,-1.722l3.495,-16.832l3.946,0.836l4.961,0.998l0.403,-0.96l11.624,1.657l0.201,0.024l14.747,2.111l19.805,3.22l12.365,2.014l0.027,-0.001l-1.09,6.205l-1.329,7.57l-0.181,0.939l-0.091,0.53l-0.056,0.332l-0.054,0.506l-0.424,2.342l-0.033,0.105l-0.191,1.346l-3.897,22.656l-0.235,1.088l-0.419,2.449l-0.511,3.072l-0.45,2.608" style="fill:#fefeeb;stroke:#4e4e4e;stroke-width:0.6px;stroke-linecap:square;stroke-linejoin:bevel;stroke-miterlimit:4;"/><path id="path2060" d="M732.607,436.315l0.241,7.794l0.214,6.073l0.144,5.431l0.145,5.724l0.173,5.365l0.239,6.879l0.077,2.022l0.09,2.942l0.08,3.614l0.103,4.101l0.102,3.24l0.051,3.177l0.013,2.908l0.025,3.47l-2.085,-0.018l-2.88,-0.081l-3.151,-0.096l-3.106,-0.076l-2.897,-0.102l-3.345,-0.077l-2.743,-0.06l-3.352,-0.12l-3.074,-0.062l-2.916,-0.057l-2.955,-0.089l-2.853,-0.082l-3.063,-0.084l-3.205,-0.094l-4.067,-0.121l-4.159,-0.096l-2.982,-0.087l-0.114,-0.012l-22.95,-0.689l-4.095,-0.12l-2.164,-0.08l0.414,-2.2l0.53,-3.143l-6.413,-1.13l0.6,-5.404l6.819,1.021l0.49,-2.816l2.399,-13.254l1.877,-10.783l0.025,-0.056l2.687,-14.967l0.042,-0.034l0.145,-0.651l0.38,-1.977l0.259,-1.262l0.2,-1.13l0.236,-1.299l0.316,-1.595l0.355,-1.803l0.202,-1.222l0.156,-0.884l0.053,-0.148l1.153,-0.029l3.426,-0.045l4.147,-0.029l4.147,-0.055l4.071,-0.036l4.963,-0.074l6.766,-0.077l5.792,-0.088l4.141,-0.045l3.247,-0.059l2.624,-0.06l0.216,-0.009l23.807,-0.28l0.084,1.8l0.103,3.386" style="fill:#fefeeb;stroke:#4e4e4e;stroke-width:0.6px;stroke-linecap:square;stroke-linejoin:bevel;stroke-miterlimit:4;"/><path id="path2072" d="M702.513,561.379l-1.271,0.294l-3.365,1.066l-0.511,0.342l-0.177,-0.079l-0.33,-0.121l-0.342,-0.153l-0.319,-0.116l-0.498,-0.222l-0.776,-0.043l-0.583,0.031l-0.331,-0.121l-0.435,0.084l-0.165,-0.074l-1.324,-0.539l-0.429,0.1l-0.667,-0.285l-0.507,-0.2l-1.323,-0.538l-0.331,-0.121l-0.165,-0.074l-0.337,-0.137l-0.428,0.099l-0.321,-0.143l-0.765,-0.037l-0.342,-0.153l-0.429,0.1l-0.485,-0.19l-0.507,-0.201l-0.337,-0.137l-0.32,-0.143l-0.352,-0.131l-0.051,-0.301l-0.16,-0.058l-0.849,-0.353l-2.75,-0.845l-0.497,-0.222l-0.078,-0.3l-0.155,-0.069l-0.067,-0.295l-0.176,-0.079l-0.061,-0.279l-0.089,-0.305l0.056,-1.075l0.099,-0.22l0.081,-0.242l0.109,-0.243l0.264,-0.147l0.082,-0.242l-0.166,-0.074l0.099,-0.221l-0.331,-0.148l-0.067,-0.295l-0.342,-0.126l-0.475,-0.212l0.077,-0.231l0.109,-0.243l-0.165,-0.047l-0.084,-0.316l-0.16,-0.058l0.082,-0.242l-0.155,-0.069l0.099,-0.221l-0.177,-0.079l0.203,-0.453l0.086,-0.253l0.177,0.079l0.077,-0.231l0.186,0.057l0.248,-0.167l-0.056,-0.291l0.076,-0.23l0.187,0.057l0.155,0.069l-0.109,0.243l0.198,0.062l0.154,0.069l0.259,-0.163l0.076,-0.231l0.109,-0.243l0.166,0.074l0.103,-0.232l0.155,0.069l-0.155,-0.069l-0.17,-0.063l0.092,-0.237l-0.166,-0.074l0.099,-0.221l0.093,-0.237l-0.171,-0.063l0.104,-0.232l0.086,-0.253l0.099,-0.22l0.166,0.074l0.104,-0.232l0.076,-0.231l-3.458,-0.061l-1.773,0.082l-3.314,0.003l-2.875,-0.092l-2.708,-0.018l-0.104,0.232l-1.09,-0.169l-2.202,0.182l-1.68,-0.155l-0.766,-0.037l-1.029,0.109l-2.532,0.062l-3.47,-0.067l-2.115,-0.07l0.177,0.079l0.072,-0.22l-0.155,-0.069l-0.079,-0.327l0.202,-0.453l0.166,0.074l-0.166,-0.074l0.088,-0.226l-0.32,-0.143l0.154,0.069l0.099,-0.221l-0.073,-0.311l-0.258,0.163l-0.166,-0.074l-0.165,-0.047l-0.264,0.147l-0.078,-0.3l-0.087,0.253l-0.497,-0.222l-0.159,-0.059l-0.403,-0.432l0.086,-0.252l0.253,-0.152l-0.154,-0.069l-0.073,-0.311l0.154,0.069l0.099,-0.221l-0.497,-0.222l0.099,-0.221l0.165,0.074l0.109,-0.243l0.155,0.069l0.103,-0.232l-0.164,-0.047l0.086,-0.253l0.109,-0.243l0.072,-0.22l0.108,-0.243l-0.164,-0.047l0.108,-0.243l0.077,-0.231l0.104,-0.231l-0.078,-0.3l-0.166,-0.074l0.109,-0.243l0.237,-0.146l-0.166,-0.074l0.166,0.074l0.207,-0.464l-0.165,-0.074l0.247,-0.168l-0.155,-0.069l0.155,0.069l-0.155,-0.069l0.099,-0.221l-0.166,-0.074l0.166,0.074l0.087,-0.253l0.098,-0.221l0.259,-0.163l0.165,0.074l-0.165,-0.074l0.108,-0.243l0.166,0.074l0.104,-0.232l0.076,-0.23l0.109,-0.243l-0.176,-0.052l0.098,-0.248l0.331,0.148l0.082,-0.242l0.188,0.084l0.086,-0.253l0.203,-0.453l0.076,-0.231l-0.154,-0.069l0.103,-0.232l0.077,-0.23l-0.166,-0.075l0.109,-0.243l-0.187,-0.056l-0.154,-0.07l0.108,-0.243l-0.083,-0.288l-0.165,-0.074l-0.104,0.231l0.104,-0.231l-0.16,-0.059l0.082,-0.241l-0.155,-0.07l0.099,-0.22l-0.188,-0.084l0.202,-0.453l0.166,0.074l0.109,-0.243l0.076,-0.231l-0.154,-0.069l0.154,0.069l0.104,-0.232l0.155,0.069l0.108,-0.243l0.057,0.317l0.264,-0.174l0.202,-0.453l-0.177,-0.079l0.109,-0.243l-0.165,-0.047l-0.098,0.221l-0.166,-0.074l-0.16,-0.058l-0.342,-0.153l0.094,-0.21l0.086,-0.253l-0.154,-0.069l0.098,-0.221l-0.154,-0.069l0.081,-0.242l-0.17,-0.063l-0.073,-0.311l-0.165,-0.047l-0.32,-0.143l-0.104,0.232l-0.497,-0.222l-0.165,-0.047l-0.165,-0.074l0.086,-0.253l-0.164,-0.047l-0.155,-0.069l-0.108,0.243l-0.166,-0.074l0.108,-0.243l-0.176,-0.079l-0.165,-0.047l-0.057,-0.317l-0.109,0.243l-0.154,-0.069l0.077,-0.231l-0.077,0.231l-0.078,-0.3l0.155,0.069l0.103,-0.232l-0.154,-0.069l-0.09,-0.305l-0.154,-0.069l-0.104,0.232l-0.32,-0.143l-0.165,-0.047l-0.342,-0.153l0.099,-0.221l-0.177,-0.079l0.104,-0.232l-0.165,-0.047l-0.166,-0.074l0.087,-0.253l-0.165,-0.047l0.109,-0.243l-0.177,-0.079l0.099,-0.221l-0.166,-0.074l0.093,-0.237l-0.176,-0.052l-0.154,-0.069l0.108,-0.243l-0.186,-0.057l0.108,-0.243l0.155,0.069l-0.155,-0.069l0.099,-0.221l-0.177,-0.079l0.203,-0.453l-0.343,-0.153l0.099,-0.221l0.082,-0.242l-0.155,-0.069l-0.067,-0.295l-0.104,0.232l-0.331,-0.148l0.094,-0.21l-0.166,-0.074l0.109,-0.243l-0.187,-0.057l-0.155,-0.069l0.109,-0.243l-0.177,-0.079l-0.067,-0.295l0.094,-0.21l-0.177,-0.079l0.109,-0.243l0.155,0.069l0.098,-0.221l-0.154,-0.069l3.881,-19.893l1.935,0.534l1.531,-7.546l4.213,0.121l22.819,0.656l0.166,0.074l3.028,0.135l4.058,0.051l4.069,0.029l3.216,0.218l3.029,0.161l2.874,0.092l3.023,0.146l2.973,-0.129l3.039,0.139l3.288,-0.002l2.708,0.018l3.382,0.292l2.874,0.092l3.127,-0.087l3.195,0.235l2.873,0.065l2.115,0.071l-0.092,2.132l0.038,2.734l0.135,2.485l-0.123,2.676l0.136,2.512l-0.117,2.664l0.018,3.282l-0.05,4.855l-0.07,3.507l-0.162,3.744l0.002,3.791l0.093,1.658l0.131,2.524l0.146,2.49l0.049,2.739l0.171,1.958l-1.778,0.094l-2.884,-0.07l-3.133,0.071l-2.549,0.04l-3.297,0.024l0.037,2.733l0.094,1.659l0.141,1.136l-1.965,0.01l-1.938,0.035l0.428,-1.995l0.366,-2.302l-2.021,-0.28l-0.794,4.296l-0.275,0.169l-0.154,-0.069l-0.27,0.158l-0.154,-0.069l-0.099,0.221l-0.164,-0.047l-0.275,0.169l-0.248,0.141l-0.176,-0.052l-0.099,0.22l-0.086,0.253l-0.094,0.21l-0.164,-0.047l-0.265,0.147l-0.521,0.337l-0.098,0.248l-0.177,-0.079l-0.076,0.231l-0.259,0.162l-0.165,-0.074l-0.109,0.243l-0.155,-0.069l-0.175,-0.052l-0.177,-0.079l-0.236,0.173l-0.343,-0.153l-0.108,0.243l-0.155,-0.069l-0.071,0.22l-0.198,-0.062l-0.077,0.231l-0.263,0.173l-0.166,-0.074l-0.181,-0.068l-0.475,-0.212l-0.353,-0.131l-0.154,-0.069l-0.165,-0.047l-0.264,0.147l-0.187,-0.057l-0.072,0.22l-0.274,0.169l-0.357,0.384l-0.252,0.178l-0.263,0.174l-0.094,0.21l-0.796,0.506l-0.252,0.179l-0.099,0.221l-0.258,0.162l-0.109,0.243l-0.077,0.231l-0.103,0.232l0.078,0.3l-0.109,0.243l0.165,0.047l0.073,0.311l-0.099,0.221l-0.087,0.253l0.176,0.052l-0.109,0.243l0.083,0.289l0.068,0.322l-0.202,0.453l0.078,0.3l-0.099,0.22l-0.086,0.253l-0.104,0.232l-0.077,0.231l-0.202,0.453l-0.087,0.253l-0.202,0.453l-0.088,0.226l-0.263,0.173l-0.104,0.232l-0.827,-0.343" style="fill:#fefeeb;stroke:#4e4e4e;stroke-width:0.6px;stroke-linecap:square;stroke-linejoin:bevel;stroke-miterlimit:4;"/><path id="path2364" d="M754.964,596.908l-2.451,-0.181l-6.168,-0.61l-0.236,0.173l-2.507,0.894l-1.354,1.873l-0.754,-0.032l-4.147,-0.33l-0.429,0.1l-2.354,-4.22l-3.117,-6.163l-0.708,-1.112l-0.947,-1.47l-0.322,-0.674l-3.995,-7.339l0.304,-1.215l2.178,-6.74l-0.714,-1.101l-1.915,-4.315l-1.242,-2.675l-9.032,-0.697l-0.424,0.088l-0.263,0.174l-1.275,2.2l-0.202,0.453l-0.335,0.394l-0.409,0.944l-4.393,1.734l-0.252,0.179l-1.769,-0.46l-0.891,-2.545l-0.243,-0.374l-0.673,-1.639l-0.585,-0.5l0.104,-0.232l0.263,-0.173l0.088,-0.226l0.202,-0.453l0.087,-0.253l0.202,-0.453l0.077,-0.231l0.104,-0.232l0.086,-0.253l0.099,-0.22l-0.078,-0.3l0.202,-0.453l-0.068,-0.322l-0.083,-0.289l0.109,-0.243l-0.176,-0.052l0.087,-0.253l0.099,-0.221l-0.073,-0.311l-0.165,-0.047l0.109,-0.243l-0.078,-0.3l0.103,-0.232l0.077,-0.231l0.109,-0.243l0.258,-0.162l0.099,-0.221l0.252,-0.179l0.796,-0.506l0.094,-0.21l0.263,-0.174l0.252,-0.178l0.357,-0.384l0.274,-0.169l0.072,-0.22l0.187,0.057l0.264,-0.147l0.165,0.047l0.154,0.069l0.353,0.131l0.475,0.212l0.181,0.068l0.166,0.074l0.263,-0.173l0.077,-0.231l0.198,0.062l0.071,-0.22l0.155,0.069l0.108,-0.243l0.343,0.153l0.236,-0.173l0.177,0.079l0.175,0.052l0.155,0.069l0.109,-0.243l0.165,0.074l0.259,-0.162l0.076,-0.231l0.177,0.079l0.098,-0.248l0.521,-0.337l0.265,-0.147l0.164,0.047l0.094,-0.21l0.086,-0.253l0.099,-0.22l0.176,0.052l0.248,-0.141l0.275,-0.169l0.164,0.047l0.099,-0.221l0.154,0.069l0.27,-0.158l0.154,0.069l0.275,-0.169l0.794,-4.296l2.021,0.28l-0.366,2.302l-0.428,1.995l1.938,-0.035l1.965,-0.01l-0.141,-1.136l-0.094,-1.659l-0.037,-2.733l3.297,-0.024l2.549,-0.04l3.133,-0.071l2.884,0.07l1.778,-0.094l0.068,0.322l-0.091,2.133l-0.143,3.196l-0.201,2.375l0.017,1.89l-0.127,2.686l3.302,-0.035l2.967,-0.145l2.522,-0.039l1.713,0.143l2.356,-0.113l2.554,-0.051l-1.999,2.989l-1.74,2.827l-1.452,2.121l-0.981,1.483l3.453,0.072l3.138,-0.082l3.572,-0.192l3.231,-0.292l2.873,0.065l0.265,-0.147l1.349,0.007l-0.362,0.394l-0.688,0.263l-0.346,0.389l-0.207,0.464l-0.082,0.241l-0.185,0.474l-0.202,0.453l-0.098,0.248l-0.202,0.453l-0.077,0.231l-0.289,0.706l-0.258,0.162l-0.265,0.147l-0.263,0.174l-0.247,0.168l-0.263,0.174l-0.099,0.221l-0.558,0.863l-0.444,0.637l-0.196,0.469l-0.289,0.706l-0.279,0.683l-0.181,0.463l-0.03,0.543l-0.082,0.242l0.056,0.29l0.078,0.3l-0.18,0.463l0.057,0.317l0.078,0.3l0.139,0.579l0.063,0.836l0.233,0.369l0.165,0.074l0.078,0.3l0.046,0.312l0.094,0.294l0.056,0.29l-0.086,0.253l-0.099,0.221l-0.081,0.242l-0.208,0.464l0.083,0.289l-0.03,0.543l0.154,0.069l0.089,0.304l0.155,0.07l0.083,0.288l0.165,0.075l0.342,0.126l0.221,0.364l0.177,0.079l0.33,0.121l0.497,0.222l0.078,0.3l0.067,0.295l-0.133,1.305l0.129,0.601l-0.014,0.537l0.134,0.59l0.078,0.3l0.062,0.306l-0.197,0.469l-0.014,0.537l-0.088,0.226l0.067,0.295l0.155,0.069l0.078,0.3l0.084,0.315l0.232,0.369l0.176,0.052l0.068,0.322l-0.099,0.221l0.155,0.069l-0.082,0.242l-0.253,0.152l-0.203,0.453l-0.252,0.179l0.046,0.312l-0.071,0.22l0.067,0.295l-0.031,0.543l-0.082,0.241l-0.025,0.532l-0.201,0.984l-0.109,0.243l-0.026,0.532l-0.185,0.474l-0.368,0.378l-0.087,0.253l-0.258,0.163l-1.81,-1.286" style="fill:#fefeeb;stroke:#4e4e4e;stroke-width:0.6px;stroke-linecap:square;stroke-linejoin:bevel;stroke-miterlimit:4;"/><path id="path2488" d="M703.686,620.281l-0.594,-0.213l-3.146,-1.115l-0.226,-0.087l-1.545,-0.545l-2.097,-0.765l-0.269,-0.08l-1.1,-0.386l-0.402,-0.167l-0.36,-0.796l-0.263,-0.569l-0.247,-0.574l-0.282,-0.643l-3.315,-7.379l-0.065,-0.122l0.011,-0.114l-0.05,-2.023l-0.05,-1.547l-0.013,-1.039l-0.14,-6.358l0.004,-0.157l0.42,-1.058l1.743,-4.257l1.047,-2.58l0.534,-0.066l0.927,-0.089l0.355,-0.054l0.13,0.125l0.764,0.752l1.563,1.573l2.715,3.533l2.896,-0.283l3.549,-5.331l0.808,-0.117l1.78,-0.277l0.576,0.787l7.255,9.683l1.076,2.456l0.596,1.393l1.892,4.397l-1.124,1.95l-2.335,0.361l-0.253,0.032l-4.114,-2.952l-1.459,-1.063l-0.577,-0.43l-0.171,-0.209l-4.113,-5.416l-4.127,0.753l-1.941,3.068l0.706,4.172l6.929,7.656l3.488,3.374l-0.087,1.883l-2.278,0.294l-3.227,0.4l-1.794,0.219" style="fill:#fefeeb;stroke:#4e4e4e;stroke-width:0.6px;stroke-linecap:square;stroke-linejoin:bevel;stroke-miterlimit:4;"/><path id="path2368" d="M615.397,485.668l0.154,0.069l0.176,0.052l0.094,-0.21l0.155,0.069l0.108,-0.243l0.32,0.143l-0.076,0.231l-0.104,0.232l0.155,0.069l-0.077,0.231l-0.108,0.243l-0.166,-0.074l-0.099,0.221l-0.159,-0.059l-0.498,-0.222l-0.164,-0.047l-0.166,-0.074l-0.207,0.464l-0.733,-0.049l-0.353,-0.131l-0.32,-0.143l-1.349,-0.007l-0.134,0.775l-0.099,0.221l-0.206,0.995l-0.53,2.254l-0.647,2.454l-0.391,1.469l-5.42,21.14l-2.93,-0.382l-0.177,-0.079l-2.678,-0.561l-0.429,0.1l-3.273,-0.535l-3.449,-0.614l-2.683,-0.55l-0.766,-0.037l-2.848,-0.624l-3.273,-0.535l-1.846,-0.229l-0.32,-0.143l-1.113,-0.179l0.434,-1.979l0.614,-3.834l-2.627,-0.26l-0.475,-0.212l-2.787,-0.318l-3.692,-0.458l-0.341,-0.126l-2.943,-0.414l-3.768,-0.73l-0.353,-0.131l-1.35,-0.033l-1.57,-0.371l-0.177,-0.079l-4.363,-0.704l-1.428,-0.334l-2.942,-0.387l-2.518,-0.502l-1.68,-0.155l-1.438,-0.311l-0.925,-0.096l0.319,-1.248l0.015,-0.537l0.203,-0.453l-0.022,-1.375l0.444,-2.001l-1.091,-0.17l-1.758,-0.454l-2.09,-0.603l0.439,-1.99l0.454,-2.527l0.495,-3.066l0.459,-2.538l0.233,-0.996l3.9,-22.602l0.15,-1.284l0.108,-0.243l0.35,-2.296l0.031,-0.542l0.099,-0.221l0.025,-0.532l0.233,-0.996l1.398,-7.605l1.058,-6.339l9.56,1.768l3.701,0.435l5.015,0.996l4.545,0.772l0.497,0.222l4.678,0.832l4.199,0.657l3.107,0.461l1.267,0.249l2.844,0.635l4.033,0.583l5.02,0.985l1.856,0.206l1.256,0.243l3.273,0.536l2.832,0.63l3.112,0.449l1.428,0.334l1.016,-5.298l1.342,-6.53l5.449,0.885l-1.238,6.298l-0.134,0.775l-0.237,1.538l-0.707,4.044l-0.603,3.839l-0.583,3.291l-0.928,5.071l-0.305,1.216l0.068,0.322l-0.46,2.511l-0.18,0.463l-0.507,-0.2l-0.233,0.996l-0.18,0.462l0.502,0.211l-0.16,1.307l-0.294,2.585l0.176,0.079l0.222,0.365l0.078,0.299l0.084,0.316l0.16,0.058l0.051,0.302l-0.077,0.23l-0.202,0.453l-0.087,0.253l0.056,0.29l0.342,0.153l-0.098,0.221l0.342,0.153l-0.094,0.21l0.155,0.069l-0.087,0.253l0.056,0.29l-0.094,0.21l-0.086,0.253l0.155,0.069l-0.099,0.221l0.188,0.084l0.056,0.29l0.073,0.311l0.067,0.295l-0.088,0.226l0.166,0.074l-0.104,0.232l-0.077,0.23l-0.207,0.464l0.073,0.311l0.056,0.29l0.342,0.153l0.078,0.3l0.155,0.069l-0.155,-0.069l0.056,0.29l0.166,0.074l0.083,0.289l0.32,0.143l0.182,0.068l0.32,0.144l0.083,0.288l-0.207,0.464l-0.176,-0.052l-0.094,0.21l-0.241,0.184l-0.099,0.221l-0.175,-0.052l-0.094,0.21l-0.526,0.348l0.083,0.288l0.154,0.07l-0.099,0.22l0.343,0.154" style="fill:#fefeeb;stroke:#4e4e4e;stroke-width:0.6px;stroke-linecap:square;stroke-linejoin:bevel;stroke-miterlimit:4;"/><path id="path2370" d="M637.71,441.822l-1.731,13.155l22.964,4.008l-1.938,10.889l-2.315,13.185l-0.562,2.77l-6.809,-0.896l-0.675,5.424l6.369,0.991l-0.561,3.301l-0.284,2.059l2.125,0.049l-1.531,7.546l-1.935,-0.534l-3.881,19.893l-23.251,-4.375l-3.295,-0.545l-1.395,-0.318l-14.452,-2.683l5.42,-21.14l0.391,-1.469l0.647,-2.454l0.53,-2.254l0.206,-0.995l0.099,-0.221l0.134,-0.775l1.349,0.007l0.32,0.143l0.353,0.131l0.733,0.049l0.207,-0.464l0.166,0.074l0.164,0.047l0.498,0.222l0.159,0.059l0.099,-0.221l0.166,0.074l0.108,-0.243l0.077,-0.231l-0.155,-0.069l0.104,-0.232l0.076,-0.231l-0.32,-0.143l-0.108,0.243l-0.155,-0.069l-0.094,0.21l-0.176,-0.052l-0.497,-0.223l0.099,-0.22l-0.154,-0.07l-0.083,-0.288l0.526,-0.348l0.094,-0.21l0.175,0.052l0.099,-0.221l0.241,-0.184l0.094,-0.21l0.176,0.052l0.207,-0.464l-0.083,-0.288l-0.32,-0.144l-0.182,-0.068l-0.32,-0.143l-0.083,-0.289l-0.166,-0.074l-0.056,-0.29l0.155,0.069l-0.155,-0.069l-0.078,-0.3l-0.342,-0.153l-0.056,-0.29l-0.073,-0.311l0.207,-0.464l0.077,-0.23l0.104,-0.232l-0.166,-0.074l0.088,-0.226l-0.067,-0.295l-0.073,-0.311l-0.056,-0.29l-0.188,-0.084l0.099,-0.221l-0.155,-0.069l0.086,-0.253l0.094,-0.21l-0.056,-0.29l0.087,-0.253l-0.155,-0.069l0.094,-0.21l-0.342,-0.153l0.098,-0.221l-0.342,-0.153l-0.056,-0.29l0.087,-0.253l0.202,-0.453l0.077,-0.23l-0.051,-0.302l-0.16,-0.058l-0.084,-0.316l-0.078,-0.299l-0.222,-0.365l-0.176,-0.079l0.294,-2.585l0.16,-1.307l-0.502,-0.211l0.18,-0.462l0.233,-0.996l0.507,0.2l0.18,-0.463l0.46,-2.511l-0.068,-0.322l0.305,-1.216l0.928,-5.071l0.583,-3.291l0.603,-3.839l0.707,-4.044l0.237,-1.538l0.134,-0.775l1.238,-6.298l12.082,1.729l5.707,0.722" style="fill:#fefeeb;stroke:#4e4e4e;stroke-width:0.6px;stroke-linecap:square;stroke-linejoin:bevel;stroke-miterlimit:4;"/><path id="path2382" d="M663.92,432.015l-0.053,0.148l-0.156,0.884l-0.202,1.222l-0.355,1.803l-0.316,1.595l-0.236,1.299l-0.2,1.13l-0.259,1.262l-0.38,1.977l-0.145,0.651l-0.042,0.034l-2.687,14.967l-0.025,0.056l-22.911,-4.157l1.796,-13.033l-5.678,-0.815l-12.073,-1.752l-0.119,0l-5.405,-0.746l-1.274,6.468l-1.039,5.261l-1.55,-0.269l-2.919,-0.496l-2.962,-0.489l-2.188,-0.382l0.78,-2.753l0.984,-3.535l0.453,-1.667l0.617,-2.241l1.087,-3.795l0.886,-3.288l0.499,-1.739l0.214,-0.805l0.655,-2.385l0.902,-3.175l0.17,-0.586l0.671,-3.014l0.999,-4.192l0.976,-3.844l0.98,-4.001l0.634,-2.487l0.243,-1.018l0.194,-0.761l0.303,-1.27l0.791,-3.224l0.199,-0.799l0.157,-0.619l0.42,-1.8l1.231,-4.949l0.332,-1.336l0.422,0.095l4.828,0.939l4.822,0.923l4.063,0.755l3.139,0.595l0.236,0.066l1.654,0.302l0.508,0.081l2.555,0.479l4.079,0.776l4.101,0.76l2.453,0.5l0.241,0.054l2.797,0.561l5.574,1.021l4.848,0.894l4.133,0.774l3.185,0.615l0.364,0.044l-0.01,0.022l-0.091,0.383l-0.469,1.672l-0.666,2.499l-1.018,3.878l-1.076,3.919l-0.88,3.185l-0.66,2.395l-0.661,2.369l-0.445,1.59l-0.2,0.772l-0.052,0.176l-0.038,0.234l-0.189,0.896l-0.119,0.742l-0.26,1.382l-0.304,1.6l-0.311,1.703l-0.547,3.003l-0.005,0.011" style="fill:#fefeeb;stroke:#4e4e4e;stroke-width:0.6px;stroke-linecap:square;stroke-linejoin:bevel;stroke-miterlimit:4;"/><path id="path2478" d="M621.225,610.447l-2.24,-1.187l0.113,-0.784l0.03,-0.543l0.094,-0.21l0.056,-1.075l0.742,-5.129l-1.123,-1.549l-0.399,-0.443l-6.65,-2.733l-3.263,-1.061l-2.668,-1.087l-2.699,-0.04l-2.388,0.125l-1.196,0.036l-4.34,2.566l-0.367,0.406l-0.099,0.221l-0.237,1.537l-0.572,3.296l-0.222,1.001l-0.211,1.006l-0.124,0.752l-0.155,1.296l-1.973,2.458l-2.594,3.015l-0.547,0.869l-0.373,0.39l-1.984,1.088l-3.852,2.214l-1.995,1.083l-0.263,0.174l-0.068,-0.322l-2.659,-2.977l-0.635,-0.801l-0.931,-0.112l-1.263,-0.259l-3.987,-0.271l-0.154,-0.069l-0.399,-0.443l-1.257,-0.774l-0.321,-0.144l-0.739,-0.569l-1.403,-0.865l0.776,-1.853l0.842,-1.559l0.759,-1.847l0.109,-0.243l0.072,-0.22l0.108,-0.243l0.533,-0.332l1.55,-0.977l0.289,-0.706l0.108,-0.243l0.088,-0.225l0.037,-0.527l0.18,-0.463l0.625,-2.464l0.398,-0.922l1.223,-4.397l0.805,-2.927l-0.11,-1.149l-0.366,-8.579l0.072,-1.584l-0.11,-1.149l-0.052,-0.832l0.067,-1.07l-1.573,-2.824l-0.165,-0.047l-0.079,-0.327l-1.468,-1.133l0.108,-0.243l0.259,-0.163l0.087,-0.226l0.203,-0.452l0.086,-0.253l-0.067,-0.295l0.093,-0.237l0.388,-0.927l0.124,-0.753l0.375,-0.958l0.203,-0.453l0.185,-0.474l0.27,-0.158l0.098,-0.221l0.61,-0.562l0.62,-0.558l1.307,-0.82l1.153,-0.89l0.253,-0.179l0.263,-0.174l0.601,-0.009l0.527,-0.321l0.356,-0.411l0.258,-0.163l0.528,-0.321l0.258,-0.162l0.351,-0.4l0.203,-0.453l0.185,-0.474l0.104,-0.232l-0.078,-0.3l-0.057,-0.317l-0.083,-0.289l-0.134,-0.59l-0.234,-0.396l-0.083,-0.289l-0.067,-0.295l-0.078,-0.299l0.104,-0.232l0.086,-0.253l0.203,-0.453l0.264,-0.147l0.345,-0.416l0.274,-0.169l0.254,-0.152l0.378,-0.4l0.253,-0.152l0.082,-0.242l0.274,-0.169l0.18,-0.463l0.208,-0.464l-0.078,-0.3l0.103,-0.232l-0.089,-0.304l0.109,-0.243l0.026,-0.532l-0.078,-0.3l0.098,-0.221l-0.073,-0.311l-0.067,-0.295l0.098,-0.248l-0.176,-0.052l-0.051,-0.301l-0.321,-0.674l-0.244,-0.374l-0.056,-0.29l-0.073,-0.311l-0.176,-0.052l-0.068,-0.322l0.203,-0.453l0.165,0.074l0.34,-0.404l0.27,-0.158l0.108,-0.243l0.114,-0.758l0.102,-0.763l0.233,-0.996l0.211,-1.005l0.16,-1.307l0.31,-1.227l0.139,-1.289l0.211,-1.006l0.233,-0.996l0.112,-0.784l0.249,-1.506l0.345,-1.781l0.225,-1.542l0.358,-1.749l0.31,-1.226l0.137,-1.317l0.125,-0.753l0.222,-1l0.309,-1.227l0.263,-2.069l0.413,-1.459l-0.078,-0.3l0.109,-0.243l0.211,-1.006l0.228,-0.984l0.144,-1.301l0.402,-1.463l0.015,-0.537l0.444,-2.002l2.683,0.55l3.449,0.614l3.273,0.535l0.429,-0.1l2.678,0.561l0.177,0.079l2.93,0.382l14.452,2.683l1.395,0.318l3.295,0.545l23.251,4.375l0.154,0.069l-0.098,0.221l-0.155,-0.069l-0.109,0.243l0.177,0.079l-0.094,0.21l0.067,0.295l0.177,0.079l-0.109,0.243l0.155,0.069l0.187,0.057l-0.109,0.243l0.166,0.074l-0.094,0.21l0.331,0.148l0.104,-0.232l0.067,0.295l0.155,0.069l-0.082,0.242l-0.099,0.221l0.343,0.153l-0.203,0.453l0.177,0.079l-0.099,0.221l0.155,0.069l-0.155,-0.069l-0.108,0.243l0.186,0.057l-0.108,0.243l0.154,0.069l0.176,0.052l-0.093,0.237l0.166,0.074l-0.099,0.221l0.177,0.079l-0.109,0.243l0.165,0.047l-0.087,0.253l0.166,0.074l0.165,0.047l-0.104,0.232l0.177,0.079l-0.099,0.221l0.342,0.153l0.165,0.047l0.32,0.143l0.104,-0.232l0.154,0.069l0.09,0.305l0.154,0.069l-0.103,0.232l-0.155,-0.069l0.078,0.3l0.077,-0.231l-0.077,0.231l0.154,0.069l0.109,-0.243l0.057,0.317l0.165,0.047l0.176,0.079l-0.108,0.243l0.166,0.074l0.108,-0.243l0.155,0.069l0.164,0.047l-0.086,0.253l0.165,0.074l0.165,0.047l0.497,0.222l0.104,-0.232l0.32,0.143l0.165,0.047l0.073,0.311l0.17,0.063l-0.081,0.242l0.154,0.069l-0.098,0.221l0.154,0.069l-0.086,0.253l-0.094,0.21l0.342,0.153l0.16,0.058l0.166,0.074l0.098,-0.221l0.165,0.047l-0.109,0.243l0.177,0.079l-0.202,0.453l-0.264,0.174l-0.057,-0.317l-0.108,0.243l-0.155,-0.069l-0.104,0.232l-0.154,-0.069l0.154,0.069l-0.076,0.231l-0.109,0.243l-0.166,-0.074l-0.202,0.453l0.188,0.084l-0.099,0.22l0.155,0.07l-0.082,0.241l0.16,0.059l-0.104,0.231l0.104,-0.231l0.165,0.074l0.083,0.288l-0.108,0.243l0.154,0.07l0.187,0.056l-0.109,0.243l0.166,0.075l-0.077,0.23l-0.103,0.232l0.154,0.069l-0.076,0.231l-0.203,0.453l-0.086,0.253l-0.188,-0.084l-0.082,0.242l-0.331,-0.148l-0.098,0.248l0.176,0.052l-0.109,0.243l-0.076,0.23l-0.104,0.232l-0.166,-0.074l-0.108,0.243l0.165,0.074l-0.165,-0.074l-0.259,0.163l-0.098,0.221l-0.087,0.253l-0.166,-0.074l0.166,0.074l-0.099,0.221l0.155,0.069l-0.155,-0.069l0.155,0.069l-0.247,0.168l0.165,0.074l-0.207,0.464l-0.166,-0.074l0.166,0.074l-0.237,0.146l-0.109,0.243l0.166,0.074l0.078,0.3l-0.104,0.231l-0.077,0.231l-0.108,0.243l0.164,0.047l-0.108,0.243l-0.072,0.22l-0.109,0.243l-0.086,0.253l0.164,0.047l-0.103,0.232l-0.155,-0.069l-0.109,0.243l-0.165,-0.074l-0.099,0.221l0.497,0.222l-0.099,0.221l-0.154,-0.069l0.073,0.311l0.154,0.069l-0.253,0.152l-0.086,0.252l0.403,0.432l0.159,0.059l0.497,0.222l0.087,-0.253l0.078,0.3l0.264,-0.147l0.165,0.047l0.166,0.074l0.258,-0.163l0.073,0.311l-0.099,0.221l-0.154,-0.069l0.32,0.143l-0.088,0.226l0.166,0.074l-0.166,-0.074l-0.202,0.453l0.079,0.327l0.155,0.069l-0.072,0.22l-0.177,-0.079l0.068,0.322l0.165,0.047l-0.087,0.252l-0.176,-0.079l0.078,0.3l-0.104,0.232l-0.155,-0.069l-0.108,0.243l0.176,0.079l-0.264,0.147l-0.16,-0.058l0.082,-0.242l-0.258,0.163l-0.077,0.231l-0.198,-0.062l-0.154,-0.069l0.108,-0.243l-0.164,-0.047l-0.343,-0.153l0.099,-0.221l-0.177,-0.079l-0.076,0.231l-0.176,-0.052l0.067,0.295l-0.166,-0.074l-0.103,0.232l-0.155,-0.069l-0.537,0.342l-0.155,-0.069l0.083,0.289l0.154,0.069l-0.098,0.221l-0.087,0.253l-0.103,0.232l0.159,0.058l0.343,0.153l-0.094,0.21l-0.263,0.174l-0.109,0.243l-0.238,0.146l-0.108,0.243l-0.155,-0.07l-0.197,-0.061l-0.232,0.161l-0.103,0.232l-0.166,-0.074l0.067,0.295l0.068,0.322l0.165,0.047l0.342,0.153l-0.202,0.453l-0.264,0.174l-0.087,0.226l-0.16,-0.058l-0.099,0.221l0.078,0.3l0.166,0.074l0.046,0.312l0.187,0.057l0.165,0.074l-0.103,0.232l-0.088,0.226l-0.207,0.464l0.342,0.153l0.165,0.047l-0.104,0.232l-0.087,0.252l0.176,0.052l0.155,0.07l-0.087,0.252l0.087,-0.252l-0.087,0.252l0.263,-0.173l-0.098,0.22l0.32,0.144l-0.077,0.23l-0.103,0.232l0.154,0.069l-0.076,0.231l0.32,0.143l-0.265,0.147l0.085,0.316l0.159,0.058l0.155,0.069l-0.155,-0.069l-0.081,0.242l-0.208,0.464l0.083,0.289l0.046,0.312l-0.309,-0.138l-0.109,0.243l0.083,0.289l-0.108,0.243l-0.077,0.23l0.077,-0.23l-0.166,-0.074l0.108,-0.243l-0.186,-0.057l-0.077,0.231l-0.154,-0.07l-0.048,0.522l0.068,0.322l0.176,0.052l0.331,0.148l0.067,0.295l0.177,0.079l-0.099,0.221l0.073,0.311l-0.207,0.464l-0.077,0.231l-0.104,0.232l-0.067,-0.295l0.093,-0.237l-0.32,-0.143l-0.213,0.475l-0.264,0.147l-0.082,0.242l-0.098,0.221l0.342,0.153l0.056,0.29l-0.087,0.253l0.061,0.278l-0.263,0.174l0.078,0.3l-0.104,0.232l0.182,0.068l0.166,0.074l0.076,-0.231l0.078,0.3l-0.532,0.332l0.089,0.305l-0.27,0.158l-0.253,0.152l-0.109,0.243l0.177,0.079l0.33,0.121l-0.081,0.242l-0.099,0.221l0.155,0.069l-0.087,0.253l-0.094,0.209l0.321,0.144l0.258,-0.163l0.177,0.079l0.067,0.295l-0.166,-0.074l-0.104,0.232l-0.253,0.151l-0.176,-0.052l-0.258,0.163l-0.077,0.231l0.155,0.069l-0.099,0.221l0.166,0.074l0.078,0.3l-0.104,0.232l0.177,0.079l-0.207,0.464l-0.321,-0.143l-0.103,0.232l-0.077,0.231l0.155,0.069l-0.109,0.243l-0.309,-0.139l-0.089,-0.304l-0.155,-0.069l-0.109,0.243l-0.071,0.219l-0.208,0.464l0.177,0.079l-0.202,0.453l-0.264,0.174l-0.092,0.237l-0.208,0.464l0.089,0.305l0.155,0.069l-0.072,0.22l-0.274,0.168l-0.155,-0.069l-0.186,-0.057l-0.166,-0.074l0.109,-0.243l-0.263,0.174l0.055,0.29l0.085,0.316l-0.099,0.221l-0.098,0.248l0.072,0.284l-0.166,-0.074l-0.263,0.174l-0.33,-0.121l-0.331,-0.148l-0.067,-0.295l-0.078,-0.3l-0.155,-0.069l-0.274,0.169l-0.155,-0.069l-0.446,0.078l-0.077,0.231l-0.263,0.174l-0.166,-0.074l-0.186,-0.057l-0.155,-0.069l0.109,-0.243l-0.198,-0.062l-0.155,-0.069l-0.081,0.242l0.159,0.058l-0.103,0.232l0.078,0.3l-0.104,0.232l-0.077,0.231l-0.108,0.243l0.078,0.3l0.166,0.074l-0.094,0.209l-0.176,-0.051l-0.331,-0.149l-0.275,0.169l-0.309,-0.138l0.073,0.311l0.222,0.364l0.078,0.3l0.154,0.069l-0.076,0.231l-0.104,0.232l0.078,0.3l-0.207,0.464l-0.155,-0.069l-0.17,-0.063l-0.332,-0.148l-0.175,-0.052l-0.155,-0.07l-0.099,0.221l-0.086,0.253l-0.094,0.21l0.155,0.069l-0.109,0.243l-0.077,0.231l0.155,0.069l0.089,0.305l0.475,0.212l0.187,0.057l-0.203,0.453l-0.164,-0.047l-0.166,-0.074l-0.078,-0.3l-0.155,-0.069l-0.089,-0.305l-0.231,0.162l-0.187,-0.057l-0.087,0.226l-0.522,0.337l-0.342,-0.154l-0.264,0.174l-0.165,-0.074l-0.259,0.163l-0.165,-0.074l-0.264,0.174l-0.081,0.242l-0.207,0.464l-0.077,0.231l-0.203,0.452l0.069,0.322l-0.27,0.158l-0.099,0.221l-0.334,0.394l-0.109,0.243l-0.269,0.158l-0.186,0.474l-0.258,0.163l-0.609,0.562l-0.275,0.169l-0.253,0.152l-0.104,0.232l-0.086,0.253l0.056,0.29l0.078,0.3l0.32,0.143l0.083,0.289l-0.02,0.548l0.165,0.047l0.068,0.322l-0.202,0.452l-0.077,0.231l-0.104,0.232l-0.107,0.774l-0.578,1.411l-0.202,0.453l-0.026,0.532l-0.021,0.521l0.151,0.611l0.196,0.896l0.167,0.605l-0.025,0.532l0.046,0.312l-0.077,0.23l-0.202,0.453l-0.031,0.543l-0.18,0.463l-0.109,0.243l-0.335,0.394l-0.454,0.631l-0.554,0.853l-0.713,0.795l-0.362,0.394l-0.356,0.411l-0.44,0.095l-0.5,0.32l-0.477,0.621l-0.413,0.094l-0.098,0.248l-0.263,0.174l-0.202,0.453l-0.252,0.179l-0.203,0.453l-0.18,0.462l-0.031,0.543l-0.18,0.463l0.067,0.295l0.078,0.3l0.073,0.311l0.222,0.364l0.232,0.369l0.352,0.131l-0.108,0.243l0.164,0.047l0.08,0.327l-0.026,0.532l0.078,0.3l-0.099,0.221l0.073,0.311l-0.099,0.221l-0.18,0.462l-0.109,0.243l-0.154,-0.069l-0.533,0.332l-0.583,0.031l-0.27,0.158l-0.44,0.095l-0.087,0.225l-0.104,0.232l-0.263,0.174l-0.077,0.231l-0.202,0.453l-0.356,0.411l-0.632,0.552l-0.154,-0.069l-1.923,-0.501" style="fill:#fefeeb;stroke:#4e4e4e;stroke-width:0.6px;stroke-linecap:square;stroke-linejoin:bevel;stroke-miterlimit:4;"/><path id="path2480" d="M643.23,640.558l-1.399,2.33l-0.197,0.323l-0.524,0.905l1,1.826l2.444,4.524l0.143,0.568l1.09,3.76l0.528,1.813l1.18,4.119l0.288,1.017l0.286,0.962l0.318,1.097l0.402,1.412l-7.712,9.872l-0.267,0.331l-0.021,0.017l-0.037,0.024l-1.293,0.641l-0.286,0.164l-0.27,0.131l-0.464,0.177l-1.24,0.492l-1.885,-0.378l-0.114,-0.012l-0.078,-0.034l-0.409,-0.064l-0.055,-0.024l-0.054,0.002l-0.542,-0.123l-0.119,-0l-0.601,-0.137l-2.715,-0.537l-0.897,-0.189l-0.158,-0.031l0.272,-6.213l0.019,-0.19l0.026,-0.651l0.031,-0.159l0.037,-0.261l0.111,-0.574l0.065,-0.235l0.464,-2.431l1.73,-8.94l0.382,-1.923l0.367,-1.89l0.081,-0.507l0.122,-0.569l0.022,-0.109l-0.002,-0.054l1.007,-5.13l0.115,-0.584l0.51,-2.622l0.083,-0.453l1.196,-6.145l0.022,-0.228l-0.694,-1.53l-0.86,-0.331l-0.7,-0.3l-0.529,-0.21l-1.788,-0.745l-1.432,-2.549l1.036,-2.731l1.452,-3.843l0.102,-0.286l0.826,-2.175l0.052,-0.176l0.211,-0.502l1.464,-0.34l1.335,-0.318l1.677,1.347l10.115,8.059l0.286,0.22l0.062,0.068l1.303,1.947l0.736,1.111l-2.494,2.556l-1.894,1.924l-2.778,2.866l-0.49,0.828" style="fill:#fefeeb;stroke:#4e4e4e;stroke-width:0.6px;stroke-linecap:square;stroke-linejoin:bevel;stroke-miterlimit:4;"/><path id="path2486" d="M697.189,563.002l-1.172,1.437l-4.034,5.142l-3.771,4.967l-11.711,15.32l-0.175,-0.051l-0.538,0.846l-2.526,3.31l-4.499,5.796l-0.91,1.236l1.449,3.577l0.155,0.069l-0.185,0.474l-0.324,3.658l-0.101,2.155l-0.258,2.058l-0.07,1.612l-0.196,2.364l-0.155,1.296l-0.076,0.231l-5.132,4.425l-4.167,-1.173l-1.945,-0.512l-17.974,-5.448l-0.497,-0.223l-0.347,-0.142l-0.155,-0.069l-0.781,-0.031l-13.946,-4.378l0.154,0.069l0.632,-0.552l0.356,-0.411l0.202,-0.453l0.077,-0.231l0.263,-0.174l0.104,-0.232l0.087,-0.225l0.44,-0.095l0.27,-0.158l0.583,-0.031l0.533,-0.332l0.154,0.069l0.109,-0.243l0.18,-0.462l0.099,-0.221l-0.073,-0.311l0.099,-0.221l-0.078,-0.3l0.026,-0.532l-0.08,-0.327l-0.164,-0.047l0.108,-0.243l-0.352,-0.131l-0.232,-0.369l-0.222,-0.364l-0.073,-0.311l-0.078,-0.3l-0.067,-0.295l0.18,-0.463l0.031,-0.543l0.18,-0.462l0.203,-0.453l0.252,-0.179l0.202,-0.453l0.263,-0.174l0.098,-0.248l0.413,-0.094l0.477,-0.621l0.5,-0.32l0.44,-0.095l0.356,-0.411l0.362,-0.394l0.713,-0.795l0.554,-0.853l0.454,-0.631l0.335,-0.394l0.109,-0.243l0.18,-0.463l0.031,-0.543l0.202,-0.453l0.077,-0.23l-0.046,-0.312l0.025,-0.532l-0.167,-0.605l-0.196,-0.896l-0.151,-0.611l0.021,-0.521l0.026,-0.532l0.202,-0.453l0.578,-1.411l0.107,-0.774l0.104,-0.232l0.077,-0.231l0.202,-0.452l-0.068,-0.322l-0.165,-0.047l0.02,-0.548l-0.083,-0.289l-0.32,-0.143l-0.078,-0.3l-0.056,-0.29l0.086,-0.253l0.104,-0.232l0.253,-0.152l0.275,-0.169l0.609,-0.562l0.258,-0.163l0.186,-0.474l0.269,-0.158l0.109,-0.243l0.334,-0.394l0.099,-0.221l0.27,-0.158l-0.069,-0.322l0.203,-0.452l0.077,-0.231l0.207,-0.464l0.081,-0.242l0.264,-0.174l0.165,0.074l0.259,-0.163l0.165,0.074l0.264,-0.174l0.342,0.154l0.522,-0.337l0.087,-0.226l0.187,0.057l0.231,-0.162l0.089,0.305l0.155,0.069l0.078,0.3l0.166,0.074l0.164,0.047l0.203,-0.453l-0.187,-0.057l-0.475,-0.212l-0.089,-0.305l-0.155,-0.069l0.077,-0.231l0.109,-0.243l-0.155,-0.069l0.094,-0.21l0.086,-0.253l0.099,-0.221l0.155,0.07l0.175,0.052l0.332,0.148l0.17,0.063l0.155,0.069l0.207,-0.464l-0.078,-0.3l0.104,-0.232l0.076,-0.231l-0.154,-0.069l-0.078,-0.3l-0.222,-0.364l-0.073,-0.311l0.309,0.138l0.275,-0.169l0.331,0.149l0.176,0.051l0.094,-0.209l-0.166,-0.074l-0.078,-0.3l0.108,-0.243l0.077,-0.231l0.104,-0.232l-0.078,-0.3l0.103,-0.232l-0.159,-0.058l0.081,-0.242l0.155,0.069l0.198,0.062l-0.109,0.243l0.155,0.069l0.186,0.057l0.166,0.074l0.263,-0.174l0.077,-0.231l0.446,-0.078l0.155,0.069l0.274,-0.169l0.155,0.069l0.078,0.3l0.067,0.295l0.331,0.148l0.33,0.121l0.263,-0.174l0.166,0.074l-0.072,-0.284l0.098,-0.248l0.099,-0.221l-0.085,-0.316l-0.055,-0.29l0.263,-0.174l-0.109,0.243l0.166,0.074l0.186,0.057l0.155,0.069l0.274,-0.168l0.072,-0.22l-0.155,-0.069l-0.089,-0.305l0.208,-0.464l0.092,-0.237l0.264,-0.174l0.202,-0.453l-0.177,-0.079l0.208,-0.464l0.071,-0.219l0.109,-0.243l0.155,0.069l0.089,0.304l0.309,0.139l0.109,-0.243l-0.155,-0.069l0.077,-0.231l0.103,-0.232l0.321,0.143l0.207,-0.464l-0.177,-0.079l0.104,-0.232l-0.078,-0.3l-0.166,-0.074l0.099,-0.221l-0.155,-0.069l0.077,-0.231l0.258,-0.163l0.176,0.052l0.253,-0.151l0.104,-0.232l0.166,0.074l-0.067,-0.295l-0.177,-0.079l-0.258,0.163l-0.321,-0.144l0.094,-0.209l0.087,-0.253l-0.155,-0.069l0.099,-0.221l0.081,-0.242l-0.33,-0.121l-0.177,-0.079l0.109,-0.243l0.253,-0.152l0.27,-0.158l-0.089,-0.305l0.532,-0.332l-0.078,-0.3l-0.076,0.231l-0.166,-0.074l-0.182,-0.068l0.104,-0.232l-0.078,-0.3l0.263,-0.174l-0.061,-0.278l0.087,-0.253l-0.056,-0.29l-0.342,-0.153l0.098,-0.221l0.082,-0.242l0.264,-0.147l0.213,-0.475l0.32,0.143l-0.093,0.237l0.067,0.295l0.104,-0.232l0.077,-0.231l0.207,-0.464l-0.073,-0.311l0.099,-0.221l-0.177,-0.079l-0.067,-0.295l-0.331,-0.148l-0.176,-0.052l-0.068,-0.322l0.048,-0.522l0.154,0.07l0.077,-0.231l0.186,0.057l-0.108,0.243l0.166,0.074l-0.077,0.23l0.077,-0.23l0.108,-0.243l-0.083,-0.289l0.109,-0.243l0.309,0.138l-0.046,-0.312l-0.083,-0.289l0.208,-0.464l0.081,-0.242l0.155,0.069l-0.155,-0.069l-0.159,-0.058l-0.085,-0.316l0.265,-0.147l-0.32,-0.143l0.076,-0.231l-0.154,-0.069l0.103,-0.232l0.077,-0.23l-0.32,-0.144l0.098,-0.22l-0.263,0.173l0.087,-0.252l-0.087,0.252l0.087,-0.252l-0.155,-0.07l-0.176,-0.052l0.087,-0.252l0.104,-0.232l-0.165,-0.047l-0.342,-0.153l0.207,-0.464l0.088,-0.226l0.103,-0.232l-0.165,-0.074l-0.187,-0.057l-0.046,-0.312l-0.166,-0.074l-0.078,-0.3l0.099,-0.221l0.16,0.058l0.087,-0.226l0.264,-0.174l0.202,-0.453l-0.342,-0.153l-0.165,-0.047l-0.068,-0.322l-0.067,-0.295l0.166,0.074l0.103,-0.232l0.232,-0.161l0.197,0.061l0.155,0.07l0.108,-0.243l0.238,-0.146l0.109,-0.243l0.263,-0.174l0.094,-0.21l-0.343,-0.153l-0.159,-0.058l0.103,-0.232l0.087,-0.253l0.098,-0.221l-0.154,-0.069l-0.083,-0.289l0.155,0.069l0.537,-0.342l0.155,0.069l0.103,-0.232l0.166,0.074l-0.067,-0.295l0.176,0.052l0.076,-0.231l0.177,0.079l-0.099,0.221l0.343,0.153l0.164,0.047l-0.108,0.243l0.154,0.069l0.198,0.062l0.077,-0.231l0.258,-0.163l-0.082,0.242l0.16,0.058l0.264,-0.147l-0.176,-0.079l0.108,-0.243l0.155,0.069l0.104,-0.232l-0.078,-0.3l0.176,0.079l0.087,-0.252l-0.165,-0.047l-0.068,-0.322l2.115,0.07l3.47,0.067l2.532,-0.062l1.029,-0.109l0.766,0.037l1.68,0.155l2.202,-0.182l1.09,0.169l0.104,-0.232l2.708,0.018l2.875,0.092l3.314,-0.003l1.773,-0.082l3.458,0.061l-0.076,0.231l-0.104,0.232l-0.166,-0.074l-0.099,0.22l-0.086,0.253l-0.104,0.232l0.171,0.063l-0.093,0.237l-0.099,0.221l0.166,0.074l-0.092,0.237l0.17,0.063l0.155,0.069l-0.155,-0.069l-0.103,0.232l-0.166,-0.074l-0.109,0.243l-0.076,0.231l-0.259,0.163l-0.154,-0.069l-0.198,-0.062l0.109,-0.243l-0.155,-0.069l-0.187,-0.057l-0.076,0.23l0.056,0.291l-0.248,0.167l-0.186,-0.057l-0.077,0.231l-0.177,-0.079l-0.086,0.253l-0.203,0.453l0.177,0.079l-0.099,0.221l0.155,0.069l-0.082,0.242l0.16,0.058l0.084,0.316l0.165,0.047l-0.109,0.243l-0.077,0.231l0.475,0.212l0.342,0.126l0.067,0.295l0.331,0.148l-0.099,0.221l0.166,0.074l-0.082,0.242l-0.264,0.147l-0.109,0.243l-0.081,0.242l-0.099,0.22l-0.056,1.075l0.089,0.305l0.061,0.279l0.176,0.079l0.067,0.295l0.155,0.069l0.078,0.3l0.497,0.222l2.75,0.845l0.849,0.353l0.16,0.058l0.051,0.301l0.352,0.131l0.32,0.143l0.337,0.137l0.507,0.201l0.485,0.19l0.429,-0.1l0.342,0.153l0.765,0.037l0.321,0.143l0.428,-0.099l0.337,0.137l0.165,0.074l0.331,0.121l1.323,0.538l0.507,0.2l0.667,0.285l0.429,-0.1l1.324,0.539l0.165,0.074l0.435,-0.084l0.331,0.121l0.583,-0.031l0.776,0.043l0.498,0.222l0.319,0.116l0.342,0.153l0.33,0.121" style="fill:#fefeeb;stroke:#4e4e4e;stroke-width:0.6px;stroke-linecap:square;stroke-linejoin:bevel;stroke-miterlimit:4;"/><path id="path2490" d="M660.516,653.002l0.234,-5.713l-2.418,-6.806l0.753,-0.883l1.211,-1.407l0.84,-0.989l0.557,-0.653l2.917,0.204l1.657,0.118l3.05,1.774l1.854,1.041l3.977,2.281l4.739,2.741l2.055,5.927l-0.04,1.215l-0.035,1.177l-0.147,5.845l-0.132,0.087l-3.905,2.363l-13.275,8.114l-0.966,0.589l-0.907,0.549l-0.042,0.034l-0.554,-0.897l-0.11,-0.168l-0.122,-0.201l-4.625,-7.474l-0.124,-0.254l0.093,-0.21l3.465,-8.404" style="fill:#fefeeb;stroke:#4e4e4e;stroke-width:0.6px;stroke-linecap:square;stroke-linejoin:bevel;stroke-miterlimit:4;"/><path id="path2482" d="M569.402,570.905l-0.233,-0.369l-0.672,-0.274l-0.827,-0.344l-1.108,-0.19l-1.593,-0.38l-3.86,1.402l-0.657,1.085l-0.077,0.23l-2.025,2.991l-1.199,1.969l-0.847,2.073l-0.502,1.154l-0.289,0.706l-1.467,4.023l-0.18,0.462l-0.474,1.18l-1.672,-0.707l-0.154,-0.07l-0.662,-0.269l-0.507,-0.2l-3.403,-1.667l-1.324,-0.565l-0.781,-1.396l-1.015,-1.792l0.099,-0.221l0.112,-0.785l-0.176,-0.052l0.026,-0.531l0.17,-3.198l2.014,-4.891l0.442,-5.793l0.274,-0.169l0.082,-0.241l0.026,-0.532l0.098,-0.221l0.186,-0.474l-0.051,-0.301l0.185,-0.474l0.202,-0.453l0.241,-0.184l0.094,-0.209l0.538,-0.343l0.357,-0.384l0.252,-0.179l0.094,-0.21l0.263,-0.174l0.192,-0.457l0.207,-0.464l0.081,-0.242l0.208,-0.464l0.081,-0.242l0.208,-0.464l0.253,-0.152l0.191,-0.458l0.367,-0.405l0.186,-0.474l0.093,-0.21l0.191,-0.485l0.098,-0.221l-0.078,-0.3l0.109,-0.243l-0.083,-0.289l-0.068,-0.322l-0.067,-0.295l-0.155,-0.069l0.077,-0.231l-0.155,-0.069l-0.083,-0.288l-0.32,-0.144l-0.347,-0.142l-0.216,-0.348l-0.342,-0.153l-0.078,-0.3l-0.166,-0.074l-0.056,-0.29l-0.725,-1.106l-0.222,-0.391l-0.244,-0.374l-0.056,-0.29l-0.249,-0.363l-0.078,-0.3l-0.221,-0.364l-0.068,-0.322l-0.574,-0.495l-0.073,-0.311l-0.233,-0.369l-0.33,-0.121l-0.399,-0.443l-0.476,-0.743l-0.801,-0.875l-0.353,-0.131l-0.232,-0.369l-0.212,-0.386l-0.507,-0.2l-0.352,-0.131l-0.233,-0.369l-0.486,-0.217l-0.838,-0.349l-0.222,-0.364l-0.585,-0.5l-0.564,-0.517l-0.341,-0.126l-0.057,-0.317l-0.187,-0.057l-0.221,-0.364l-0.073,-0.311l-0.233,-0.369l-0.15,-0.584l-0.441,-1.297l-0.201,-0.885l-0.14,-0.606l-0.151,-0.61l0.031,-0.543l-0.067,-0.295l-0.083,-0.289l-0.056,-0.29l-0.079,-0.327l-0.056,-0.29l-0.177,-0.079l-0.226,-0.353l-0.348,-0.142l-0.227,-0.38l-0.33,-0.121l-0.343,-0.153l-0.056,-0.29l-0.243,-0.374l-0.177,-0.079l-0.056,-0.29l0.18,-0.463l-0.056,-0.29l0.19,-0.485l0.186,-0.474l0.094,-0.21l0.537,-0.343l0.497,0.223l0.16,0.058l0.32,0.143l0.263,-0.174l0.343,0.153l0.086,-0.253l0.203,-0.453l-0.078,-0.3l0.103,-0.232l-0.243,-0.374l-0.155,-0.069l-0.352,-0.131l-0.211,-0.359l-0.342,-0.153l0.099,-0.221l-0.074,-0.311l0.099,-0.221l0.087,-0.253l0.098,-0.22l-0.154,-0.07l0.103,-0.232l-0.089,-0.304l0.109,-0.243l0.083,-0.215l0.108,-0.243l0.254,-0.152l0.103,-0.232l-0.176,-0.079l-0.067,-0.295l-0.259,0.163l-0.497,-0.222l-0.164,-0.047l-0.084,-0.316l0.099,-0.221l-0.155,-0.069l0.086,-0.253l-0.164,-0.047l-0.068,-0.322l-0.176,-0.052l-0.154,-0.069l0.103,-0.232l-0.078,-0.3l0.109,-0.243l0.076,-0.231l-0.165,-0.074l0.094,-0.21l-0.069,-0.322l0.177,0.079l0.252,-0.179l0.497,0.222l0.104,-0.231l-0.154,-0.07l0.076,-0.23l-0.475,-0.213l-0.197,-0.062l-0.31,-0.138l0.077,-0.231l0.263,-0.173l0.203,-0.453l0.086,-0.253l0.269,-0.158l0.099,-0.221l-0.166,-0.074l-0.077,-0.3l-0.321,-0.143l-0.108,0.243l-0.259,0.163l-0.098,0.221l-0.155,-0.07l-0.176,-0.051l-0.222,-0.392l0.248,-0.14l0.164,0.047l0.099,-0.221l-0.331,-0.148l-0.176,-0.052l-0.486,-0.218l-0.175,-0.051l-0.046,-0.313l-0.177,-0.079l-0.067,-0.295l-0.155,-0.069l-0.186,-0.057l-0.166,-0.074l-0.078,-0.3l-0.652,-0.291l-0.097,0.248l-0.155,-0.069l-0.104,0.232l-0.154,-0.069l0.081,-0.242l-0.175,-0.052l0.108,-0.243l-0.176,-0.079l-0.165,-0.047l0.109,-0.243l-0.166,-0.074l0.083,-0.215l-0.166,-0.074l0.109,-0.243l-0.187,-0.057l-0.154,-0.069l-0.067,-0.295l-0.332,-0.148l0.203,-0.453l0.086,-0.253l0.099,-0.221l-0.078,-0.3l0.104,-0.232l-0.166,-0.074l0.077,-0.23l-0.155,-0.07l0.108,-0.243l-0.164,-0.047l0.082,-0.241l-0.166,-0.074l-0.16,-0.059l-0.073,-0.31l-0.165,-0.075l-0.165,-0.047l-0.177,-0.079l0.109,-0.243l-0.176,-0.052l0.109,-0.243l0.093,-0.236l0.207,-0.464l0.077,-0.231l0.103,-0.232l0.155,0.069l0.099,-0.221l-0.497,-0.222l0.098,-0.221l-0.331,-0.148l0.202,-0.453l0.272,-2.595l0.444,-2.002l0.342,0.126l0.744,0.055l0.186,0.057l0.927,0.122l1.57,0.371l1.108,0.19l2.021,0.28l1.594,0.408l2.439,0.176l0.181,-0.463l0.233,-0.996l0.155,-1.296l0.314,-1.237l0.227,-1.516l0.925,0.096l1.438,0.311l1.68,0.155l2.518,0.502l2.942,0.387l1.428,0.334l4.363,0.704l0.177,0.079l1.57,0.371l1.35,0.033l0.353,0.131l3.768,0.73l2.943,0.414l0.341,0.126l3.692,0.458l2.787,0.318l0.475,0.212l2.627,0.26l-0.614,3.834l-0.434,1.979l1.113,0.179l0.32,0.143l1.846,0.229l3.273,0.535l2.848,0.624l0.766,0.037l-0.444,2.002l-0.015,0.537l-0.402,1.463l-0.144,1.301l-0.228,0.984l-0.211,1.006l-0.109,0.243l0.078,0.3l-0.413,1.459l-0.263,2.069l-0.309,1.227l-0.222,1l-0.125,0.753l-0.137,1.317l-0.31,1.226l-0.358,1.749l-0.225,1.542l-0.345,1.781l-0.249,1.506l-0.112,0.784l-0.233,0.996l-0.211,1.006l-0.139,1.289l-0.31,1.227l-0.16,1.307l-0.211,1.005l-0.233,0.996l-0.102,0.763l-0.114,0.758l-0.108,0.243l-0.27,0.158l-0.34,0.404l-0.165,-0.074l-0.203,0.453l0.068,0.322l0.176,0.052l0.073,0.311l0.056,0.29l0.244,0.374l0.321,0.674l0.051,0.301l0.176,0.052l-0.098,0.248l0.067,0.295l0.073,0.311l-0.098,0.221l0.078,0.3l-0.026,0.532l-0.109,0.243l0.089,0.304l-0.103,0.232l0.078,0.3l-0.208,0.464l-0.18,0.463l-0.274,0.169l-0.082,0.242l-0.253,0.152l-0.378,0.4l-0.254,0.152l-0.274,0.169l-0.345,0.416l-0.264,0.147l-0.203,0.453l-0.086,0.253l-0.104,0.232l0.078,0.299l0.067,0.295l0.083,0.289l0.234,0.396l0.134,0.59l0.083,0.289l0.057,0.317l0.078,0.3l-0.104,0.232l-0.185,0.474l-0.203,0.453l-0.351,0.4l-0.258,0.162l-0.528,0.321l-0.258,0.163l-0.356,0.411l-0.527,0.321l-0.601,0.009l-0.263,0.174l-0.253,0.179l-1.153,0.89l-1.307,0.82l-0.62,0.558l-0.61,0.562l-0.098,0.221l-0.27,0.158l-0.185,0.474l-0.203,0.453l-0.19,0.485l-0.185,0.473l-0.124,0.753l-0.388,0.927l-0.093,0.237l0.067,0.295l-0.086,0.253l-0.203,0.452l-0.087,0.226l-0.259,0.163l-0.108,0.243l-1.226,-0.786" style="fill:#fefeeb;stroke:#4e4e4e;stroke-width:0.6px;stroke-linecap:square;stroke-linejoin:bevel;stroke-miterlimit:4;"/><path id="path2484" d="M535.85,618.606l-1.739,-4.381l-0.217,-0.522l-2.562,-6.485l-3.593,-27.276l0.282,-2.617l0.218,-1.97l0.124,-1.257l0.364,-3.363l0.277,-2.606l1.654,-1.447l2.932,-2.559l1.064,-0.956l3.562,25.327l0.01,0.097l2.007,14.19l0.017,0.259l0.042,0.35l0.948,12.231l0.036,0.335l0.086,0.992l-0.214,0.064l-1.24,0.373l-0.364,0.103l-0.112,0.042l-0.625,0.185l-2.893,0.867l-0.064,0.024" style="fill:#fefeeb;stroke:#4e4e4e;stroke-width:0.6px;stroke-linecap:square;stroke-linejoin:bevel;stroke-miterlimit:4;"/><g id="Layer1"></g><g id="Layer2"></g><g id="Layer3"></g><g id="Layer4"><path d="M170.741,338.503l-7.234,7.233l0,29.264l26.296,26.296l0,9.704l49.084,0l0,20.129" style="fill:none;stroke:#000;stroke-opacity:0.57;stroke-width:0.75px;stroke-linecap:butt;"/></g><g id="Layer5"><path d="M370.312,402.166l0,-17.35l23.782,-23.782l-0,-17.664l10.226,-10.226l-0,-28.644l-69.07,0l-63.811,-63.811l0,-38.479" style="fill:none;stroke:#000;stroke-opacity:0.57;stroke-width:0.75px;stroke-linecap:butt;"/></g></svg>