<?xml version="1.0" encoding="UTF-8" standalone="no"?><!DOCTYPE svg PUBLIC "-//W3C//DTD SVG 1.1//EN" "http://www.w3.org/Graphics/SVG/1.1/DTD/svg11.dtd"><svg width="100%" height="100%" viewBox="0 0 134 129" version="1.1" xmlns="http://www.w3.org/2000/svg" xmlns:xlink="http://www.w3.org/1999/xlink" xml:space="preserve" xmlns:serif="http://www.serif.com/" style="fill-rule:evenodd;clip-rule:evenodd;stroke-linejoin:round;stroke-miterlimit:2;"><g id="g7543"><g id="g7545"><path id="path7553" d="M105.796,53.29c0.495,4.119 0.725,7.825 0.352,11.998c-1.415,15.766 -8.751,32.993 -20.663,45.758c-1.198,1.28 -2.411,2.486 -3.644,3.618c-0.094,0.061 -0.191,0.121 -0.285,0.181c14.402,-2.392 29.883,-12.919 40.567,-29.165c16.497,-25.088 15.481,-54.525 -2.235,-65.561c-4.586,-2.858 -9.864,-4.201 -15.44,-4.194c-0,0 -0,0.034 0.033,0.067c2.919,5.217 3.658,12.053 2.351,19.275c-3.719,20.67 -26.184,38.916 -46.421,41.815c16.57,-0.508 35.52,-9.872 45.397,-23.8l-0.012,0.008Zm-97.578,12.602c-5.846,7.343 -8.881,15.975 -8.096,24.89c2.087,23.475 29.958,40.291 62.051,37.438c14.633,-1.301 37.072,-14.341 29.268,-11.971c-11.917,3.618 -25.081,3.754 -36.862,0.195c23.989,-2.914 45.147,-26.706 46.638,-51.015c-5.48,5.807 -12.236,10.847 -19.931,14.525c-25.006,11.945 -50.677,5.122 -57.134,-15.215c-2.182,-6.87 -1.904,-14.411 0.387,-21.857c-1.261,42.73 59.416,30.454 72.186,0.508c3.644,-8.564 3.565,-17.255 -1.361,-23.095c-5.373,-6.361 -16.537,-8.557 -27.75,-6.937c-17.385,2.513 -35.366,15.812 -30.86,33.25c1.362,5.258 4.966,9.187 11.572,7.317c11.036,-3.131 27.316,-18.083 26.631,-24.342c-0.392,-3.583 -3.564,-4.397 -6.835,-4.234c-5.793,0.286 -12.744,3.374 -16.565,7.689c-1.457,1.634 -1.599,3.361 -1.417,4.96c0.104,0.921 0.65,1.896 1.079,2.844c2.222,4.886 -6.038,8.171 -6.932,1.546c-1.483,-11.064 12.928,-20.258 22.087,-22.106c3.082,-0.625 6.01,-0.725 8.658,-0.387c20.041,3.149 14.593,24.871 -5.203,36.937c-17.948,10.005 -42.113,7.912 -40.921,-16.694c0.766,-15.88 15.623,-27.668 28.922,-34.023c7.033,-3.361 14.113,-5.245 20.806,-5.753c-1.497,-0.174 -3.028,-0.292 -4.586,-0.338c-28.116,-0.839 -55.399,20.528 -60.738,47.588c-5.338,27.051 13.26,49.789 41.376,50.642c7.201,0.218 14.341,-1.03 21.083,-3.455c-25.86,14.458 -65.44,6.341 -67.553,-28.909" style="fill:#f7302b;"/></g></g></svg>