<?xml version="1.0" encoding="UTF-8" standalone="no"?>
<svg
   width="17956"
   height="16641"
   viewBox="0 0 17956 16641"
   version="1.1"
   xml:space="preserve"
   style="clip-rule:evenodd;fill-rule:evenodd;stroke-linejoin:round;stroke-miterlimit:2"
   id="svg1"
   xmlns="http://www.w3.org/2000/svg"
   xmlns:svg="http://www.w3.org/2000/svg"><defs
   id="defs1" />
    <g
   id="g7543">
        <g
   id="g7545">
            <path
   id="path7553"
   d="m 105.796,53.29 c 0.495,4.119 0.725,7.825 0.352,11.998 -1.415,15.766 -8.751,32.993 -20.663,45.758 -1.198,1.28 -2.411,2.486 -3.644,3.618 -0.094,0.061 -0.191,0.121 -0.285,0.181 14.402,-2.392 29.883,-12.919 40.567,-29.165 16.497,-25.088 15.481,-54.525 -2.235,-65.561 -4.586,-2.858 -9.864,-4.201 -15.44,-4.194 0,0 0,0.034 0.033,0.067 2.919,5.217 3.658,12.053 2.351,19.275 -3.719,20.67 -26.184,38.916 -46.421,41.815 16.57,-0.508 35.52,-9.872 45.397,-23.8 z M 8.218,65.892 c -5.846,7.343 -8.881,15.975 -8.096,24.89 2.087,23.475 29.958,40.291 62.051,37.438 14.633,-1.301 37.072,-14.341 29.268,-11.971 -11.917,3.618 -25.081,3.754 -36.862,0.195 C 78.568,113.53 99.726,89.738 101.217,65.429 95.737,71.236 88.981,76.276 81.286,79.954 56.28,91.899 30.609,85.076 24.152,64.739 21.97,57.869 22.248,50.328 24.539,42.882 23.278,85.612 83.955,73.336 96.725,43.39 100.369,34.826 100.29,26.135 95.364,20.295 89.991,13.934 78.827,11.738 67.614,13.358 50.229,15.871 32.248,29.17 36.754,46.608 38.116,51.866 41.72,55.795 48.326,53.925 59.362,50.794 75.642,35.842 74.957,29.583 74.565,26 71.393,25.186 68.122,25.349 c -5.793,0.286 -12.744,3.374 -16.565,7.689 -1.457,1.634 -1.599,3.361 -1.417,4.96 0.104,0.921 0.65,1.896 1.079,2.844 2.222,4.886 -6.038,8.171 -6.932,1.546 -1.483,-11.064 12.928,-20.258 22.087,-22.106 3.082,-0.625 6.01,-0.725 8.658,-0.387 20.041,3.149 14.593,24.871 -5.203,36.937 C 51.881,66.837 27.716,64.744 28.908,40.138 29.674,24.258 44.531,12.47 57.83,6.115 64.863,2.754 71.943,0.87 78.636,0.362 77.139,0.188 75.608,0.07 74.05,0.024 45.934,-0.815 18.651,20.552 13.312,47.612 7.974,74.663 26.572,97.401 54.688,98.254 61.889,98.472 69.029,97.224 75.771,94.799 49.911,109.257 10.331,101.14 8.218,65.89"
   style="fill:#c82518;fill-opacity:1" />
        </g>
    </g>
</svg>
