<?xml version="1.0" encoding="UTF-8" standalone="no"?>
<svg
   version="1.1"
   id="svg2"
   width="964.68738"
   height="964.60046"
   viewBox="0 0 964.68736 964.60046"
   xml:space="preserve"
   xmlns="http://www.w3.org/2000/svg"
   xmlns:svg="http://www.w3.org/2000/svg"
   xmlns:rdf="http://www.w3.org/1999/02/22-rdf-syntax-ns#"
   xmlns:cc="http://creativecommons.org/ns#"
   xmlns:dc="http://purl.org/dc/elements/1.1/"><metadata
     id="metadata8"><rdf:RDF><cc:Work
         rdf:about=""><dc:format>image/svg+xml</dc:format><dc:type
           rdf:resource="http://purl.org/dc/dcmitype/StillImage" /><dc:title /></cc:Work></rdf:RDF></metadata><defs
     id="defs6" /><g
     id="g10"
     transform="translate(-710.81897,-775.93213)"><path
       id="path837"
       style="fill:#48d1cc;fill-opacity:1"
       d="m 1162.64,1739.5112 c -16.2274,-0.9713 -24.5,-1.9997 -24.5,-3.0458 0,-0.4789 21.885,-50.7223 48.6333,-111.6518 26.7483,-60.9296 51.8732,-118.206 55.8331,-127.281 45.2157,-103.6225 47.7682,-109.1394 53.2201,-115.0281 3.551,-3.8355 7.282,-6.6081 11.5315,-8.5692 6.019,-2.7779 6.9926,-2.9135 23.2556,-3.2389 19.5195,-0.3905 26.4215,0.879 33.9745,6.249 9.9031,7.0408 2.2781,-9.2664 102.1193,218.3988 10.6879,24.3713 19.4326,44.7049 19.4326,45.1857 0,0.96 -19.8012,15.6576 -21.7968,16.1788 -0.7886,0.206 -21.6254,-46.0908 -57.2225,-127.1412 -30.7903,-70.1058 -56.595,-128.0778 -57.3439,-128.8267 -0.7489,-0.7489 -3.1597,-1.6028 -5.3574,-1.8975 -3.4204,-0.4588 -4.4318,-0.1239 -7.025,2.3267 -2.3497,2.2204 -15.3123,30.9051 -57.781,127.8626 -30.1135,68.75 -59.1094,134.9 -64.4354,147 -5.326,12.1 -13.8809,31.5625 -19.0109,43.25 l -9.3272,21.25 -6.1,-0.1516 c -3.3549,-0.083 -11.4999,-0.4748 -18.0999,-0.8698 z m -161.5,-38.8445 c -43.41642,-18.9941 -81.13197,-42.3099 -118.49998,-73.2567 -13.95682,-11.5586 -48.24931,-46.0084 -60.10171,-60.3774 -64.67265,-78.4047 -100.7766,-166.2717 -110.53028,-269 -1.5963,-16.8126 -1.58244,-63.18 0.0241,-80.5 10.84717,-116.9456 59.0238,-220.28384 140.56024,-301.49996 78.32546,-78.01775 174.90593,-124.27065 288.54763,-138.18698 20.8161,-2.5491 83.2416,-2.55199 103.7756,-0.005 35.1616,4.36172 66.3709,10.99582 95.276,20.25267 144.9387,46.41651 260.5618,159.85077 309.547,303.68697 15.4016,45.224 23.243,87.3875 25.3231,136.1633 5.3862,126.2971 -38.2901,247.3088 -123.9639,343.4608 -6.9524,7.8027 -9.4423,10.0136 -10.0515,8.925 -0.4454,-0.7959 -5.041,-11.0883 -10.2124,-22.872 -5.1715,-11.7838 -26.395,-60.125 -47.1635,-107.425 -20.7685,-47.3 -56.4023,-128.525 -79.1862,-180.5 -51.9664,-118.5465 -49.5094,-113.416 -58.6225,-122.4083 -8.4173,-8.3056 -14.5979,-11.8746 -25.3071,-14.6135 -26.1358,-6.6844 -53.3031,5.2082 -65.1548,28.5218 -1.1184,2.2 -36.7898,83.2 -79.2699,180 -42.4801,96.8 -84.848,193.325 -94.1509,214.5 -9.3029,21.175 -27.1284,61.7875 -39.6123,90.25 -15.7831,35.9848 -23.1592,51.7371 -24.2123,51.7076 -0.8329,-0.023 -8.4894,-3.094 -17.0144,-6.8235 z" /></g></svg>
