<?xml version="1.0" encoding="UTF-8" standalone="no"?>
<!DOCTYPE svg PUBLIC "-//W3C//DTD SVG 1.1//EN" "http://www.w3.org/Graphics/SVG/1.1/DTD/svg11.dtd">
<svg width="100%" height="100%" viewBox="0 0 400 282" version="1.1" xmlns="http://www.w3.org/2000/svg" xmlns:xlink="http://www.w3.org/1999/xlink" xml:space="preserve" xmlns:serif="http://www.serif.com/" style="fill-rule:evenodd;clip-rule:evenodd;stroke-linejoin:round;stroke-miterlimit:2;">
    <g id="Democratic-Alliance--Greece----Logo" serif:id="Democratic Alliance (Greece) - Logo" transform="matrix(1.25,0,0,-1.25,-68.9235,617.094)">
        <g id="g2999" transform="matrix(0.678215,0,0,0.678215,-6.15426,126.067)">
            <g id="g3001">
                <g id="g3079" transform="matrix(1,0,0,1,485.344,420.191)">
                    <path id="path3081" d="M0,0L-296.496,-79.141L-274.641,32.836L21.855,111.977L0,0Z" style="fill:rgb(233,123,174);"/>
                </g>
                <g id="g3083" transform="matrix(1,0,0,1,443.634,304.322)">
                    <path id="path3085" d="M0,0L-296.495,-79.143L-274.64,31.834L21.856,110.973L0,0Z" style="fill:rgb(82,181,125);"/>
                </g>
            </g>
        </g>
        <g id="g3087" transform="matrix(0.678215,0,0,0.678215,-6.15426,126.067)">
            <g id="g3089">
                <clipPath id="_clip1">
                    <path d="M210.592,453.028L188.742,341.077L168.883,335.776L147.028,224.8L443.523,303.943L465.375,414.891L485.233,420.191L507.089,532.168L210.592,453.028Z"/>
                </clipPath>
                <g clip-path="url(#_clip1)">
                    <g id="g3095" transform="matrix(1,0,0,1,363.793,368.595)">
                        <path id="path3097" d="M0,0C0,0 10.697,27.224 -15.196,42.54C-15.196,42.54 -23.992,14.08 0,0" style="fill:white;"/>
                    </g>
                    <g id="g3099" transform="matrix(1,0,0,1,348.96,410.227)">
                        <path id="path3101" d="M0,0C-0.518,-2.029 -1.813,-8.021 -1.171,-15.068C-0.141,-26.381 5.136,-35.019 14.516,-40.754C15.146,-38.852 16.809,-33.061 16.352,-26.1C15.622,-14.994 10.122,-6.218 0,0M14.832,-42.223C14.728,-42.223 14.625,-42.194 14.534,-42.141C1.924,-34.741 -1.609,-23.37 -2.351,-15.137C-3.152,-6.246 -1.019,0.788 -0.928,1.082C-0.874,1.255 -0.745,1.394 -0.577,1.459C-0.408,1.523 -0.219,1.509 -0.063,1.416C13.535,-6.627 17.011,-17.97 17.533,-26.067C18.098,-34.818 15.493,-41.565 15.382,-41.848C15.319,-42.008 15.188,-42.133 15.025,-42.189C14.963,-42.212 14.896,-42.223 14.832,-42.223" style="fill:white;fill-rule:nonzero;"/>
                    </g>
                    <g id="g3103" transform="matrix(1,0,0,1,308.145,422.069)">
                        <path id="path3105" d="M0,0C0,0 -17.048,-23.768 4.297,-44.967C4.297,-44.967 19.807,-19.535 0,0" style="fill:white;"/>
                    </g>
                    <g id="g3107" transform="matrix(1,0,0,1,308.237,421.142)">
                        <path id="path3109" d="M0,0C-1.078,-1.691 -4.111,-6.896 -5.376,-13.758C-7.393,-24.7 -4.214,-34.56 4.075,-43.069C5.074,-41.23 7.8,-35.739 8.908,-28.749C10.683,-17.53 7.686,-7.861 0,0M4.205,-44.629C4.05,-44.629 3.9,-44.569 3.789,-44.46C-7.42,-33.326 -8.009,-21.478 -6.529,-13.498C-4.929,-4.877 -0.749,1.024 -0.571,1.272C-0.471,1.413 -0.314,1.502 -0.142,1.517C0.029,1.528 0.201,1.469 0.323,1.349C10.733,-8.919 11.367,-20.809 10.066,-28.975C8.664,-37.788 4.87,-44.083 4.709,-44.347C4.615,-44.502 4.455,-44.604 4.275,-44.626C4.252,-44.629 4.228,-44.629 4.205,-44.629" style="fill:white;fill-rule:nonzero;"/>
                    </g>
                    <g id="g3111" transform="matrix(1,0,0,1,367.932,375.022)">
                        <path id="path3113" d="M0,0C0.241,0.516 0.954,1.674 2.984,3.323C5.791,5.604 8.187,8.644 10.175,13.963C12.162,19.282 13.342,24.834 17.776,26.718C15.841,24.529 15.146,23.467 13.744,19.315C11.393,12.654 11.192,9.02 6.757,3.435C2.914,-1.407 0.989,-2.709 -0.463,-4.854C-0.86,-8.312 -1.417,-11.737 -2.236,-14.981C-4.014,-22.026 -5.604,-25.752 -8.583,-29.609C-6.507,-28.869 -1.682,-27.771 3.856,-24.344C7.943,-21.814 12.767,-18.666 16.898,-14.671C16.553,-12.212 16.402,-5.081 17.391,-1.126C17.219,-6.591 17.112,-7.733 18.784,-12.73C20.923,-10.378 22.783,-7.759 24.123,-4.831C28.277,4.24 28.786,6.273 28.786,6.273C28.786,6.273 25.734,-6.948 18.021,-16.02C13.498,-21.337 7.371,-26.246 0.225,-30.186C4.468,-30.723 19.829,-32.144 27.021,-25.588C24.249,-29.131 17.946,-33.908 -4.928,-32.771C-8.12,-34.224 -11.47,-35.482 -14.933,-36.503C-15.329,-36.854 -15.73,-37.202 -16.14,-37.551C-22.393,-42.865 -31.574,-46.07 -35.907,-46.477C-35.535,-62.728 -35.742,-69.524 -34.506,-84.032C-31.066,-110.008 -18.648,-105.693 4.49,-108.066C8.275,-108.455 9.441,-109.717 9.441,-109.717C-21.863,-109.717 -53.167,-114.717 -84.471,-114.717C-84.471,-114.717 -83.306,-113.455 -79.519,-113.066C-58.554,-107.748 -41.78,-101.471 -40.397,-75.188C-39.909,-59.905 -40.292,-62.371 -40.46,-46.312C-42.244,-46.168 -45.018,-45.811 -48.295,-44.925C-49.916,-44.488 -51.58,-43.883 -53.191,-43.21C-54.941,-43.806 -58.587,-44.923 -62.396,-45.313C-67.691,-45.859 -72.833,-45.159 -77.584,-43.445C-82.336,-41.73 -82.959,-41.186 -86.776,-41.342C-89.266,-41.631 -90.645,-43.445 -92.15,-45.159C-89.269,-39.862 -85.219,-40.096 -82.024,-40.329C-78.831,-40.563 -68.704,-42.899 -64.964,-42.821C-62.225,-42.765 -59.526,-41.493 -58.28,-40.818C-60.254,-39.804 -61.902,-38.868 -62.94,-38.304C-65.511,-36.901 -68.003,-35.265 -75.793,-31.76C-83.582,-28.254 -96.045,-25.996 -96.045,-25.996C-82.845,-26.63 -63.652,-33.67 -58.655,-36.512C-54.372,-38.537 -49.542,-40.718 -45.647,-41.186C-43.712,-41.419 -41.874,-41.362 -40.514,-41.247C-40.558,-37.108 -40.602,-32.979 -40.644,-28.874C-42.154,-28.798 -44.854,-28.461 -48.115,-27.17C-52.135,-25.581 -58.048,-22.655 -62.585,-19.896C-65.176,-20.753 -71.854,-22.504 -77.976,-20.284C-85.777,-17.459 -89.847,-13.727 -97.196,-7.735C-104.544,-1.744 -105.617,4.226 -107.14,3.635C-106.721,4.099 -106.757,0.586 -105.11,-0.065C-100.857,-1.965 -94.977,-6.488 -91.54,-8.75C-88.101,-11.012 -80.231,-16.893 -74.984,-17.344C-71.243,-17.668 -68.652,-16.979 -67.473,-16.556C-75.958,-10.047 -83.179,-1.005 -86.882,9.004C-92.021,22.894 -90.193,32.59 -105.861,39.17C-104.553,38.906 -103.778,39.081 -100.891,37.86C-92.86,33.957 -90.283,27.729 -86.41,17.075C-85.142,13.587 -83.693,9.996 -82.003,6.479C-81.886,8.416 -81.454,12.43 -79.897,18.268C-77.637,26.748 -75.263,31.835 -81.367,45.855C-87.473,59.874 -77.976,41.671 -76.845,37.488C-75.714,33.305 -74.358,25.956 -75.714,18.607C-77.071,11.259 -78.315,5.719 -77.637,1.874C-77.267,-0.221 -76.897,-1.88 -76.638,-2.955C-72.5,-9.041 -67.297,-14.275 -60.604,-17.449C-56.01,-19.631 -51.591,-20.984 -46.76,-22.28C-43.604,-23.127 -41.805,-23.521 -40.691,-24.071C-40.749,-18.063 -40.8,-12.119 -40.838,-6.286C-42.79,-5.903 -47.762,-4.672 -51.137,-1.575C-51.839,-1.268 -52.692,-1.013 -53.646,-0.964C-55.548,-0.777 -57.937,0.645 -59.976,1.85C-61.817,3.257 -62.179,5.847 -61.761,4.825C-61.761,4.825 -61.543,5.523 -57.149,3.041C-55.412,2.057 -53.773,0.178 -52.586,0.019C-53.106,0.716 -53.544,1.485 -53.869,2.333C-56.648,9.594 -51.922,14.468 -53.222,21.185C-51.099,20.853 -52.825,11.521 -52.977,10.316C-53.498,3.432 -51.067,0.286 -40.857,-3.031C-40.907,6.306 -40.917,15.334 -40.854,23.854C-40.854,23.854 -40.463,32.038 -42.94,35.258C-47.61,38.867 -50.935,42.966 -53.578,47.275C-64.645,45.498 -71.841,54.628 -76.99,58.877C-81.831,62.428 -82.932,62.474 -86.823,63.286C-78.008,63.115 -69.531,55.063 -65.038,52.605C-61.832,50.85 -57.762,50.866 -55.694,51.019C-61.298,61.719 -63.989,73.167 -73.251,81.282C-76.516,83.707 -78.452,84.091 -81.258,84.255C-84.065,84.42 -78.287,84.751 -75.48,83.758C-60.61,78.51 -57.298,52.319 -45.334,41.615C-43.767,40.211 -42.94,40.211 -41.784,41.533C-40.629,42.852 -41.208,48.303 -41.702,51.934C-43.122,62.347 -54.131,90.202 -47.923,103.021C-45.477,108.073 -42.145,109.377 -42.145,109.377C-42.145,109.377 -45.655,106.946 -47.097,102.442C-50.334,92.335 -45.402,74.428 -42.419,64.556C-41.684,66.463 -39.881,70.437 -36.685,73.459C-32.325,77.582 -29.775,78.494 -26.117,82.56C-22.457,86.624 -18.323,93.672 -18.323,93.672C-18.323,93.672 -20.221,86.895 -25.846,80.661C-31.471,74.428 -33.367,74.088 -36.349,69.752C-39.007,65.886 -40.426,62.29 -40.943,59.778C-39.24,54.404 -37.931,50.703 -38.152,46.402C-38.4,41.615 -39.391,39.303 -39.061,36.828C-38.73,34.35 -37.575,31.378 -36.914,30.883C-36.253,30.389 -35.181,31.462 -34.107,32.946C-33.386,33.946 -30.761,36.998 -27.715,39.944C-26.937,41.895 -24.97,46.46 -22.248,50.217C-21.867,52.134 -21.125,57.166 -22.898,60.842C-21.861,59.63 -20.886,57.458 -20.204,52.695C-15.548,57.588 -10.167,60.487 -6.059,63.788C-1.925,67.109 1.599,69.887 2.413,73.614C2.058,70.768 1.625,69.425 -1.451,66.497C-6.329,62.161 -9.739,60.283 -13.886,56.773C-17.862,53.408 -20.227,51.216 -23.016,44.01C-18.456,47.418 -15.426,48.972 -12.396,50.2C-9.342,51.438 -8.764,51.356 -8.764,51.356C-8.764,51.356 -15.203,49.457 -22.881,41.944C-24.22,40.635 -25.457,39.361 -26.59,38.143C-25.104,38.728 -21.903,39.828 -17.997,40.193C-12.575,40.702 -7.718,40.814 -2.354,43.074C3.011,45.332 5.101,46.744 8.263,48.946C11.426,51.148 13.006,53.183 15.491,53.747C12.677,52.24 11.173,49.623 7.924,47.31C3.237,43.921 -2.959,40.104 -11.493,38.908C-19.219,37.825 -25.114,37.003 -30.422,33.781C-33.42,30.152 -35.179,27.437 -35.677,26.344C-37.387,21.379 -36.988,7.661 -36.709,-9.687C-36.535,-18.279 -36.294,-29.406 -36.023,-41.391C-34.128,-41.207 -19.32,-39.478 -12.219,-29.603C-8.306,-24.16 -6.182,-19.929 -4.815,-14.915C-5.849,-12.456 -7.701,-7.273 -8.565,-0.071C-9.569,7.053 -10.846,11.638 -16.574,16.581C-8.101,11.644 -7.827,4.095 -5.729,-2.024C-5.021,-4.088 -3.948,-4.328 -3.078,-5.589C-2.668,-2.696 -2.514,-0.884 -2.116,2.961C-1.188,11.091 -1.963,21.63 4.606,31.485C3.251,28.183 1.72,24.851 1.216,20.303C0.648,14.695 0.583,7.435 0,0" style="fill:white;"/>
                    </g>
                    <g id="g3115" transform="matrix(1,0,0,1,352.404,484.001)">
                        <path id="path3117" d="M0,0C0,0 -14.586,-25.354 8.77,-44.312C8.77,-44.312 21.66,-17.458 0,0" style="fill:white;"/>
                    </g>
                    <g id="g3119" transform="matrix(1,0,0,1,352.589,483.086)">
                        <path id="path3121" d="M0,0C-0.904,-1.789 -3.401,-7.271 -3.973,-14.223C-4.886,-25.315 -0.738,-34.807 8.36,-42.444C9.169,-40.515 11.333,-34.779 11.736,-27.714C12.381,-16.373 8.433,-7.052 0,0M8.585,-43.987C8.451,-43.987 8.319,-43.941 8.213,-43.854C-4.053,-33.899 -5.822,-22.17 -5.146,-14.082C-4.417,-5.343 -0.848,0.946 -0.696,1.211C-0.61,1.36 -0.462,1.465 -0.293,1.496C-0.123,1.528 0.052,1.483 0.187,1.375C11.57,-7.801 13.39,-19.568 12.913,-27.821C12.397,-36.73 9.251,-43.375 9.117,-43.653C9.039,-43.816 8.891,-43.935 8.714,-43.973C8.671,-43.983 8.629,-43.987 8.585,-43.987" style="fill:white;fill-rule:nonzero;"/>
                    </g>
                    <g id="g3123" transform="matrix(1,0,0,1,408.911,404.49)">
                        <path id="path3125" d="M0,0C0,0 -21.598,19.726 -45.16,1.024C-45.16,1.024 -21.729,-17.37 0,0" style="fill:white;"/>
                    </g>
                    <g id="g3127" transform="matrix(1,0,0,1,364.729,405.528)">
                        <path id="path3129" d="M0,0C2.463,-1.736 12.029,-7.91 23.577,-7.91C30.69,-7.91 37.305,-5.594 43.248,-1.021C41.02,0.797 32.074,7.45 20.493,7.45C13.343,7.45 6.452,4.943 0,0M23.578,-9.093L23.577,-9.093C9.788,-9.093 -1.233,-0.566 -1.343,-0.479C-1.486,-0.367 -1.568,-0.196 -1.57,-0.018C-1.57,0.164 -1.488,0.336 -1.346,0.448C5.495,5.877 12.842,8.629 20.493,8.629C34.31,8.629 44.479,-0.51 44.58,-0.602C44.707,-0.719 44.777,-0.885 44.772,-1.058C44.766,-1.23 44.686,-1.391 44.551,-1.499C38.248,-6.538 31.191,-9.093 23.578,-9.093" style="fill:white;fill-rule:nonzero;"/>
                    </g>
                    <g id="g3131" transform="matrix(1,0,0,1,293.305,479.279)">
                        <path id="path3133" d="M0,0C0,0 0.029,-29.251 29.733,-34.006C29.733,-34.006 27.484,-4.303 0,0" style="fill:white;"/>
                    </g>
                    <g id="g3135" transform="matrix(1,0,0,1,293.921,478.578)">
                        <path id="path3137" d="M0,0C0.111,-2 0.686,-7.998 3.664,-14.307C8.415,-24.37 16.75,-30.521 28.446,-32.593C28.184,-30.517 27.193,-24.466 24.012,-18.145C18.906,-7.999 10.83,-1.896 0,0M29.117,-33.895C29.086,-33.895 29.056,-33.893 29.025,-33.888C13.425,-31.391 6.033,-22.113 2.577,-14.769C-1.158,-6.835 -1.207,0.396 -1.208,0.7C-1.208,0.873 -1.132,1.038 -1,1.149C-0.87,1.263 -0.696,1.313 -0.525,1.284C13.92,-0.978 21.375,-10.262 25.085,-17.65C29.089,-25.626 29.683,-32.953 29.706,-33.261C29.72,-33.441 29.65,-33.616 29.518,-33.74C29.408,-33.841 29.264,-33.895 29.117,-33.895" style="fill:white;fill-rule:nonzero;"/>
                    </g>
                    <g id="g3139" transform="matrix(1,0,0,1,248.794,390.502)">
                        <path id="path3141" d="M0,0C0,0 11.983,-26.686 41.036,-18.883C41.036,-18.883 26.843,7.306 0,0" style="fill:white;"/>
                    </g>
                    <g id="g3143" transform="matrix(1,0,0,1,249.644,390.114)">
                        <path id="path3145" d="M0,0C0.774,-1.503 3.012,-5.467 6.865,-9.384C11.329,-13.922 18.948,-19.334 29.894,-19.334L29.896,-19.334C32.908,-19.334 36.062,-18.927 39.283,-18.119C38.36,-16.604 35.789,-12.686 31.686,-8.814C26.899,-4.299 18.981,1.083 8.437,1.083C5.687,1.083 2.852,0.72 0,0M29.896,-20.516L29.894,-20.516C18.521,-20.515 10.619,-14.894 5.993,-10.182C0.993,-5.086 -1.294,-0.065 -1.388,0.146C-1.459,0.303 -1.457,0.484 -1.383,0.64C-1.31,0.795 -1.171,0.912 -1.004,0.959C2.183,1.824 5.359,2.266 8.437,2.266C19.385,2.266 27.578,-3.307 32.523,-7.981C37.866,-13.031 40.592,-18.005 40.706,-18.214C40.792,-18.373 40.801,-18.563 40.729,-18.729C40.658,-18.895 40.514,-19.02 40.34,-19.065C36.759,-20.027 33.245,-20.516 29.896,-20.516" style="fill:white;fill-rule:nonzero;"/>
                    </g>
                    <g id="g3147" transform="matrix(1,0,0,1,268.343,428.256)">
                        <path id="path3149" d="M0,0C0,0 -12.107,-26.627 12.948,-43.277C12.948,-43.277 23.223,-15.316 0,0" style="fill:white;"/>
                    </g>
                    <g id="g3151" transform="matrix(1,0,0,1,268.613,427.361)">
                        <path id="path3153" d="M0,0C-0.729,-1.866 -2.693,-7.56 -2.601,-14.537C-2.454,-25.664 2.579,-34.718 12.362,-41.456C12.985,-39.458 14.593,-33.541 14.321,-26.47C13.884,-15.12 9.066,-6.217 0,0M12.678,-42.973C12.563,-42.973 12.448,-42.938 12.351,-42.874C-0.807,-34.131 -3.685,-22.621 -3.782,-14.507C-3.888,-5.74 -0.934,0.862 -0.807,1.138C-0.736,1.298 -0.599,1.415 -0.434,1.462C-0.268,1.511 -0.09,1.482 0.055,1.388C12.261,-6.664 15.192,-18.203 15.502,-26.466C15.837,-35.383 13.339,-42.296 13.233,-42.586C13.169,-42.755 13.033,-42.888 12.861,-42.944C12.801,-42.963 12.74,-42.973 12.678,-42.973" style="fill:white;fill-rule:nonzero;"/>
                    </g>
                    <g id="g3155" transform="matrix(1,0,0,1,405.086,387.735)">
                        <path id="path3157" d="M0,0C0,0 -28.641,-5.941 -27.293,-35.994C-27.293,-35.994 1.342,-27.786 0,0" style="fill:white;"/>
                    </g>
                    <g id="g3159" transform="matrix(1,0,0,1,404.525,386.99)">
                        <path id="path3161" d="M0,0C-1.938,-0.513 -7.696,-2.288 -13.272,-6.48C-22.168,-13.167 -26.505,-22.574 -26.171,-34.447C-24.19,-33.771 -18.466,-31.578 -12.917,-27.186C-4.012,-20.132 0.331,-10.988 0,0M-26.732,-35.84C-26.854,-35.84 -26.975,-35.802 -27.077,-35.729C-27.224,-35.624 -27.313,-35.456 -27.322,-35.276C-28.03,-19.495 -20.439,-10.378 -13.946,-5.508C-6.929,-0.249 0.144,1.262 0.44,1.323C0.609,1.359 0.786,1.318 0.922,1.213C1.059,1.106 1.142,0.946 1.151,0.774C1.856,-13.831 -5.729,-23.008 -12.216,-28.135C-19.219,-33.67 -26.273,-35.731 -26.57,-35.816C-26.624,-35.832 -26.677,-35.84 -26.732,-35.84" style="fill:white;fill-rule:nonzero;"/>
                    </g>
                    <g id="g3163" transform="matrix(1,0,0,1,303.525,427.685)">
                        <path id="path3165" d="M0,0C0,0 1.48,29.212 -27.939,35.495C-27.939,35.495 -27.226,5.715 0,0" style="fill:white;"/>
                    </g>
                    <g id="g3167" transform="matrix(1,0,0,1,276.22,462.435)">
                        <path id="path3169" d="M0,0C0.154,-2.087 0.832,-8.18 3.682,-14.657C8.258,-25.054 16.009,-31.563 26.725,-34.019C26.718,-32.013 26.453,-25.993 23.805,-19.54C19.58,-9.244 11.574,-2.672 0,0M27.305,-35.34C27.264,-35.34 27.224,-35.336 27.184,-35.326C12.875,-32.321 5.909,-22.667 2.585,-15.095C-1.002,-6.923 -1.217,0.424 -1.225,0.732C-1.229,0.912 -1.15,1.086 -1.011,1.201C-0.872,1.316 -0.688,1.361 -0.511,1.324C14.938,-1.976 21.842,-11.621 24.914,-19.135C28.234,-27.251 27.91,-34.475 27.895,-34.779C27.886,-34.951 27.802,-35.11 27.666,-35.217C27.561,-35.296 27.434,-35.34 27.305,-35.34" style="fill:white;fill-rule:nonzero;"/>
                    </g>
                    <g id="g3171" transform="matrix(1,0,0,1,318.199,374.557)">
                        <path id="path3173" d="M0,0C0,0 27.41,10.21 21.526,39.714C21.526,39.714 -5.536,27.263 0,0" style="fill:white;"/>
                    </g>
                    <g id="g3175" transform="matrix(1,0,0,1,339.291,413.394)">
                        <path id="path3177" d="M0,0C-1.854,-0.969 -7.181,-4.006 -12,-9.188C-19.733,-17.509 -22.642,-27.205 -20.649,-38.015C-18.812,-37.215 -13.391,-34.586 -8.513,-29.599C-0.731,-21.643 2.13,-11.688 0,0M-21.092,-39.428C-21.191,-39.428 -21.29,-39.401 -21.379,-39.354C-21.529,-39.27 -21.666,-39.126 -21.67,-38.954C-22.044,-24.114 -18.472,-14.404 -12.837,-8.354C-6.754,-1.824 -0.094,1.285 0.188,1.413C0.352,1.488 0.541,1.485 0.702,1.402C0.862,1.32 0.978,1.169 1.014,0.992C4.103,-14.502 -2.02,-24.66 -7.701,-30.456C-13.839,-36.721 -20.601,-39.284 -20.885,-39.391C-20.953,-39.415 -21.022,-39.428 -21.092,-39.428" style="fill:white;fill-rule:nonzero;"/>
                    </g>
                    <g id="g3179" transform="matrix(1,0,0,1,318.609,373.715)">
                        <path id="path3181" d="M0,0C0,0 -3.018,29.095 -33.054,30.79C-33.054,30.79 -27.78,1.473 0,0" style="fill:white;"/>
                    </g>
                    <g id="g3183" transform="matrix(1,0,0,1,286.296,403.865)">
                        <path id="path3185" d="M0,0C0.472,-2.039 2.077,-7.957 5.888,-13.92C12.003,-23.492 20.662,-28.736 31.627,-29.517C31.313,-27.537 30.127,-21.631 26.521,-15.658C20.767,-6.131 11.848,-0.867 0,0M32.313,-30.742C32.302,-30.742 32.291,-30.74 32.281,-30.74C17.68,-29.967 9.316,-21.492 4.871,-14.521C0.072,-6.996 -1.267,0.232 -1.322,0.536C-1.354,0.712 -1.302,0.896 -1.183,1.03C-1.063,1.167 -0.888,1.237 -0.708,1.229C15.065,0.338 23.369,-8.136 27.555,-15.087C32.08,-22.598 32.869,-29.788 32.899,-30.09C32.917,-30.261 32.859,-30.433 32.74,-30.558C32.629,-30.675 32.474,-30.742 32.313,-30.742" style="fill:white;fill-rule:nonzero;"/>
                    </g>
                    <g id="g3187" transform="matrix(1,0,0,1,317.173,419.812)">
                        <path id="path3189" d="M0,0C0,0 29.13,2.645 31.21,32.656C31.21,32.656 1.828,27.759 0,0" style="fill:white;"/>
                    </g>
                    <g id="g3191" transform="matrix(1,0,0,1,347.735,451.735)">
                        <path id="path3193" d="M0,0C-2.045,-0.445 -7.982,-1.975 -13.993,-5.708C-23.644,-11.7 -28.999,-20.291 -29.919,-31.247C-27.936,-30.957 -22.014,-29.848 -15.996,-26.316C-6.397,-20.686 -1.018,-11.836 0,0M-30.562,-32.514C-30.715,-32.514 -30.863,-32.454 -30.974,-32.346C-31.097,-32.226 -31.163,-32.057 -31.15,-31.884C-30.19,-17.296 -21.611,-9.039 -14.582,-4.683C-6.996,0.018 0.247,1.265 0.552,1.314C0.729,1.347 0.912,1.291 1.046,1.171C1.18,1.05 1.25,0.873 1.237,0.693C0.146,-15.067 -8.434,-23.261 -15.439,-27.359C-23.008,-31.788 -30.206,-32.484 -30.508,-32.511C-30.526,-32.513 -30.544,-32.514 -30.562,-32.514" style="fill:white;fill-rule:nonzero;"/>
                    </g>
                    <g id="g3195" transform="matrix(1,0,0,1,327.039,493.476)">
                        <path id="path3197" d="M0,0C0,0 -16.079,-24.434 6.101,-44.758C6.101,-44.758 20.575,-18.724 0,0" style="fill:white;"/>
                    </g>
                    <g id="g3199" transform="matrix(1,0,0,1,327.168,492.551)">
                        <path id="path3201" d="M0,0C-1.009,-1.732 -3.831,-7.055 -4.818,-13.961C-6.393,-24.979 -2.82,-34.7 5.803,-42.87C6.728,-40.991 9.231,-35.396 10.056,-28.366C11.379,-17.085 7.996,-7.544 0,0M5.972,-44.425C5.826,-44.425 5.682,-44.369 5.573,-44.269C-6.074,-33.596 -7.139,-21.78 -5.98,-13.749C-4.729,-5.068 -0.79,0.995 -0.622,1.25C-0.527,1.394 -0.374,1.489 -0.202,1.511C-0.032,1.533 0.141,1.479 0.269,1.36C11.083,-8.479 12.195,-20.334 11.224,-28.545C10.174,-37.409 6.639,-43.851 6.488,-44.121C6.4,-44.278 6.245,-44.388 6.067,-44.417C6.035,-44.421 6.003,-44.425 5.972,-44.425" style="fill:white;fill-rule:nonzero;"/>
                    </g>
                    <g id="g3203" transform="matrix(1,0,0,1,382.698,460.884)">
                        <path id="path3205" d="M0,0C0,0 -29.197,-1.751 -32.197,-31.685C-32.197,-31.685 -2.678,-27.689 0,0" style="fill:white;"/>
                    </g>
                    <g id="g3207" transform="matrix(1,0,0,1,382.035,460.227)">
                        <path id="path3209" d="M0,0C-1.992,-0.229 -7.944,-1.155 -14.068,-4.498C-23.834,-9.835 -29.483,-18.517 -30.863,-30.315C-28.806,-29.93 -22.824,-28.586 -16.701,-25.038C-6.872,-19.343 -1.256,-10.92 0,0M-31.534,-31.617C-31.687,-31.617 -31.834,-31.559 -31.944,-31.452C-32.075,-31.327 -32.14,-31.148 -32.122,-30.969C-30.547,-15.249 -21.721,-7.323 -14.593,-3.439C-6.892,0.754 0.325,1.229 0.627,1.246C0.798,1.26 0.968,1.191 1.088,1.067C1.208,0.942 1.267,0.772 1.25,0.601C-0.157,-13.953 -8.985,-21.941 -16.144,-26.079C-23.871,-30.546 -31.149,-31.57 -31.455,-31.613C-31.482,-31.616 -31.508,-31.617 -31.534,-31.617" style="fill:white;fill-rule:nonzero;"/>
                    </g>
                    <g id="g3211" transform="matrix(1,0,0,1,294.799,343.967)">
                        <path id="path3213" d="M0,0C0,0 -27.928,8.696 -41.328,-18.235C-41.328,-18.235 -12.307,-24.948 0,0" style="fill:white;"/>
                    </g>
                    <g id="g3215" transform="matrix(1,0,0,1,254.351,326.159)">
                        <path id="path3217" d="M0,0C1.292,-0.232 4.158,-0.658 7.819,-0.658C18.104,-0.658 31.893,2.498 39.595,17.428C38.17,17.789 34.615,18.557 30.112,18.557C20.723,18.557 7.945,15.314 0,0M7.82,-1.84L7.819,-1.84C2.666,-1.84 -0.865,-1.037 -1.013,-1.002C-1.189,-0.963 -1.337,-0.844 -1.413,-0.68C-1.491,-0.517 -1.489,-0.326 -1.409,-0.163C6.776,16.284 20.25,19.737 30.112,19.737C36.167,19.737 40.445,18.428 40.624,18.371C40.789,18.319 40.923,18.199 40.99,18.041C41.059,17.881 41.054,17.702 40.978,17.547C37.366,10.225 31.979,4.879 24.965,1.659C19.907,-0.663 14.139,-1.84 7.82,-1.84" style="fill:white;fill-rule:nonzero;"/>
                    </g>
                    <g id="g3219" transform="matrix(1,0,0,1,349.793,338.164)">
                        <path id="path3221" d="M0,0C0,0 13.043,-26.182 41.761,-17.222C41.761,-17.222 26.526,8.378 0,0" style="fill:white;"/>
                    </g>
                    <g id="g3223" transform="matrix(1,0,0,1,350.657,337.81)">
                        <path id="path3225" d="M0,0C0.812,-1.431 3.1,-5.134 6.913,-8.793C11.356,-13.058 18.848,-18.144 29.304,-18.145L29.307,-18.145C32.734,-18.145 36.32,-17.601 39.979,-16.527C39.022,-15.087 36.414,-11.438 32.351,-7.831C27.584,-3.599 19.777,1.448 9.647,1.448C6.493,1.448 3.251,0.961 0,0M29.307,-19.326L29.304,-19.326C18.437,-19.324 10.668,-14.044 6.065,-9.615C1.088,-4.827 -1.293,-0.108 -1.393,0.09C-1.47,0.244 -1.475,0.424 -1.407,0.585C-1.341,0.745 -1.207,0.864 -1.042,0.917C2.555,2.053 6.151,2.629 9.647,2.629C20.163,2.629 28.24,-2.594 33.164,-6.973C38.483,-11.704 41.288,-16.368 41.406,-16.564C41.498,-16.719 41.514,-16.909 41.449,-17.078C41.384,-17.245 41.246,-17.375 41.073,-17.43C37.043,-18.687 33.084,-19.326 29.307,-19.326" style="fill:white;fill-rule:nonzero;"/>
                    </g>
                    <g id="g3227" transform="matrix(1,0,0,1,246.525,361.478)">
                        <path id="path3229" d="M0,0C0,0 19.825,-21.507 44.907,-4.896C44.907,-4.896 23.139,15.441 0,0" style="fill:white;"/>
                    </g>
                    <g id="g3231" transform="matrix(1,0,0,1,247.454,361.381)">
                        <path id="path3233" d="M0,0C2.216,-2.148 11.663,-10.503 24.553,-10.503L24.554,-10.503C30.789,-10.503 36.992,-8.562 43,-4.729C40.516,-2.636 30.251,5.296 17.437,5.296C11.349,5.296 5.485,3.515 0,0M24.554,-11.685L24.553,-11.685C9.307,-11.684 -1.258,-0.416 -1.363,-0.302C-1.48,-0.176 -1.535,-0.005 -1.515,0.168C-1.495,0.339 -1.4,0.492 -1.257,0.588C4.599,4.497 10.888,6.479 17.437,6.479C32.599,6.479 44.265,-4.258 44.381,-4.365C44.512,-4.488 44.58,-4.665 44.566,-4.847C44.551,-5.025 44.454,-5.189 44.303,-5.29C37.896,-9.532 31.251,-11.685 24.554,-11.685" style="fill:white;fill-rule:nonzero;"/>
                    </g>
                    <g id="g3235" transform="matrix(1,0,0,1,335.008,381.817)">
                        <path id="path3237" d="M0,0C0,0 -3,-29.095 26.053,-36.901C26.053,-36.901 26.891,-7.124 0,0" style="fill:white;"/>
                    </g>
                    <g id="g3239" transform="matrix(1,0,0,1,335.549,381.057)">
                        <path id="path3241" d="M0,0C-0.096,-2.001 -0.146,-8.027 2.163,-14.61C5.847,-25.112 13.5,-32.091 24.918,-35.361C24.874,-33.27 24.514,-27.15 22.004,-20.533C17.975,-9.911 10.574,-3.007 0,0M25.513,-36.729C25.462,-36.729 25.411,-36.723 25.361,-36.71C10.103,-32.612 3.71,-22.618 1.034,-14.958C-1.858,-6.68 -1.159,0.52 -1.128,0.821C-1.111,0.992 -1.018,1.149 -0.876,1.246C-0.734,1.345 -0.556,1.377 -0.39,1.331C13.744,-2.413 20.198,-12.418 23.123,-20.153C26.279,-28.499 26.112,-35.848 26.104,-36.155C26.099,-36.338 26.011,-36.505 25.866,-36.613C25.763,-36.688 25.639,-36.729 25.513,-36.729" style="fill:white;fill-rule:nonzero;"/>
                    </g>
                    <g id="g3243" transform="matrix(1,0,0,1,296.192,375.166)">
                        <path id="path3245" d="M0,0C0,0 -8.527,-27.98 18.488,-41.218C18.488,-41.218 25.024,-12.153 0,0" style="fill:white;"/>
                    </g>
                    <g id="g3247" transform="matrix(1,0,0,1,296.577,374.315)">
                        <path id="path3249" d="M0,0C-0.479,-1.946 -1.683,-7.849 -0.681,-14.753C0.918,-25.767 7.09,-34.086 17.67,-39.487C18.026,-37.426 18.849,-31.352 17.655,-24.374C15.74,-13.177 9.801,-4.979 0,0M18.104,-40.956C18.015,-40.956 17.926,-40.937 17.844,-40.896C3.657,-33.945 -0.699,-22.91 -1.856,-14.878C-3.105,-6.198 -1.038,0.732 -0.949,1.023C-0.898,1.188 -0.778,1.324 -0.62,1.392C-0.462,1.462 -0.282,1.458 -0.126,1.383C13.026,-5.006 17.44,-16.065 18.826,-24.215C20.322,-33.014 18.747,-40.193 18.68,-40.495C18.64,-40.67 18.521,-40.819 18.359,-40.897C18.278,-40.937 18.19,-40.956 18.104,-40.956" style="fill:white;fill-rule:nonzero;"/>
                    </g>
                    <g id="g3251" transform="matrix(1,0,0,1,315.529,333.987)">
                        <path id="path3253" d="M0,0C0,0 -29.245,0.582 -34.621,-29.017C-34.621,-29.017 -4.876,-27.389 0,0" style="fill:white;"/>
                    </g>
                    <g id="g3255" transform="matrix(1,0,0,1,314.815,333.386)">
                        <path id="path3257" d="M0,0C-2.046,-0.07 -8.522,-0.548 -15.235,-3.761C-24.897,-8.383 -30.933,-16.455 -33.182,-27.76C-31.101,-27.54 -25.031,-26.676 -18.644,-23.627C-8.392,-18.734 -2.122,-10.788 0,0M-33.907,-29.007C-34.076,-29.007 -34.237,-28.933 -34.35,-28.808C-34.471,-28.671 -34.521,-28.486 -34.488,-28.31C-32.322,-16.383 -25.84,-7.525 -15.745,-2.694C-7.85,1.084 -0.25,1.192 0.59,1.192L0.725,1.19C0.898,1.188 1.061,1.108 1.169,0.975C1.279,0.842 1.325,0.666 1.295,0.496C-1.269,-13.898 -10.706,-21.158 -18.172,-24.711C-26.23,-28.548 -33.567,-28.988 -33.875,-29.004C-33.886,-29.007 -33.897,-29.007 -33.907,-29.007" style="fill:white;fill-rule:nonzero;"/>
                    </g>
                    <g id="g3259" transform="matrix(1,0,0,1,306.659,425.688)">
                        <path id="path3261" d="M0,0C0,0 -14.902,25.171 -42.897,14.158C-42.897,14.158 -25.853,-10.273 0,0" style="fill:white;"/>
                    </g>
                    <g id="g3263" transform="matrix(1,0,0,1,264.705,439.574)">
                        <path id="path3265" d="M0,0C2.315,-2.975 13.245,-15.816 29.321,-15.817L29.323,-15.817C33.197,-15.817 37.144,-15.072 41.065,-13.597C39.075,-10.633 29.342,2.469 12.856,2.469C8.706,2.469 4.384,1.638 0,0M29.323,-16.999L29.322,-16.999C19.529,-16.998 11.689,-12.393 6.837,-8.53C1.593,-4.356 -1.306,-0.24 -1.427,-0.067C-1.53,0.081 -1.56,0.269 -1.508,0.442C-1.456,0.614 -1.327,0.755 -1.159,0.821C3.613,2.697 8.329,3.65 12.856,3.65C22.887,3.65 30.403,-1.035 34.941,-4.967C39.849,-9.218 42.358,-13.409 42.463,-13.585C42.55,-13.733 42.568,-13.913 42.513,-14.076C42.457,-14.24 42.333,-14.371 42.172,-14.436C37.891,-16.137 33.568,-16.999 29.323,-16.999" style="fill:white;fill-rule:nonzero;"/>
                    </g>
                    <g id="g3267" transform="matrix(1,0,0,1,388.799,385.673)">
                        <path id="path3269" d="M0,0C0,0 -4.191,28.948 -34.27,29.429C-34.27,29.429 -27.818,0.348 0,0" style="fill:white;"/>
                    </g>
                    <g id="g3271" transform="matrix(1,0,0,1,355.295,414.494)">
                        <path id="path3273" d="M0,0C0.555,-2.019 2.397,-7.865 6.445,-13.671C12.943,-22.988 21.805,-27.88 32.793,-28.216C32.399,-26.251 30.976,-20.396 27.132,-14.575C20.998,-5.291 11.873,-0.389 0,0M33.504,-29.413L33.496,-29.413C18.875,-29.229 10.176,-21.101 5.454,-14.313C0.356,-6.988 -1.275,0.178 -1.342,0.479C-1.381,0.657 -1.337,0.842 -1.222,0.98C-1.109,1.122 -0.937,1.2 -0.756,1.2C15.04,0.946 23.677,-7.185 28.142,-13.963C32.966,-21.285 34.044,-28.436 34.088,-28.737C34.113,-28.909 34.061,-29.082 33.947,-29.211C33.835,-29.34 33.673,-29.413 33.504,-29.413" style="fill:white;fill-rule:nonzero;"/>
                    </g>
                    <g id="g3275" transform="matrix(1,0,0,1,350.235,339.357)">
                        <path id="path3277" d="M0,0C0,0 -9.575,-27.639 16.923,-41.884C16.923,-41.884 24.549,-13.087 0,0" style="fill:white;"/>
                    </g>
                    <g id="g3279" transform="matrix(1,0,0,1,350.512,339.878)">
                        <path id="path3281" d="M0,0L-0.554,-1.041L-0.58,-1.026L-0.605,-1.01L-0.63,-0.993L-0.652,-0.976L-0.675,-0.956L-0.696,-0.936L-0.716,-0.915L-0.734,-0.892L-0.752,-0.871L-0.769,-0.847L-0.783,-0.822L-0.797,-0.799L-0.81,-0.772L-0.821,-0.746L-0.831,-0.721L-0.841,-0.693L-0.848,-0.665L-0.854,-0.639L-0.864,-0.583L-0.866,-0.554L-0.866,-0.497L-0.864,-0.469L-0.856,-0.411L-0.85,-0.384L-0.843,-0.354L-0.834,-0.326L-0.823,-0.299L-0.812,-0.271L-0.798,-0.243L-0.783,-0.218L-0.766,-0.193L-0.75,-0.169L-0.712,-0.123L-0.692,-0.101L-0.671,-0.083L-0.649,-0.064L-0.626,-0.046L-0.604,-0.029L-0.58,-0.015L-0.555,-0.001L-0.528,0.013L-0.503,0.023L-0.476,0.033L-0.45,0.043L-0.423,0.049L-0.396,0.057L-0.367,0.063L-0.339,0.066L-0.311,0.068L-0.254,0.068L-0.225,0.066L-0.197,0.063L-0.168,0.059L-0.14,0.054L-0.111,0.045L-0.083,0.035L-0.056,0.026L-0.027,0.014L0,0ZM0.279,-0.714L-0.834,-0.328L0,0L2.242,-1.292L4.302,-2.668L6.188,-4.126L7.904,-5.651L9.459,-7.238L10.86,-8.878L12.113,-10.562L13.228,-12.281L14.208,-14.027L15.064,-15.793L15.8,-17.567L16.425,-19.343L16.948,-21.112L17.377,-22.867L17.717,-24.596L17.974,-26.292L18.161,-27.952L18.28,-29.563L18.342,-31.117L18.353,-32.606L18.322,-34.023L18.254,-35.361L18.156,-36.612L18.041,-37.766L17.908,-38.813L17.77,-39.752L17.632,-40.563L17.503,-41.253L17.392,-41.802L17.301,-42.209L17.24,-42.458L17.217,-42.552L16.076,-42.255L16.095,-42.183L16.15,-41.945L16.237,-41.561L16.349,-41.028L16.474,-40.363L16.606,-39.567L16.74,-38.658L16.868,-37.633L16.984,-36.509L17.077,-35.29L17.145,-33.983L17.177,-32.597L17.165,-31.141L17.104,-29.628L16.985,-28.06L16.807,-26.446L16.556,-24.795L16.226,-23.115L15.812,-21.417L15.306,-19.706L14.7,-17.987L13.988,-16.274L13.164,-14.572L12.22,-12.891L11.149,-11.235L9.941,-9.613L8.592,-8.033L7.093,-6.504L5.436,-5.033L3.615,-3.628L1.62,-2.293L-0.554,-1.041L0.279,-0.714ZM16.367,-42.923L16.925,-41.885L16.952,-41.9L16.977,-41.917L17.001,-41.935L17.023,-41.952L17.046,-41.97L17.067,-41.991L17.086,-42.012L17.104,-42.035L17.123,-42.058L17.139,-42.08L17.153,-42.104L17.167,-42.13L17.179,-42.155L17.19,-42.181L17.201,-42.209L17.21,-42.235L17.218,-42.263L17.224,-42.288L17.229,-42.316L17.231,-42.345L17.234,-42.372L17.234,-42.431L17.232,-42.458L17.229,-42.487L17.224,-42.517L17.218,-42.544L17.21,-42.572L17.201,-42.601L17.19,-42.627L17.178,-42.655L17.164,-42.683L17.149,-42.71L17.133,-42.735L17.116,-42.759L17.078,-42.803L17.059,-42.824L17.037,-42.843L17.015,-42.861L16.993,-42.88L16.969,-42.896L16.945,-42.91L16.895,-42.938L16.868,-42.948L16.843,-42.958L16.816,-42.968L16.788,-42.974L16.761,-42.981L16.733,-42.984L16.705,-42.988L16.677,-42.991L16.62,-42.991L16.591,-42.988L16.563,-42.986L16.534,-42.981L16.506,-42.975L16.478,-42.968L16.449,-42.958L16.421,-42.947L16.394,-42.936L16.367,-42.923ZM16.076,-42.255L17.217,-42.552L16.367,-42.923L13.958,-41.532L11.749,-40.067L9.736,-38.535L7.909,-36.945L6.264,-35.306L4.79,-33.623L3.478,-31.903L2.323,-30.161L1.314,-28.395L0.443,-26.62L-0.297,-24.844L-0.915,-23.07L-1.42,-21.31L-1.82,-19.569L-2.123,-17.857L-2.338,-16.182L-2.475,-14.549L-2.54,-12.968L-2.546,-11.445L-2.498,-9.987L-2.406,-8.604L-2.275,-7.301L-2.118,-6.084L-1.941,-4.963L-1.75,-3.946L-1.562,-3.039L-1.377,-2.249L-1.208,-1.586L-1.058,-1.056L-0.942,-0.662L-0.866,-0.421L-0.834,-0.328L0.279,-0.714L0.258,-0.779L0.186,-1.007L0.073,-1.377L-0.066,-1.888L-0.232,-2.529L-0.411,-3.291L-0.597,-4.171L-0.778,-5.159L-0.95,-6.248L-1.103,-7.432L-1.229,-8.7L-1.32,-10.046L-1.369,-11.462L-1.364,-12.943L-1.299,-14.478L-1.167,-16.06L-0.957,-17.683L-0.663,-19.338L-0.277,-21.018L0.209,-22.713L0.804,-24.422L1.516,-26.136L2.353,-27.846L3.323,-29.541L4.438,-31.221L5.699,-32.876L7.123,-34.499L8.712,-36.084L10.479,-37.621L12.431,-39.104L14.575,-40.528L16.925,-41.885L16.076,-42.255Z" style="fill:white;fill-rule:nonzero;"/>
                    </g>
                    <g id="g3283" transform="matrix(1,0,0,1,341.037,307.832)">
                        <path id="path3285" d="M0,0C0,0 12.839,26.284 -11.749,43.619C-11.749,43.619 -22.792,15.953 0,0" style="fill:white;"/>
                    </g>
                    <g id="g3287" transform="matrix(1,0,0,1,329.579,350.516)">
                        <path id="path3289" d="M0,0C-0.678,-1.979 -2.449,-7.849 -2.372,-14.926C-2.249,-26.285 2.321,-35.316 11.213,-41.782C11.993,-39.937 14.114,-34.299 14.214,-27.322C14.375,-16.194 9.594,-7.005 0,0M11.458,-43.273C11.338,-43.273 11.22,-43.237 11.119,-43.167C-0.859,-34.783 -3.471,-23.167 -3.554,-14.897C-3.642,-5.973 -0.953,0.866 -0.838,1.153C-0.771,1.322 -0.632,1.45 -0.458,1.501C-0.285,1.553 -0.097,1.521 0.051,1.418C12.961,-7.687 15.521,-19.27 15.395,-27.386C15.257,-36.152 12.122,-42.669 11.989,-42.942C11.913,-43.098 11.773,-43.212 11.605,-43.255C11.557,-43.268 11.507,-43.273 11.458,-43.273" style="fill:white;fill-rule:nonzero;"/>
                    </g>
                    <g id="g3291" transform="matrix(1,0,0,1,282.45,388.103)">
                        <path id="path3293" d="M0,0C0,0 -0.93,29.236 -30.768,33.076C-30.768,33.076 -27.604,3.454 0,0" style="fill:white;"/>
                    </g>
                    <g id="g3295" transform="matrix(1,0,0,1,252.376,420.487)">
                        <path id="path3297" d="M0,0C0.326,-2.066 1.502,-8.083 4.878,-14.305C10.293,-24.29 18.554,-30.14 29.436,-31.702C29.264,-29.705 28.504,-23.729 25.333,-17.514C20.275,-7.6 11.756,-1.712 0,0M30.074,-32.974C30.05,-32.974 30.025,-32.972 30,-32.969C15.492,-31.154 7.755,-22.104 3.819,-14.832C-0.428,-6.982 -1.247,0.322 -1.28,0.628C-1.299,0.809 -1.235,0.987 -1.106,1.114C-0.977,1.239 -0.797,1.3 -0.618,1.276C15.051,-0.739 22.727,-9.785 26.406,-17.02C30.382,-24.835 30.654,-32.061 30.664,-32.365C30.669,-32.538 30.599,-32.703 30.471,-32.82C30.362,-32.919 30.22,-32.974 30.074,-32.974" style="fill:white;fill-rule:nonzero;"/>
                    </g>
                    <g id="g3299" transform="matrix(1,0,0,1,395.452,438.018)">
                        <path id="path3301" d="M0,0C0,0 -28.73,5.491 -39.006,-22.784C-39.006,-22.784 -9.411,-26.177 0,0" style="fill:white;"/>
                    </g>
                    <g id="g3303" transform="matrix(1,0,0,1,357.271,415.759)">
                        <path id="path3305" d="M0,0C0.565,-0.038 1.424,-0.077 2.505,-0.077C10.538,-0.077 29.876,2.068 37.377,21.789C36.469,21.911 34.726,22.099 32.469,22.099C23.453,22.099 7.35,19.206 0,0M2.506,-1.259L2.505,-1.259C0.421,-1.259 -0.84,-1.117 -0.893,-1.111C-1.072,-1.09 -1.232,-0.988 -1.327,-0.834C-1.422,-0.682 -1.442,-0.493 -1.38,-0.322C6.083,20.215 23.032,23.281 32.469,23.281C35.949,23.281 38.198,22.858 38.292,22.84C38.461,22.808 38.608,22.703 38.693,22.553C38.78,22.402 38.795,22.224 38.736,22.061C31.171,1.015 10.881,-1.259 2.506,-1.259" style="fill:white;fill-rule:nonzero;"/>
                    </g>
                    <g id="g3307" transform="matrix(1,0,0,1,411.59,350.85)">
                        <path id="path3309" d="M0,0C0,0 -23.808,16.993 -44.958,-4.4C-44.958,-4.4 -19.489,-19.852 0,0" style="fill:white;"/>
                    </g>
                    <g id="g3311" transform="matrix(1,0,0,1,367.603,346.581)">
                        <path id="path3313" d="M0,0C2.333,-1.258 10.534,-5.269 20.256,-5.27L20.258,-5.27C29.007,-5.27 36.674,-2.093 43.059,4.175C40.896,5.544 32.998,10.078 23.205,10.078C14.643,10.078 6.839,6.688 0,0M20.258,-6.449L20.256,-6.449C8.442,-6.449 -0.885,-0.875 -1.276,-0.637C-1.431,-0.543 -1.534,-0.384 -1.557,-0.204C-1.579,-0.025 -1.517,0.155 -1.39,0.282C5.81,7.566 14.085,11.26 23.205,11.26C35.072,11.26 43.958,5.015 44.33,4.75C44.471,4.649 44.561,4.492 44.576,4.321C44.591,4.148 44.529,3.978 44.408,3.854C37.695,-2.982 29.569,-6.449 20.258,-6.449" style="fill:white;fill-rule:nonzero;"/>
                    </g>
                </g>
            </g>
        </g>
    </g>
</svg>
