<?xml version="1.0" encoding="UTF-8" standalone="no"?>
<!-- Generator: Adobe Illustrator 24.3.0, SVG Export Plug-In . SVG Version: 6.00 Build 0)  -->

<svg
   version="1.1"
   x="0px"
   y="0px"
   viewBox="0 0 436.35 436.35"
   style="enable-background:new 0 0 436.35 436.35;"
   xml:space="preserve"
   id="svg5"
   sodipodi:docname="liberals.svg"
   inkscape:version="1.4 (e7c3feb1, 2024-10-09)"
   inkscape:export-filename="liberals.svg"
   inkscape:export-xdpi="96"
   inkscape:export-ydpi="96"
   xmlns:inkscape="http://www.inkscape.org/namespaces/inkscape"
   xmlns:sodipodi="http://sodipodi.sourceforge.net/DTD/sodipodi-0.dtd"
   xmlns="http://www.w3.org/2000/svg"
   xmlns:svg="http://www.w3.org/2000/svg"><defs
   id="defs5" /><sodipodi:namedview
   id="namedview5"
   pagecolor="#ffffff"
   bordercolor="#000000"
   borderopacity="0.25"
   inkscape:showpageshadow="2"
   inkscape:pageopacity="0.0"
   inkscape:pagecheckerboard="0"
   inkscape:deskcolor="#d1d1d1"
   showgrid="false"
   inkscape:zoom="0.48428799"
   inkscape:cx="-22.713758"
   inkscape:cy="199.2616"
   inkscape:window-width="1472"
   inkscape:window-height="826"
   inkscape:window-x="0"
   inkscape:window-y="37"
   inkscape:window-maximized="0"
   inkscape:current-layer="Laag_2"><inkscape:grid
     id="grid5"
     units="px"
     originx="0"
     originy="0"
     spacingx="0.99999999"
     spacingy="0.99999999"
     empcolor="#0099e5"
     empopacity="0.30196078"
     color="#0099e5"
     opacity="0.14902"
     empspacing="5"
     enabled="true"
     visible="false" /></sodipodi:namedview>
<style
   type="text/css"
   id="style1">
	.st0{fill:#242B57;}
	.st1{fill:#FFFFFF;}
	.st2{fill:#DF201A;}
</style>
<g
   id="Laag_1">
	<circle
   class="st0"
   cx="218.17"
   cy="218.17"
   r="218.17"
   id="circle1"
   style="fill:#e89445;fill-opacity:1" />
</g>
<g
   id="Laag_2">
	
	
	<g
   id="g5"
   style="fill:#000000;fill-opacity:1">
		
		<path
   class="st2"
   d="M348.41,181.35c2.64,10.54,4.2,21.5,4.2,32.84c0,74.67-60.75,135.42-135.42,135.42S81.76,288.86,81.76,214.19    c0-74.68,60.75-135.42,135.42-135.42c28.12,0,54.26,8.63,75.93,23.36c3.92-3.97,11.1-8.47,22.64-9.06    c-26.91-21.94-61.22-35.15-98.57-35.15c-86.17,0-156.27,70.1-156.27,156.27s70.1,156.27,156.27,156.27    c86.17,0,156.27-70.1,156.27-156.27c0-11.27-1.26-22.24-3.54-32.84H348.41z"
   id="path4"
   style="fill:#000000;fill-opacity:1" />
		
	</g>
<path
   style="-inkscape-font-specification:'Verdana Bold';fill:#ffffff;stroke-width:92.4546;stroke-dasharray:92.4546, 92.4546"
   d="M 297.10511,294.39704 H 256.46019 L 245.91504,263.5806 h -56.51387 l -10.54514,30.81644 h -39.62115 l 56.30911,-152.44408 h 45.25203 z M 236.39368,235.63083 217.6581,180.9598 198.92253,235.63083 Z"
   id="text5"
   aria-label="AS"
   sodipodi:nodetypes="ccccccccccccc" /><path
   style="-inkscape-font-specification:'Verdana Bold';stroke-width:31.4125;stroke-dasharray:31.4125, 31.4125"
   d="m 339.54601,141.21348 q 0,4.00025 -1.46096,7.51352 -1.46097,3.51327 -4.10461,5.91342 -2.81757,2.57407 -6.53955,3.93068 -3.68719,1.35661 -8.66142,1.35661 -4.66116,0 -8.52228,-1.25225 -3.82633,-1.28704 -6.57433,-3.8959 -3.16542,-2.9915 -4.83509,-7.72223 -1.66967,-4.73074 -1.66967,-11.30507 0,-6.81782 1.56532,-12.10511 1.56532,-5.2873 5.11337,-9.35712 3.40891,-3.8959 8.83534,-6.05256 5.46122,-2.15666 12.97474,-2.15666 2.53929,0 5.56557,0.34785 3.02628,0.34785 3.93068,0.52177 v 10.19196 h -1.32182 q -0.93919,-0.45221 -3.2002,-1.00876 -2.22623,-0.59135 -5.07859,-0.59135 -6.67868,0 -10.40066,3.26978 -3.72197,3.26977 -4.48724,9.11362 2.67843,-1.6001 5.63514,-2.57408 2.9915,-1.00876 6.43519,-1.00876 3.02628,0 5.60036,0.6957 2.60886,0.6957 4.83509,2.22623 2.88714,2.01752 4.62638,5.42643 1.73924,3.40891 1.73924,8.52228 z m -15.82709,7.82658 q 1.07833,-1.18268 1.70445,-2.78278 0.66091,-1.63489 0.66091,-4.41767 0,-2.5393 -0.73048,-4.1394 -0.73048,-1.63488 -2.01752,-2.60886 -1.25225,-0.97397 -2.9567,-1.32182 -1.70446,-0.38263 -3.51327,-0.38263 -1.53053,0 -3.2002,0.34784 -1.66968,0.34785 -3.06107,0.86962 0,0.34785 -0.0348,1.1479 -0.0348,0.80005 -0.0348,2.01752 0,4.27853 0.83484,7.06132 0.86962,2.748 2.2958,4.20896 0.97397,1.07833 2.29579,1.6001 1.32183,0.48699 2.85236,0.48699 1.1479,0 2.53929,-0.52177 1.39139,-0.52177 2.36537,-1.56532 z m 65.43024,-7.72223 q 0,4.03504 -1.53053,7.51352 -1.49575,3.4437 -4.38289,5.91342 -3.2002,2.64365 -7.37438,3.93069 -4.13939,1.25225 -9.46147,1.25225 -6.22648,-0.0348 -10.5398,-1.00876 -4.27853,-0.93919 -6.99175,-2.12187 v -11.44421 h 1.46096 q 3.16542,1.87838 6.81783,3.13064 3.6524,1.25225 7.27002,1.25225 2.19145,0 4.73074,-0.48699 2.57408,-0.52177 4.06982,-1.84359 1.18269,-1.07833 1.77403,-2.19145 0.62612,-1.11311 0.62612,-3.44369 0,-1.80881 -0.83483,-3.09585 -0.80005,-1.32183 -2.08709,-2.12188 -1.87838,-1.1479 -4.52203,-1.49574 -2.64364,-0.38264 -4.8003,-0.38264 -3.13063,0 -6.01777,0.55656 -2.85236,0.52177 -5.00902,1.04354 h -1.53053 v -29.21924 h 36.83712 v 9.91367 h -24.2798 v 8.45271 q 1.07833,-0.0696 2.71322,-0.10435 1.66967,-0.0696 2.92192,-0.0696 4.27853,0 7.61787,0.83483 3.37413,0.80005 5.80907,2.26102 3.16542,1.91316 4.93944,5.07858 1.77403,3.13063 1.77403,7.89615 z"
   id="text5-5"
   aria-label="65" /></g>
</svg>
