<svg height="215.337" preserveAspectRatio="xMidYMid meet" viewBox="0 0 683 317" width="464.388378" xmlns="http://www.w3.org/2000/svg"><g transform="matrix(.1 0 0 -.1 0 317)"><path d="m1635 3009c-4-79-5-299-2-489 3-287 7-355 21-404 39-134 101-216 203-268 76-39 127-53 224-63l66-7 6-97c9-144 58-289 144-423 17-28 17-28-22-68-21-22-42-40-45-40s-60 44-125 97c-66 53-141 113-166 132-410 318-532 442-629 638-133 267-108 508 64 629 28 19 30 24 27 80-1 32-4 61-7 63-2 2-28-9-59-24-108-53-201-179-225-305-21-112-7-273 33-385 26-69 86-192 102-205 8-7 15-17 15-22 0-30 161-209 265-294 33-27 62-52 65-55s75-62 160-130c212-169 384-311 388-319 1-3-18-25-42-48-25-23-49-48-53-55s-33-32-63-57-57-47-60-50-32-27-65-55c-33-27-67-57-75-65-8-9-64-49-125-89-176-116-228-195-248-374l-11-99-41 6c-146 23-346 94-482 171-94 54-185 117-190 132-2 6 84 82 192 168 108 87 202 165 208 174 7 9 32 29 56 45 24 15 88 64 141 108 54 44 102 81 106 82 16 2 23-87 12-148-13-78-45-138-110-207-60-64-161-136-166-120-2 6 1 26 7 43s11 37 11 44c0 14-106 52-116 42-7-8-84-266-84-282 0-10 188-125 231-141 13-5 24 7 46 48l30 54-44 24c-40 22-55 39-34 39 5 0 42 22 83 49 264 177 343 420 227 704-13 33-27 60-31 60-3 1-97-72-209-163-111-91-213-174-228-185-40-30-461-369-500-402l-34-29 61-55c246-223 573-364 913-395l77-7 5 144c2 79 10 160 16 179 13 44 55 89 146 160 39 30 86 68 106 85 20 16 62 49 95 72 75 54 145 116 280 246l72 68 44-38c25-21 83-68 129-105s140-112 209-168c69-55 128-100 131-100 11 0 101 119 151 200 322 518 312 1178-25 1690-143 216-365 414-595 529-177 89-375 146-583 166l-67 7zm266-23c416-95 768-370 963-752 58-115 98-230 128-367 29-135 32-415 5-550-21-106-67-245-112-343-34-74-132-234-143-234-4 0-62 44-128 98-67 53-156 124-197 157-42 33-76 65-76 70 0 6 15 28 35 49l35 39 41-23c56-32 166-39 236-16 61 21 139 88 176 151 90 153 69 384-45 501l-41 42 15 73c24 112 28 168 17 233-19 114-75 193-176 242-46 22-64 26-108 21-72-7-110-28-182-102-70-73-133-188-160-293l-18-72h-46c-70 0-189 26-213 46-143 125-163 217-152 732 7 289 9 322 24 322 9 0 64-11 122-24zm718-772c69-62 88-174 51-305l-10-35-67 17c-45 12-107 18-180 18-129 1-125-2-91 88 56 151 147 253 225 253 24 0 44-10 72-36zm-66-446c32-6 59-14 61-17 13-21-164-354-208-390-30-25-109 164-126 303-6 46-8 91-4 99 10 27 151 29 277 5zm211-138c28-48 34-180 11-250-36-109-136-174-229-149-23 6-44 13-48 15-4 3 22 49 57 103 61 92 143 247 159 299 10 30 26 24 50-18z" fill="#d02251"/><g fill="#00a071"><path d="m1425 3143c-229-23-525-128-695-247-36-25-83-58-105-72-52-34-285-269-285-287 0-8-7-21-17-28-50-42-175-280-226-430-58-170-72-266-71-494 0-178 3-225 22-311 32-150 66-244 137-389 59-118 198-325 218-325 7 0 195 149 383 303 10 9 44 36 75 61l57 45 88-85c49-47 107-100 129-118 22-19 58-49 80-69l40-36 43 42c39 38 54 67 33 67s-321 275-310 284c2 1 51 41 110 87 58 46 161 129 229 184 182 147 243 195 251 195 3 0 50 44 102 98 99 100 193 216 223 274 9 18 20 35 24 38 16 12 89 231 99 297 15 95 14 144-4 228-20 93-60 169-121 231-45 47-136 104-164 104-6 0-10-26-10-63v-63l44-31c176-124 181-435 12-680-20-29-36-56-36-60-1-25-138-176-210-233-25-19-47-37-50-40-5-6-368-301-507-413-40-31-76-57-81-57s-26 21-47 46l-37 45 29 42c28 39 69 112 72 129 1 4 8 23 17 43 22 53 42 150 50 242l6 81 52 7c125 15 196 36 196 58 0 4-15 28-32 52-21 29-38 42-48 39-31-11-114-24-154-24-37 0-42 3-44 24-4 58-64 198-116 275-75 112-179 177-267 169-105-10-211-108-245-226-19-66-15-191 11-285l15-59-24-19c-71-56-119-172-119-289 0-138 30-223 105-301 61-63 126-93 215-97 61-4 80 0 130 22l57 27 38-41c21-22 38-44 37-48 0-4-64-56-141-117-77-60-166-131-199-158-32-26-62-47-67-47-7 0-14 10-79 113-42 64-108 218-138 318-41 136-57 252-58 409 0 285 64 513 216 770 39 65 145 195 219 266 64 63 200 174 212 174 2 0 34 18 71 41 120 73 340 151 491 174l42 6 7-103c4-57 5-238 3-403-5-329-11-368-68-464l-30-52 30-45c17-24 34-44 39-44 17 0 72 69 96 122 59 130 72 311 58 828l-8 295-30 1c-16 1-48-1-70-3zm-739-912c47-29 121-139 155-231 16-44 29-83 29-85 0-3-48-5-107-5-60-1-137-7-173-15s-70-14-77-15c-16 0-35 90-35 165 0 148 110 246 208 186zm172-451h35l-6-87c-4-49-14-113-23-143-17-61-84-200-95-200-4 0-22 23-40 51s-37 56-44 62c-6 7-37 66-69 132s-62 128-67 137c-11 21-7 24 66 37 95 17 117 19 164 15 24-2 60-4 79-4zm-352-251c38-79 72-134 140-232 31-44 26-54-32-67-85-19-165 25-208 112-47 97-45 224 7 307l21 34 15-34c8-19 34-73 57-120z"/><path d="m1686 1194c-71-177-72-326-2-462 47-91 158-201 275-272 22-14 41-28 41-32s-18-17-40-28-40-23-40-26c0-5 48-92 57-104 2-2 12 0 21 6s44 26 77 44 81 44 108 59c26 14 46 31 43 36-2 6-20 68-41 140-20 72-41 134-45 139-4 4-33 1-64-8-61-18-62-20-35-94 12-30 11-32-3-32-22 1-123 83-176 143-72 83-94 135-100 233-7 126-4 127 118 28l105-85 43 47c35 38 41 49 30 59-7 7-74 60-148 119s-144 115-155 125c-39 34-42 33-69-35z"/><path d="m2119 854-44-45 25-21c44-37 364-293 375-300 30-21-79-103-250-187-127-63-231-99-357-125-112-23-104-28-111 67-6 90-26 164-57 215l-20 33-41-23c-62-34-64-41-39-95 21-44 37-178 40-327v-28l78 7c187 17 410 81 577 166 79 40 214 127 247 158 9 9 46 41 82 71l65 55-22 18c-12 10-47 37-77 61s-134 108-230 186c-96 79-180 147-186 151-6 5-28-9-55-37z"/><path d="m1420 647c-15-12-34-32-44-43-17-21-16-22 49-68l66-46 44 41c25 23 45 44 45 48-1 6-123 91-131 91-2 0-15-10-29-23z"/></g><g fill="#373736"><path d="m5480 2943v-206l-22 21c-67 62-195 56-277-14-60-51-84-120-79-219 5-91 31-151 88-199 62-52 191-61 250-18 37 28 53 28 45 2-6-18-2-20 54-20h61v430 430h-60-60zm-51-270c45-34 63-80 58-153-5-58-8-67-41-97-60-55-131-56-185-2-56 55-63 145-19 218 38 61 128 77 187 34z"/><path d="m6360 2720v-430h55 54l3 102c2 61 7 103 14 105 6 2 46-44 90-101l79-105 73-1h74l-19 24c-10 13-31 41-48 62-16 22-55 71-85 109-31 39-60 76-64 84-6 9 23 44 95 117l104 104h-75-75l-82-82-83-83v263 262h-55-55z"/><path d="m3390 2708v-418h60 60v274 275l193-202c105-111 234-245 284-297l92-95 1 418v417h-60-60v-272l-1-273-187 195c-102 107-230 240-284 295l-98 100z"/><path d="m5741 3053c-11-10-23-33-26-51-4-26 0-38 19-57 14-14 37-25 51-25 33 0 75 42 75 75s-41 75-73 75c-14 0-34-8-46-17z"/><path d="m4336 2785c-99-35-165-129-166-234 0-84 15-132 59-182 66-78 186-109 293-77 52 15 121 78 148 133 28 57 30 161 5 223-21 52-99 124-153 140-52 16-138 15-186-3zm184-115c32-23 60-85 60-133 0-51-39-119-80-139-71-36-157-13-194 52-26 44-27 132-2 178 36 68 149 90 216 42z"/><path d="m4918 2776c-36-24-38-24-38-6s-7 20-55 20h-55v-250-250h55 55v155c0 126 3 162 17 188 24 48 42 58 101 55l52-3 24 51c15 32 19 51 12 52-102 16-132 13-168-12z"/><path d="m6035 2781c-49-22-78-69-79-127-1-60 26-91 123-142 72-39 81-47 81-72 0-37-24-60-61-60-28 0-62 24-71 50-3 10-16 8-51-8-26-12-47-24-47-28s9-22 21-41c28-45 85-73 150-73 100 0 169 59 177 153 5 73-21 108-122 161-88 46-107 65-87 90 19 22 63 20 89-4l22-20 40 25c22 14 40 29 40 33 0 11-50 57-77 71-33 17-103 13-148-8z"/><path d="m5730 2540v-250h55 55v250 250h-55-55z"/><path d="m3658 1974c-123-29-209-97-263-207-82-165-50-364 79-492 61-61 105-83 193-98 174-28 339 54 408 205 24 53 45 143 45 196v22l-162-2-163-3-3-52-3-53h102 101l-6-25c-21-84-79-146-157-169-66-20-102-20-170 0-147 43-229 235-169 396 27 73 70 122 138 155 47 23 69 28 132 27 89 0 132-17 194-74l46-42 45 28c25 16 45 32 45 37 0 4-20 28-46 53-53 53-129 91-211 104-74 13-105 12-175-6z"/><path d="m4669 1912c-49-40-17-122 48-122 67 0 96 68 48 115-29 30-64 32-96 7z"/><path d="m4880 1910c-26-26-26-81-2-103 44-40 122-7 122 51 0 60-78 94-120 52z"/><path d="m4404 1686c-18-8-35-19-38-25-10-16-26-13-26 4 0 12-13 15-55 15h-55v-245-245h55 55v153c0 125 3 158 18 187 27 54 71 69 133 45 12-4 21 7 38 46 11 29 20 53 19 54-2 1-18 7-37 14-43 14-68 14-107-3z"/><path d="m4757 1690c-83-21-152-83-182-162-21-57-17-166 8-215 24-46 76-93 127-117 64-29 169-28 232 3 154 74 193 283 78 414-54 62-178 98-263 77zm159-131c55-50 69-131 35-206-26-57-66-76-144-71-52 4-64 9-88 36-68 76-56 203 24 253 46 29 136 23 173-12z"/><path d="m5376 1685c-21-7-43-18-49-24-15-15-27-14-27 4 0 12-13 15-55 15h-55v-245-245h55 55v146c0 218 19 258 117 252 44-3 50-6 65-38 15-29 18-63 18-197v-163h56 55l-3 204c-3 190-5 207-24 233-45 60-133 84-208 58z"/><path d="m3309 828c18-47 333-803 336-806 1-1 78 179 170 400 92 222 172 409 177 416 8 9-5 12-59 12h-69l-108-270c-60-149-110-270-111-268-2 2-51 123-110 271l-107 267h-64c-62 0-63-1-55-22z"/><path d="m4090 790c-26-26-26-81-2-103 44-40 122-7 122 51 0 60-78 94-120 52z"/><path d="m4302 790c-46-43-15-120 48-120 38 0 70 32 70 70 0 62-73 92-118 50z"/><path d="m5530 655c0-95 0-95-25-95-23 0-25-3-25-50s2-50 25-50h25v-195-195h60 60v195 195h40 40v50 50h-40-40v95 95h-60-60z"/><path d="m4144 571c-140-36-219-198-168-348 47-137 181-205 302-153 29 12 52 26 52 31s5 9 10 9c6 0 10-9 10-20 0-18 7-20 60-20h60v245 245h-60c-58 0-60-1-60-26 0-23-1-24-16-9-41 41-128 62-190 46zm171-143c95-113 23-279-118-269-91 6-147 139-101 237 19 41 33 53 80 69 49 17 107 1 139-37z"/><path d="m4760 569c-19-6-42-17-51-25-20-18-29-18-29 1 0 12-13 15-60 15h-60v-245-245h59 60l3 169c3 154 5 172 24 198 17 23 30 29 70 31 91 5 103-24 104-250v-148h56 55l-3 203c-3 193-4 203-26 235-41 57-127 83-202 61z"/><path d="m5213 570c-73-17-114-69-115-144-1-61 24-91 109-132 40-20 81-47 89-60 15-22 15-26 0-49-31-47-97-39-126 15-11 20-11 20-53-1-23-12-44-23-46-25s8-22 23-45c37-55 101-84 169-75 97 11 157 76 157 170 0 61-34 99-134 150-86 44-90 48-81 75 10 34 58 34 106 0 12-9 23-6 52 12 20 13 37 29 37 35 0 27-95 85-137 83-10-1-33-4-50-9z"/><path d="m5961 570c-51-12-112-60-145-113-25-41-30-61-34-131-4-69-1-90 18-134 55-127 195-174 335-113 36 16 105 81 105 99 0 4-19 17-43 30l-43 23-38-36c-33-31-44-35-89-35-73 0-107 28-131 108l-7 22h180 181v29c0 52-22 126-49 167-44 65-156 105-240 84zm131-117c11-10 26-30 34-45l15-28h-121-120l13 31c26 64 128 88 179 42z"/><path d="m6520 568c-13-5-33-16-42-25-17-15-18-15-18 0 0 14-11 17-60 17h-60v-245-245h60 60v160c0 123 4 168 15 190 18 36 73 56 114 42 27-9 29-8 50 34 11 25 21 49 21 54 0 10-60 27-95 28-11 0-31-4-45-10z"/></g></g></svg>