<?xml version="1.0" encoding="UTF-8" standalone="no"?>
<!-- Created with Inkscape (http://www.inkscape.org/) -->

<svg
   version="1.1"
   id="svg2"
   xml:space="preserve"
   width="193.88226"
   height="120.01387"
   viewBox="0 0 193.88226 120.01386"
   sodipodi:docname="Logo_of_the_Social_Democratic_Party.svg"
   inkscape:version="1.4 (e7c3feb1, 2024-10-09)"
   xmlns:inkscape="http://www.inkscape.org/namespaces/inkscape"
   xmlns:sodipodi="http://sodipodi.sourceforge.net/DTD/sodipodi-0.dtd"
   xmlns="http://www.w3.org/2000/svg"
   xmlns:svg="http://www.w3.org/2000/svg"><defs
     id="defs6"><clipPath
       clipPathUnits="userSpaceOnUse"
       id="clipPath22"><path
         d="M 0,0 H 595.276 V 841.89 H 0 Z"
         id="path20" /></clipPath><clipPath
       clipPathUnits="userSpaceOnUse"
       id="clipPath70"><path
         d="M 0,0 H 595.276 V 841.89 H 0 Z"
         id="path68" /></clipPath><clipPath
       clipPathUnits="userSpaceOnUse"
       id="clipPath94"><path
         d="M 0,0 H 595.276 V 841.89 H 0 Z"
         id="path92" /></clipPath><clipPath
       clipPathUnits="userSpaceOnUse"
       id="clipPath126"><path
         d="M 0,0 H 595.276 V 841.89 H 0 Z"
         id="path124" /></clipPath><clipPath
       clipPathUnits="userSpaceOnUse"
       id="clipPath158"><path
         d="M 0,0 H 595.276 V 841.89 H 0 Z"
         id="path156" /></clipPath><clipPath
       clipPathUnits="userSpaceOnUse"
       id="clipPath194"><path
         d="M 0,0 H 595.276 V 841.89 H 0 Z"
         id="path192" /></clipPath></defs><sodipodi:namedview
     id="namedview4"
     pagecolor="#505050"
     bordercolor="#eeeeee"
     borderopacity="1"
     inkscape:pageshadow="0"
     inkscape:pageopacity="0"
     inkscape:pagecheckerboard="0"
     showgrid="false"
     fit-margin-top="0"
     fit-margin-left="0"
     fit-margin-right="0"
     fit-margin-bottom="0"
     inkscape:zoom="2.0305395"
     inkscape:cx="118.68767"
     inkscape:cy="62.791193"
     inkscape:window-width="1472"
     inkscape:window-height="826"
     inkscape:window-x="0"
     inkscape:window-y="37"
     inkscape:window-maximized="0"
     inkscape:current-layer="g196"
     inkscape:showpageshadow="2"
     inkscape:deskcolor="#d1d1d1" /><g
     id="g8"
     inkscape:groupmode="layer"
     inkscape:label="Javnaðarflokkurin"
     transform="matrix(1.3333333,0,0,-1.3333333,-299.91279,228.02107)"><g
       id="g188"
       style="fill:#d20d44;fill-opacity:1"
       transform="matrix(1.2904823,0,0,1.2904823,-118.94576,-53.372701)"><g
         id="g190"
         clip-path="url(#clipPath194)"
         style="fill:#d20d44;fill-opacity:1"><g
           id="g196"
           transform="translate(324.8003,155.6965)"
           style="fill:#d20d44;fill-opacity:1"><path
             d="m 0,0 c 0,0 0.347,6.756 -6.278,10.495 -4.612,2.605 -10.808,1.294 -13.358,-3.303 -0.37,-0.428 -0.541,0.05 -0.541,0.05 0,-0.021 -0.002,-0.039 -0.003,-0.06 -0.162,0.922 -0.474,1.791 -0.949,2.586 -1.31,2.19 -3.182,3.905 -6.46,4.948 -1.301,0.413 -4.216,0.663 -5.737,0.591 -5.003,-0.237 -7.882,-2.065 -11.608,-4.983 -4.132,-3.237 -7.672,-8.356 -8.062,-13.312 -0.258,-3.266 1.01,-5.47 1.951,-6.631 -1.01,-0.231 -2.839,-0.718 -3.566,-3.514 -1.541,-5.919 2.989,-13.798 10.073,-17.612 6.997,-3.767 19.195,-1.256 23.399,4.672 0.141,0.062 0.301,0.128 0.49,0.199 l 1.732,0.614 c 1.318,0.472 3.373,0.996 4.994,2.142 1.62,1.105 4.241,3.196 4.548,8.359 -0.061,3.81 1.294,10.314 -6.576,14.629 -1.302,0.629 -2.288,1.124 -3.816,1.833 -0.496,0.34 -0.258,0.791 -0.076,1.021 1.456,1.163 4.642,2.831 9.972,1.345 0,0 4.388,-1.505 5.608,-4 0.8,-1.631 -0.625,-3.196 -1.374,-4.545 -0.037,-0.066 -0.047,-0.119 -0.04,-0.162 -0.721,-1.224 -1.227,-2.876 -1.035,-5.07 0.333,-3.814 2.244,-5.491 3.201,-9.339 0.959,-3.848 1.167,-8.434 -3.635,-12.048 -0.258,-0.194 -0.524,-0.389 -0.796,-0.585 -0.409,-0.195 -0.593,0.073 -0.66,0.302 -0.084,0.541 -0.202,1.071 -0.362,1.581 -0.581,1.777 -1.532,3.336 -3.054,4.467 -0.045,0.033 -0.097,0.064 -0.152,0.084 -0.346,0.139 -0.739,-0.03 -0.878,-0.377 l -0.051,-0.128 c -1.214,-3.043 -2.085,-4.936 -3.193,-6.223 -0.887,-1.02 -3.149,-3.326 -8.428,-4.923 -1.98,-0.569 -5.544,-1.419 -7.9,-1.028 -1.855,0.265 -3.978,1.06 -6.325,2.331 -1.194,0.628 -2.406,1.356 -4.009,2.129 -0.408,0.191 -0.85,0.384 -1.36,0.566 -0.257,0.09 -0.528,0.177 -0.828,0.256 l -0.508,0.121 c -0.113,0.023 -0.107,0.013 -0.165,0.023 -0.031,0.007 0.041,-0.012 -0.071,0.015 H -45.9 l -0.028,0.003 -0.054,0.004 c -0.59,0.042 -1.174,0.111 -1.745,0.215 -2.292,0.39 -4.385,1.432 -5.921,3.216 -1.533,1.762 -2.592,4.219 -3.074,6.843 l -0.013,0.065 c -0.038,0.212 -0.194,0.394 -0.414,0.459 -0.312,0.09 -0.638,-0.09 -0.728,-0.402 -0.431,-1.486 -0.536,-2.989 -0.382,-4.537 0.151,-1.54 0.603,-3.095 1.351,-4.545 0.74,-1.455 1.788,-2.783 3.012,-3.924 1.229,-1.135 2.633,-2.074 4.103,-2.827 0.736,-0.374 1.49,-0.701 2.253,-0.987 l 0.071,-0.028 0.036,-0.014 0.018,-0.007 c -0.102,0.025 -0.019,0.003 -0.039,0.007 0.025,-0.012 0.117,-0.041 0.088,-0.041 -0.052,0 -0.025,-0.02 -0.011,-0.038 0.03,-0.036 0.079,-0.083 0.138,-0.14 l 0.469,-0.442 c 0.752,-0.715 1.703,-1.75 2.744,-2.78 2.086,-2.071 4.713,-4.359 8.199,-5.758 1.725,-0.696 3.628,-1.168 5.555,-1.314 1.926,-0.159 3.859,-0.007 5.669,0.374 3.651,0.763 6.747,2.341 9.466,4.193 0.432,0.295 0.768,0.571 1.126,0.864 0.358,0.288 0.697,0.605 1.036,0.931 0.672,0.656 1.304,1.376 1.875,2.167 1.135,1.577 2.004,3.443 2.399,5.394 0.004,0.022 0.007,0.043 0.011,0.065 1.094,0.27 2.194,0.618 3.187,1.065 5.186,2.671 9.209,6.226 10.915,10.561 C 7.79,-17.796 8.96,-7.165 0,0 m -17.181,-4.864 c 0.426,-1.182 1.537,-4.056 1.045,-7.375 -0.312,-1.902 -0.799,-4.61 -5.409,-6.331 -4.057,-1.598 -4.548,-4.057 -9.871,-3.398 -1.099,0.152 -2.215,0.479 -3.282,0.959 -1.057,0.497 -2.058,1.158 -2.938,1.978 -0.869,0.827 -1.621,1.818 -2.158,2.969 -0.542,1.147 -0.868,2.45 -0.973,3.831 l -10e-4,0.008 c -0.01,0.139 -0.104,0.266 -0.245,0.313 -0.189,0.063 -0.393,-0.039 -0.456,-0.228 -0.459,-1.39 -0.653,-2.936 -0.467,-4.493 0.178,-1.556 0.706,-3.116 1.539,-4.508 0.815,-1.409 1.922,-2.649 3.203,-3.688 1.009,-0.826 2.139,-1.517 3.358,-2.056 -1.146,-0.618 -2.55,-1.063 -4.811,-0.803 -3.654,0.419 -6.209,2.454 -7.717,4.539 -2.007,2.775 -1.992,6.394 -1.033,9 0.537,1.46 0.352,2.492 0.013,3.173 1.233,0.219 2.758,0.756 3.847,2.034 1.142,1.338 1.583,3.205 1.312,5.552 -0.232,1.928 0.646,6.158 3.269,9.115 1.902,2.145 4.341,3.402 7.886,3.371 5.512,-0.049 8.125,-3.756 8.994,-5.408 0.005,-0.018 0.005,-0.029 0.011,-0.052 0.294,-1.063 -0.493,-0.923 -0.493,-0.923 0.008,-0.005 0.013,-0.007 0.021,-0.012 -0.943,0.192 -1.898,0.274 -2.938,0.328 -1.475,0.069 -2.547,0.092 -4.011,-0.264 -0.553,-0.139 -0.818,-0.404 -0.665,-0.746 0.119,-0.266 1.057,-0.361 1.057,-0.361 3.411,-0.461 4.721,-0.098 6.995,-1.36 2.299,-1.258 3.504,-2.52 4.918,-5.164"
             style="fill:#c82518;fill-opacity:1;fill-rule:nonzero;stroke:none"
             id="path198" /></g><g
           id="g200"
           transform="translate(300.2658,153.7567)"
           style="fill:#d20d44;fill-opacity:1"><path
             d="M 0,0 C -0.761,0.422 -1.559,0.654 -2.322,0.755 -3.089,0.85 -3.825,0.827 -4.526,0.706 -5.234,0.593 -5.888,0.387 -6.541,0.071 -6.677,0.006 -6.785,-0.116 -6.831,-0.27 c -0.084,-0.292 0.083,-0.598 0.373,-0.684 l 0.066,-0.018 c 1.168,-0.339 2.056,-0.594 2.885,-1.142 0.425,-0.276 1.345,-1.103 1.562,-2.217 0.231,-1.494 0.009,-2.434 -0.634,-3.319 -1.676,-2.29 -3.386,-2.816 -5.267,-3.627 -0.766,-0.3 -1.728,-0.437 -2.529,-0.346 -0.403,0.046 -0.768,0.14 -1.104,0.357 -0.334,0.217 -0.65,0.61 -0.862,1.164 l -0.016,0.043 c -0.052,0.139 -0.162,0.256 -0.312,0.319 -0.285,0.114 -0.609,-0.024 -0.727,-0.312 -0.27,-0.675 -0.343,-1.55 -0.027,-2.393 0.302,-0.849 0.946,-1.56 1.651,-2.05 0.712,-0.493 1.493,-0.804 2.286,-0.99 0.795,-0.177 1.398,-0.229 2.234,-0.149 0.839,0.075 1.893,0.355 3.016,1.005 0.106,0.057 6.683,-0.769 7.691,6.41 0.307,3.002 -0.612,5.224 -1.45,6.435 C 1.477,-1.037 0.757,-0.424 0,0"
             style="fill:#d20d44;fill-opacity:1;fill-rule:nonzero;stroke:none"
             id="path202" /></g></g></g></g></svg>
