<?xml version="1.0" encoding="UTF-8"?>
<!-- Created with Inkscape (http://www.inkscape.org/) -->
<svg width="368.12" height="133.21" version="1.1" viewBox="0 0 97.399 35.244" xmlns="http://www.w3.org/2000/svg" xmlns:cc="http://creativecommons.org/ns#" xmlns:dc="http://purl.org/dc/elements/1.1/" xmlns:rdf="http://www.w3.org/1999/02/22-rdf-syntax-ns#">
 <defs>
  <clipPath id="clipPath892">
   <path d="m0 0h419.53v595.28h-419.53z"/>
  </clipPath>
 </defs>
 <metadata>
  <rdf:RDF>
   <cc:Work rdf:about="">
    <dc:format>image/svg+xml</dc:format>
    <dc:type rdf:resource="http://purl.org/dc/dcmitype/StillImage"/>
    <dc:title/>
   </cc:Work>
  </rdf:RDF>
 </metadata>
 <g transform="translate(-170.53 -120.63)">
  <g transform="matrix(1 0 0 1 79.333 -40.418)">
   <g transform="matrix(.75691 0 0 -.75691 -14.392 228.73)">
    <g clip-path="url(#clipPath892)">
     <g transform="translate(172.73,60.865)">
      <path d="m0 0 15.331 10.685h-18.752l-5.694 17.523-5.693-17.523h-18.077l14.625-10.625-5.754-17.709 14.754 11.17 15.383-11.177zm8.563 8.559-9.208-6.417-2.085 6.417zm-17.678 12.769 6.258-19.26-5.195 1.688v6.929h-4.521zm-1.063-12.769v-6.348l8.07-2.622 4.004-11.546-28.238 20.516zm-9.723-20.427 3.449 10.614 5.394-3.919zm40.69 22.516v-11.454h7.293v-3.272h-11.267v14.726zm20.35-14.726h-11.595v14.726h11.384v-3.272h-7.48v-2.408h5.774v-3.226h-5.774v-2.548h7.691zm6.768 0-5.656 14.726h4.16l3.647-9.794h0.093l3.647 9.794h3.951l-5.657-14.726zm11.187 14.726h3.974v-14.727h-3.974zm16.077-5.09c-0.475 1.052-1.394 1.841-3.044 1.841-2.174 0-3.436-1.613-3.436-4.114s1.262-4.114 3.436-4.114c1.87 0 2.805 1.013 3.213 2.275l3.639-1.211c-0.867-2.694-3.147-4.594-6.829-4.594-4.301 0-7.55 3.109-7.55 7.644s3.249 7.644 7.55 7.644c3.471 0 5.695-1.703 6.665-4.158zm11.672 0.532h0.094l1.683-4.348h-3.46zm-2.057 4.558-5.867-14.726h3.997l1.099 2.851h5.75l1.099-2.851h4.231l-5.868 14.726z" fill="#e7302a"/>
     </g>
    </g>
   </g>
  </g>
 </g>
</svg>
