<?xml version="1.0" encoding="UTF-8" standalone="no"?>
<!DOCTYPE svg PUBLIC "-//W3C//DTD SVG 1.1//EN" "http://www.w3.org/Graphics/SVG/1.1/DTD/svg11.dtd">
<svg width="100%" height="100%" viewBox="0 0 749 210" version="1.1" xmlns="http://www.w3.org/2000/svg" xmlns:xlink="http://www.w3.org/1999/xlink" xml:space="preserve" xmlns:serif="http://www.serif.com/" style="fill-rule:evenodd;clip-rule:evenodd;stroke-linejoin:round;stroke-miterlimit:2;">
    <g id="Group_78" transform="matrix(1,0,0,1,-585.232,-535.101)">
        <g transform="matrix(1.102,0,0,1,585.232,535.1)">
            <g id="Group_77">
                <g id="Group_75">
                    <g id="Group_70">
                        <g id="Rectangle_43" transform="matrix(1,0,0,1,13.773,5.106)">
                            <rect x="0" y="0" width="112.985" height="110.703" style="fill:rgb(221,240,255);"/>
                        </g>
                        <g id="sun" transform="matrix(1,0,0,1,76.156,18.027)">
                            <g id="Group_48">
                                <g id="Group_47">
                                    <circle id="Ellipse_10" cx="19.024" cy="19.024" r="19.024" style="fill:rgb(252,221,102);"/>
                                </g>
                            </g>
                            <g id="Group_50" transform="matrix(1,0,0,1,3.108,3.302)">
                                <g id="Group_49">
                                    <circle id="Ellipse_11" cx="15.749" cy="15.749" r="15.749" style="fill:rgb(251,208,9);"/>
                                </g>
                            </g>
                        </g>
                        <g id="Group_64" transform="matrix(1,0,0,1,31.897,25.969)">
                            <g id="cloud-computing" transform="matrix(1,0,0,1,0,-75.047)">
                                <path d="M46.89,90.708C44.79,80.079 34.914,73.253 24.825,75.462C16.2,77.35 10.006,85.332 9.963,94.611C9.963,95.054 9.98,95.511 10.018,95.987C3.869,96.673 -0.582,102.48 0.063,108.957C0.509,114.787 5.361,119.382 11.207,119.51L46.037,119.51C53.594,119.503 59.715,113.044 59.708,105.083C59.7,97.479 54.092,91.189 46.89,90.708Z" style="fill:rgb(187,222,251);fill-rule:nonzero;"/>
                            </g>
                            <g id="cloud-computing-2" transform="matrix(1,0,0,1,6.558,-68.877)">
                                <path d="M36.283,86.769C34.974,80 28.994,75.065 22.1,75.065C21.129,75.065 20.16,75.163 19.209,75.357C12.507,76.831 7.696,82.827 7.709,89.689C7.709,90.02 7.722,90.36 7.751,90.719C3.344,91.263 -0.004,95.049 -0.004,99.489C-0.004,104.276 3.885,108.237 8.671,108.325L35.622,108.325C41.445,108.182 46.156,103.353 46.156,97.528C46.156,91.952 41.838,87.246 36.282,86.768L36.283,86.769Z" style="fill:rgb(166,211,248);fill-rule:nonzero;"/>
                            </g>
                        </g>
                        <g id="Path_159" transform="matrix(1,0,0,1,-115.078,-116.177)">
                            <path d="M244.991,229.887C244.991,229.887 245.105,242.333 244.991,242.598L183.42,242.245C188.305,237.798 193.191,231.137 198.076,226.693C200.251,224.712 204.831,220.474 209.252,216.411C213.77,212.263 218.125,208.296 219.579,207.121C222.356,204.875 225.41,203.207 228.049,205.176C229.249,206.245 230.36,207.41 231.371,208.659C234.918,212.77 239.756,218.868 241.047,219.304C242.9,219.925 244.622,217.153 246.527,217.65C247.479,217.9 244.991,229.887 244.991,229.887Z" style="fill:rgb(67,175,62);fill-rule:nonzero;"/>
                        </g>
                        <g id="Path_160" transform="matrix(1,0,0,1,-110.713,-109.314)">
                            <path d="M240.632,226.759C240.632,226.759 240.732,243.316 240.632,243.548L183.42,235.661C187.708,231.758 191.996,227.856 196.284,223.955C198.193,222.217 202.213,218.496 206.093,214.93C210.059,211.289 213.881,207.808 215.158,206.776C217.595,204.805 220.276,203.341 222.592,205.069C223.645,206.007 224.621,207.029 225.508,208.126C228.621,211.734 232.867,217.087 234.001,217.469C235.627,218.014 237.139,215.581 238.811,216.017C239.646,216.236 240.632,226.759 240.632,226.759Z" style="fill:rgb(0,162,62);fill-rule:nonzero;"/>
                        </g>
                        <g id="Path_161" transform="matrix(1,0,0,1,24.486,-54.752)">
                            <path d="M93.22,181.358L76.413,184.227L12.4,184.227L12.4,173.576C12.4,173.576 25.412,160.906 27.664,158.918C28.122,158.518 28.601,158.103 29.104,157.739C30.089,156.89 31.366,156.456 32.665,156.529C34.265,156.743 34.973,158.74 36.444,158.941C38.244,159.186 39.934,156.707 40.823,155.4C43.086,152.081 45.347,148.763 47.606,145.445C49.036,143.345 50.815,141.045 53.244,140.985C53.902,140.974 54.554,141.12 55.144,141.412C56.767,142.385 58.133,143.733 59.129,145.342C60.743,147.591 66.309,155.987 67.774,157.702C68.922,159.195 70.684,160.093 72.566,160.146C73.725,160.102 74.858,159.604 76.011,159.729C76.418,159.775 76.815,159.891 77.183,160.072C78.43,160.813 79.491,161.831 80.283,163.047C82.451,165.911 89.323,175.889 93.213,181.356L93.22,181.358Z" style="fill:rgb(115,214,51);fill-rule:nonzero;"/>
                        </g>
                        <g id="Path_162" transform="matrix(1,0,0,1,-2.84,-85.441)">
                            <path d="M117.044,216.01L61.659,216.01L37.019,232.568L37.99,207.7C37.99,207.7 51.833,197.06 54.333,194.462C55.706,193.024 57.676,192.307 59.652,192.526C62.152,192.681 63.761,195.314 66.206,194.25C66.379,194.175 66.546,194.087 66.706,193.987C69.419,192.311 71.227,189.396 73.013,186.787C74.658,184.378 77.713,180.898 79.144,180.508C80.029,180.206 80.987,180.195 81.879,180.474C83.024,180.874 84.198,181.925 85.839,183.965C87.749,186.34 89.415,188.471 91.287,190.878C92.787,192.804 93.871,194.151 94.749,195.078C96.025,196.427 96.849,196.885 97.829,196.93C98.888,196.977 99.893,196.33 100.954,196.339C103.369,196.364 105.183,198.539 106.654,200.521C109.9,204.894 113.8,211.637 117.044,216.01Z" style="fill:rgb(93,191,29);fill-rule:nonzero;"/>
                        </g>
                        <g id="Path_163" transform="matrix(1,0,0,1,-3.981,-77.992)">
                            <path d="M120.545,221.835L62.737,221.835L37.019,241.093L38.033,212.175C38.033,212.175 52.481,199.8 55.091,196.775C56.441,195.136 58.533,194.288 60.643,194.523C63.255,194.703 64.931,197.765 67.484,196.529C67.666,196.441 67.84,196.339 68.006,196.223C70.837,194.274 72.725,190.884 74.589,187.846C76.306,185.046 79.489,180.997 80.989,180.546C81.906,180.195 82.918,180.181 83.844,180.507C85.044,180.978 86.264,182.195 87.977,184.567C89.971,187.329 91.709,189.807 93.663,192.606C95.225,194.846 96.363,196.413 97.276,197.492C98.608,199.061 99.468,199.592 100.491,199.645C101.597,199.699 102.645,198.945 103.753,198.958C106.273,198.988 108.167,201.515 109.703,203.822C113.086,208.908 117.16,216.75 120.545,221.835Z" style="fill:rgb(93,191,29);fill-rule:nonzero;"/>
                        </g>
                        <g id="Path_164" transform="matrix(1,0,0,1,23.787,-116.787)">
                            <path d="M33.792,282.8L104.892,282.8L104.892,267.07C104.892,267.07 108.262,245.26 104.201,241.588C101.707,239.335 98.907,236.953 95.574,236.901C91.848,236.842 88.787,239.683 85.527,241.529C79.548,244.911 75.133,241.158 70.985,236.648C67.625,232.997 64.44,228.848 60.736,227.578C59.357,227.088 57.856,227.058 56.459,227.493C53.653,228.346 51.471,230.547 49.412,232.666C48.341,233.771 47.267,234.878 46.191,235.986C39.434,242.955 33.791,257.58 33.791,257.58L33.792,282.8Z" style="fill:rgb(67,175,62);fill-rule:nonzero;"/>
                        </g>
                        <g id="Path_165" transform="matrix(1,0,0,1,24.516,-108.657)">
                            <path d="M33.064,274.673L103.164,274.673L103.164,265.579C103.164,265.579 108.118,243.07 103.472,239.479C100.978,237.555 98.178,235.522 94.845,235.479C91.119,235.429 88.058,237.854 84.798,239.431C78.819,242.319 74.404,239.115 70.256,235.264C66.896,232.147 63.711,228.607 60.007,227.52C58.616,227.101 57.135,227.076 55.73,227.447C52.924,228.175 50.742,230.054 48.683,231.864C47.612,232.808 46.538,233.753 45.462,234.698C38.705,240.649 33.062,253.543 33.062,253.543L33.064,274.673Z" style="fill:rgb(0,162,62);fill-rule:nonzero;"/>
                        </g>
                        <g id="Path_166" transform="matrix(1,0,0,1,24.516,-100.765)">
                            <path d="M33.064,266.781L105.448,266.781L105.448,257.7C105.448,257.7 108.119,243.044 103.473,239.463C100.979,237.542 98.179,235.512 94.846,235.463C91.12,235.413 88.059,237.834 84.799,239.409C78.82,242.292 74.405,239.093 70.257,235.248C66.897,232.136 63.712,228.601 60.008,227.516C58.616,227.098 57.136,227.072 55.731,227.443C52.925,228.17 50.743,230.043 48.684,231.853C47.613,232.796 46.539,233.739 45.463,234.683C38.706,240.624 33.063,253.499 33.063,253.499L33.064,266.781Z" style="fill:rgb(93,191,29);fill-rule:nonzero;"/>
                        </g>
                        <g id="Path_167" transform="matrix(-3.82857e-16,1,-1,-3.82857e-16,67.027,11.487)">
                            <path d="M0,53.684L197.966,53.684L154.53,0L44.356,0L0,53.684Z" style="fill:rgb(78,99,206);fill-rule:nonzero;"/>
                        </g>
                        <rect id="Rectangle_61" x="0" y="0" width="11.313" height="209.799" style="fill:rgb(78,99,206);"/>
                        <g id="Rectangle_64" transform="matrix(-3.82857e-16,1,-1,-3.82857e-16,132.667,0)">
                            <rect x="0" y="0" width="11.313" height="132.667" style="fill:rgb(78,99,206);"/>
                        </g>
                        <g id="Rectangle_62" transform="matrix(1,0,0,1,121.354,0)">
                            <rect x="0" y="0" width="11.313" height="209.799" style="fill:rgb(78,99,206);"/>
                        </g>
                        <g id="Rectangle_63" transform="matrix(-3.86391e-16,1,-1.09974,-4.24938e-16,632.57,198.486)">
                            <rect x="0" y="0" width="11.313" height="464.852" style="fill:rgb(78,99,206);"/>
                        </g>
                    </g>
                </g>
            </g>
        </g>
        <g transform="matrix(0.837235,0,0,0.837235,578.047,712.492)">
            <path d="M239.771,-90.464L220.719,-115.305L220.719,-90.973L214.019,-90.973L214.019,-130.257L217.369,-130.257L235.912,-106.569L235.912,-130.257L242.612,-130.257L242.612,-90.464L239.771,-90.464Z" style="fill:rgb(78,99,206);fill-rule:nonzero;"/>
            <path d="M273.562,-91L270.694,-98.959L257.242,-98.959L254.509,-91L246.765,-91L262.414,-130.793L265.469,-130.793L281.252,-91L273.562,-91ZM263.942,-118.788L259.225,-104.291L268.658,-104.291L263.942,-118.788ZM271.739,-141.324L265.683,-133.473L260.592,-133.473L265.121,-141.324L271.739,-141.324Z" style="fill:rgb(78,99,206);fill-rule:nonzero;"/>
            <path d="M301.377,-124.067L301.377,-91L294.409,-91L294.409,-124.067L281.922,-124.067L281.922,-130.257L314.427,-130.257L314.427,-124.067L301.377,-124.067Z" style="fill:rgb(78,99,206);fill-rule:nonzero;"/>
            <path d="M334.953,-124.067L334.953,-91L327.986,-91L327.986,-124.067L315.498,-124.067L315.498,-130.257L348.003,-130.257L348.003,-124.067L334.953,-124.067Z" style="fill:rgb(78,99,206);fill-rule:nonzero;"/>
            <path d="M352.558,-130.257L359.525,-130.257L359.525,-103.648C359.525,-101.54 360.168,-99.825 361.455,-98.503C362.741,-97.181 364.509,-96.52 366.76,-96.52C369.279,-96.52 371.24,-97.168 372.642,-98.463C374.045,-99.758 374.746,-101.531 374.746,-103.782L374.746,-130.257L381.713,-130.257L381.713,-103.246C381.713,-99.209 380.36,-96.047 377.653,-93.76C374.947,-91.473 371.334,-90.33 366.814,-90.33C362.259,-90.33 358.744,-91.447 356.27,-93.68C353.795,-95.913 352.558,-99.11 352.558,-103.273L352.558,-130.257ZM374.719,-141.324L368.663,-133.473L363.572,-133.473L368.1,-141.324L374.719,-141.324Z" style="fill:rgb(78,99,206);fill-rule:nonzero;"/>
            <path d="M411.886,-91L401.408,-107.212C400.354,-107.23 398.881,-107.292 396.987,-107.4L396.987,-91L389.752,-91L389.752,-130.257C390.145,-130.257 391.654,-130.324 394.281,-130.458C396.907,-130.592 399.024,-130.659 400.631,-130.659C410.6,-130.659 415.584,-126.8 415.584,-119.083C415.584,-116.761 414.896,-114.644 413.521,-112.732C412.145,-110.821 410.412,-109.472 408.322,-108.686L419.925,-91L411.886,-91ZM396.987,-124.201L396.987,-113.295C398.273,-113.188 399.256,-113.134 399.935,-113.134C402.847,-113.134 404.977,-113.545 406.326,-114.367C407.674,-115.188 408.349,-116.787 408.349,-119.163C408.349,-121.093 407.625,-122.441 406.178,-123.21C404.731,-123.978 402.454,-124.362 399.345,-124.362C398.595,-124.362 397.809,-124.308 396.987,-124.201Z" style="fill:rgb(78,99,206);fill-rule:nonzero;"/>
            <path d="M423.275,-130.257L430.242,-130.257L430.242,-103.648C430.242,-101.54 430.885,-99.825 432.171,-98.503C433.457,-97.181 435.226,-96.52 437.477,-96.52C439.996,-96.52 441.956,-97.168 443.359,-98.463C444.761,-99.758 445.462,-101.531 445.462,-103.782L445.462,-130.257L452.429,-130.257L452.429,-103.246C452.429,-99.209 451.076,-96.047 448.37,-93.76C445.663,-91.473 442.05,-90.33 437.53,-90.33C432.975,-90.33 429.46,-91.447 426.986,-93.68C424.512,-95.913 423.275,-99.11 423.275,-103.273L423.275,-130.257Z" style="fill:rgb(78,99,206);fill-rule:nonzero;"/>
            <path d="M460.468,-91L460.468,-130.257L467.435,-130.257L467.435,-97.19L485.175,-97.19L485.175,-91L460.468,-91Z" style="fill:rgb(78,99,206);fill-rule:nonzero;"/>
            <path d="M497.769,-124.067L497.769,-114.876L510.739,-114.876L510.739,-108.954L497.769,-108.954L497.769,-97.19L515.562,-97.19L515.562,-91L490.802,-91L490.802,-130.257L515.857,-130.257L515.857,-124.067L497.769,-124.067Z" style="fill:rgb(78,99,206);fill-rule:nonzero;"/>
            <path d="M551.014,-127.068L548.093,-121.468C547.272,-122.2 546.003,-122.928 544.288,-123.652C542.573,-124.375 541.099,-124.737 539.867,-124.737C536.008,-124.737 532.962,-123.428 530.729,-120.811C528.496,-118.194 527.38,-114.688 527.38,-110.294C527.38,-106.113 528.474,-102.773 530.662,-100.272C532.85,-97.771 535.829,-96.52 539.599,-96.52C542.082,-96.52 544.127,-97.199 545.735,-98.557L545.735,-106.274L540.295,-106.274L540.295,-112.223L552.702,-112.223L552.702,-94.644C551.041,-93.287 548.902,-92.228 546.285,-91.469C543.667,-90.71 541.064,-90.33 538.473,-90.33C532.846,-90.33 528.384,-92.175 525.088,-95.864C521.792,-99.553 520.144,-104.425 520.144,-110.481C520.144,-116.537 521.94,-121.459 525.531,-125.246C529.121,-129.033 533.954,-130.927 540.028,-130.927C544.333,-130.927 547.995,-129.641 551.014,-127.068Z" style="fill:rgb(78,99,206);fill-rule:nonzero;"/>
            <path d="M574.836,-124.067L574.836,-91L567.869,-91L567.869,-124.067L555.382,-124.067L555.382,-130.257L587.886,-130.257L587.886,-124.067L574.836,-124.067Z" style="fill:rgb(78,99,206);fill-rule:nonzero;"/>
            <path d="M588.878,-100.084L595.095,-100.084C595.684,-97.797 597.596,-96.654 600.829,-96.654C603.116,-96.654 604.728,-97.395 605.666,-98.878C606.604,-100.361 607.073,-102.612 607.073,-105.631L607.073,-130.257L614.04,-130.257L614.04,-105.845C614.04,-100.629 612.932,-96.761 610.717,-94.242C608.502,-91.724 604.947,-90.464 600.052,-90.464C596.801,-90.464 594.175,-91.313 592.174,-93.01C590.173,-94.707 589.074,-97.065 588.878,-100.084Z" style="fill:rgb(78,99,206);fill-rule:nonzero;"/>
            <path d="M644.588,-91L641.721,-98.959L628.269,-98.959L625.536,-91L617.791,-91L633.441,-130.793L636.495,-130.793L652.279,-91L644.588,-91ZM634.968,-118.788L630.252,-104.291L639.684,-104.291L634.968,-118.788Z" style="fill:rgb(78,99,206);fill-rule:nonzero;"/>
            <path d="M663.399,-124.067L663.399,-114.876L677.2,-114.876L677.2,-108.954L663.399,-108.954L663.399,-91L656.432,-91L656.432,-130.257L682.291,-130.257L682.291,-124.067L663.399,-124.067Z" style="fill:rgb(78,99,206);fill-rule:nonzero;"/>
            <path d="M714.206,-90.464L695.153,-115.305L695.153,-90.973L688.454,-90.973L688.454,-130.257L691.804,-130.257L710.347,-106.569L710.347,-130.257L717.046,-130.257L717.046,-90.464L714.206,-90.464Z" style="fill:rgb(78,99,206);fill-rule:nonzero;"/>
            <path d="M739.716,-90.464L735.884,-90.464L721.2,-130.257L728.864,-130.257L737.948,-103.728L747.541,-130.257L755.044,-130.257L739.716,-90.464Z" style="fill:rgb(78,99,206);fill-rule:nonzero;"/>
            <path d="M786.798,-124.067L786.798,-114.876L799.767,-114.876L799.767,-108.954L786.798,-108.954L786.798,-97.19L804.591,-97.19L804.591,-91L779.831,-91L779.831,-98.959L767.879,-98.959L762.976,-91L755.231,-91L779.027,-130.257L804.886,-130.257L804.886,-124.067L786.798,-124.067ZM779.831,-104.291L779.831,-119.86L770.398,-104.291L779.831,-104.291Z" style="fill:rgb(78,99,206);fill-rule:nonzero;"/>
            <path d="M839.507,-127.068L836.586,-121.468C835.764,-122.2 834.496,-122.928 832.781,-123.652C831.066,-124.375 829.592,-124.737 828.359,-124.737C824.501,-124.737 821.455,-123.428 819.222,-120.811C816.989,-118.194 815.872,-114.688 815.872,-110.294C815.872,-106.113 816.966,-102.773 819.155,-100.272C821.343,-97.771 824.322,-96.52 828.091,-96.52C830.575,-96.52 832.62,-97.199 834.228,-98.557L834.228,-106.274L828.788,-106.274L828.788,-112.223L841.195,-112.223L841.195,-94.644C839.534,-93.287 837.394,-92.228 834.777,-91.469C832.16,-90.71 829.556,-90.33 826.966,-90.33C821.339,-90.33 816.877,-92.175 813.581,-95.864C810.285,-99.553 808.637,-104.425 808.637,-110.481C808.637,-116.537 810.433,-121.459 814.023,-125.246C817.614,-129.033 822.446,-130.927 828.52,-130.927C832.826,-130.927 836.488,-129.641 839.507,-127.068Z" style="fill:rgb(78,99,206);fill-rule:nonzero;"/>
        </g>
        <g transform="matrix(0.589791,0,0,0.589791,631.005,736.321)">
            <path d="M218.361,-129.373L243.442,-88.856L248.587,-88.856L248.587,-131.731L245.372,-131.731L245.372,-91L245.157,-91L219.861,-131.731L214.716,-131.731L214.716,-88.856L218.146,-88.856L218.146,-129.373L218.361,-129.373Z" style="fill:rgb(78,99,206);fill-rule:nonzero;"/>
            <path d="M263.808,-105.577L282.887,-105.577L273.454,-128.301L273.24,-128.301L263.808,-105.577ZM289.961,-89.071L284.173,-102.791L262.736,-102.791L256.733,-89.071L253.303,-89.071L271.525,-131.945L274.955,-131.945L293.606,-89.071L289.961,-89.071Z" style="fill:rgb(78,99,206);fill-rule:nonzero;"/>
            <path d="M329.191,-128.944L313.757,-128.944L313.757,-89.071L310.541,-89.071L310.541,-128.944L295.106,-128.944L295.106,-131.731L329.191,-131.731L329.191,-128.944Z" style="fill:rgb(78,99,206);fill-rule:nonzero;"/>
            <path d="M366.064,-131.731L366.064,-106.864C366.207,-96.288 361.562,-91 352.129,-91C342.983,-91 338.481,-96.288 338.624,-106.864L338.624,-131.731L335.408,-131.731L335.408,-106.864C335.265,-94.43 340.839,-88.285 352.129,-88.428C363.706,-88.285 369.422,-94.43 369.279,-106.864L369.279,-131.731L366.064,-131.731Z" style="fill:rgb(78,99,206);fill-rule:nonzero;"/>
            <path d="M382.356,-128.944L382.356,-111.151L397.791,-111.151C405.937,-111.008 409.939,-114.009 409.796,-120.155C409.796,-126.014 405.794,-128.944 397.791,-128.944L382.356,-128.944ZM416.656,-89.071L412.154,-89.071L396.29,-108.364L382.356,-108.364L382.356,-89.071L379.14,-89.071L379.14,-131.731L398.863,-131.731C408.009,-131.445 412.797,-127.515 413.226,-119.94C413.226,-112.652 408.867,-108.793 400.149,-108.364L416.656,-89.071Z" style="fill:rgb(78,99,206);fill-rule:nonzero;"/>
            <path d="M428.018,-105.577L447.097,-105.577L437.664,-128.301L437.45,-128.301L428.018,-105.577ZM454.171,-89.071L448.383,-102.791L426.946,-102.791L420.943,-89.071L417.513,-89.071L435.735,-131.945L439.165,-131.945L457.815,-89.071L454.171,-89.071Z" style="fill:rgb(78,99,206);fill-rule:nonzero;"/>
            <path d="M489.114,-88.856L489.114,-91.429L465.318,-91.429L465.318,-131.731L462.103,-131.731L462.103,-88.856L489.114,-88.856Z" style="fill:rgb(78,99,206);fill-rule:nonzero;"/>
            <path d="M527.272,-109.865L513.981,-109.865L513.981,-91.643L528.13,-91.643C535.847,-91.643 539.706,-94.859 539.706,-101.29C539.277,-106.864 535.133,-109.722 527.272,-109.865ZM526.629,-128.944L513.981,-128.944L513.981,-112.652L526.629,-112.652C533.918,-112.652 537.634,-115.581 537.777,-121.441C537.634,-126.3 533.918,-128.801 526.629,-128.944ZM528.773,-89.071L510.98,-89.071L510.98,-131.731L527.701,-131.731C536.133,-131.302 540.635,-127.872 541.207,-121.441C541.064,-115.724 537.991,-112.366 531.989,-111.365C539.134,-110.079 542.85,-106.506 543.136,-100.647C542.993,-93.072 538.205,-89.214 528.773,-89.071Z" style="fill:rgb(78,99,206);fill-rule:nonzero;"/>
            <path d="M557.07,-105.577L576.149,-105.577L566.717,-128.301L566.503,-128.301L557.07,-105.577ZM583.224,-89.071L577.436,-102.791L555.998,-102.791L549.996,-89.071L546.566,-89.071L564.788,-131.945L568.218,-131.945L586.868,-89.071L583.224,-89.071Z" style="fill:rgb(78,99,206);fill-rule:nonzero;"/>
            <path d="M618.167,-88.856L618.167,-91.429L594.371,-91.429L594.371,-131.731L591.156,-131.731L591.156,-88.856L618.167,-88.856Z" style="fill:rgb(78,99,206);fill-rule:nonzero;"/>
            <path d="M630.815,-105.577L649.894,-105.577L640.461,-128.301L640.247,-128.301L630.815,-105.577ZM656.968,-89.071L651.18,-102.791L629.743,-102.791L623.74,-89.071L620.31,-89.071L638.532,-131.945L641.962,-131.945L660.612,-89.071L656.968,-89.071Z" style="fill:rgb(78,99,206);fill-rule:nonzero;"/>
            <path d="M668.973,-129.373L694.055,-88.856L699.2,-88.856L699.2,-131.731L695.984,-131.731L695.984,-91L695.77,-91L670.474,-131.731L665.329,-131.731L665.329,-88.856L668.759,-88.856L668.759,-129.373L668.973,-129.373Z" style="fill:rgb(78,99,206);fill-rule:nonzero;"/>
            <path d="M741.217,-103.434L744.861,-102.362C742.574,-93.215 736.358,-88.57 726.211,-88.428C713.92,-89.285 707.489,-96.431 706.917,-109.865C707.632,-124.156 714.277,-131.659 726.854,-132.374C735.143,-132.088 740.859,-127.944 744.004,-119.94L740.359,-119.083C737.93,-125.657 733.285,-129.087 726.425,-129.373C716.421,-128.515 711.062,-122.156 710.347,-110.294C710.919,-98.289 716.135,-91.857 725.996,-91C734.285,-91 739.359,-95.145 741.217,-103.434Z" style="fill:rgb(78,99,206);fill-rule:nonzero;"/>
            <path d="M755.58,-91.429L784.091,-91.429L784.091,-89.071L752.364,-89.071L752.364,-131.731L783.02,-131.731L783.02,-128.944L755.58,-128.944L755.58,-112.437L781.519,-112.437L781.519,-109.65L755.58,-109.65L755.58,-91.429Z" style="fill:rgb(78,99,206);fill-rule:nonzero;"/>
        </g>
    </g>
</svg>
