<?xml version="1.0" encoding="UTF-8" standalone="no"?>
<!-- Created with Inkscape (http://www.inkscape.org/) -->

<svg
   width="146.69737mm"
   height="46.106449mm"
   viewBox="0 0 146.69738 46.106449"
   version="1.1"
   id="svg1"
   xml:space="preserve"
   xmlns="http://www.w3.org/2000/svg"
   xmlns:svg="http://www.w3.org/2000/svg"><defs
     id="defs1" /><path
     id="path1-4"
     style="display:inline;fill:#033e68;fill-opacity:1"
     d="m 56.79558,0.02285703 c -0.235561,-0.15293 -2.058754,0.48923 -3.12539,1.10070997 -2.853931,1.6361 -4.803958,4.08272 -5.929871,7.44089 -0.491437,1.46577 -0.527524,1.79224 -0.444934,4.00699 0.05502,1.47527 0.221105,2.81928 0.427881,3.46284 0.397127,1.23595 0.654564,1.30342 2.349211,0.61236 1.696163,-0.69169 2.56927,-1.30726 4.183724,-2.94762 1.498067,-1.52211 2.331379,-2.8861 3.138309,-5.13871 0.517432,-1.44446 0.50859,-5.77186 -0.01499,-7.30136 C 57.172058,0.65290703 56.909172,0.09655703 56.795576,0.02285703 Z m -18.005102,0.13798 c -0.31064,0.11921 -1.162952,1.83081997 -1.594218,3.20134997 -0.143383,0.45566 -0.249597,1.79576 -0.246497,3.10575 0.0065,2.70201 0.401277,4.08265 1.779737,6.22495 0.870421,1.35274 2.665821,3.09002 3.906738,3.78013 0.385673,0.21449 0.762535,0.39552 0.837675,0.40152 0.292951,0.0247 1.039614,-1.29134 1.508952,-2.65978 0.707291,-2.06228 0.705293,-5.22263 -0.0047,-7.29258 C 44.35806,5.113917 43.61793,3.838687 42.485811,2.628387 41.416435,1.485137 39.198595,0.00421703 38.790429,0.16083703 Z M 67.433174,2.915207 c -2.459711,0.11013 -4.721046,1.20026 -6.574792,3.18327 -0.903868,0.9669 -1.847928,2.58843 -2.096513,3.60081 -0.118017,0.48063 -0.05291,0.55293 0.737939,0.82579 1.328325,0.45829 5.017103,0.44709 6.279203,-0.0191 2.877546,-1.06305 4.803246,-2.85833 5.997567,-5.59191 0.351985,-0.80564 0.353442,-0.87231 0.02842,-1.23145 -0.389437,-0.43031 -1.168118,-0.60792 -3.306258,-0.75395 -0.358882,-0.0245 -0.71418,-0.0292 -1.065568,-0.0134 z M 25.39853,7.598337 c -1.812457,-0.0494 -3.363009,0.14701 -3.543969,0.61856 -0.06463,0.16843 -0.0063,0.76784 0.129191,1.33222 0.663695,2.76441 1.759208,4.85769 3.505212,6.69624 1.830037,1.92701 3.225316,2.88127 5.627047,3.84834 0.449236,0.18089 1.941766,0.54892 2.704744,0.66714 1.752893,0.2716 5.217059,0.004 5.658053,-0.43666 0.237656,-0.23765 0.04767,-1.30178 -0.569474,-3.19361 -1.23832,-3.79601 -4.329138,-6.99108 -8.39432,-8.6775 -1.229447,-0.51004 -3.304024,-0.8053 -5.116484,-0.85473 z m -18.123958,4.6855 c -1.419194,10e-5 -2.591619,0.28592 -3.181718,0.77566 -0.294238,0.2442 -0.277505,0.35185 0.187069,1.19631 0.280676,0.51019 0.71119,1.15751 0.957047,1.43867 0.547135,0.62567 2.024553,1.65688 2.952792,2.06138 1.532256,0.66771 6.197038,0.24217 6.197038,-0.56534 0,-0.13324 -0.346762,-0.77455 -0.770496,-1.42524 -1.506648,-2.31362 -3.633779,-3.48164 -6.341732,-3.48144 z m 55.442611,0.44287 c -4.158198,-0.24672 -8.238132,2.16964 -10.113595,5.99033 -0.413217,0.84181 -0.751375,1.59056 -0.751375,1.66346 0,0.22491 1.421898,0.74117 2.797245,1.01545 0.720341,0.14366 1.44495,0.26936 1.610238,0.27956 0.743393,0.0459 3.642332,-0.59567 4.529956,-1.00252 0.89487,-0.41018 2.688279,-1.5804 3.187919,-2.07997 1.279478,-1.27931 2.767248,-3.83863 2.661853,-4.57854 -0.08555,-0.60063 -1.794465,-1.16151 -3.922241,-1.28777 z m -39.114409,6.06939 c -1.473008,0.006 -2.932995,0.49226 -3.309358,1.10123 -0.338202,0.54722 1.141323,1.82144 2.701644,2.32699 1.49596,0.4847 3.371589,0.16933 4.475179,-0.75293 l 0.640271,-0.53536 -0.731222,-0.6904 c -1.184956,-1.11854 -2.066907,-1.45653 -3.776514,-1.44953 z m 8.738485,3.65971 v 5.2e-4 c -1.068551,-0.003 -2.155242,0.0723 -2.727999,0.22686 -1.970029,0.53152 -3.740429,1.5998 -5.203816,3.14037 -0.774242,0.81508 -1.405932,1.59427 -1.403532,1.73168 0.0087,0.51096 2.212488,1.76059 3.979602,2.25671 v 5.2e-4 c 0.956108,0.26796 4.421273,0.27375 5.532995,0.009 1.989566,-0.47405 4.201737,-1.93514 5.615161,-3.70778 0.65403,-0.82024 0.825237,-1.17276 0.690398,-1.42472 -0.190096,-0.3552 -2.583416,-1.58905 -3.863847,-1.99213 -0.499887,-0.15738 -1.550411,-0.238 -2.618962,-0.24081 z m -22.468913,0.27905 c -1.314556,0.0237 -2.601873,0.21745 -3.449401,0.57361 -1.868967,0.7854 -2.889545,1.46637 -4.1625371,2.77864 -0.9625922,0.99228 -2.09857984,2.78563 -2.09857984,3.31298 0,0.32142 1.38575634,1.02772 2.74505204,1.39888 v -5.2e-4 c 1.4676829,0.40077 4.1565279,0.37364 5.5696859,-0.0563 1.174951,-0.35755 2.705506,-1.00254 2.905249,-1.22422 0.0551,-0.0611 0.469256,-0.36136 0.920357,-0.66714 0.846311,-0.57366 1.217499,-0.95499 2.094963,-2.15129 0.604184,-0.82373 1.392163,-2.16291 1.392163,-2.36627 0,-0.19572 -1.09299,-0.74195 -2.304252,-1.15186 -0.956533,-0.32371 -2.298141,-0.47014 -3.6127,-0.44649 z m 49.078658,0.39894 c -1.842483,-0.0617 -3.725674,0.32804 -5.402254,1.15342 l -1.30483,0.64234 0.551388,1.03715 c 0.303244,0.57039 1.229073,1.71345 2.057755,2.53989 1.785062,1.78024 3.052413,2.47483 5.814633,3.18844 2.637479,0.68138 8.213968,-0.62801 8.213968,-1.92857 0,-0.30675 -1.278423,-2.25034 -2.0314,-3.08818 -1.02707,-1.14283 -2.848355,-2.28786 -4.680335,-2.94246 -1.022926,-0.3655 -2.113434,-0.56498 -3.218925,-0.60203 z m -18.254182,5.77371 c -0.625781,0 -1.459624,0.10129 -1.853117,0.2248 -3.837567,1.20449 -6.468157,3.89544 -7.327718,7.49566 -0.301897,1.26449 -0.390205,2.94138 -0.166399,3.16519 0.429118,0.42909 3.23225,-0.13334 4.999695,-1.00304 3.243415,-1.59603 5.485454,-5.18855 5.485454,-8.79017 v -1.09244 z m 8.694042,0.43305 c -0.281045,0.049 -0.398956,0.23824 -0.524515,0.59842 -0.317751,0.91151 -0.273177,4.75389 0.07028,6.07249 1.358697,5.21641 5.249504,8.87598 10.628808,9.99629 1.239987,0.25824 1.278629,0.19112 1.442806,-2.50372 0.203134,-3.3343 -0.593771,-6.13249 -2.502689,-8.78654 -1.764913,-2.45385 -4.557033,-4.33642 -7.611422,-5.13199 -0.778055,-0.20266 -1.22222,-0.29394 -1.503268,-0.24495 z m -4.353222,0.80926 c -0.106288,0.002 -0.214996,0.0948 -0.418579,0.27905 -0.642369,0.58134 -1.309442,1.86661 -1.582333,3.04839 -0.195878,0.84808 -0.194291,1.25388 0.0088,2.0035 0.303304,1.11974 0.856855,2.27795 1.301213,2.72231 0.45233,0.45233 0.576426,0.41224 1.179773,-0.37879 1.426785,-1.87059 1.726519,-4.06926 0.816488,-5.99291 -0.275345,-0.58204 -0.681235,-1.22153 -0.901754,-1.4211 -0.193672,-0.17526 -0.297305,-0.26286 -0.403593,-0.26045 z m -41.472404,2.3817 c -0.1173716,-0.0141 -0.2661965,0.0505 -0.5281333,0.18397 -2.21011574,1.12615 -3.35862894,3.19434 -2.95847564,5.32732 0.1004802,0.53561 0.2248391,0.68162 0.578776,0.68162 0.42490924,0 1.64027804,-0.70441 2.22622064,-1.29036 C 3.898204,36.419517 4.51425,33.633977 3.904235,32.819877 3.7684,32.638597 3.682609,32.545627 3.565238,32.531517 Z m 58.403153,1.20251 c -1.24368,0.077 -1.301507,0.51598 -0.839225,1.78491 0.893415,2.45236 2.629908,4.16453 5.047754,4.97695 1.35481,0.45524 3.613156,0.5579 4.398698,0.19999 0.597407,-0.2722 0.589613,-0.22318 0.201021,-1.33893 -1.209899,-3.47397 -3.68481,-5.41254 -7.144783,-5.59656 -0.702854,-0.0374 -1.248903,-0.052 -1.663465,-0.0264 z" /><path
     style="display:inline;fill:#f3c807"
     d="m 44.439221,27.974877 c -2.253284,-0.74234 -3.405939,-2.24707 -3.405939,-4.44626 0,-1.9964 0.91001,-3.51215 2.559792,-4.26372 1.413107,-0.64374 3.442292,-0.48225 4.679119,0.37239 1.07243,0.74104 1.622003,1.57626 1.954862,2.97094 0.518707,2.17337 -0.987398,4.66717 -3.202339,5.30241 -0.705699,0.20239 -2.063741,0.23614 -2.585495,0.0642 z"
     id="path4" /><text
     xml:space="preserve"
     style="font-style:normal;font-variant:normal;font-weight:275;font-stretch:normal;font-size:3.175px;font-family:'Avenir Next';-inkscape-font-specification:'Avenir Next weight=275';text-align:start;writing-mode:lr-tb;direction:ltr;text-anchor:start;white-space:pre;inline-size:34.5002;fill:#033e68;fill-opacity:1;stroke-width:1.4;stroke-dasharray:1.4, 1.4"
     x="83.533073"
     y="10.441634"
     id="text1"
     transform="matrix(4.5301266,0,0,4.5301266,-297.04548,-24.114673)"><tspan
       x="83.533073"
       y="10.441634"
       id="tspan3">Piuanadi</tspan></text><text
     xml:space="preserve"
     style="font-style:normal;font-variant:normal;font-weight:275;font-stretch:normal;font-size:3.175px;font-family:'Avenir Next';-inkscape-font-specification:'Avenir Next weight=275';text-align:start;writing-mode:lr-tb;direction:ltr;text-anchor:start;white-space:pre;inline-size:34.5002;fill:#033e68;fill-opacity:1;stroke-width:1.4;stroke-dasharray:1.4, 1.4"
     x="83.533073"
     y="10.441634"
     id="text1-8"
     transform="matrix(4.5301266,0,0,4.5301266,-296.2702,-11.08225)"><tspan
       x="83.533073"
       y="10.441634"
       id="tspan5"><tspan
         style="font-weight:bold;-inkscape-font-specification:'Avenir Next Bold'"
         id="tspan4">nunaadin</tspan></tspan></text></svg>
