<?xml version="1.0" encoding="UTF-8" standalone="no"?>
<svg xmlns:svg="http://www.w3.org/2000/svg"
     xmlns="http://www.w3.org/2000/svg" version="1.1"
     width="360.0" height="185.0">
    <!-- Created with parliamentarch (https://github.com/Gouvernathor/parliamentarch/) -->
    <text x="180.0" y="175.0"
          style="font-size:36px;font-weight:bold;text-align:center;text-anchor:middle;font-family:sans-serif">81</text>
    <g style="fill:#fadf6d"
       id="0-Party-1">
        <title>Party 1</title>
        <circle cx="15.01" cy="170.28" r="7.78"/>
        <circle cx="34.49" cy="170.28" r="7.78"/>
        <circle cx="53.99" cy="170.28" r="7.78"/>
        <circle cx="73.50" cy="170.28" r="7.78"/>
        <circle cx="93.04" cy="170.28" r="7.78"/>
        <circle cx="18.35" cy="145.54" r="7.78"/>
        <circle cx="38.14" cy="146.21" r="7.78"/>
        <circle cx="58.40" cy="145.54" r="7.78"/>
    </g>
    <g style="fill:#48d1cc"
       id="1-Party-6">
        <title>Party 6</title>
        <circle cx="78.44" cy="146.49" r="7.78"/>
    </g>
    <g style="fill:#00b878"
       id="2-Party-2">
        <title>Party 2</title>
        <circle cx="25.39" cy="121.58" r="7.78"/>
        <circle cx="45.73" cy="123.08" r="7.78"/>
        <circle cx="99.52" cy="145.67" r="7.78"/>
        <circle cx="67.62" cy="122.16" r="7.78"/>
        <circle cx="35.95" cy="98.96" r="7.78"/>
        <circle cx="88.62" cy="124.44" r="7.78"/>
        <circle cx="57.07" cy="101.54" r="7.78"/>
        <circle cx="49.80" cy="78.19" r="7.78"/>
        <circle cx="81.29" cy="101.07" r="7.78"/>
        <circle cx="112.80" cy="123.96" r="7.78"/>
        <circle cx="71.84" cy="82.18" r="7.78"/>
    </g>
    <g style="fill:#66ccff"
       id="3-Party-4">
        <title>Party 4</title>
        <circle cx="103.52" cy="105.25" r="7.78"/>
        <circle cx="66.62" cy="59.74" r="7.78"/>
        <circle cx="98.86" cy="83.10" r="7.78"/>
    </g>
    <g style="fill:#c82518"
       id="4-Party-3">
        <title>Party 3</title>
        <circle cx="89.61" cy="65.56" r="7.78"/>
        <circle cx="86.03" cy="44.04" r="7.78"/>
        <circle cx="131.77" cy="106.99" r="7.78"/>
        <circle cx="122.37" cy="89.91" r="7.78"/>
        <circle cx="109.91" cy="52.11" r="7.78"/>
        <circle cx="119.64" cy="68.96" r="7.78"/>
    </g>
    <g style="fill:#e89445"
       id="5-Party-5">
        <title>Party 5</title>
        <circle cx="107.58" cy="31.43" r="7.78"/>
        <circle cx="144.19" cy="79.23" r="7.78"/>
        <circle cx="132.16" cy="42.24" r="7.78"/>
        <circle cx="130.78" cy="22.22" r="7.78"/>
        <circle cx="142.80" cy="59.21" r="7.78"/>
        <circle cx="154.82" cy="96.20" r="7.78"/>
        <circle cx="155.74" cy="36.20" r="7.78"/>
        <circle cx="155.11" cy="16.61" r="7.78"/>
        <circle cx="167.85" cy="73.75" r="7.78"/>
        <circle cx="167.43" cy="54.24" r="7.78"/>
        <circle cx="180.00" cy="34.17" r="7.78"/>
        <circle cx="180.00" cy="92.50" r="7.78"/>
        <circle cx="180.00" cy="14.72" r="7.78"/>
    </g>
    <g style="fill:#5dab43"
       id="6-Party-7">
        <title>Party 7</title>
        <circle cx="192.57" cy="54.24" r="7.78"/>
        <circle cx="192.15" cy="73.75" r="7.78"/>
        <circle cx="204.89" cy="16.61" r="7.78"/>
        <circle cx="204.26" cy="36.20" r="7.78"/>
        <circle cx="205.18" cy="96.20" r="7.78"/>
        <circle cx="217.20" cy="59.21" r="7.78"/>
        <circle cx="229.22" cy="22.22" r="7.78"/>
        <circle cx="227.84" cy="42.24" r="7.78"/>
        <circle cx="215.81" cy="79.23" r="7.78"/>
        <circle cx="252.42" cy="31.43" r="7.78"/>
        <circle cx="240.36" cy="68.96" r="7.78"/>
        <circle cx="250.09" cy="52.11" r="7.78"/>
        <circle cx="237.63" cy="89.91" r="7.78"/>
    </g>
    <g style="fill:#000000"
       id="7-Party-11">
        <title>Party 11</title>
        <circle cx="228.23" cy="106.99" r="7.78"/>
        <circle cx="273.97" cy="44.04" r="7.78"/>
        <circle cx="270.39" cy="65.56" r="7.78"/>
        <circle cx="261.14" cy="83.10" r="7.78"/>
        <circle cx="293.38" cy="59.74" r="7.78"/>
        <circle cx="256.48" cy="105.25" r="7.78"/>
    </g>
    <g style="fill:#033e68"
       id="8-Party-8">
        <title>Party 8</title>
        <circle cx="288.16" cy="82.18" r="7.78"/>
        <circle cx="247.20" cy="123.96" r="7.78"/>
        <circle cx="278.71" cy="101.07" r="7.78"/>
        <circle cx="310.20" cy="78.19" r="7.78"/>
        <circle cx="302.93" cy="101.54" r="7.78"/>
        <circle cx="271.38" cy="124.44" r="7.78"/>
        <circle cx="324.05" cy="98.96" r="7.78"/>
        <circle cx="292.38" cy="122.16" r="7.78"/>
        <circle cx="260.48" cy="145.67" r="7.78"/>
        <circle cx="314.27" cy="123.08" r="7.78"/>
    </g>
    <g style="fill:#377db4"
       id="9-Party-9">
        <title>Party 9</title>
        <circle cx="334.61" cy="121.58" r="7.78"/>
        <circle cx="281.56" cy="146.49" r="7.78"/>
        <circle cx="301.60" cy="145.54" r="7.78"/>
        <circle cx="321.86" cy="146.21" r="7.78"/>
        <circle cx="341.65" cy="145.54" r="7.78"/>
        <circle cx="266.96" cy="170.28" r="7.78"/>
        <circle cx="286.50" cy="170.28" r="7.78"/>
        <circle cx="306.01" cy="170.28" r="7.78"/>
    </g>
    <g style="fill:#a1359b"
       id="10-Party-10">
        <title>Party 10</title>
        <circle cx="325.51" cy="170.28" r="7.78"/>
        <circle cx="344.99" cy="170.28" r="7.78"/>
    </g>
</svg>

