<?xml version="1.0" encoding="UTF-8" standalone="no"?>
<svg
   viewBox="0 0 223911.12 52017.176"
   version="1.1"
   id="svg12"
   sodipodi:docname="communi.svg"
   width="223911.12"
   height="52017.176"
   xmlns:inkscape="http://www.inkscape.org/namespaces/inkscape"
   xmlns:sodipodi="http://sodipodi.sourceforge.net/DTD/sodipodi-0.dtd"
   xmlns="http://www.w3.org/2000/svg"
   xmlns:svg="http://www.w3.org/2000/svg">
  <defs
     id="defs12" />
  <sodipodi:namedview
     id="namedview12"
     pagecolor="#ffffff"
     bordercolor="#000000"
     borderopacity="0.25"
     inkscape:showpageshadow="2"
     inkscape:pageopacity="0.0"
     inkscape:pagecheckerboard="0"
     inkscape:deskcolor="#d1d1d1">
    <inkscape:page
       x="0"
       y="0"
       width="223911.12"
       height="52017.176"
       id="page2"
       margin="0"
       bleed="0" />
  </sodipodi:namedview>
  <path
     fill="#e31b22"
     d="m -12124.132,150.43298 27.247,-3.82934 c 4.255,-0.59733 8.189,2.36667 8.787,6.62267 l 2.193,14.57467 c 0.599,4.25466 -2.367,8.18933 -6.621,8.788 l -17.088,2.4 -6.688,14.40533 -1.855,-13.204 -1.616,0.22667 c -4.256,0.59866 -8.189,-2.36667 -8.788,-6.62134 l -2.192,-14.57466 c -0.599,-4.256 2.367,-8.19067 6.621,-8.788 m -37.39,0.53733 15.853,-1.94667 c 2.476,-0.304 4.729,1.45734 5.033,3.93334 l 1.34,10.91733 c 0.304,2.476 -1.456,4.73067 -3.932,5.03467 l -9.942,1.22 -4.028,8.29333 -0.943,-7.68267 -0.94,0.11467 c -2.476,0.304 -4.729,-1.456 -5.033,-3.932 l -1.34,-10.91867 c -0.304,-2.476 1.456,-4.72933 3.932,-5.03333 M -12278.276,7.1489752 c 0,0 13.207,5.7599998 26.063,9.2493328 12.857,3.489333 20.272,4.652 32.135,8.306667 11.862,3.654666 18.169,9.302666 18.809,11.343999 0.205,0.656 -11.781,34.898666 -13.287,39.490666 -4.69,14.316 -19.61,38.09467 -19.61,38.09467 -2.798,-0.93333 -45.334,-16.789337 -53.084,-18.02267 -7.752,-1.233334 -14.859,-4.902667 -14.859,-4.902667 0,0 15.42,-49.361332 19.928,-66.421332 4.508,-17.0613325 3.905,-17.1386658 3.905,-17.1386658 m 54.91,113.2226648 46.149,14.99467 c 3.771,1.22533 5.835,5.27467 4.609,9.04533 l -10.769,33.14534 c -1.225,3.77066 -5.275,5.83466 -9.045,4.60933 l -37.148,-12.06933 -11.372,9.24 3.801,-11.7 -1.431,-0.46534 c -3.77,-1.22533 -5.834,-5.27466 -4.609,-9.04533 l 10.769,-33.14533 c 1.226,-3.77067 5.275,-5.83467 9.046,-4.60934 m 36.973,-68.455999 27.247,-3.829334 c 4.254,-0.597333 8.189,2.366667 8.786,6.622667 l 5.595,41.670666 c 0.597,4.256 -2.367,8.18934 -6.621,8.788 l -17.088,2.40134 -6.688,14.404 -1.856,-13.204 -1.615,0.228 c -4.256,0.59733 -8.189,-2.36667 -8.788,-6.62267 l -5.593,-41.67067 c -0.599,-4.255999 2.366,-8.189333 6.621,-8.787999"
     id="path10"
     style="fill:#830000;fill-opacity:1" />
  <path
     fill="#e31b22"
     d="m -12154.524,109.37298 21.151,7.28266 c 3.304,1.13734 5.06,4.73734 3.923,8.04 l -5.016,14.568 c -1.138,3.30267 -4.738,5.05867 -8.042,3.92134 l -13.264,-4.56667 -10.161,7.96533 3.529,-10.24933 -1.254,-0.432 c -3.304,-1.13733 -5.059,-4.73733 -3.922,-8.04 l 5.016,-14.568 c 1.138,-3.30267 4.738,-5.05867 8.04,-3.92133 m 47.302,-18.044007 27.778,8.493333 c 4.339,1.326674 6.78,5.918674 5.454,10.257334 l -5.85,19.132 c -1.325,4.33734 -5.917,6.78 -10.256,5.45334 l -17.421,-5.32667 -12.827,10.79867 4.116,-13.46134 -1.648,-0.504 c -4.337,-1.32666 -6.78,-5.91866 -5.453,-10.25733 l 5.849,-19.132004 c 1.327,-4.338666 5.919,-6.779999 10.258,-5.453333 m -316.299,-70.439998 c 0,0 -2.212,20.245333 -1.001,26.417332 1.212,6.172 6.666,44.857333 4.261,57.818673 -0.268,1.44 17.189,1.48266 20.58,-0.95734 3.389,-2.44133 4.321,-5.592 13.275,-8.030667 8.954,-2.44 16.753,-1.158667 23.282,2.382667 6.53,3.54267 30.49,10.36934 38.778,9.64 8.289,-0.72933 20.488,5.39334 23.458,7.29334 2.971,1.90133 9.159,-79.897339 9.639,-85.398672 0.48,-5.502667 -85.256,-27.6453327 -93.691,-27.7959994 -8.433,-0.1506666 -19.088,-1.87333317 -24.828,-2.17333317 -5.74,-0.3013334 -10.952,0.2986666 -10.952,0.2986666 l -2.801,20.50533297"
     id="path11"
     style="fill:#830000;fill-opacity:1" />
  <path
     fill="#e31b22"
     d="m -12501.472,62.23964 c 0,0 -2.425,21.002667 -0.996,27.416 1.43,6.413333 7.931,46.60134 5.24,60.04 -0.298,1.49334 19.778,1.64 23.662,-0.87333 3.884,-2.51333 77.13,5.296 86.658,4.588 9.527,-0.708 23.594,5.71867 27.02,7.70933 3.427,1.99067 10.062,-82.88 10.582,-88.588 0.52,-5.708 -98.207,-29.197332 -107.907,-29.403999 -9.7,-0.205333 -21.963,-2.056 -28.565,-2.402667 -6.603,-0.345333 -12.592,0.246667 -12.592,0.246667 l -3.102,21.267999 m 240.276,5.716 c 0,0 14.104,2.478667 27.486,3.718667 13.382,1.241333 20.961,1.486667 33.38,2.872 12.418,1.385333 12.253,0.678666 14.6,0.662666 2.348,-0.01733 3.168,3.337334 3.168,3.337334 0,0 0.301,0.965333 -2.194,9.866666 -2.492,8.902667 -7.02,32.136007 -7.244,36.096007 -0.222,3.96 0.738,9.20133 -7.066,8.244 -7.804,-0.95734 -14.052,-1.792 -23.824,-2.22934 -9.771,-0.43733 -25.339,-2.584 -33.266,-2.84933 -7.924,-0.26667 -15.608,-1.916 -15.608,-1.916 0,0 7.26,-28.132004 8.951,-37.812004 1.692,-9.678666 1.617,-19.990666 1.617,-19.990666"
     id="path12"
     style="fill:#830000;fill-opacity:1"
     inkscape:export-filename="path12.svg"
     inkscape:export-xdpi="96"
     inkscape:export-ydpi="96" />
</svg>
