<?xml version="1.0" encoding="UTF-8"?>
<svg width="256" height="256" version="1.1" viewBox="0 0 67.7333 67.7333" xmlns="http://www.w3.org/2000/svg"><g transform="translate(-1.54771 -1.56222)" fill="#d72d34"><path d="m19.0523 27.771a17.3293 17.333 0 0 0-7.55513 1.54907 17.3293 17.333 0 0 0-9.94949 13.1503h4.98783a12.4554 12.4581 0 0 1 6.97842-8.71228 12.4554 12.4581 0 0 1 5.275-1.11585 12.4554 12.4581 0 0 1 11.2177 7.30286l3.48643 7.67313a12.4554 12.4581 0 0 1 3.23206-4.66915l-2.28145-5.02091a17.3293 17.333 0 0 0-15.3913-10.1571z"/><path d="m18.8598 36.4354a8.66465 8.66652 0 0 0-3.77756 0.774402 8.66465 8.66652 0 0 0-4.62478 5.26053h5.51721a3.79078 3.7916 0 0 1 1.12433-0.822537 3.79078 3.7916 0 0 1 1.65265-0.3388 3.79078 3.7916 0 0 1 3.36691 2.22191l3.22333 7.09392 3.96504 8.7263 0.0093-4e-3a17.3293 17.333 0 0 0 13.1382 9.94846v-4.95743a12.4554 12.4581 0 0 1-8.6684-6.99815l-0.04205-0.00585-4.97805-10.9559-2.21032-4.86434a8.66465 8.66652 0 0 0-7.6958-5.07854z"/><path d="m34.4163 18.8706a8.66465 8.66652 0 0 0-0.774234-3.77838 8.66465 8.66652 0 0 0-5.2594-4.62578v5.5184a3.79078 3.7916 0 0 1 0.82236 1.12457 3.79078 3.7916 0 0 1 0.338727 1.65301 3.79078 3.7916 0 0 1-2.22143 3.36764l-7.09239 3.22403-8.72441 3.9659 0.0043 0.0093a17.3293 17.333 0 0 0-9.94637 13.141h4.95637a12.4554 12.4581 0 0 1 6.9964-8.67022l0.0058-0.04207 10.9535-4.97913 4.86329-2.2108a8.66465 8.66652 0 0 0 5.07747-7.69746z"/><path d="m51.7764 43.0866a17.3293 17.333 0 0 0 7.55513-1.54907 17.3293 17.333 0 0 0 9.94949-13.1503h-4.98784a12.4554 12.4581 0 0 1-6.97842 8.71228 12.4554 12.4581 0 0 1-5.275 1.11585 12.4554 12.4581 0 0 1-11.2177-7.30285l-3.48643-7.67313a12.4554 12.4581 0 0 1-3.23206 4.66915l2.28145 5.02091a17.3293 17.333 0 0 0 15.3913 10.1571z"/><path d="m51.9689 34.4222a8.66465 8.66652 0 0 0 3.77756-0.774404 8.66465 8.66652 0 0 0 4.62478-5.26053h-5.51722a3.79078 3.7916 0 0 1-1.12434 0.822538 3.79078 3.7916 0 0 1-1.65265 0.338798 3.79078 3.7916 0 0 1-3.36691-2.2219l-3.22333-7.09392-3.96504-8.7263-0.0093 0.0041a17.3293 17.333 0 0 0-13.1381-9.94833v4.95744a12.4554 12.4581 0 0 1 8.66835 6.99791l0.04205 0.0058 4.97805 10.9559 2.21032 4.86434a8.66465 8.66652 0 0 0 7.6958 5.07857z"/><path d="m36.4123 51.9869a8.66465 8.66652 0 0 0 0.774234 3.77838 8.66465 8.66652 0 0 0 5.2594 4.62577v-5.5184a3.79078 3.7916 0 0 1-0.82236-1.12458 3.79078 3.7916 0 0 1-0.338727-1.653 3.79078 3.7916 0 0 1 2.22143-3.36764l7.09238-3.22403 8.72442-3.9659-4e-3 -0.0093a17.3293 17.333 0 0 0 9.94633-13.141h-4.95636a12.4554 12.4581 0 0 1-6.9964 8.67022l-0.0058 0.04205-10.9535 4.97912-4.86329 2.2108a8.66465 8.66652 0 0 0-5.0776 7.69746z"/></g></svg>
