<?xml version="1.0" encoding="UTF-8" standalone="no"?>
<!-- Generator: Adobe Illustrator 16.0.0, SVG Export Plug-In . SVG Version: 6.00 Build 0)  -->

<svg
   xmlns:dc="http://purl.org/dc/elements/1.1/"
   xmlns:cc="http://creativecommons.org/ns#"
   xmlns:rdf="http://www.w3.org/1999/02/22-rdf-syntax-ns#"
   xmlns:svg="http://www.w3.org/2000/svg"
   xmlns="http://www.w3.org/2000/svg"
   xmlns:sodipodi="http://sodipodi.sourceforge.net/DTD/sodipodi-0.dtd"
   xmlns:inkscape="http://www.inkscape.org/namespaces/inkscape"
   version="1.1"
   id="Layer_1"
   x="0px"
   y="0px"
   width="400.00003"
   height="135.04924"
   viewBox="214.5 347.5 400.00003 135.04924"
   enable-background="new 214.5 347.5 194 107"
   xml:space="preserve"
   inkscape:version="0.48.2 r9819"
   sodipodi:docname="Høyre Logo.svg"><metadata
   id="metadata29"><rdf:RDF><cc:Work
       rdf:about=""><dc:format>image/svg+xml</dc:format><dc:type
         rdf:resource="http://purl.org/dc/dcmitype/StillImage" /><dc:title></dc:title></cc:Work></rdf:RDF></metadata><defs
   id="defs27"><clipPath
     clipPathUnits="userSpaceOnUse"
     id="clipPath170"><path
       inkscape:connector-curvature="0"
       d="m 0,0 722.835,0 0,481.89 L 0,481.89 0,0 z"
       id="path172" /></clipPath></defs><sodipodi:namedview
   pagecolor="#ffffff"
   bordercolor="#666666"
   borderopacity="1"
   objecttolerance="10"
   gridtolerance="10"
   guidetolerance="10"
   inkscape:pageopacity="0"
   inkscape:pageshadow="2"
   inkscape:window-width="1048"
   inkscape:window-height="741"
   id="namedview25"
   showgrid="false"
   fit-margin-top="0"
   fit-margin-left="0"
   fit-margin-bottom="0"
   fit-margin-right="0"
   inkscape:zoom="1"
   inkscape:cx="193.02122"
   inkscape:cy="65.38257"
   inkscape:window-x="1920"
   inkscape:window-y="0"
   inkscape:window-maximized="0"
   inkscape:current-layer="Layer_1" />

<g
   id="g158"
   transform="matrix(2.1712689,0,0,-2.1712689,337.67391,457.40988)"><path
     inkscape:connector-curvature="0"
     d="m 0,0 c 0,-3.268 -2.638,-5.94 -5.86,-5.94 l -45.009,0 c -3.221,0 -5.86,2.672 -5.86,5.94 l 0,44.577 c 0,3.27 2.639,5.945 5.86,5.945 l 45.009,0 C -2.638,50.522 0,47.847 0,44.577 L 0,0 z"
     style="fill:#ea4125;fill-opacity:1;fill-rule:nonzero;stroke:none"
     id="path160" /></g><g
   id="g162"
   transform="matrix(2.1712689,0,0,-2.1712689,308.39651,388.28948)"><path
     inkscape:connector-curvature="0"
     d="m 0,0 -31.905,-32.025 -5.079,5.057 L -5.133,5.002 -30.085,5 l 0,7.165 37.225,0 L 7.222,-24.98 0.052,-24.993 0,0 z"
     style="fill:#ffffff;fill-opacity:1;fill-rule:nonzero;stroke:none"
     id="path164" /></g><g
   transform="matrix(2.1712689,0,0,-2.1712689,-618.48933,1233.7879)"
   id="g166"><g
     id="g168"
     clip-path="url(#clipPath170)"><g
       id="g174"
       transform="translate(465.2964,400.6606)"><path
         inkscape:connector-curvature="0"
         d="m 0,0 c 0,2.28 -1.517,3.249 -4.553,3.249 -0.637,0 -2.157,-0.061 -2.703,-0.12 l 0,-6.827 c 0.485,-0.03 2.188,-0.093 2.703,-0.093 3.127,0 4.553,0.85 4.553,3.521 L 0,0 z m 4.553,-15.93 -3.706,0 c -0.333,0 -0.455,0.306 -0.608,0.606 l -4.367,8.104 -0.425,0 c -0.785,0 -2,0.09 -2.703,0.119 l 0,-8.223 c 0,-0.329 -0.242,-0.606 -0.576,-0.606 l -3.034,0 c -0.334,0 -0.606,0.277 -0.606,0.606 l 0,20.882 c 0,0.607 0.362,0.815 0.972,0.905 1.571,0.249 3.729,0.398 5.947,0.398 4.675,0 8.74,-1.674 8.74,-6.861 l 0,-0.27 c 0,-3.22 -1.608,-5.222 -4.099,-6.19 l 4.767,-8.864 c 0.058,-0.09 0.058,-0.183 0.058,-0.241 0,-0.212 -0.119,-0.365 -0.36,-0.365"
         style="fill:#006485;fill-opacity:1;fill-rule:nonzero;stroke:none"
         id="path176" /></g><g
       id="g178"
       transform="translate(482.1396,394.8667)"><path
         inkscape:connector-curvature="0"
         d="m 0,0 c 0,2.366 -1.305,3.732 -3.182,3.732 -1.882,0 -3.25,-1.335 -3.25,-3.732 l 0,-0.125 6.432,0 L 0,0 z m 3.432,-2.974 -9.892,0 0,-0.095 c 0,-1.755 0.729,-3.846 3.642,-3.846 2.213,0 4.31,0.179 5.584,0.302 l 0.092,0 c 0.298,0 0.544,-0.157 0.544,-0.46 l 0,-2 c 0,-0.489 -0.091,-0.699 -0.636,-0.786 -1.977,-0.371 -3.161,-0.523 -5.887,-0.523 -3.039,0 -7.348,1.642 -7.348,7.621 l 0,2.246 c 0,4.734 2.644,7.706 7.287,7.706 4.674,0 7.219,-3.185 7.219,-7.706 l 0,-1.703 c 0,-0.486 -0.182,-0.756 -0.605,-0.756"
         style="fill:#006485;fill-opacity:1;fill-rule:nonzero;stroke:none"
         id="path180" /></g><g
       id="g182"
       transform="translate(498.1944,405.1519)"><path
         inkscape:connector-curvature="0"
         d="m 0,0 -1.363,0 c -1.459,0 -1.795,-0.329 -1.795,-1.818 l 0,-1.487 2.916,0 c 0.334,0 0.607,-0.275 0.607,-0.606 l 0,-1.822 c 0,-0.333 -0.273,-0.575 -0.607,-0.575 l -2.916,0 0,-13.477 c 0,-0.33 -0.274,-0.636 -0.604,-0.636 l -2.761,0 c -0.336,0 -0.637,0.306 -0.637,0.636 l 0,13.477 -2.703,0.427 c -0.332,0.054 -0.606,0.235 -0.606,0.572 l 0,1.398 c 0,0.331 0.274,0.606 0.606,0.606 l 2.703,0 0,1.487 c 0,3.918 2.09,4.855 5.25,4.855 0.724,0 1.242,-0.125 1.822,-0.244 0.24,-0.06 0.541,-0.209 0.541,-0.485 l 0,-1.79 C 0.453,0.156 0.209,0 0,0"
         style="fill:#006485;fill-opacity:1;fill-rule:nonzero;stroke:none"
         id="path184" /></g><g
       id="g186"
       transform="translate(510.8018,394.4995)"><path
         inkscape:connector-curvature="0"
         d="M 0,0 C 0,2.49 -1.123,4.1 -3.25,4.1 -5.377,4.1 -6.496,2.49 -6.496,0 l 0,-2.454 c 0,-2.488 1.119,-4.094 3.246,-4.094 2.127,0 3.25,1.606 3.25,4.094 L 0,0 z m -3.25,-10.014 c -4.762,0 -7.252,3.219 -7.252,7.56 l 0,2.454 c 0,4.345 2.49,7.558 7.252,7.558 C 1.512,7.558 4,4.345 4,0 l 0,-2.454 c 0,-4.341 -2.488,-7.56 -7.25,-7.56"
         style="fill:#006485;fill-opacity:1;fill-rule:nonzero;stroke:none"
         id="path188" /></g><g
       id="g190"
       transform="translate(525.6183,398.6626)"><path
         inkscape:connector-curvature="0"
         d="m 0,0 c -1.641,0 -2.912,-0.429 -4.188,-1.095 l 0,-12.201 c 0,-0.33 -0.269,-0.635 -0.607,-0.635 l -2.789,0 c -0.334,0 -0.606,0.305 -0.606,0.635 l 0,15.873 c 0,0.332 0.272,0.608 0.606,0.608 l 2.639,0 c 0.336,0 0.611,-0.276 0.611,-0.608 l 0,-0.639 C -2.85,3.09 -1.213,3.395 0,3.395 c 0.336,0 0.607,-0.268 0.607,-0.608 l 0,-2.179 C 0.607,0.27 0.336,0 0,0"
         style="fill:#006485;fill-opacity:1;fill-rule:nonzero;stroke:none"
         id="path192" /></g><g
       id="g194"
       transform="translate(550.3447,384.731)"><path
         inkscape:connector-curvature="0"
         d="m 0,0 -2.793,0 c -0.334,0 -0.605,0.306 -0.605,0.636 l 0,10.32 c 0,2.332 -0.485,2.942 -2.186,2.942 -0.576,0 -1.729,-0.183 -2.826,-0.755 0.094,-0.671 0.125,-1.43 0.125,-2.187 l 0,-10.32 C -8.285,0.306 -8.559,0 -8.894,0 l -2.791,0 c -0.334,0 -0.602,0.306 -0.602,0.636 l 0,10.32 c 0,2.332 -0.397,2.942 -2.096,2.942 -0.636,0 -1.552,-0.332 -2.795,-1.001 l 0,-12.261 C -17.178,0.306 -17.453,0 -17.785,0 l -2.791,0 c -0.336,0 -0.604,0.306 -0.604,0.636 l 0,15.873 c 0,0.332 0.268,0.607 0.604,0.607 l 2.642,0 c 0.334,0 0.606,-0.275 0.606,-0.607 l 0,-0.639 c 1.273,0.821 2.547,1.456 4.338,1.456 1.732,0 2.853,-0.513 3.551,-1.364 1.548,0.851 2.914,1.364 5.007,1.364 4.125,0 5.039,-2.822 5.039,-6.37 l 0,-10.32 C 0.607,0.306 0.334,0 0,0"
         style="fill:#006485;fill-opacity:1;fill-rule:nonzero;stroke:none"
         id="path196" /></g><g
       id="g198"
       transform="translate(567.2568,384.731)"><path
         inkscape:connector-curvature="0"
         d="m 0,0 -2.791,0 c -0.334,0 -0.607,0.276 -0.607,0.605 l 0,0.697 c -1.577,-1.026 -2.825,-1.515 -4.766,-1.515 -1.516,0 -2.852,0.393 -3.732,1.276 -1.121,1.122 -1.514,3 -1.514,5.521 l 0,9.894 c 0,0.335 0.271,0.638 0.6,0.638 l 2.8,0 c 0.33,0 0.602,-0.303 0.602,-0.638 l 0,-9.894 c 0,-1.513 0.123,-2.4 0.699,-2.917 0.424,-0.363 0.942,-0.543 1.881,-0.543 1.123,0 2.58,0.758 3.43,1.221 l 0,12.133 c 0,0.335 0.273,0.638 0.607,0.638 l 2.791,0 c 0.338,0 0.609,-0.303 0.609,-0.638 l 0,-15.873 C 0.609,0.276 0.338,0 0,0"
         style="fill:#006485;fill-opacity:1;fill-rule:nonzero;stroke:none"
         id="path200" /></g><g
       id="g202"
       transform="translate(465.296,367.8423)"><path
         inkscape:connector-curvature="0"
         d="m 0,0 c 0,2.548 -1.517,3.519 -4.553,3.519 -0.637,0 -2.157,-0.06 -2.703,-0.124 l 0,-7.22 c 0.485,-0.029 2.188,-0.094 2.703,-0.094 3.274,0 4.553,1.216 4.553,3.643 L 0,0 z m -4.553,-7.374 c -0.785,0 -1.999,0.089 -2.703,0.117 l 0,-7.924 c 0,-0.335 -0.241,-0.606 -0.575,-0.606 l -3.035,0 c -0.334,0 -0.605,0.271 -0.605,0.606 l 0,20.887 c 0,0.605 0.361,0.817 0.971,0.909 1.571,0.24 3.729,0.393 5.947,0.393 4.675,0 8.741,-1.633 8.741,-7.008 l 0,-0.276 c 0,-5.371 -4.066,-7.098 -8.741,-7.098"
         style="fill:#006485;fill-opacity:1;fill-rule:nonzero;stroke:none"
         id="path204" /></g><g
       id="g206"
       transform="translate(480.0597,359.5844)"><path
         inkscape:connector-curvature="0"
         d="m 0,0 -1.916,0 c -2.76,0 -3.369,-0.879 -3.369,-2.579 l 0,-0.118 c 0,-1.488 0.665,-1.887 2.185,-1.887 1.094,0 2.217,0.368 3.1,0.853 L 0,0 z m 3.395,-7.529 -2.581,0 c -0.328,0 -0.603,0.271 -0.603,0.606 l 0,0.493 c -1.399,-0.852 -2.826,-1.34 -4.28,-1.34 -2.523,0 -5.248,0.976 -5.248,5.073 l 0,0.118 c 0,3.463 2.124,5.255 7.401,5.255 l 1.916,0 0,1.329 c 0,1.977 -0.883,2.458 -2.676,2.458 -1.944,0 -3.943,-0.119 -4.944,-0.239 l -0.151,0 c -0.309,0 -0.55,0.091 -0.55,0.515 l 0,1.942 c 0,0.332 0.186,0.544 0.581,0.639 1.213,0.243 2.969,0.483 5.064,0.483 C 1.635,9.803 4,7.89 4,4.005 L 4,-6.923 C 4,-7.258 3.728,-7.529 3.395,-7.529"
         style="fill:#006485;fill-opacity:1;fill-rule:nonzero;stroke:none"
         id="path208" /></g><g
       id="g210"
       transform="translate(495.9189,365.9839)"><path
         inkscape:connector-curvature="0"
         d="m 0,0 c -1.635,0 -2.91,-0.417 -4.188,-1.09 l 0,-12.198 c 0,-0.333 -0.273,-0.641 -0.605,-0.641 l -2.791,0 c -0.338,0 -0.609,0.308 -0.609,0.641 l 0,15.871 c 0,0.339 0.271,0.608 0.609,0.608 l 2.637,0 c 0.336,0 0.609,-0.269 0.609,-0.608 l 0,-0.636 C -2.85,3.102 -1.211,3.402 0,3.402 c 0.334,0 0.608,-0.271 0.608,-0.607 l 0,-2.184 C 0.608,0.279 0.334,0 0,0"
         style="fill:#006485;fill-opacity:1;fill-rule:nonzero;stroke:none"
         id="path212" /></g><g
       id="g214"
       transform="translate(508.7374,352.0287)"><path
         inkscape:connector-curvature="0"
         d="m 0,0 c -0.729,-0.123 -1.397,-0.213 -2.064,-0.213 -3.432,0 -4.827,0.757 -4.827,4.827 l 0,9.527 -2.851,0.425 c -0.338,0.061 -0.61,0.275 -0.61,0.609 l 0,1.363 c 0,0.338 0.272,0.609 0.61,0.609 l 2.851,0 0,2.489 c 0,0.336 0.272,0.547 0.61,0.606 l 2.824,0.49 0.117,0 c 0.276,0 0.486,-0.158 0.486,-0.46 l 0,-3.125 2.729,0 c 0.338,0 0.609,-0.271 0.609,-0.609 l 0,-1.796 c 0,-0.323 -0.271,-0.601 -0.609,-0.601 l -2.729,0 0,-9.527 c 0,-1.516 0.092,-1.699 1.184,-1.699 l 1.609,0 c 0.393,0 0.637,-0.158 0.637,-0.459 l 0,-1.912 C 0.576,0.235 0.396,0.059 0,0"
         style="fill:#006485;fill-opacity:1;fill-rule:nonzero;stroke:none"
         id="path216" /></g><g
       id="g218"
       transform="translate(515.5831,352.0551)"><path
         inkscape:connector-curvature="0"
         d="M 0,0 -2.795,0 C -3.127,0 -3.4,0.308 -3.4,0.641 l 0,15.871 c 0,0.338 0.273,0.608 0.605,0.608 l 2.795,0 c 0.334,0 0.606,-0.27 0.606,-0.608 l 0,-15.871 C 0.606,0.308 0.334,0 0,0 m 0.09,19.401 -2.944,0 c -0.334,0 -0.636,0.269 -0.636,0.602 l 0,2.672 c 0,0.334 0.302,0.61 0.636,0.61 l 2.944,0 c 0.334,0 0.609,-0.276 0.609,-0.61 l 0,-2.672 c 0,-0.333 -0.275,-0.602 -0.609,-0.602"
         style="fill:#006485;fill-opacity:1;fill-rule:nonzero;stroke:none"
         id="path220" /></g><g
       id="g222"
       transform="translate(523.5812,371.4556)"><path
         inkscape:connector-curvature="0"
         d="m 0,0 -2.908,0 c -0.336,0 -0.61,0.27 -0.61,0.602 l 0,2.673 c 0,0.333 0.274,0.609 0.61,0.609 l 2.908,0 c 0.336,0 0.639,-0.276 0.639,-0.609 l 0,-2.673 C 0.639,0.27 0.336,0 0,0 m -3.94,-25.465 c -0.673,0 -1.277,0.057 -2.005,0.185 -0.393,0.052 -0.576,0.236 -0.576,0.546 l 0,1.97 c 0,0.302 0.24,0.485 0.634,0.485 l 1.366,0 c 0.976,0 1.064,0.393 1.064,1.606 l 0,17.784 c 0,0.338 0.273,0.609 0.607,0.609 l 2.793,0 c 0.332,0 0.604,-0.271 0.604,-0.609 l 0,-17.784 c 0,-3.702 -1.668,-4.792 -4.487,-4.792"
         style="fill:#006485;fill-opacity:1;fill-rule:nonzero;stroke:none"
         id="path224" /></g><g
       id="g226"
       transform="translate(536.6064,359.5844)"><path
         inkscape:connector-curvature="0"
         d="m 0,0 -1.912,0 c -2.76,0 -3.367,-0.879 -3.367,-2.579 l 0,-0.118 c 0,-1.488 0.668,-1.887 2.183,-1.887 1.094,0 2.215,0.368 3.096,0.853 L 0,0 z m 3.396,-7.529 -2.574,0 c -0.338,0 -0.611,0.271 -0.611,0.606 l 0,0.493 c -1.393,-0.852 -2.82,-1.34 -4.277,-1.34 -2.516,0 -5.248,0.976 -5.248,5.073 l 0,0.118 c 0,3.463 2.121,5.255 7.402,5.255 l 1.912,0 0,1.329 c 0,1.977 -0.881,2.458 -2.67,2.458 -0.926,0 -2.939,0 -4.949,-0.239 l -0.151,0 c -0.302,0 -0.548,0.091 -0.548,0.515 l 0,1.942 c 0,0.332 0.183,0.544 0.574,0.639 1.219,0.243 2.978,0.483 5.074,0.483 4.307,0 6.676,-1.913 6.676,-5.798 l 0,-10.928 c 0,-0.335 -0.272,-0.606 -0.61,-0.606"
         style="fill:#006485;fill-opacity:1;fill-rule:nonzero;stroke:none"
         id="path228" /></g></g></g></svg>