<?xml version="1.0" encoding="UTF-8" standalone="no"?>
<!-- Created with Inkscape (http://www.inkscape.org/) -->

<svg
   version="1.1"
   id="svg2"
   width="324"
   height="216"
   viewBox="0 0 324 216"
   sodipodi:docname="Flag_of_Shichikashuku,_Miyagi.svg"
   inkscape:version="1.4 (e7c3feb1, 2024-10-09)"
   xmlns:inkscape="http://www.inkscape.org/namespaces/inkscape"
   xmlns:sodipodi="http://sodipodi.sourceforge.net/DTD/sodipodi-0.dtd"
   xmlns="http://www.w3.org/2000/svg"
   xmlns:svg="http://www.w3.org/2000/svg"
   xmlns:rdf="http://www.w3.org/1999/02/22-rdf-syntax-ns#"
   xmlns:cc="http://creativecommons.org/ns#"
   xmlns:dc="http://purl.org/dc/elements/1.1/">
  <metadata
     id="metadata8">
    <rdf:RDF>
      <cc:Work
         rdf:about="">
        <dc:format>image/svg+xml</dc:format>
        <dc:type
           rdf:resource="http://purl.org/dc/dcmitype/StillImage" />
        <dc:title />
      </cc:Work>
    </rdf:RDF>
  </metadata>
  <defs
     id="defs6" />
  <sodipodi:namedview
     pagecolor="#ffffff"
     bordercolor="#666666"
     borderopacity="1"
     objecttolerance="10"
     gridtolerance="10"
     guidetolerance="10"
     inkscape:pageopacity="0"
     inkscape:pageshadow="2"
     inkscape:window-width="1336"
     inkscape:window-height="826"
     id="namedview4"
     showgrid="false"
     inkscape:zoom="2.3790316"
     inkscape:cx="141.65428"
     inkscape:cy="107.81698"
     inkscape:window-x="0"
     inkscape:window-y="37"
     inkscape:window-maximized="0"
     inkscape:current-layer="svg2"
     inkscape:showpageshadow="2"
     inkscape:pagecheckerboard="0"
     inkscape:deskcolor="#d1d1d1" />
  <g
     transform="matrix(3.7795276,0,0,3.7795276,839.71723,-951.9112)"
     id="layer1"
     inkscape:label="Layer 1">
    <path
       sodipodi:nodetypes="sssscssssccsssssssssssssssssscsssssssssss"
       id="path677"
       d="m -182.53263,298.21379 c -0.36707,-0.60683 -0.6449,-0.80481 -1.12946,-0.80481 -0.79947,0 -3.59348,-0.91562 -5.25314,-1.72151 -0.77921,-0.37837 -1.82313,-1.21484 -2.78005,-2.22761 0,0 -0.85425,-1.29284 -1.82353,-1.67855 -1.00772,-0.26608 -6.18222,-0.31718 -6.21278,0.64695 -0.0371,1.17048 -0.58957,1.11063 -3.24923,-0.21539 -1.38908,-0.69254 -2.65802,-1.5752 -3.40633,-2.29564 -0.62044,-0.59733 -0.78643,-1.03607 -1.23957,-1.58841 -1.15332,-1.40582 -1.05201,-2.07461 2.44188,-3.65037 2.2351,-1.07153 7.66127,-0.76973 9.56397,-2.58557 1.03517,-1.06381 0.32163,-2.42569 1.04531,-4.28039 0.91236,-2.33825 2.04767,-5.08707 0.87233,-7.45782 -0.51863,-1.04611 -1.29242,-2.49497 -1.29242,-2.59477 0,-0.226 2.01094,-1.469 3.41824,-1.48995 1.3572,-0.0201 3.01682,0.55382 3.82274,1.29234 1.59479,1.46143 2.23485,3.46574 2.27617,7.12767 0.0353,3.13153 0.14923,3.35736 1.48202,2.93816 0.68263,-0.21469 1.95096,-1.3126 5.14906,-4.45722 2.33383,-2.29478 4.82261,-4.8326 5.5306,-5.63959 1.41103,-1.60832 3.55668,-3.0749 6.32188,-4.32112 1.55101,-0.699 2.16539,-1.03867 5.40509,-0.99911 0.61232,0.007 1.5174,-0.41175 2.23827,-0.46104 2.96113,-0.20254 8.11206,0.83978 9.13338,1.75372 0.55051,0.49264 -0.58564,1.38798 -2.13215,1.71031 -1.36576,0.28466 -3.35709,0.80217 -5.20292,2.332 -1.05127,0.87129 -3.40181,3.22778 -5.93974,7.01142 -4.00093,5.96477 -7.88761,8.78541 -14.57802,11.00136 -1.83664,0.60832 -2.60006,0.4352 -2.22007,1.94759 0.17614,0.70103 2.01842,1.15777 3.59565,1.1568 1.74023,-10e-4 7.53959,-1.63651 10.90213,-3.12951 0.95621,-0.42455 2.05736,-0.77192 2.447,-0.77192 0.70262,0 0.70745,0.008 0.58606,1.05919 -0.30787,2.66429 -4.32229,7.74443 -5.94151,8.2632 -0.69345,0.22217 -1.44543,0.64043 -1.76957,0.98808 -0.94938,1.01821 -2.14651,2.08726 -3.55844,1.97117 -0.51843,-0.0427 -1.00951,0.35067 -1.37404,0.61354 -0.41199,0.29712 -1.26625,0.55097 -2.25772,0.67091 -0.87723,0.10608 -1.34212,0.0138 -1.85011,0.44183 -0.15019,0.12656 -0.76793,0.24889 -1.39466,0.24889 -1.05241,0 -1.17672,-0.0616 -1.62632,-0.80483 z"
       style="fill:#000000;stroke-width:0.23282611"
       inkscape:connector-curvature="0" />
  </g>
</svg>
