<?xml version="1.0" encoding="UTF-8" standalone="no"?><!DOCTYPE svg PUBLIC "-//W3C//DTD SVG 1.1//EN" "http://www.w3.org/Graphics/SVG/1.1/DTD/svg11.dtd"><svg width="100%" height="100%" viewBox="0 0 39 45" version="1.1" xmlns="http://www.w3.org/2000/svg" xmlns:xlink="http://www.w3.org/1999/xlink" xml:space="preserve" xmlns:serif="http://www.serif.com/" style="fill-rule:evenodd;clip-rule:evenodd;stroke-linejoin:round;stroke-miterlimit:2;"><path d="M14.431,26.893c-0.07,-0.024 -0.117,-0.09 -0.117,-0.164c-0,-0.049 0.021,-0.096 0.057,-0.129c3.92,-3.415 6.809,-7.857 8.34,-12.825c1.313,-4.432 1.133,-9.105 0.21,-13.687c0,-0.002 0,-0.004 0,-0.005c0,-0.046 0.038,-0.083 0.083,-0.083c0.027,0 0.052,0.013 0.067,0.035c4.466,10.823 5.223,22.827 2.153,34.125c-0.015,0.026 -0.042,0.041 -0.071,0.041c-0.03,0 -0.057,-0.015 -0.072,-0.041c-2.497,-3.63 -6.187,-5.812 -10.65,-7.267Z" style="fill:#78d5ff;fill-rule:nonzero;"/><path d="M0.084,36.838c12.844,-2.313 26.002,-2.262 38.827,0.15c0.046,0.012 0.078,0.054 0.078,0.101c-0,0.047 -0.032,0.089 -0.078,0.101c-3.119,1.391 -5.715,3.74 -7.41,6.705c-0.018,0.02 -0.044,0.031 -0.071,0.031c-0.027,0 -0.053,-0.011 -0.071,-0.031c-4.809,-2.852 -10.115,-4.766 -15.638,-5.64c-5.171,-0.819 -10.401,-1.221 -15.637,-1.2c-0.049,-0.013 -0.084,-0.058 -0.084,-0.108c0,-0.051 0.035,-0.096 0.084,-0.109Z" style="fill:#0089bf;fill-rule:nonzero;"/><path d="M0.039,38.945c6.579,-0.494 13.192,0.244 19.5,2.175c0.029,0 0.052,0.024 0.052,0.053c0,0.029 -0.023,0.052 -0.052,0.052c-1.732,0.43 -3.237,1.503 -4.208,3c-0.009,0.013 -0.025,0.02 -0.041,0.02c-0.016,0 -0.031,-0.007 -0.041,-0.02c-0.885,-1.395 -2.52,-2.115 -4.08,-2.677c-3.602,-1.286 -7.347,-2.127 -11.153,-2.505c-0.01,-0.011 -0.016,-0.026 -0.016,-0.041c-0,-0.025 0.016,-0.048 0.039,-0.057Z" style="fill:#b6c35c;fill-rule:nonzero;"/></svg>