<?xml version="1.0" encoding="UTF-8" standalone="no"?>
<!-- Created with Inkscape (http://www.inkscape.org/) -->

<svg
   xmlns:dc="http://purl.org/dc/elements/1.1/"
   xmlns:cc="http://creativecommons.org/ns#"
   xmlns:rdf="http://www.w3.org/1999/02/22-rdf-syntax-ns#"
   xmlns:svg="http://www.w3.org/2000/svg"
   xmlns="http://www.w3.org/2000/svg"
   xmlns:sodipodi="http://sodipodi.sourceforge.net/DTD/sodipodi-0.dtd"
   xmlns:inkscape="http://www.inkscape.org/namespaces/inkscape"
   version="1.1"
   id="svg2"
   xml:space="preserve"
   width="1172.5946"
   height="665.92529"
   viewBox="0 0 1172.5946 665.9253"
   sodipodi:docname="Wiosna – logo 1.svg"
   inkscape:version="0.92.4 (5da689c313, 2019-01-14)"><metadata
     id="metadata8"><rdf:RDF><cc:Work
         rdf:about=""><dc:format>image/svg+xml</dc:format><dc:type
           rdf:resource="http://purl.org/dc/dcmitype/StillImage" /><dc:title></dc:title></cc:Work></rdf:RDF></metadata><defs
     id="defs6"><clipPath
       clipPathUnits="userSpaceOnUse"
       id="clipPath30"><path
         d="M 0,651.309 H 1024 V 0 H 0 Z"
         id="path28"
         inkscape:connector-curvature="0" /></clipPath></defs><sodipodi:namedview
     pagecolor="#ffffff"
     bordercolor="#666666"
     borderopacity="1"
     objecttolerance="10"
     gridtolerance="10"
     guidetolerance="10"
     inkscape:pageopacity="0"
     inkscape:pageshadow="2"
     inkscape:window-width="640"
     inkscape:window-height="480"
     id="namedview4"
     showgrid="false"
     inkscape:zoom="0.27176041"
     inkscape:cx="604.66756"
     inkscape:cy="311.88053"
     inkscape:window-x="700"
     inkscape:window-y="327"
     inkscape:window-maximized="0"
     inkscape:current-layer="g10"
     fit-margin-top="0"
     fit-margin-left="0"
     fit-margin-right="0"
     fit-margin-bottom="0" /><g
     id="g10"
     inkscape:groupmode="layer"
     inkscape:label="Wiosna – logo (PDF)"
     transform="matrix(1.3333333,0,0,-1.3333333,-77.999065,788.25078)"><g
       id="g12"
       transform="translate(937.9453,91.7441)"><path
         d="m 0,0 -879.319,0.566 -0.127,498.878 879.321,-0.568 z"
         style="fill:#4f2b8b;fill-opacity:1;fill-rule:nonzero;stroke:none"
         id="path14"
         inkscape:connector-curvature="0" /></g><g
       id="g16"
       transform="translate(839.4355,431.8745)"><path
         d="m 0,0 -14.942,-50.346 -8.554,0.117 -12.284,34.94 -22.358,-6.576 15.393,-52.485 46.502,0.012 20.005,66.845 z"
         style="fill:#f48120;fill-opacity:1;fill-rule:nonzero;stroke:none"
         id="path18"
         inkscape:connector-curvature="0" /></g><g
       id="g20"
       transform="translate(324.3848,296.1733)"><path
         d="M 0,0 26.025,0.006 26.003,88.181 -0.022,88.175 Z"
         style="fill:#ffffff;fill-opacity:1;fill-rule:nonzero;stroke:none"
         id="path22"
         inkscape:connector-curvature="0" /></g><g
       id="g24"><g
         id="g26"
         clip-path="url(#clipPath30)"><g
           id="g32"
           transform="translate(513.5117,350.9712)"><path
             d="m 0,0 -0.02,0.004 c -7.116,1.892 -14.391,4.457 -14.392,9.141 -10e-4,2.497 1.416,4.595 3.886,5.757 4.312,2.029 12.318,0.367 19.582,-6.604 L 28.405,18.646 C 21.216,29.882 9.092,36.287 -5.103,36.284 -22.187,36.279 -39.424,27.38 -39.418,7.508 c 0.004,-19.336 16.911,-24.072 30.494,-27.878 7.825,-2.2 14.005,-3.938 14.007,-8.412 10e-4,-5.447 -6.68,-8.347 -11.503,-8.349 -6.963,-10e-4 -12.939,3.118 -18.723,9.802 L -43.071,-37.89 c 6.761,-12.989 19.614,-19.843 37.266,-19.839 17.646,0.005 36.497,7.567 36.492,28.778 C 30.683,-8.13 13.67,-3.622 0,0"
             style="fill:#ffffff;fill-opacity:1;fill-rule:nonzero;stroke:none"
             id="path34"
             inkscape:connector-curvature="0" /></g><g
           id="g36"
           transform="translate(586.0361,296.062)"><path
             d="m 0,0 -0.012,46.904 c -0.003,12.281 6.381,19.325 17.517,19.328 4.568,0 8.955,-1.823 12.034,-5.002 3.036,-3.133 4.559,-7.347 4.403,-12.185 L 34.283,-0.313 59.667,-0.307 59.653,54.5 C 59.649,68.229 53.357,79.221 41.933,85.452 29.426,92.275 13.183,91.815 1.518,84.308 l -1.612,-1.037 0.019,5.416 -25.654,-0.007 0.348,-88.635 z"
             style="fill:#ffffff;fill-opacity:1;fill-rule:nonzero;stroke:none"
             id="path38"
             inkscape:connector-curvature="0" /></g><g
           id="g40"
           transform="translate(721.5518,324.355)"><path
             d="m 0,0 c -4.208,-4.063 -9.132,-6.125 -14.631,-6.127 -5.977,-0.001 -10.979,2.019 -14.866,6.002 -3.88,3.977 -5.849,9.351 -5.85,15.971 -0.002,6.616 1.962,12.01 5.837,16.037 3.886,4.034 8.888,6.08 14.868,6.082 5.503,10e-4 10.428,-2.082 14.638,-6.194 C 4.214,27.654 6.354,22.301 6.355,15.855 6.356,9.409 4.219,4.073 0,0 m 12.301,59.9 0.002,-8.667 -2.05,1.707 c -7.708,6.42 -17.503,9.674 -29.11,9.671 -11.438,-0.003 -21.595,-4.482 -30.188,-13.311 -8.603,-8.844 -12.964,-20.108 -12.96,-33.482 0.004,-13.374 4.338,-24.605 12.886,-33.383 8.537,-8.769 18.726,-13.211 30.285,-13.208 11.495,0.002 21.292,3.204 29.121,9.518 l 2.033,1.639 0.002,-8.431 21.427,0.005 -0.022,87.948 z"
             style="fill:#ffffff;fill-opacity:1;fill-rule:nonzero;stroke:none"
             id="path42"
             inkscape:connector-curvature="0" /></g><g
           id="g44"
           transform="translate(276.1187,325.146)"><path
             d="m 0,0 h -2.546 l -20.957,59.184 -21.501,-0.006 -20.925,-59.195 -2.464,-10e-4 -5.836,59.189 -25.204,-0.006 10.261,-88.314 36.921,0.008 18.006,51.926 18.059,-51.916 36.889,0.009 9.902,88.319 -24.909,-0.006 z"
             style="fill:#ffffff;fill-opacity:1;fill-rule:nonzero;stroke:none"
             id="path46"
             inkscape:connector-curvature="0" /></g><g
           id="g48"
           transform="translate(414.1284,318.1558)"><path
             d="M 0,0 C -12.659,-0.003 -21.504,9.057 -21.507,22.032 -21.51,35.017 -12.67,44.087 -0.011,44.09 12.448,44.093 21.492,34.822 21.495,22.043 21.498,9.273 12.458,0.003 0,0 M -0.018,69.076 C -26.491,69.069 -47.225,48.402 -47.217,22.026 -47.211,-4.343 -26.467,-24.992 0.006,-24.985 26.48,-24.979 47.212,-4.318 47.207,22.05 47.2,48.426 26.456,69.082 -0.018,69.076"
             style="fill:#ffffff;fill-opacity:1;fill-rule:nonzero;stroke:none"
             id="path50"
             inkscape:connector-curvature="0" /></g></g></g></g></svg>